G04 #@! TF.GenerationSoftware,KiCad,Pcbnew,(5.1.5-0-10_14)*
G04 #@! TF.CreationDate,2020-08-07T19:06:49+02:00*
G04 #@! TF.ProjectId,roxie-lcd,726f7869-652d-46c6-9364-2e6b69636164,rev?*
G04 #@! TF.SameCoordinates,Original*
G04 #@! TF.FileFunction,Legend,Top*
G04 #@! TF.FilePolarity,Positive*
%FSLAX46Y46*%
G04 Gerber Fmt 4.6, Leading zero omitted, Abs format (unit mm)*
G04 Created by KiCad (PCBNEW (5.1.5-0-10_14)) date 2020-08-07 19:06:49*
%MOMM*%
%LPD*%
G04 APERTURE LIST*
%ADD10C,0.250000*%
%ADD11C,0.120000*%
%ADD12C,0.150000*%
G04 APERTURE END LIST*
D10*
X83152380Y-34461904D02*
X83152380Y-33890476D01*
X84152380Y-34176190D02*
X83152380Y-34176190D01*
X83152380Y-33652380D02*
X84152380Y-32985714D01*
X83152380Y-32985714D02*
X84152380Y-33652380D01*
X81552380Y-33866666D02*
X81076190Y-34200000D01*
X81552380Y-34438095D02*
X80552380Y-34438095D01*
X80552380Y-34057142D01*
X80600000Y-33961904D01*
X80647619Y-33914285D01*
X80742857Y-33866666D01*
X80885714Y-33866666D01*
X80980952Y-33914285D01*
X81028571Y-33961904D01*
X81076190Y-34057142D01*
X81076190Y-34438095D01*
X80552380Y-33533333D02*
X81552380Y-32866666D01*
X80552380Y-32866666D02*
X81552380Y-33533333D01*
X78100000Y-33961904D02*
X78052380Y-34057142D01*
X78052380Y-34200000D01*
X78100000Y-34342857D01*
X78195238Y-34438095D01*
X78290476Y-34485714D01*
X78480952Y-34533333D01*
X78623809Y-34533333D01*
X78814285Y-34485714D01*
X78909523Y-34438095D01*
X79004761Y-34342857D01*
X79052380Y-34200000D01*
X79052380Y-34104761D01*
X79004761Y-33961904D01*
X78957142Y-33914285D01*
X78623809Y-33914285D01*
X78623809Y-34104761D01*
X79052380Y-33485714D02*
X78052380Y-33485714D01*
X79052380Y-32914285D01*
X78052380Y-32914285D01*
X79052380Y-32438095D02*
X78052380Y-32438095D01*
X78052380Y-32200000D01*
X78100000Y-32057142D01*
X78195238Y-31961904D01*
X78290476Y-31914285D01*
X78480952Y-31866666D01*
X78623809Y-31866666D01*
X78814285Y-31914285D01*
X78909523Y-31961904D01*
X79004761Y-32057142D01*
X79052380Y-32200000D01*
X79052380Y-32438095D01*
X85652380Y-33890476D02*
X85652380Y-34366666D01*
X86128571Y-34414285D01*
X86080952Y-34366666D01*
X86033333Y-34271428D01*
X86033333Y-34033333D01*
X86080952Y-33938095D01*
X86128571Y-33890476D01*
X86223809Y-33842857D01*
X86461904Y-33842857D01*
X86557142Y-33890476D01*
X86604761Y-33938095D01*
X86652380Y-34033333D01*
X86652380Y-34271428D01*
X86604761Y-34366666D01*
X86557142Y-34414285D01*
X85652380Y-33557142D02*
X86652380Y-33223809D01*
X85652380Y-32890476D01*
X35338095Y-38600000D02*
X35242857Y-38552380D01*
X35100000Y-38552380D01*
X34957142Y-38600000D01*
X34861904Y-38695238D01*
X34814285Y-38790476D01*
X34766666Y-38980952D01*
X34766666Y-39123809D01*
X34814285Y-39314285D01*
X34861904Y-39409523D01*
X34957142Y-39504761D01*
X35100000Y-39552380D01*
X35195238Y-39552380D01*
X35338095Y-39504761D01*
X35385714Y-39457142D01*
X35385714Y-39123809D01*
X35195238Y-39123809D01*
X35814285Y-39552380D02*
X35814285Y-38552380D01*
X36385714Y-39552380D01*
X36385714Y-38552380D01*
X36861904Y-39552380D02*
X36861904Y-38552380D01*
X37100000Y-38552380D01*
X37242857Y-38600000D01*
X37338095Y-38695238D01*
X37385714Y-38790476D01*
X37433333Y-38980952D01*
X37433333Y-39123809D01*
X37385714Y-39314285D01*
X37338095Y-39409523D01*
X37242857Y-39504761D01*
X37100000Y-39552380D01*
X36861904Y-39552380D01*
X35309523Y-35952380D02*
X34833333Y-35952380D01*
X34785714Y-36428571D01*
X34833333Y-36380952D01*
X34928571Y-36333333D01*
X35166666Y-36333333D01*
X35261904Y-36380952D01*
X35309523Y-36428571D01*
X35357142Y-36523809D01*
X35357142Y-36761904D01*
X35309523Y-36857142D01*
X35261904Y-36904761D01*
X35166666Y-36952380D01*
X34928571Y-36952380D01*
X34833333Y-36904761D01*
X34785714Y-36857142D01*
X35642857Y-35952380D02*
X35976190Y-36952380D01*
X36309523Y-35952380D01*
D11*
X30000000Y-68400000D02*
X30000000Y-30000000D01*
X92500000Y-68400000D02*
X30000000Y-68400000D01*
X92500000Y-30000000D02*
X92500000Y-68400000D01*
X30000000Y-30000000D02*
X92500000Y-30000000D01*
X91330000Y-54330000D02*
X90000000Y-54330000D01*
X91330000Y-53000000D02*
X91330000Y-54330000D01*
X91330000Y-51730000D02*
X88670000Y-51730000D01*
X88670000Y-51730000D02*
X88670000Y-44050000D01*
X91330000Y-51730000D02*
X91330000Y-44050000D01*
X91330000Y-44050000D02*
X88670000Y-44050000D01*
X69670000Y-65330000D02*
X69670000Y-64000000D01*
X71000000Y-65330000D02*
X69670000Y-65330000D01*
X72270000Y-65330000D02*
X72270000Y-62670000D01*
X72270000Y-62670000D02*
X74870000Y-62670000D01*
X72270000Y-65330000D02*
X74870000Y-65330000D01*
X74870000Y-65330000D02*
X74870000Y-62670000D01*
X60670000Y-65330000D02*
X60670000Y-64000000D01*
X62000000Y-65330000D02*
X60670000Y-65330000D01*
X63270000Y-65330000D02*
X63270000Y-62670000D01*
X63270000Y-62670000D02*
X65870000Y-62670000D01*
X63270000Y-65330000D02*
X65870000Y-65330000D01*
X65870000Y-65330000D02*
X65870000Y-62670000D01*
X51670000Y-65330000D02*
X51670000Y-64000000D01*
X53000000Y-65330000D02*
X51670000Y-65330000D01*
X54270000Y-65330000D02*
X54270000Y-62670000D01*
X54270000Y-62670000D02*
X56870000Y-62670000D01*
X54270000Y-65330000D02*
X56870000Y-65330000D01*
X56870000Y-65330000D02*
X56870000Y-62670000D01*
X31170000Y-35170000D02*
X32500000Y-35170000D01*
X31170000Y-36500000D02*
X31170000Y-35170000D01*
X31170000Y-37770000D02*
X33830000Y-37770000D01*
X33830000Y-37770000D02*
X33830000Y-63230000D01*
X31170000Y-37770000D02*
X31170000Y-63230000D01*
X31170000Y-63230000D02*
X33830000Y-63230000D01*
X87430000Y-35470000D02*
X87430000Y-36800000D01*
X86100000Y-35470000D02*
X87430000Y-35470000D01*
X84830000Y-35470000D02*
X84830000Y-38130000D01*
X84830000Y-38130000D02*
X77150000Y-38130000D01*
X84830000Y-35470000D02*
X77150000Y-35470000D01*
X77150000Y-35470000D02*
X77150000Y-38130000D01*
D12*
X89666666Y-54782380D02*
X89666666Y-55496666D01*
X89619047Y-55639523D01*
X89523809Y-55734761D01*
X89380952Y-55782380D01*
X89285714Y-55782380D01*
X90047619Y-54782380D02*
X90714285Y-54782380D01*
X90285714Y-55782380D01*
X89214285Y-43454761D02*
X89357142Y-43502380D01*
X89595238Y-43502380D01*
X89690476Y-43454761D01*
X89738095Y-43407142D01*
X89785714Y-43311904D01*
X89785714Y-43216666D01*
X89738095Y-43121428D01*
X89690476Y-43073809D01*
X89595238Y-43026190D01*
X89404761Y-42978571D01*
X89309523Y-42930952D01*
X89261904Y-42883333D01*
X89214285Y-42788095D01*
X89214285Y-42692857D01*
X89261904Y-42597619D01*
X89309523Y-42550000D01*
X89404761Y-42502380D01*
X89642857Y-42502380D01*
X89785714Y-42550000D01*
X90214285Y-43502380D02*
X90214285Y-42502380D01*
X90452380Y-42502380D01*
X90595238Y-42550000D01*
X90690476Y-42645238D01*
X90738095Y-42740476D01*
X90785714Y-42930952D01*
X90785714Y-43073809D01*
X90738095Y-43264285D01*
X90690476Y-43359523D01*
X90595238Y-43454761D01*
X90452380Y-43502380D01*
X90214285Y-43502380D01*
X68122380Y-64333333D02*
X68836666Y-64333333D01*
X68979523Y-64380952D01*
X69074761Y-64476190D01*
X69122380Y-64619047D01*
X69122380Y-64714285D01*
X68122380Y-63428571D02*
X68122380Y-63619047D01*
X68170000Y-63714285D01*
X68217619Y-63761904D01*
X68360476Y-63857142D01*
X68550952Y-63904761D01*
X68931904Y-63904761D01*
X69027142Y-63857142D01*
X69074761Y-63809523D01*
X69122380Y-63714285D01*
X69122380Y-63523809D01*
X69074761Y-63428571D01*
X69027142Y-63380952D01*
X68931904Y-63333333D01*
X68693809Y-63333333D01*
X68598571Y-63380952D01*
X68550952Y-63428571D01*
X68503333Y-63523809D01*
X68503333Y-63714285D01*
X68550952Y-63809523D01*
X68598571Y-63857142D01*
X68693809Y-63904761D01*
X76028571Y-66919047D02*
X76076190Y-66776190D01*
X76123809Y-66728571D01*
X76219047Y-66680952D01*
X76361904Y-66680952D01*
X76457142Y-66728571D01*
X76504761Y-66776190D01*
X76552380Y-66871428D01*
X76552380Y-67252380D01*
X75552380Y-67252380D01*
X75552380Y-66919047D01*
X75600000Y-66823809D01*
X75647619Y-66776190D01*
X75742857Y-66728571D01*
X75838095Y-66728571D01*
X75933333Y-66776190D01*
X75980952Y-66823809D01*
X76028571Y-66919047D01*
X76028571Y-67252380D01*
X75552380Y-66252380D02*
X76361904Y-66252380D01*
X76457142Y-66204761D01*
X76504761Y-66157142D01*
X76552380Y-66061904D01*
X76552380Y-65871428D01*
X76504761Y-65776190D01*
X76457142Y-65728571D01*
X76361904Y-65680952D01*
X75552380Y-65680952D01*
X75552380Y-65347619D02*
X75552380Y-64776190D01*
X76552380Y-65061904D02*
X75552380Y-65061904D01*
X75552380Y-64585714D02*
X75552380Y-64014285D01*
X76552380Y-64300000D02*
X75552380Y-64300000D01*
X75552380Y-63490476D02*
X75552380Y-63300000D01*
X75600000Y-63204761D01*
X75695238Y-63109523D01*
X75885714Y-63061904D01*
X76219047Y-63061904D01*
X76409523Y-63109523D01*
X76504761Y-63204761D01*
X76552380Y-63300000D01*
X76552380Y-63490476D01*
X76504761Y-63585714D01*
X76409523Y-63680952D01*
X76219047Y-63728571D01*
X75885714Y-63728571D01*
X75695238Y-63680952D01*
X75600000Y-63585714D01*
X75552380Y-63490476D01*
X76552380Y-62633333D02*
X75552380Y-62633333D01*
X76552380Y-62061904D01*
X75552380Y-62061904D01*
X75552380Y-60919047D02*
X75552380Y-60300000D01*
X75933333Y-60633333D01*
X75933333Y-60490476D01*
X75980952Y-60395238D01*
X76028571Y-60347619D01*
X76123809Y-60300000D01*
X76361904Y-60300000D01*
X76457142Y-60347619D01*
X76504761Y-60395238D01*
X76552380Y-60490476D01*
X76552380Y-60776190D01*
X76504761Y-60871428D01*
X76457142Y-60919047D01*
X59122380Y-64333333D02*
X59836666Y-64333333D01*
X59979523Y-64380952D01*
X60074761Y-64476190D01*
X60122380Y-64619047D01*
X60122380Y-64714285D01*
X59122380Y-63380952D02*
X59122380Y-63857142D01*
X59598571Y-63904761D01*
X59550952Y-63857142D01*
X59503333Y-63761904D01*
X59503333Y-63523809D01*
X59550952Y-63428571D01*
X59598571Y-63380952D01*
X59693809Y-63333333D01*
X59931904Y-63333333D01*
X60027142Y-63380952D01*
X60074761Y-63428571D01*
X60122380Y-63523809D01*
X60122380Y-63761904D01*
X60074761Y-63857142D01*
X60027142Y-63904761D01*
X67028571Y-66919047D02*
X67076190Y-66776190D01*
X67123809Y-66728571D01*
X67219047Y-66680952D01*
X67361904Y-66680952D01*
X67457142Y-66728571D01*
X67504761Y-66776190D01*
X67552380Y-66871428D01*
X67552380Y-67252380D01*
X66552380Y-67252380D01*
X66552380Y-66919047D01*
X66600000Y-66823809D01*
X66647619Y-66776190D01*
X66742857Y-66728571D01*
X66838095Y-66728571D01*
X66933333Y-66776190D01*
X66980952Y-66823809D01*
X67028571Y-66919047D01*
X67028571Y-67252380D01*
X66552380Y-66252380D02*
X67361904Y-66252380D01*
X67457142Y-66204761D01*
X67504761Y-66157142D01*
X67552380Y-66061904D01*
X67552380Y-65871428D01*
X67504761Y-65776190D01*
X67457142Y-65728571D01*
X67361904Y-65680952D01*
X66552380Y-65680952D01*
X66552380Y-65347619D02*
X66552380Y-64776190D01*
X67552380Y-65061904D02*
X66552380Y-65061904D01*
X66552380Y-64585714D02*
X66552380Y-64014285D01*
X67552380Y-64300000D02*
X66552380Y-64300000D01*
X66552380Y-63490476D02*
X66552380Y-63300000D01*
X66600000Y-63204761D01*
X66695238Y-63109523D01*
X66885714Y-63061904D01*
X67219047Y-63061904D01*
X67409523Y-63109523D01*
X67504761Y-63204761D01*
X67552380Y-63300000D01*
X67552380Y-63490476D01*
X67504761Y-63585714D01*
X67409523Y-63680952D01*
X67219047Y-63728571D01*
X66885714Y-63728571D01*
X66695238Y-63680952D01*
X66600000Y-63585714D01*
X66552380Y-63490476D01*
X67552380Y-62633333D02*
X66552380Y-62633333D01*
X67552380Y-62061904D01*
X66552380Y-62061904D01*
X66647619Y-60871428D02*
X66600000Y-60823809D01*
X66552380Y-60728571D01*
X66552380Y-60490476D01*
X66600000Y-60395238D01*
X66647619Y-60347619D01*
X66742857Y-60300000D01*
X66838095Y-60300000D01*
X66980952Y-60347619D01*
X67552380Y-60919047D01*
X67552380Y-60300000D01*
X50122380Y-64333333D02*
X50836666Y-64333333D01*
X50979523Y-64380952D01*
X51074761Y-64476190D01*
X51122380Y-64619047D01*
X51122380Y-64714285D01*
X50455714Y-63428571D02*
X51122380Y-63428571D01*
X50074761Y-63666666D02*
X50789047Y-63904761D01*
X50789047Y-63285714D01*
X58028571Y-66919047D02*
X58076190Y-66776190D01*
X58123809Y-66728571D01*
X58219047Y-66680952D01*
X58361904Y-66680952D01*
X58457142Y-66728571D01*
X58504761Y-66776190D01*
X58552380Y-66871428D01*
X58552380Y-67252380D01*
X57552380Y-67252380D01*
X57552380Y-66919047D01*
X57600000Y-66823809D01*
X57647619Y-66776190D01*
X57742857Y-66728571D01*
X57838095Y-66728571D01*
X57933333Y-66776190D01*
X57980952Y-66823809D01*
X58028571Y-66919047D01*
X58028571Y-67252380D01*
X57552380Y-66252380D02*
X58361904Y-66252380D01*
X58457142Y-66204761D01*
X58504761Y-66157142D01*
X58552380Y-66061904D01*
X58552380Y-65871428D01*
X58504761Y-65776190D01*
X58457142Y-65728571D01*
X58361904Y-65680952D01*
X57552380Y-65680952D01*
X57552380Y-65347619D02*
X57552380Y-64776190D01*
X58552380Y-65061904D02*
X57552380Y-65061904D01*
X57552380Y-64585714D02*
X57552380Y-64014285D01*
X58552380Y-64300000D02*
X57552380Y-64300000D01*
X57552380Y-63490476D02*
X57552380Y-63300000D01*
X57600000Y-63204761D01*
X57695238Y-63109523D01*
X57885714Y-63061904D01*
X58219047Y-63061904D01*
X58409523Y-63109523D01*
X58504761Y-63204761D01*
X58552380Y-63300000D01*
X58552380Y-63490476D01*
X58504761Y-63585714D01*
X58409523Y-63680952D01*
X58219047Y-63728571D01*
X57885714Y-63728571D01*
X57695238Y-63680952D01*
X57600000Y-63585714D01*
X57552380Y-63490476D01*
X58552380Y-62633333D02*
X57552380Y-62633333D01*
X58552380Y-62061904D01*
X57552380Y-62061904D01*
X58552380Y-60300000D02*
X58552380Y-60871428D01*
X58552380Y-60585714D02*
X57552380Y-60585714D01*
X57695238Y-60680952D01*
X57790476Y-60776190D01*
X57838095Y-60871428D01*
X32166666Y-33622380D02*
X32166666Y-34336666D01*
X32119047Y-34479523D01*
X32023809Y-34574761D01*
X31880952Y-34622380D01*
X31785714Y-34622380D01*
X32547619Y-33622380D02*
X33166666Y-33622380D01*
X32833333Y-34003333D01*
X32976190Y-34003333D01*
X33071428Y-34050952D01*
X33119047Y-34098571D01*
X33166666Y-34193809D01*
X33166666Y-34431904D01*
X33119047Y-34527142D01*
X33071428Y-34574761D01*
X32976190Y-34622380D01*
X32690476Y-34622380D01*
X32595238Y-34574761D01*
X32547619Y-34527142D01*
X34604761Y-61452380D02*
X35176190Y-61452380D01*
X34890476Y-62452380D02*
X34890476Y-61452380D01*
X35842857Y-61928571D02*
X35509523Y-61928571D01*
X35509523Y-62452380D02*
X35509523Y-61452380D01*
X35985714Y-61452380D01*
X36223809Y-61452380D02*
X36795238Y-61452380D01*
X36509523Y-62452380D02*
X36509523Y-61452380D01*
X87882380Y-37133333D02*
X88596666Y-37133333D01*
X88739523Y-37180952D01*
X88834761Y-37276190D01*
X88882380Y-37419047D01*
X88882380Y-37514285D01*
X87977619Y-36704761D02*
X87930000Y-36657142D01*
X87882380Y-36561904D01*
X87882380Y-36323809D01*
X87930000Y-36228571D01*
X87977619Y-36180952D01*
X88072857Y-36133333D01*
X88168095Y-36133333D01*
X88310952Y-36180952D01*
X88882380Y-36752380D01*
X88882380Y-36133333D01*
X75602380Y-38561904D02*
X76602380Y-38228571D01*
X75602380Y-37895238D01*
X76078571Y-37561904D02*
X76078571Y-37228571D01*
X76602380Y-37085714D02*
X76602380Y-37561904D01*
X75602380Y-37561904D01*
X75602380Y-37085714D01*
X76554761Y-36704761D02*
X76602380Y-36561904D01*
X76602380Y-36323809D01*
X76554761Y-36228571D01*
X76507142Y-36180952D01*
X76411904Y-36133333D01*
X76316666Y-36133333D01*
X76221428Y-36180952D01*
X76173809Y-36228571D01*
X76126190Y-36323809D01*
X76078571Y-36514285D01*
X76030952Y-36609523D01*
X75983333Y-36657142D01*
X75888095Y-36704761D01*
X75792857Y-36704761D01*
X75697619Y-36657142D01*
X75650000Y-36609523D01*
X75602380Y-36514285D01*
X75602380Y-36276190D01*
X75650000Y-36133333D01*
X76507142Y-35133333D02*
X76554761Y-35180952D01*
X76602380Y-35323809D01*
X76602380Y-35419047D01*
X76554761Y-35561904D01*
X76459523Y-35657142D01*
X76364285Y-35704761D01*
X76173809Y-35752380D01*
X76030952Y-35752380D01*
X75840476Y-35704761D01*
X75745238Y-35657142D01*
X75650000Y-35561904D01*
X75602380Y-35419047D01*
X75602380Y-35323809D01*
X75650000Y-35180952D01*
X75697619Y-35133333D01*
X58214285Y-49966666D02*
X58690476Y-49966666D01*
X58119047Y-50252380D02*
X58452380Y-49252380D01*
X58785714Y-50252380D01*
X59119047Y-50252380D02*
X59119047Y-49585714D01*
X59119047Y-49776190D02*
X59166666Y-49680952D01*
X59214285Y-49633333D01*
X59309523Y-49585714D01*
X59404761Y-49585714D01*
X60166666Y-50252380D02*
X60166666Y-49252380D01*
X60166666Y-50204761D02*
X60071428Y-50252380D01*
X59880952Y-50252380D01*
X59785714Y-50204761D01*
X59738095Y-50157142D01*
X59690476Y-50061904D01*
X59690476Y-49776190D01*
X59738095Y-49680952D01*
X59785714Y-49633333D01*
X59880952Y-49585714D01*
X60071428Y-49585714D01*
X60166666Y-49633333D01*
X61071428Y-49585714D02*
X61071428Y-50252380D01*
X60642857Y-49585714D02*
X60642857Y-50109523D01*
X60690476Y-50204761D01*
X60785714Y-50252380D01*
X60928571Y-50252380D01*
X61023809Y-50204761D01*
X61071428Y-50157142D01*
X61547619Y-50252380D02*
X61547619Y-49585714D01*
X61547619Y-49252380D02*
X61500000Y-49300000D01*
X61547619Y-49347619D01*
X61595238Y-49300000D01*
X61547619Y-49252380D01*
X61547619Y-49347619D01*
X62023809Y-49585714D02*
X62023809Y-50252380D01*
X62023809Y-49680952D02*
X62071428Y-49633333D01*
X62166666Y-49585714D01*
X62309523Y-49585714D01*
X62404761Y-49633333D01*
X62452380Y-49728571D01*
X62452380Y-50252380D01*
X63071428Y-50252380D02*
X62976190Y-50204761D01*
X62928571Y-50157142D01*
X62880952Y-50061904D01*
X62880952Y-49776190D01*
X62928571Y-49680952D01*
X62976190Y-49633333D01*
X63071428Y-49585714D01*
X63214285Y-49585714D01*
X63309523Y-49633333D01*
X63357142Y-49680952D01*
X63404761Y-49776190D01*
X63404761Y-50061904D01*
X63357142Y-50157142D01*
X63309523Y-50204761D01*
X63214285Y-50252380D01*
X63071428Y-50252380D01*
X63833333Y-49871428D02*
X64595238Y-49871428D01*
X65071428Y-50252380D02*
X65071428Y-49252380D01*
X65642857Y-50252380D01*
X65642857Y-49252380D01*
X66071428Y-49966666D02*
X66547619Y-49966666D01*
X65976190Y-50252380D02*
X66309523Y-49252380D01*
X66642857Y-50252380D01*
X66976190Y-50252380D02*
X66976190Y-49252380D01*
X67547619Y-50252380D01*
X67547619Y-49252380D01*
X68214285Y-49252380D02*
X68404761Y-49252380D01*
X68500000Y-49300000D01*
X68595238Y-49395238D01*
X68642857Y-49585714D01*
X68642857Y-49919047D01*
X68595238Y-50109523D01*
X68500000Y-50204761D01*
X68404761Y-50252380D01*
X68214285Y-50252380D01*
X68119047Y-50204761D01*
X68023809Y-50109523D01*
X67976190Y-49919047D01*
X67976190Y-49585714D01*
X68023809Y-49395238D01*
X68119047Y-49300000D01*
X68214285Y-49252380D01*
X69071428Y-49871428D02*
X69833333Y-49871428D01*
X70309523Y-49728571D02*
X70642857Y-49728571D01*
X70785714Y-50252380D02*
X70309523Y-50252380D01*
X70309523Y-49252380D01*
X70785714Y-49252380D01*
X71119047Y-49585714D02*
X71357142Y-50252380D01*
X71595238Y-49585714D01*
X72357142Y-50204761D02*
X72261904Y-50252380D01*
X72071428Y-50252380D01*
X71976190Y-50204761D01*
X71928571Y-50109523D01*
X71928571Y-49728571D01*
X71976190Y-49633333D01*
X72071428Y-49585714D01*
X72261904Y-49585714D01*
X72357142Y-49633333D01*
X72404761Y-49728571D01*
X72404761Y-49823809D01*
X71928571Y-49919047D01*
X72833333Y-50252380D02*
X72833333Y-49585714D01*
X72833333Y-49776190D02*
X72880952Y-49680952D01*
X72928571Y-49633333D01*
X73023809Y-49585714D01*
X73119047Y-49585714D01*
X73357142Y-49585714D02*
X73595238Y-50252380D01*
X73833333Y-49585714D02*
X73595238Y-50252380D01*
X73500000Y-50490476D01*
X73452380Y-50538095D01*
X73357142Y-50585714D01*
M02*
