M48
; DRILL file {KiCad (5.1.5-0-10_14)} date 2020 August 07, Friday 19:06:37
; FORMAT={3:3/ absolute / metric / suppress leading zeros}
; #@! TF.CreationDate,2020-08-07T19:06:37+02:00
; #@! TF.GenerationSoftware,Kicad,Pcbnew,(5.1.5-0-10_14)
FMAT,2
METRIC,TZ
T1C0.400
T2C1.000
T3C3.200
%
G90
G05
T1
X35000Y-40000
X35000Y-44000
X35000Y-48000
X37000Y-32000
X37000Y-67000
X38400Y-55100
X39000Y-40000
X39000Y-44000
X39000Y-48000
X42000Y-63000
X42000Y-67000
X43000Y-40000
X43000Y-44000
X45000Y-32000
X46100Y-57500
X47000Y-63000
X47000Y-67000
X53000Y-32000
X55000Y-52000
X60000Y-46000
X60000Y-49000
X60000Y-52000
X62000Y-32000
X65000Y-46000
X65000Y-49000
X65000Y-52000
X70000Y-32000
X70000Y-46000
X70000Y-49000
X70000Y-52000
X75000Y-37000
X75000Y-46000
X75000Y-49000
X75000Y-52000
X78000Y-62000
X78000Y-67000
X79000Y-32000
X79000Y-46000
X84000Y-62000
X84000Y-67000
X85000Y-50000
X85000Y-53000
X90000Y-38000
X90000Y-41200
X90000Y-57000
X90000Y-62000
T2
X62000Y-64000
X64540Y-64000
X53000Y-64000
X55540Y-64000
X78480Y-36800
X81020Y-36800
X83560Y-36800
X86100Y-36800
X90000Y-45380
X90000Y-47920
X90000Y-50460
X90000Y-53000
X32500Y-36500
X32500Y-39040
X32500Y-41580
X32500Y-44120
X32500Y-46660
X32500Y-49200
X32500Y-51740
X32500Y-54280
X32500Y-56820
X32500Y-59360
X32500Y-61900
X71000Y-64000
X73540Y-64000
T3
X32600Y-65800
X89900Y-65800
X32600Y-32600
X89900Y-32600
T0
M30
