G04 #@! TF.GenerationSoftware,KiCad,Pcbnew,(5.1.5-0-10_14)*
G04 #@! TF.CreationDate,2020-08-07T19:06:48+02:00*
G04 #@! TF.ProjectId,roxie-lcd,726f7869-652d-46c6-9364-2e6b69636164,rev?*
G04 #@! TF.SameCoordinates,Original*
G04 #@! TF.FileFunction,Copper,L2,Bot*
G04 #@! TF.FilePolarity,Positive*
%FSLAX46Y46*%
G04 Gerber Fmt 4.6, Leading zero omitted, Abs format (unit mm)*
G04 Created by KiCad (PCBNEW (5.1.5-0-10_14)) date 2020-08-07 19:06:48*
%MOMM*%
%LPD*%
G04 APERTURE LIST*
%ADD10O,1.700000X1.700000*%
%ADD11R,1.700000X1.700000*%
%ADD12C,0.800000*%
%ADD13C,0.500000*%
%ADD14C,0.254000*%
G04 APERTURE END LIST*
D10*
X90000000Y-45380000D03*
X90000000Y-47920000D03*
X90000000Y-50460000D03*
D11*
X90000000Y-53000000D03*
D10*
X73540000Y-64000000D03*
D11*
X71000000Y-64000000D03*
D10*
X64540000Y-64000000D03*
D11*
X62000000Y-64000000D03*
D10*
X55540000Y-64000000D03*
D11*
X53000000Y-64000000D03*
D10*
X32500000Y-61900000D03*
X32500000Y-59360000D03*
X32500000Y-56820000D03*
X32500000Y-54280000D03*
X32500000Y-51740000D03*
X32500000Y-49200000D03*
X32500000Y-46660000D03*
X32500000Y-44120000D03*
X32500000Y-41580000D03*
X32500000Y-39040000D03*
D11*
X32500000Y-36500000D03*
D10*
X78480000Y-36800000D03*
X81020000Y-36800000D03*
X83560000Y-36800000D03*
D11*
X86100000Y-36800000D03*
D12*
X38400000Y-55100000D03*
X60000000Y-46000000D03*
X60000000Y-49000000D03*
X60000000Y-52000000D03*
X65000000Y-52000000D03*
X65000000Y-49000000D03*
X65000000Y-46000000D03*
X70000000Y-46000000D03*
X70000000Y-49000000D03*
X70000000Y-52000000D03*
X39000000Y-40000000D03*
X43000000Y-40000000D03*
X43000000Y-44000000D03*
X39000000Y-44000000D03*
X39000000Y-48000000D03*
X37000000Y-32000000D03*
X45000000Y-32000000D03*
X53000000Y-32000000D03*
X62000000Y-32000000D03*
X70000000Y-32000000D03*
X79000000Y-32000000D03*
X75000000Y-46000000D03*
X75000000Y-49000000D03*
X90000000Y-38000000D03*
X90000000Y-41200000D03*
X90000000Y-57000000D03*
X90000000Y-62000000D03*
X84000000Y-67000000D03*
X84000000Y-62000000D03*
X78000000Y-62000000D03*
X78000000Y-67000000D03*
X47000000Y-63000000D03*
X47000000Y-67000000D03*
X42000000Y-67000000D03*
X37000000Y-67000000D03*
X75000000Y-37000000D03*
X85000000Y-53000000D03*
X35000000Y-40000000D03*
X35000000Y-44000000D03*
X35000000Y-48000000D03*
X75000000Y-52000000D03*
X79000000Y-46000000D03*
X55000000Y-52000000D03*
X85000000Y-50000000D03*
X42000000Y-63000000D03*
X46100000Y-57500000D03*
D13*
X36760000Y-55100000D02*
X32500000Y-59360000D01*
X38400000Y-55100000D02*
X36760000Y-55100000D01*
X46100000Y-57500000D02*
X46100000Y-56934315D01*
X33702081Y-51740000D02*
X32500000Y-51740000D01*
X46100000Y-56934315D02*
X40905685Y-51740000D01*
X40905685Y-51740000D02*
X33702081Y-51740000D01*
D14*
G36*
X89260959Y-30448327D02*
G01*
X89248075Y-30450890D01*
X88841331Y-30619369D01*
X88475271Y-30863962D01*
X88163962Y-31175271D01*
X87919369Y-31541331D01*
X87750890Y-31948075D01*
X87665000Y-32379872D01*
X87665000Y-32820128D01*
X87750890Y-33251925D01*
X87919369Y-33658669D01*
X88163962Y-34024729D01*
X88475271Y-34336038D01*
X88841331Y-34580631D01*
X89248075Y-34749110D01*
X89679872Y-34835000D01*
X90120128Y-34835000D01*
X90551925Y-34749110D01*
X90958669Y-34580631D01*
X91324729Y-34336038D01*
X91636038Y-34024729D01*
X91880631Y-33658669D01*
X92049110Y-33251925D01*
X92135000Y-32820128D01*
X92135000Y-32379872D01*
X92049110Y-31948075D01*
X91880631Y-31541331D01*
X91636038Y-31175271D01*
X91324729Y-30863962D01*
X90958669Y-30619369D01*
X90551925Y-30450890D01*
X90546855Y-30449881D01*
X92173000Y-30451847D01*
X92173000Y-68147846D01*
X30426833Y-68073153D01*
X30424522Y-66319366D01*
X30450890Y-66451925D01*
X30619369Y-66858669D01*
X30863962Y-67224729D01*
X31175271Y-67536038D01*
X31541331Y-67780631D01*
X31948075Y-67949110D01*
X32379872Y-68035000D01*
X32820128Y-68035000D01*
X33251925Y-67949110D01*
X33658669Y-67780631D01*
X34024729Y-67536038D01*
X34336038Y-67224729D01*
X34580631Y-66858669D01*
X34749110Y-66451925D01*
X34835000Y-66020128D01*
X34835000Y-65579872D01*
X87665000Y-65579872D01*
X87665000Y-66020128D01*
X87750890Y-66451925D01*
X87919369Y-66858669D01*
X88163962Y-67224729D01*
X88475271Y-67536038D01*
X88841331Y-67780631D01*
X89248075Y-67949110D01*
X89679872Y-68035000D01*
X90120128Y-68035000D01*
X90551925Y-67949110D01*
X90958669Y-67780631D01*
X91324729Y-67536038D01*
X91636038Y-67224729D01*
X91880631Y-66858669D01*
X92049110Y-66451925D01*
X92135000Y-66020128D01*
X92135000Y-65579872D01*
X92049110Y-65148075D01*
X91880631Y-64741331D01*
X91636038Y-64375271D01*
X91324729Y-64063962D01*
X90958669Y-63819369D01*
X90551925Y-63650890D01*
X90120128Y-63565000D01*
X89679872Y-63565000D01*
X89248075Y-63650890D01*
X88841331Y-63819369D01*
X88475271Y-64063962D01*
X88163962Y-64375271D01*
X87919369Y-64741331D01*
X87750890Y-65148075D01*
X87665000Y-65579872D01*
X34835000Y-65579872D01*
X34749110Y-65148075D01*
X34580631Y-64741331D01*
X34336038Y-64375271D01*
X34024729Y-64063962D01*
X33658669Y-63819369D01*
X33251925Y-63650890D01*
X32820128Y-63565000D01*
X32379872Y-63565000D01*
X31948075Y-63650890D01*
X31541331Y-63819369D01*
X31175271Y-64063962D01*
X30863962Y-64375271D01*
X30619369Y-64741331D01*
X30450890Y-65148075D01*
X30423163Y-65287469D01*
X30395082Y-43973740D01*
X31015000Y-43973740D01*
X31015000Y-44266260D01*
X31072068Y-44553158D01*
X31184010Y-44823411D01*
X31346525Y-45066632D01*
X31553368Y-45273475D01*
X31727760Y-45390000D01*
X31553368Y-45506525D01*
X31346525Y-45713368D01*
X31184010Y-45956589D01*
X31072068Y-46226842D01*
X31015000Y-46513740D01*
X31015000Y-46806260D01*
X31072068Y-47093158D01*
X31184010Y-47363411D01*
X31346525Y-47606632D01*
X31553368Y-47813475D01*
X31727760Y-47930000D01*
X31553368Y-48046525D01*
X31346525Y-48253368D01*
X31184010Y-48496589D01*
X31072068Y-48766842D01*
X31015000Y-49053740D01*
X31015000Y-49346260D01*
X31072068Y-49633158D01*
X31184010Y-49903411D01*
X31346525Y-50146632D01*
X31553368Y-50353475D01*
X31727760Y-50470000D01*
X31553368Y-50586525D01*
X31346525Y-50793368D01*
X31184010Y-51036589D01*
X31072068Y-51306842D01*
X31015000Y-51593740D01*
X31015000Y-51886260D01*
X31072068Y-52173158D01*
X31184010Y-52443411D01*
X31346525Y-52686632D01*
X31553368Y-52893475D01*
X31727760Y-53010000D01*
X31553368Y-53126525D01*
X31346525Y-53333368D01*
X31184010Y-53576589D01*
X31072068Y-53846842D01*
X31015000Y-54133740D01*
X31015000Y-54426260D01*
X31072068Y-54713158D01*
X31184010Y-54983411D01*
X31346525Y-55226632D01*
X31553368Y-55433475D01*
X31727760Y-55550000D01*
X31553368Y-55666525D01*
X31346525Y-55873368D01*
X31184010Y-56116589D01*
X31072068Y-56386842D01*
X31015000Y-56673740D01*
X31015000Y-56966260D01*
X31072068Y-57253158D01*
X31184010Y-57523411D01*
X31346525Y-57766632D01*
X31553368Y-57973475D01*
X31727760Y-58090000D01*
X31553368Y-58206525D01*
X31346525Y-58413368D01*
X31184010Y-58656589D01*
X31072068Y-58926842D01*
X31015000Y-59213740D01*
X31015000Y-59506260D01*
X31072068Y-59793158D01*
X31184010Y-60063411D01*
X31346525Y-60306632D01*
X31553368Y-60513475D01*
X31727760Y-60630000D01*
X31553368Y-60746525D01*
X31346525Y-60953368D01*
X31184010Y-61196589D01*
X31072068Y-61466842D01*
X31015000Y-61753740D01*
X31015000Y-62046260D01*
X31072068Y-62333158D01*
X31184010Y-62603411D01*
X31346525Y-62846632D01*
X31553368Y-63053475D01*
X31796589Y-63215990D01*
X32066842Y-63327932D01*
X32353740Y-63385000D01*
X32646260Y-63385000D01*
X32933158Y-63327932D01*
X33203411Y-63215990D01*
X33302172Y-63150000D01*
X51511928Y-63150000D01*
X51511928Y-64850000D01*
X51524188Y-64974482D01*
X51560498Y-65094180D01*
X51619463Y-65204494D01*
X51698815Y-65301185D01*
X51795506Y-65380537D01*
X51905820Y-65439502D01*
X52025518Y-65475812D01*
X52150000Y-65488072D01*
X53850000Y-65488072D01*
X53974482Y-65475812D01*
X54094180Y-65439502D01*
X54204494Y-65380537D01*
X54301185Y-65301185D01*
X54380537Y-65204494D01*
X54439502Y-65094180D01*
X54463966Y-65013534D01*
X54539731Y-65097588D01*
X54773080Y-65271641D01*
X55035901Y-65396825D01*
X55183110Y-65441476D01*
X55413000Y-65320155D01*
X55413000Y-64127000D01*
X55667000Y-64127000D01*
X55667000Y-65320155D01*
X55896890Y-65441476D01*
X56044099Y-65396825D01*
X56306920Y-65271641D01*
X56540269Y-65097588D01*
X56735178Y-64881355D01*
X56884157Y-64631252D01*
X56981481Y-64356891D01*
X56860814Y-64127000D01*
X55667000Y-64127000D01*
X55413000Y-64127000D01*
X55393000Y-64127000D01*
X55393000Y-63873000D01*
X55413000Y-63873000D01*
X55413000Y-62679845D01*
X55667000Y-62679845D01*
X55667000Y-63873000D01*
X56860814Y-63873000D01*
X56981481Y-63643109D01*
X56884157Y-63368748D01*
X56753856Y-63150000D01*
X60511928Y-63150000D01*
X60511928Y-64850000D01*
X60524188Y-64974482D01*
X60560498Y-65094180D01*
X60619463Y-65204494D01*
X60698815Y-65301185D01*
X60795506Y-65380537D01*
X60905820Y-65439502D01*
X61025518Y-65475812D01*
X61150000Y-65488072D01*
X62850000Y-65488072D01*
X62974482Y-65475812D01*
X63094180Y-65439502D01*
X63204494Y-65380537D01*
X63301185Y-65301185D01*
X63380537Y-65204494D01*
X63439502Y-65094180D01*
X63463966Y-65013534D01*
X63539731Y-65097588D01*
X63773080Y-65271641D01*
X64035901Y-65396825D01*
X64183110Y-65441476D01*
X64413000Y-65320155D01*
X64413000Y-64127000D01*
X64667000Y-64127000D01*
X64667000Y-65320155D01*
X64896890Y-65441476D01*
X65044099Y-65396825D01*
X65306920Y-65271641D01*
X65540269Y-65097588D01*
X65735178Y-64881355D01*
X65884157Y-64631252D01*
X65981481Y-64356891D01*
X65860814Y-64127000D01*
X64667000Y-64127000D01*
X64413000Y-64127000D01*
X64393000Y-64127000D01*
X64393000Y-63873000D01*
X64413000Y-63873000D01*
X64413000Y-62679845D01*
X64667000Y-62679845D01*
X64667000Y-63873000D01*
X65860814Y-63873000D01*
X65981481Y-63643109D01*
X65884157Y-63368748D01*
X65753856Y-63150000D01*
X69511928Y-63150000D01*
X69511928Y-64850000D01*
X69524188Y-64974482D01*
X69560498Y-65094180D01*
X69619463Y-65204494D01*
X69698815Y-65301185D01*
X69795506Y-65380537D01*
X69905820Y-65439502D01*
X70025518Y-65475812D01*
X70150000Y-65488072D01*
X71850000Y-65488072D01*
X71974482Y-65475812D01*
X72094180Y-65439502D01*
X72204494Y-65380537D01*
X72301185Y-65301185D01*
X72380537Y-65204494D01*
X72439502Y-65094180D01*
X72463966Y-65013534D01*
X72539731Y-65097588D01*
X72773080Y-65271641D01*
X73035901Y-65396825D01*
X73183110Y-65441476D01*
X73413000Y-65320155D01*
X73413000Y-64127000D01*
X73667000Y-64127000D01*
X73667000Y-65320155D01*
X73896890Y-65441476D01*
X74044099Y-65396825D01*
X74306920Y-65271641D01*
X74540269Y-65097588D01*
X74735178Y-64881355D01*
X74884157Y-64631252D01*
X74981481Y-64356891D01*
X74860814Y-64127000D01*
X73667000Y-64127000D01*
X73413000Y-64127000D01*
X73393000Y-64127000D01*
X73393000Y-63873000D01*
X73413000Y-63873000D01*
X73413000Y-62679845D01*
X73667000Y-62679845D01*
X73667000Y-63873000D01*
X74860814Y-63873000D01*
X74981481Y-63643109D01*
X74884157Y-63368748D01*
X74735178Y-63118645D01*
X74540269Y-62902412D01*
X74306920Y-62728359D01*
X74044099Y-62603175D01*
X73896890Y-62558524D01*
X73667000Y-62679845D01*
X73413000Y-62679845D01*
X73183110Y-62558524D01*
X73035901Y-62603175D01*
X72773080Y-62728359D01*
X72539731Y-62902412D01*
X72463966Y-62986466D01*
X72439502Y-62905820D01*
X72380537Y-62795506D01*
X72301185Y-62698815D01*
X72204494Y-62619463D01*
X72094180Y-62560498D01*
X71974482Y-62524188D01*
X71850000Y-62511928D01*
X70150000Y-62511928D01*
X70025518Y-62524188D01*
X69905820Y-62560498D01*
X69795506Y-62619463D01*
X69698815Y-62698815D01*
X69619463Y-62795506D01*
X69560498Y-62905820D01*
X69524188Y-63025518D01*
X69511928Y-63150000D01*
X65753856Y-63150000D01*
X65735178Y-63118645D01*
X65540269Y-62902412D01*
X65306920Y-62728359D01*
X65044099Y-62603175D01*
X64896890Y-62558524D01*
X64667000Y-62679845D01*
X64413000Y-62679845D01*
X64183110Y-62558524D01*
X64035901Y-62603175D01*
X63773080Y-62728359D01*
X63539731Y-62902412D01*
X63463966Y-62986466D01*
X63439502Y-62905820D01*
X63380537Y-62795506D01*
X63301185Y-62698815D01*
X63204494Y-62619463D01*
X63094180Y-62560498D01*
X62974482Y-62524188D01*
X62850000Y-62511928D01*
X61150000Y-62511928D01*
X61025518Y-62524188D01*
X60905820Y-62560498D01*
X60795506Y-62619463D01*
X60698815Y-62698815D01*
X60619463Y-62795506D01*
X60560498Y-62905820D01*
X60524188Y-63025518D01*
X60511928Y-63150000D01*
X56753856Y-63150000D01*
X56735178Y-63118645D01*
X56540269Y-62902412D01*
X56306920Y-62728359D01*
X56044099Y-62603175D01*
X55896890Y-62558524D01*
X55667000Y-62679845D01*
X55413000Y-62679845D01*
X55183110Y-62558524D01*
X55035901Y-62603175D01*
X54773080Y-62728359D01*
X54539731Y-62902412D01*
X54463966Y-62986466D01*
X54439502Y-62905820D01*
X54380537Y-62795506D01*
X54301185Y-62698815D01*
X54204494Y-62619463D01*
X54094180Y-62560498D01*
X53974482Y-62524188D01*
X53850000Y-62511928D01*
X52150000Y-62511928D01*
X52025518Y-62524188D01*
X51905820Y-62560498D01*
X51795506Y-62619463D01*
X51698815Y-62698815D01*
X51619463Y-62795506D01*
X51560498Y-62905820D01*
X51524188Y-63025518D01*
X51511928Y-63150000D01*
X33302172Y-63150000D01*
X33446632Y-63053475D01*
X33653475Y-62846632D01*
X33815990Y-62603411D01*
X33927932Y-62333158D01*
X33985000Y-62046260D01*
X33985000Y-61753740D01*
X33927932Y-61466842D01*
X33815990Y-61196589D01*
X33653475Y-60953368D01*
X33446632Y-60746525D01*
X33272240Y-60630000D01*
X33446632Y-60513475D01*
X33653475Y-60306632D01*
X33815990Y-60063411D01*
X33927932Y-59793158D01*
X33985000Y-59506260D01*
X33985000Y-59213740D01*
X33970539Y-59141039D01*
X37126579Y-55985000D01*
X37861546Y-55985000D01*
X37909744Y-56017205D01*
X38098102Y-56095226D01*
X38298061Y-56135000D01*
X38501939Y-56135000D01*
X38701898Y-56095226D01*
X38890256Y-56017205D01*
X39059774Y-55903937D01*
X39203937Y-55759774D01*
X39317205Y-55590256D01*
X39395226Y-55401898D01*
X39435000Y-55201939D01*
X39435000Y-54998061D01*
X39395226Y-54798102D01*
X39317205Y-54609744D01*
X39203937Y-54440226D01*
X39059774Y-54296063D01*
X38890256Y-54182795D01*
X38701898Y-54104774D01*
X38501939Y-54065000D01*
X38298061Y-54065000D01*
X38098102Y-54104774D01*
X37909744Y-54182795D01*
X37861546Y-54215000D01*
X36803469Y-54215000D01*
X36760000Y-54210719D01*
X36716531Y-54215000D01*
X36716523Y-54215000D01*
X36586510Y-54227805D01*
X36419687Y-54278411D01*
X36265941Y-54360589D01*
X36164953Y-54443468D01*
X36164951Y-54443470D01*
X36131183Y-54471183D01*
X36103470Y-54504951D01*
X33976652Y-56631770D01*
X33927932Y-56386842D01*
X33815990Y-56116589D01*
X33653475Y-55873368D01*
X33446632Y-55666525D01*
X33272240Y-55550000D01*
X33446632Y-55433475D01*
X33653475Y-55226632D01*
X33815990Y-54983411D01*
X33927932Y-54713158D01*
X33985000Y-54426260D01*
X33985000Y-54133740D01*
X33927932Y-53846842D01*
X33815990Y-53576589D01*
X33653475Y-53333368D01*
X33446632Y-53126525D01*
X33272240Y-53010000D01*
X33446632Y-52893475D01*
X33653475Y-52686632D01*
X33694656Y-52625000D01*
X40539107Y-52625000D01*
X45106951Y-57192845D01*
X45104774Y-57198102D01*
X45065000Y-57398061D01*
X45065000Y-57601939D01*
X45104774Y-57801898D01*
X45182795Y-57990256D01*
X45296063Y-58159774D01*
X45440226Y-58303937D01*
X45609744Y-58417205D01*
X45798102Y-58495226D01*
X45998061Y-58535000D01*
X46201939Y-58535000D01*
X46401898Y-58495226D01*
X46590256Y-58417205D01*
X46759774Y-58303937D01*
X46903937Y-58159774D01*
X47017205Y-57990256D01*
X47095226Y-57801898D01*
X47135000Y-57601939D01*
X47135000Y-57398061D01*
X47095226Y-57198102D01*
X47017205Y-57009744D01*
X46986394Y-56963632D01*
X46989281Y-56934315D01*
X46985000Y-56890846D01*
X46985000Y-56890838D01*
X46972195Y-56760825D01*
X46921589Y-56594002D01*
X46839411Y-56440256D01*
X46728817Y-56305498D01*
X46695049Y-56277785D01*
X42567264Y-52150000D01*
X88511928Y-52150000D01*
X88511928Y-53850000D01*
X88524188Y-53974482D01*
X88560498Y-54094180D01*
X88619463Y-54204494D01*
X88698815Y-54301185D01*
X88795506Y-54380537D01*
X88905820Y-54439502D01*
X89025518Y-54475812D01*
X89150000Y-54488072D01*
X90850000Y-54488072D01*
X90974482Y-54475812D01*
X91094180Y-54439502D01*
X91204494Y-54380537D01*
X91301185Y-54301185D01*
X91380537Y-54204494D01*
X91439502Y-54094180D01*
X91475812Y-53974482D01*
X91488072Y-53850000D01*
X91488072Y-52150000D01*
X91475812Y-52025518D01*
X91439502Y-51905820D01*
X91380537Y-51795506D01*
X91301185Y-51698815D01*
X91204494Y-51619463D01*
X91094180Y-51560498D01*
X91021620Y-51538487D01*
X91153475Y-51406632D01*
X91315990Y-51163411D01*
X91427932Y-50893158D01*
X91485000Y-50606260D01*
X91485000Y-50313740D01*
X91427932Y-50026842D01*
X91315990Y-49756589D01*
X91153475Y-49513368D01*
X90946632Y-49306525D01*
X90772240Y-49190000D01*
X90946632Y-49073475D01*
X91153475Y-48866632D01*
X91315990Y-48623411D01*
X91427932Y-48353158D01*
X91485000Y-48066260D01*
X91485000Y-47773740D01*
X91427932Y-47486842D01*
X91315990Y-47216589D01*
X91153475Y-46973368D01*
X90946632Y-46766525D01*
X90772240Y-46650000D01*
X90946632Y-46533475D01*
X91153475Y-46326632D01*
X91315990Y-46083411D01*
X91427932Y-45813158D01*
X91485000Y-45526260D01*
X91485000Y-45233740D01*
X91427932Y-44946842D01*
X91315990Y-44676589D01*
X91153475Y-44433368D01*
X90946632Y-44226525D01*
X90703411Y-44064010D01*
X90433158Y-43952068D01*
X90146260Y-43895000D01*
X89853740Y-43895000D01*
X89566842Y-43952068D01*
X89296589Y-44064010D01*
X89053368Y-44226525D01*
X88846525Y-44433368D01*
X88684010Y-44676589D01*
X88572068Y-44946842D01*
X88515000Y-45233740D01*
X88515000Y-45526260D01*
X88572068Y-45813158D01*
X88684010Y-46083411D01*
X88846525Y-46326632D01*
X89053368Y-46533475D01*
X89227760Y-46650000D01*
X89053368Y-46766525D01*
X88846525Y-46973368D01*
X88684010Y-47216589D01*
X88572068Y-47486842D01*
X88515000Y-47773740D01*
X88515000Y-48066260D01*
X88572068Y-48353158D01*
X88684010Y-48623411D01*
X88846525Y-48866632D01*
X89053368Y-49073475D01*
X89227760Y-49190000D01*
X89053368Y-49306525D01*
X88846525Y-49513368D01*
X88684010Y-49756589D01*
X88572068Y-50026842D01*
X88515000Y-50313740D01*
X88515000Y-50606260D01*
X88572068Y-50893158D01*
X88684010Y-51163411D01*
X88846525Y-51406632D01*
X88978380Y-51538487D01*
X88905820Y-51560498D01*
X88795506Y-51619463D01*
X88698815Y-51698815D01*
X88619463Y-51795506D01*
X88560498Y-51905820D01*
X88524188Y-52025518D01*
X88511928Y-52150000D01*
X42567264Y-52150000D01*
X41562219Y-51144956D01*
X41534502Y-51111183D01*
X41399744Y-51000589D01*
X41245998Y-50918411D01*
X41079175Y-50867805D01*
X40949162Y-50855000D01*
X40949154Y-50855000D01*
X40905685Y-50850719D01*
X40862216Y-50855000D01*
X33694656Y-50855000D01*
X33653475Y-50793368D01*
X33446632Y-50586525D01*
X33272240Y-50470000D01*
X33446632Y-50353475D01*
X33653475Y-50146632D01*
X33815990Y-49903411D01*
X33927932Y-49633158D01*
X33985000Y-49346260D01*
X33985000Y-49053740D01*
X33927932Y-48766842D01*
X33815990Y-48496589D01*
X33653475Y-48253368D01*
X33446632Y-48046525D01*
X33272240Y-47930000D01*
X33446632Y-47813475D01*
X33653475Y-47606632D01*
X33815990Y-47363411D01*
X33927932Y-47093158D01*
X33985000Y-46806260D01*
X33985000Y-46513740D01*
X33927932Y-46226842D01*
X33815990Y-45956589D01*
X33653475Y-45713368D01*
X33446632Y-45506525D01*
X33272240Y-45390000D01*
X33446632Y-45273475D01*
X33653475Y-45066632D01*
X33815990Y-44823411D01*
X33927932Y-44553158D01*
X33985000Y-44266260D01*
X33985000Y-43973740D01*
X33927932Y-43686842D01*
X33815990Y-43416589D01*
X33653475Y-43173368D01*
X33446632Y-42966525D01*
X33264466Y-42844805D01*
X33381355Y-42775178D01*
X33597588Y-42580269D01*
X33771641Y-42346920D01*
X33896825Y-42084099D01*
X33941476Y-41936890D01*
X33820155Y-41707000D01*
X32627000Y-41707000D01*
X32627000Y-41727000D01*
X32373000Y-41727000D01*
X32373000Y-41707000D01*
X31179845Y-41707000D01*
X31058524Y-41936890D01*
X31103175Y-42084099D01*
X31228359Y-42346920D01*
X31402412Y-42580269D01*
X31618645Y-42775178D01*
X31735534Y-42844805D01*
X31553368Y-42966525D01*
X31346525Y-43173368D01*
X31184010Y-43416589D01*
X31072068Y-43686842D01*
X31015000Y-43973740D01*
X30395082Y-43973740D01*
X30389052Y-39396890D01*
X31058524Y-39396890D01*
X31103175Y-39544099D01*
X31228359Y-39806920D01*
X31402412Y-40040269D01*
X31618645Y-40235178D01*
X31744255Y-40310000D01*
X31618645Y-40384822D01*
X31402412Y-40579731D01*
X31228359Y-40813080D01*
X31103175Y-41075901D01*
X31058524Y-41223110D01*
X31179845Y-41453000D01*
X32373000Y-41453000D01*
X32373000Y-39167000D01*
X32627000Y-39167000D01*
X32627000Y-41453000D01*
X33820155Y-41453000D01*
X33941476Y-41223110D01*
X33896825Y-41075901D01*
X33771641Y-40813080D01*
X33597588Y-40579731D01*
X33381355Y-40384822D01*
X33255745Y-40310000D01*
X33381355Y-40235178D01*
X33597588Y-40040269D01*
X33771641Y-39806920D01*
X33896825Y-39544099D01*
X33941476Y-39396890D01*
X33820155Y-39167000D01*
X32627000Y-39167000D01*
X32373000Y-39167000D01*
X31179845Y-39167000D01*
X31058524Y-39396890D01*
X30389052Y-39396890D01*
X30384115Y-35650000D01*
X31011928Y-35650000D01*
X31011928Y-37350000D01*
X31024188Y-37474482D01*
X31060498Y-37594180D01*
X31119463Y-37704494D01*
X31198815Y-37801185D01*
X31295506Y-37880537D01*
X31405820Y-37939502D01*
X31486466Y-37963966D01*
X31402412Y-38039731D01*
X31228359Y-38273080D01*
X31103175Y-38535901D01*
X31058524Y-38683110D01*
X31179845Y-38913000D01*
X32373000Y-38913000D01*
X32373000Y-38893000D01*
X32627000Y-38893000D01*
X32627000Y-38913000D01*
X33820155Y-38913000D01*
X33941476Y-38683110D01*
X33896825Y-38535901D01*
X33771641Y-38273080D01*
X33597588Y-38039731D01*
X33513534Y-37963966D01*
X33594180Y-37939502D01*
X33704494Y-37880537D01*
X33801185Y-37801185D01*
X33880537Y-37704494D01*
X33939502Y-37594180D01*
X33975812Y-37474482D01*
X33988072Y-37350000D01*
X33988072Y-37156891D01*
X77038519Y-37156891D01*
X77135843Y-37431252D01*
X77284822Y-37681355D01*
X77479731Y-37897588D01*
X77713080Y-38071641D01*
X77975901Y-38196825D01*
X78123110Y-38241476D01*
X78353000Y-38120155D01*
X78353000Y-36927000D01*
X77159186Y-36927000D01*
X77038519Y-37156891D01*
X33988072Y-37156891D01*
X33988072Y-36443109D01*
X77038519Y-36443109D01*
X77159186Y-36673000D01*
X78353000Y-36673000D01*
X78353000Y-35479845D01*
X78607000Y-35479845D01*
X78607000Y-36673000D01*
X78627000Y-36673000D01*
X78627000Y-36927000D01*
X78607000Y-36927000D01*
X78607000Y-38120155D01*
X78836890Y-38241476D01*
X78984099Y-38196825D01*
X79246920Y-38071641D01*
X79480269Y-37897588D01*
X79675178Y-37681355D01*
X79744805Y-37564466D01*
X79866525Y-37746632D01*
X80073368Y-37953475D01*
X80316589Y-38115990D01*
X80586842Y-38227932D01*
X80873740Y-38285000D01*
X81166260Y-38285000D01*
X81453158Y-38227932D01*
X81723411Y-38115990D01*
X81966632Y-37953475D01*
X82173475Y-37746632D01*
X82290000Y-37572240D01*
X82406525Y-37746632D01*
X82613368Y-37953475D01*
X82856589Y-38115990D01*
X83126842Y-38227932D01*
X83413740Y-38285000D01*
X83706260Y-38285000D01*
X83993158Y-38227932D01*
X84263411Y-38115990D01*
X84506632Y-37953475D01*
X84638487Y-37821620D01*
X84660498Y-37894180D01*
X84719463Y-38004494D01*
X84798815Y-38101185D01*
X84895506Y-38180537D01*
X85005820Y-38239502D01*
X85125518Y-38275812D01*
X85250000Y-38288072D01*
X86950000Y-38288072D01*
X87074482Y-38275812D01*
X87194180Y-38239502D01*
X87304494Y-38180537D01*
X87401185Y-38101185D01*
X87480537Y-38004494D01*
X87539502Y-37894180D01*
X87575812Y-37774482D01*
X87588072Y-37650000D01*
X87588072Y-35950000D01*
X87575812Y-35825518D01*
X87539502Y-35705820D01*
X87480537Y-35595506D01*
X87401185Y-35498815D01*
X87304494Y-35419463D01*
X87194180Y-35360498D01*
X87074482Y-35324188D01*
X86950000Y-35311928D01*
X85250000Y-35311928D01*
X85125518Y-35324188D01*
X85005820Y-35360498D01*
X84895506Y-35419463D01*
X84798815Y-35498815D01*
X84719463Y-35595506D01*
X84660498Y-35705820D01*
X84638487Y-35778380D01*
X84506632Y-35646525D01*
X84263411Y-35484010D01*
X83993158Y-35372068D01*
X83706260Y-35315000D01*
X83413740Y-35315000D01*
X83126842Y-35372068D01*
X82856589Y-35484010D01*
X82613368Y-35646525D01*
X82406525Y-35853368D01*
X82290000Y-36027760D01*
X82173475Y-35853368D01*
X81966632Y-35646525D01*
X81723411Y-35484010D01*
X81453158Y-35372068D01*
X81166260Y-35315000D01*
X80873740Y-35315000D01*
X80586842Y-35372068D01*
X80316589Y-35484010D01*
X80073368Y-35646525D01*
X79866525Y-35853368D01*
X79744805Y-36035534D01*
X79675178Y-35918645D01*
X79480269Y-35702412D01*
X79246920Y-35528359D01*
X78984099Y-35403175D01*
X78836890Y-35358524D01*
X78607000Y-35479845D01*
X78353000Y-35479845D01*
X78123110Y-35358524D01*
X77975901Y-35403175D01*
X77713080Y-35528359D01*
X77479731Y-35702412D01*
X77284822Y-35918645D01*
X77135843Y-36168748D01*
X77038519Y-36443109D01*
X33988072Y-36443109D01*
X33988072Y-35650000D01*
X33975812Y-35525518D01*
X33939502Y-35405820D01*
X33880537Y-35295506D01*
X33801185Y-35198815D01*
X33704494Y-35119463D01*
X33594180Y-35060498D01*
X33474482Y-35024188D01*
X33350000Y-35011928D01*
X31650000Y-35011928D01*
X31525518Y-35024188D01*
X31405820Y-35060498D01*
X31295506Y-35119463D01*
X31198815Y-35198815D01*
X31119463Y-35295506D01*
X31060498Y-35405820D01*
X31024188Y-35525518D01*
X31011928Y-35650000D01*
X30384115Y-35650000D01*
X30380489Y-32897997D01*
X30450890Y-33251925D01*
X30619369Y-33658669D01*
X30863962Y-34024729D01*
X31175271Y-34336038D01*
X31541331Y-34580631D01*
X31948075Y-34749110D01*
X32379872Y-34835000D01*
X32820128Y-34835000D01*
X33251925Y-34749110D01*
X33658669Y-34580631D01*
X34024729Y-34336038D01*
X34336038Y-34024729D01*
X34580631Y-33658669D01*
X34749110Y-33251925D01*
X34835000Y-32820128D01*
X34835000Y-32379872D01*
X34749110Y-31948075D01*
X34580631Y-31541331D01*
X34336038Y-31175271D01*
X34024729Y-30863962D01*
X33658669Y-30619369D01*
X33251925Y-30450890D01*
X32896539Y-30380199D01*
X89260959Y-30448327D01*
G37*
X89260959Y-30448327D02*
X89248075Y-30450890D01*
X88841331Y-30619369D01*
X88475271Y-30863962D01*
X88163962Y-31175271D01*
X87919369Y-31541331D01*
X87750890Y-31948075D01*
X87665000Y-32379872D01*
X87665000Y-32820128D01*
X87750890Y-33251925D01*
X87919369Y-33658669D01*
X88163962Y-34024729D01*
X88475271Y-34336038D01*
X88841331Y-34580631D01*
X89248075Y-34749110D01*
X89679872Y-34835000D01*
X90120128Y-34835000D01*
X90551925Y-34749110D01*
X90958669Y-34580631D01*
X91324729Y-34336038D01*
X91636038Y-34024729D01*
X91880631Y-33658669D01*
X92049110Y-33251925D01*
X92135000Y-32820128D01*
X92135000Y-32379872D01*
X92049110Y-31948075D01*
X91880631Y-31541331D01*
X91636038Y-31175271D01*
X91324729Y-30863962D01*
X90958669Y-30619369D01*
X90551925Y-30450890D01*
X90546855Y-30449881D01*
X92173000Y-30451847D01*
X92173000Y-68147846D01*
X30426833Y-68073153D01*
X30424522Y-66319366D01*
X30450890Y-66451925D01*
X30619369Y-66858669D01*
X30863962Y-67224729D01*
X31175271Y-67536038D01*
X31541331Y-67780631D01*
X31948075Y-67949110D01*
X32379872Y-68035000D01*
X32820128Y-68035000D01*
X33251925Y-67949110D01*
X33658669Y-67780631D01*
X34024729Y-67536038D01*
X34336038Y-67224729D01*
X34580631Y-66858669D01*
X34749110Y-66451925D01*
X34835000Y-66020128D01*
X34835000Y-65579872D01*
X87665000Y-65579872D01*
X87665000Y-66020128D01*
X87750890Y-66451925D01*
X87919369Y-66858669D01*
X88163962Y-67224729D01*
X88475271Y-67536038D01*
X88841331Y-67780631D01*
X89248075Y-67949110D01*
X89679872Y-68035000D01*
X90120128Y-68035000D01*
X90551925Y-67949110D01*
X90958669Y-67780631D01*
X91324729Y-67536038D01*
X91636038Y-67224729D01*
X91880631Y-66858669D01*
X92049110Y-66451925D01*
X92135000Y-66020128D01*
X92135000Y-65579872D01*
X92049110Y-65148075D01*
X91880631Y-64741331D01*
X91636038Y-64375271D01*
X91324729Y-64063962D01*
X90958669Y-63819369D01*
X90551925Y-63650890D01*
X90120128Y-63565000D01*
X89679872Y-63565000D01*
X89248075Y-63650890D01*
X88841331Y-63819369D01*
X88475271Y-64063962D01*
X88163962Y-64375271D01*
X87919369Y-64741331D01*
X87750890Y-65148075D01*
X87665000Y-65579872D01*
X34835000Y-65579872D01*
X34749110Y-65148075D01*
X34580631Y-64741331D01*
X34336038Y-64375271D01*
X34024729Y-64063962D01*
X33658669Y-63819369D01*
X33251925Y-63650890D01*
X32820128Y-63565000D01*
X32379872Y-63565000D01*
X31948075Y-63650890D01*
X31541331Y-63819369D01*
X31175271Y-64063962D01*
X30863962Y-64375271D01*
X30619369Y-64741331D01*
X30450890Y-65148075D01*
X30423163Y-65287469D01*
X30395082Y-43973740D01*
X31015000Y-43973740D01*
X31015000Y-44266260D01*
X31072068Y-44553158D01*
X31184010Y-44823411D01*
X31346525Y-45066632D01*
X31553368Y-45273475D01*
X31727760Y-45390000D01*
X31553368Y-45506525D01*
X31346525Y-45713368D01*
X31184010Y-45956589D01*
X31072068Y-46226842D01*
X31015000Y-46513740D01*
X31015000Y-46806260D01*
X31072068Y-47093158D01*
X31184010Y-47363411D01*
X31346525Y-47606632D01*
X31553368Y-47813475D01*
X31727760Y-47930000D01*
X31553368Y-48046525D01*
X31346525Y-48253368D01*
X31184010Y-48496589D01*
X31072068Y-48766842D01*
X31015000Y-49053740D01*
X31015000Y-49346260D01*
X31072068Y-49633158D01*
X31184010Y-49903411D01*
X31346525Y-50146632D01*
X31553368Y-50353475D01*
X31727760Y-50470000D01*
X31553368Y-50586525D01*
X31346525Y-50793368D01*
X31184010Y-51036589D01*
X31072068Y-51306842D01*
X31015000Y-51593740D01*
X31015000Y-51886260D01*
X31072068Y-52173158D01*
X31184010Y-52443411D01*
X31346525Y-52686632D01*
X31553368Y-52893475D01*
X31727760Y-53010000D01*
X31553368Y-53126525D01*
X31346525Y-53333368D01*
X31184010Y-53576589D01*
X31072068Y-53846842D01*
X31015000Y-54133740D01*
X31015000Y-54426260D01*
X31072068Y-54713158D01*
X31184010Y-54983411D01*
X31346525Y-55226632D01*
X31553368Y-55433475D01*
X31727760Y-55550000D01*
X31553368Y-55666525D01*
X31346525Y-55873368D01*
X31184010Y-56116589D01*
X31072068Y-56386842D01*
X31015000Y-56673740D01*
X31015000Y-56966260D01*
X31072068Y-57253158D01*
X31184010Y-57523411D01*
X31346525Y-57766632D01*
X31553368Y-57973475D01*
X31727760Y-58090000D01*
X31553368Y-58206525D01*
X31346525Y-58413368D01*
X31184010Y-58656589D01*
X31072068Y-58926842D01*
X31015000Y-59213740D01*
X31015000Y-59506260D01*
X31072068Y-59793158D01*
X31184010Y-60063411D01*
X31346525Y-60306632D01*
X31553368Y-60513475D01*
X31727760Y-60630000D01*
X31553368Y-60746525D01*
X31346525Y-60953368D01*
X31184010Y-61196589D01*
X31072068Y-61466842D01*
X31015000Y-61753740D01*
X31015000Y-62046260D01*
X31072068Y-62333158D01*
X31184010Y-62603411D01*
X31346525Y-62846632D01*
X31553368Y-63053475D01*
X31796589Y-63215990D01*
X32066842Y-63327932D01*
X32353740Y-63385000D01*
X32646260Y-63385000D01*
X32933158Y-63327932D01*
X33203411Y-63215990D01*
X33302172Y-63150000D01*
X51511928Y-63150000D01*
X51511928Y-64850000D01*
X51524188Y-64974482D01*
X51560498Y-65094180D01*
X51619463Y-65204494D01*
X51698815Y-65301185D01*
X51795506Y-65380537D01*
X51905820Y-65439502D01*
X52025518Y-65475812D01*
X52150000Y-65488072D01*
X53850000Y-65488072D01*
X53974482Y-65475812D01*
X54094180Y-65439502D01*
X54204494Y-65380537D01*
X54301185Y-65301185D01*
X54380537Y-65204494D01*
X54439502Y-65094180D01*
X54463966Y-65013534D01*
X54539731Y-65097588D01*
X54773080Y-65271641D01*
X55035901Y-65396825D01*
X55183110Y-65441476D01*
X55413000Y-65320155D01*
X55413000Y-64127000D01*
X55667000Y-64127000D01*
X55667000Y-65320155D01*
X55896890Y-65441476D01*
X56044099Y-65396825D01*
X56306920Y-65271641D01*
X56540269Y-65097588D01*
X56735178Y-64881355D01*
X56884157Y-64631252D01*
X56981481Y-64356891D01*
X56860814Y-64127000D01*
X55667000Y-64127000D01*
X55413000Y-64127000D01*
X55393000Y-64127000D01*
X55393000Y-63873000D01*
X55413000Y-63873000D01*
X55413000Y-62679845D01*
X55667000Y-62679845D01*
X55667000Y-63873000D01*
X56860814Y-63873000D01*
X56981481Y-63643109D01*
X56884157Y-63368748D01*
X56753856Y-63150000D01*
X60511928Y-63150000D01*
X60511928Y-64850000D01*
X60524188Y-64974482D01*
X60560498Y-65094180D01*
X60619463Y-65204494D01*
X60698815Y-65301185D01*
X60795506Y-65380537D01*
X60905820Y-65439502D01*
X61025518Y-65475812D01*
X61150000Y-65488072D01*
X62850000Y-65488072D01*
X62974482Y-65475812D01*
X63094180Y-65439502D01*
X63204494Y-65380537D01*
X63301185Y-65301185D01*
X63380537Y-65204494D01*
X63439502Y-65094180D01*
X63463966Y-65013534D01*
X63539731Y-65097588D01*
X63773080Y-65271641D01*
X64035901Y-65396825D01*
X64183110Y-65441476D01*
X64413000Y-65320155D01*
X64413000Y-64127000D01*
X64667000Y-64127000D01*
X64667000Y-65320155D01*
X64896890Y-65441476D01*
X65044099Y-65396825D01*
X65306920Y-65271641D01*
X65540269Y-65097588D01*
X65735178Y-64881355D01*
X65884157Y-64631252D01*
X65981481Y-64356891D01*
X65860814Y-64127000D01*
X64667000Y-64127000D01*
X64413000Y-64127000D01*
X64393000Y-64127000D01*
X64393000Y-63873000D01*
X64413000Y-63873000D01*
X64413000Y-62679845D01*
X64667000Y-62679845D01*
X64667000Y-63873000D01*
X65860814Y-63873000D01*
X65981481Y-63643109D01*
X65884157Y-63368748D01*
X65753856Y-63150000D01*
X69511928Y-63150000D01*
X69511928Y-64850000D01*
X69524188Y-64974482D01*
X69560498Y-65094180D01*
X69619463Y-65204494D01*
X69698815Y-65301185D01*
X69795506Y-65380537D01*
X69905820Y-65439502D01*
X70025518Y-65475812D01*
X70150000Y-65488072D01*
X71850000Y-65488072D01*
X71974482Y-65475812D01*
X72094180Y-65439502D01*
X72204494Y-65380537D01*
X72301185Y-65301185D01*
X72380537Y-65204494D01*
X72439502Y-65094180D01*
X72463966Y-65013534D01*
X72539731Y-65097588D01*
X72773080Y-65271641D01*
X73035901Y-65396825D01*
X73183110Y-65441476D01*
X73413000Y-65320155D01*
X73413000Y-64127000D01*
X73667000Y-64127000D01*
X73667000Y-65320155D01*
X73896890Y-65441476D01*
X74044099Y-65396825D01*
X74306920Y-65271641D01*
X74540269Y-65097588D01*
X74735178Y-64881355D01*
X74884157Y-64631252D01*
X74981481Y-64356891D01*
X74860814Y-64127000D01*
X73667000Y-64127000D01*
X73413000Y-64127000D01*
X73393000Y-64127000D01*
X73393000Y-63873000D01*
X73413000Y-63873000D01*
X73413000Y-62679845D01*
X73667000Y-62679845D01*
X73667000Y-63873000D01*
X74860814Y-63873000D01*
X74981481Y-63643109D01*
X74884157Y-63368748D01*
X74735178Y-63118645D01*
X74540269Y-62902412D01*
X74306920Y-62728359D01*
X74044099Y-62603175D01*
X73896890Y-62558524D01*
X73667000Y-62679845D01*
X73413000Y-62679845D01*
X73183110Y-62558524D01*
X73035901Y-62603175D01*
X72773080Y-62728359D01*
X72539731Y-62902412D01*
X72463966Y-62986466D01*
X72439502Y-62905820D01*
X72380537Y-62795506D01*
X72301185Y-62698815D01*
X72204494Y-62619463D01*
X72094180Y-62560498D01*
X71974482Y-62524188D01*
X71850000Y-62511928D01*
X70150000Y-62511928D01*
X70025518Y-62524188D01*
X69905820Y-62560498D01*
X69795506Y-62619463D01*
X69698815Y-62698815D01*
X69619463Y-62795506D01*
X69560498Y-62905820D01*
X69524188Y-63025518D01*
X69511928Y-63150000D01*
X65753856Y-63150000D01*
X65735178Y-63118645D01*
X65540269Y-62902412D01*
X65306920Y-62728359D01*
X65044099Y-62603175D01*
X64896890Y-62558524D01*
X64667000Y-62679845D01*
X64413000Y-62679845D01*
X64183110Y-62558524D01*
X64035901Y-62603175D01*
X63773080Y-62728359D01*
X63539731Y-62902412D01*
X63463966Y-62986466D01*
X63439502Y-62905820D01*
X63380537Y-62795506D01*
X63301185Y-62698815D01*
X63204494Y-62619463D01*
X63094180Y-62560498D01*
X62974482Y-62524188D01*
X62850000Y-62511928D01*
X61150000Y-62511928D01*
X61025518Y-62524188D01*
X60905820Y-62560498D01*
X60795506Y-62619463D01*
X60698815Y-62698815D01*
X60619463Y-62795506D01*
X60560498Y-62905820D01*
X60524188Y-63025518D01*
X60511928Y-63150000D01*
X56753856Y-63150000D01*
X56735178Y-63118645D01*
X56540269Y-62902412D01*
X56306920Y-62728359D01*
X56044099Y-62603175D01*
X55896890Y-62558524D01*
X55667000Y-62679845D01*
X55413000Y-62679845D01*
X55183110Y-62558524D01*
X55035901Y-62603175D01*
X54773080Y-62728359D01*
X54539731Y-62902412D01*
X54463966Y-62986466D01*
X54439502Y-62905820D01*
X54380537Y-62795506D01*
X54301185Y-62698815D01*
X54204494Y-62619463D01*
X54094180Y-62560498D01*
X53974482Y-62524188D01*
X53850000Y-62511928D01*
X52150000Y-62511928D01*
X52025518Y-62524188D01*
X51905820Y-62560498D01*
X51795506Y-62619463D01*
X51698815Y-62698815D01*
X51619463Y-62795506D01*
X51560498Y-62905820D01*
X51524188Y-63025518D01*
X51511928Y-63150000D01*
X33302172Y-63150000D01*
X33446632Y-63053475D01*
X33653475Y-62846632D01*
X33815990Y-62603411D01*
X33927932Y-62333158D01*
X33985000Y-62046260D01*
X33985000Y-61753740D01*
X33927932Y-61466842D01*
X33815990Y-61196589D01*
X33653475Y-60953368D01*
X33446632Y-60746525D01*
X33272240Y-60630000D01*
X33446632Y-60513475D01*
X33653475Y-60306632D01*
X33815990Y-60063411D01*
X33927932Y-59793158D01*
X33985000Y-59506260D01*
X33985000Y-59213740D01*
X33970539Y-59141039D01*
X37126579Y-55985000D01*
X37861546Y-55985000D01*
X37909744Y-56017205D01*
X38098102Y-56095226D01*
X38298061Y-56135000D01*
X38501939Y-56135000D01*
X38701898Y-56095226D01*
X38890256Y-56017205D01*
X39059774Y-55903937D01*
X39203937Y-55759774D01*
X39317205Y-55590256D01*
X39395226Y-55401898D01*
X39435000Y-55201939D01*
X39435000Y-54998061D01*
X39395226Y-54798102D01*
X39317205Y-54609744D01*
X39203937Y-54440226D01*
X39059774Y-54296063D01*
X38890256Y-54182795D01*
X38701898Y-54104774D01*
X38501939Y-54065000D01*
X38298061Y-54065000D01*
X38098102Y-54104774D01*
X37909744Y-54182795D01*
X37861546Y-54215000D01*
X36803469Y-54215000D01*
X36760000Y-54210719D01*
X36716531Y-54215000D01*
X36716523Y-54215000D01*
X36586510Y-54227805D01*
X36419687Y-54278411D01*
X36265941Y-54360589D01*
X36164953Y-54443468D01*
X36164951Y-54443470D01*
X36131183Y-54471183D01*
X36103470Y-54504951D01*
X33976652Y-56631770D01*
X33927932Y-56386842D01*
X33815990Y-56116589D01*
X33653475Y-55873368D01*
X33446632Y-55666525D01*
X33272240Y-55550000D01*
X33446632Y-55433475D01*
X33653475Y-55226632D01*
X33815990Y-54983411D01*
X33927932Y-54713158D01*
X33985000Y-54426260D01*
X33985000Y-54133740D01*
X33927932Y-53846842D01*
X33815990Y-53576589D01*
X33653475Y-53333368D01*
X33446632Y-53126525D01*
X33272240Y-53010000D01*
X33446632Y-52893475D01*
X33653475Y-52686632D01*
X33694656Y-52625000D01*
X40539107Y-52625000D01*
X45106951Y-57192845D01*
X45104774Y-57198102D01*
X45065000Y-57398061D01*
X45065000Y-57601939D01*
X45104774Y-57801898D01*
X45182795Y-57990256D01*
X45296063Y-58159774D01*
X45440226Y-58303937D01*
X45609744Y-58417205D01*
X45798102Y-58495226D01*
X45998061Y-58535000D01*
X46201939Y-58535000D01*
X46401898Y-58495226D01*
X46590256Y-58417205D01*
X46759774Y-58303937D01*
X46903937Y-58159774D01*
X47017205Y-57990256D01*
X47095226Y-57801898D01*
X47135000Y-57601939D01*
X47135000Y-57398061D01*
X47095226Y-57198102D01*
X47017205Y-57009744D01*
X46986394Y-56963632D01*
X46989281Y-56934315D01*
X46985000Y-56890846D01*
X46985000Y-56890838D01*
X46972195Y-56760825D01*
X46921589Y-56594002D01*
X46839411Y-56440256D01*
X46728817Y-56305498D01*
X46695049Y-56277785D01*
X42567264Y-52150000D01*
X88511928Y-52150000D01*
X88511928Y-53850000D01*
X88524188Y-53974482D01*
X88560498Y-54094180D01*
X88619463Y-54204494D01*
X88698815Y-54301185D01*
X88795506Y-54380537D01*
X88905820Y-54439502D01*
X89025518Y-54475812D01*
X89150000Y-54488072D01*
X90850000Y-54488072D01*
X90974482Y-54475812D01*
X91094180Y-54439502D01*
X91204494Y-54380537D01*
X91301185Y-54301185D01*
X91380537Y-54204494D01*
X91439502Y-54094180D01*
X91475812Y-53974482D01*
X91488072Y-53850000D01*
X91488072Y-52150000D01*
X91475812Y-52025518D01*
X91439502Y-51905820D01*
X91380537Y-51795506D01*
X91301185Y-51698815D01*
X91204494Y-51619463D01*
X91094180Y-51560498D01*
X91021620Y-51538487D01*
X91153475Y-51406632D01*
X91315990Y-51163411D01*
X91427932Y-50893158D01*
X91485000Y-50606260D01*
X91485000Y-50313740D01*
X91427932Y-50026842D01*
X91315990Y-49756589D01*
X91153475Y-49513368D01*
X90946632Y-49306525D01*
X90772240Y-49190000D01*
X90946632Y-49073475D01*
X91153475Y-48866632D01*
X91315990Y-48623411D01*
X91427932Y-48353158D01*
X91485000Y-48066260D01*
X91485000Y-47773740D01*
X91427932Y-47486842D01*
X91315990Y-47216589D01*
X91153475Y-46973368D01*
X90946632Y-46766525D01*
X90772240Y-46650000D01*
X90946632Y-46533475D01*
X91153475Y-46326632D01*
X91315990Y-46083411D01*
X91427932Y-45813158D01*
X91485000Y-45526260D01*
X91485000Y-45233740D01*
X91427932Y-44946842D01*
X91315990Y-44676589D01*
X91153475Y-44433368D01*
X90946632Y-44226525D01*
X90703411Y-44064010D01*
X90433158Y-43952068D01*
X90146260Y-43895000D01*
X89853740Y-43895000D01*
X89566842Y-43952068D01*
X89296589Y-44064010D01*
X89053368Y-44226525D01*
X88846525Y-44433368D01*
X88684010Y-44676589D01*
X88572068Y-44946842D01*
X88515000Y-45233740D01*
X88515000Y-45526260D01*
X88572068Y-45813158D01*
X88684010Y-46083411D01*
X88846525Y-46326632D01*
X89053368Y-46533475D01*
X89227760Y-46650000D01*
X89053368Y-46766525D01*
X88846525Y-46973368D01*
X88684010Y-47216589D01*
X88572068Y-47486842D01*
X88515000Y-47773740D01*
X88515000Y-48066260D01*
X88572068Y-48353158D01*
X88684010Y-48623411D01*
X88846525Y-48866632D01*
X89053368Y-49073475D01*
X89227760Y-49190000D01*
X89053368Y-49306525D01*
X88846525Y-49513368D01*
X88684010Y-49756589D01*
X88572068Y-50026842D01*
X88515000Y-50313740D01*
X88515000Y-50606260D01*
X88572068Y-50893158D01*
X88684010Y-51163411D01*
X88846525Y-51406632D01*
X88978380Y-51538487D01*
X88905820Y-51560498D01*
X88795506Y-51619463D01*
X88698815Y-51698815D01*
X88619463Y-51795506D01*
X88560498Y-51905820D01*
X88524188Y-52025518D01*
X88511928Y-52150000D01*
X42567264Y-52150000D01*
X41562219Y-51144956D01*
X41534502Y-51111183D01*
X41399744Y-51000589D01*
X41245998Y-50918411D01*
X41079175Y-50867805D01*
X40949162Y-50855000D01*
X40949154Y-50855000D01*
X40905685Y-50850719D01*
X40862216Y-50855000D01*
X33694656Y-50855000D01*
X33653475Y-50793368D01*
X33446632Y-50586525D01*
X33272240Y-50470000D01*
X33446632Y-50353475D01*
X33653475Y-50146632D01*
X33815990Y-49903411D01*
X33927932Y-49633158D01*
X33985000Y-49346260D01*
X33985000Y-49053740D01*
X33927932Y-48766842D01*
X33815990Y-48496589D01*
X33653475Y-48253368D01*
X33446632Y-48046525D01*
X33272240Y-47930000D01*
X33446632Y-47813475D01*
X33653475Y-47606632D01*
X33815990Y-47363411D01*
X33927932Y-47093158D01*
X33985000Y-46806260D01*
X33985000Y-46513740D01*
X33927932Y-46226842D01*
X33815990Y-45956589D01*
X33653475Y-45713368D01*
X33446632Y-45506525D01*
X33272240Y-45390000D01*
X33446632Y-45273475D01*
X33653475Y-45066632D01*
X33815990Y-44823411D01*
X33927932Y-44553158D01*
X33985000Y-44266260D01*
X33985000Y-43973740D01*
X33927932Y-43686842D01*
X33815990Y-43416589D01*
X33653475Y-43173368D01*
X33446632Y-42966525D01*
X33264466Y-42844805D01*
X33381355Y-42775178D01*
X33597588Y-42580269D01*
X33771641Y-42346920D01*
X33896825Y-42084099D01*
X33941476Y-41936890D01*
X33820155Y-41707000D01*
X32627000Y-41707000D01*
X32627000Y-41727000D01*
X32373000Y-41727000D01*
X32373000Y-41707000D01*
X31179845Y-41707000D01*
X31058524Y-41936890D01*
X31103175Y-42084099D01*
X31228359Y-42346920D01*
X31402412Y-42580269D01*
X31618645Y-42775178D01*
X31735534Y-42844805D01*
X31553368Y-42966525D01*
X31346525Y-43173368D01*
X31184010Y-43416589D01*
X31072068Y-43686842D01*
X31015000Y-43973740D01*
X30395082Y-43973740D01*
X30389052Y-39396890D01*
X31058524Y-39396890D01*
X31103175Y-39544099D01*
X31228359Y-39806920D01*
X31402412Y-40040269D01*
X31618645Y-40235178D01*
X31744255Y-40310000D01*
X31618645Y-40384822D01*
X31402412Y-40579731D01*
X31228359Y-40813080D01*
X31103175Y-41075901D01*
X31058524Y-41223110D01*
X31179845Y-41453000D01*
X32373000Y-41453000D01*
X32373000Y-39167000D01*
X32627000Y-39167000D01*
X32627000Y-41453000D01*
X33820155Y-41453000D01*
X33941476Y-41223110D01*
X33896825Y-41075901D01*
X33771641Y-40813080D01*
X33597588Y-40579731D01*
X33381355Y-40384822D01*
X33255745Y-40310000D01*
X33381355Y-40235178D01*
X33597588Y-40040269D01*
X33771641Y-39806920D01*
X33896825Y-39544099D01*
X33941476Y-39396890D01*
X33820155Y-39167000D01*
X32627000Y-39167000D01*
X32373000Y-39167000D01*
X31179845Y-39167000D01*
X31058524Y-39396890D01*
X30389052Y-39396890D01*
X30384115Y-35650000D01*
X31011928Y-35650000D01*
X31011928Y-37350000D01*
X31024188Y-37474482D01*
X31060498Y-37594180D01*
X31119463Y-37704494D01*
X31198815Y-37801185D01*
X31295506Y-37880537D01*
X31405820Y-37939502D01*
X31486466Y-37963966D01*
X31402412Y-38039731D01*
X31228359Y-38273080D01*
X31103175Y-38535901D01*
X31058524Y-38683110D01*
X31179845Y-38913000D01*
X32373000Y-38913000D01*
X32373000Y-38893000D01*
X32627000Y-38893000D01*
X32627000Y-38913000D01*
X33820155Y-38913000D01*
X33941476Y-38683110D01*
X33896825Y-38535901D01*
X33771641Y-38273080D01*
X33597588Y-38039731D01*
X33513534Y-37963966D01*
X33594180Y-37939502D01*
X33704494Y-37880537D01*
X33801185Y-37801185D01*
X33880537Y-37704494D01*
X33939502Y-37594180D01*
X33975812Y-37474482D01*
X33988072Y-37350000D01*
X33988072Y-37156891D01*
X77038519Y-37156891D01*
X77135843Y-37431252D01*
X77284822Y-37681355D01*
X77479731Y-37897588D01*
X77713080Y-38071641D01*
X77975901Y-38196825D01*
X78123110Y-38241476D01*
X78353000Y-38120155D01*
X78353000Y-36927000D01*
X77159186Y-36927000D01*
X77038519Y-37156891D01*
X33988072Y-37156891D01*
X33988072Y-36443109D01*
X77038519Y-36443109D01*
X77159186Y-36673000D01*
X78353000Y-36673000D01*
X78353000Y-35479845D01*
X78607000Y-35479845D01*
X78607000Y-36673000D01*
X78627000Y-36673000D01*
X78627000Y-36927000D01*
X78607000Y-36927000D01*
X78607000Y-38120155D01*
X78836890Y-38241476D01*
X78984099Y-38196825D01*
X79246920Y-38071641D01*
X79480269Y-37897588D01*
X79675178Y-37681355D01*
X79744805Y-37564466D01*
X79866525Y-37746632D01*
X80073368Y-37953475D01*
X80316589Y-38115990D01*
X80586842Y-38227932D01*
X80873740Y-38285000D01*
X81166260Y-38285000D01*
X81453158Y-38227932D01*
X81723411Y-38115990D01*
X81966632Y-37953475D01*
X82173475Y-37746632D01*
X82290000Y-37572240D01*
X82406525Y-37746632D01*
X82613368Y-37953475D01*
X82856589Y-38115990D01*
X83126842Y-38227932D01*
X83413740Y-38285000D01*
X83706260Y-38285000D01*
X83993158Y-38227932D01*
X84263411Y-38115990D01*
X84506632Y-37953475D01*
X84638487Y-37821620D01*
X84660498Y-37894180D01*
X84719463Y-38004494D01*
X84798815Y-38101185D01*
X84895506Y-38180537D01*
X85005820Y-38239502D01*
X85125518Y-38275812D01*
X85250000Y-38288072D01*
X86950000Y-38288072D01*
X87074482Y-38275812D01*
X87194180Y-38239502D01*
X87304494Y-38180537D01*
X87401185Y-38101185D01*
X87480537Y-38004494D01*
X87539502Y-37894180D01*
X87575812Y-37774482D01*
X87588072Y-37650000D01*
X87588072Y-35950000D01*
X87575812Y-35825518D01*
X87539502Y-35705820D01*
X87480537Y-35595506D01*
X87401185Y-35498815D01*
X87304494Y-35419463D01*
X87194180Y-35360498D01*
X87074482Y-35324188D01*
X86950000Y-35311928D01*
X85250000Y-35311928D01*
X85125518Y-35324188D01*
X85005820Y-35360498D01*
X84895506Y-35419463D01*
X84798815Y-35498815D01*
X84719463Y-35595506D01*
X84660498Y-35705820D01*
X84638487Y-35778380D01*
X84506632Y-35646525D01*
X84263411Y-35484010D01*
X83993158Y-35372068D01*
X83706260Y-35315000D01*
X83413740Y-35315000D01*
X83126842Y-35372068D01*
X82856589Y-35484010D01*
X82613368Y-35646525D01*
X82406525Y-35853368D01*
X82290000Y-36027760D01*
X82173475Y-35853368D01*
X81966632Y-35646525D01*
X81723411Y-35484010D01*
X81453158Y-35372068D01*
X81166260Y-35315000D01*
X80873740Y-35315000D01*
X80586842Y-35372068D01*
X80316589Y-35484010D01*
X80073368Y-35646525D01*
X79866525Y-35853368D01*
X79744805Y-36035534D01*
X79675178Y-35918645D01*
X79480269Y-35702412D01*
X79246920Y-35528359D01*
X78984099Y-35403175D01*
X78836890Y-35358524D01*
X78607000Y-35479845D01*
X78353000Y-35479845D01*
X78123110Y-35358524D01*
X77975901Y-35403175D01*
X77713080Y-35528359D01*
X77479731Y-35702412D01*
X77284822Y-35918645D01*
X77135843Y-36168748D01*
X77038519Y-36443109D01*
X33988072Y-36443109D01*
X33988072Y-35650000D01*
X33975812Y-35525518D01*
X33939502Y-35405820D01*
X33880537Y-35295506D01*
X33801185Y-35198815D01*
X33704494Y-35119463D01*
X33594180Y-35060498D01*
X33474482Y-35024188D01*
X33350000Y-35011928D01*
X31650000Y-35011928D01*
X31525518Y-35024188D01*
X31405820Y-35060498D01*
X31295506Y-35119463D01*
X31198815Y-35198815D01*
X31119463Y-35295506D01*
X31060498Y-35405820D01*
X31024188Y-35525518D01*
X31011928Y-35650000D01*
X30384115Y-35650000D01*
X30380489Y-32897997D01*
X30450890Y-33251925D01*
X30619369Y-33658669D01*
X30863962Y-34024729D01*
X31175271Y-34336038D01*
X31541331Y-34580631D01*
X31948075Y-34749110D01*
X32379872Y-34835000D01*
X32820128Y-34835000D01*
X33251925Y-34749110D01*
X33658669Y-34580631D01*
X34024729Y-34336038D01*
X34336038Y-34024729D01*
X34580631Y-33658669D01*
X34749110Y-33251925D01*
X34835000Y-32820128D01*
X34835000Y-32379872D01*
X34749110Y-31948075D01*
X34580631Y-31541331D01*
X34336038Y-31175271D01*
X34024729Y-30863962D01*
X33658669Y-30619369D01*
X33251925Y-30450890D01*
X32896539Y-30380199D01*
X89260959Y-30448327D01*
G36*
X89260959Y-30448327D02*
G01*
X89248075Y-30450890D01*
X88841331Y-30619369D01*
X88475271Y-30863962D01*
X88163962Y-31175271D01*
X87919369Y-31541331D01*
X87750890Y-31948075D01*
X87665000Y-32379872D01*
X87665000Y-32820128D01*
X87750890Y-33251925D01*
X87919369Y-33658669D01*
X88163962Y-34024729D01*
X88475271Y-34336038D01*
X88841331Y-34580631D01*
X89248075Y-34749110D01*
X89679872Y-34835000D01*
X90120128Y-34835000D01*
X90551925Y-34749110D01*
X90958669Y-34580631D01*
X91324729Y-34336038D01*
X91636038Y-34024729D01*
X91880631Y-33658669D01*
X92049110Y-33251925D01*
X92135000Y-32820128D01*
X92135000Y-32379872D01*
X92049110Y-31948075D01*
X91880631Y-31541331D01*
X91636038Y-31175271D01*
X91324729Y-30863962D01*
X90958669Y-30619369D01*
X90551925Y-30450890D01*
X90546855Y-30449881D01*
X92173000Y-30451847D01*
X92173000Y-68147846D01*
X30426833Y-68073153D01*
X30424522Y-66319366D01*
X30450890Y-66451925D01*
X30619369Y-66858669D01*
X30863962Y-67224729D01*
X31175271Y-67536038D01*
X31541331Y-67780631D01*
X31948075Y-67949110D01*
X32379872Y-68035000D01*
X32820128Y-68035000D01*
X33251925Y-67949110D01*
X33658669Y-67780631D01*
X34024729Y-67536038D01*
X34336038Y-67224729D01*
X34580631Y-66858669D01*
X34749110Y-66451925D01*
X34835000Y-66020128D01*
X34835000Y-65579872D01*
X87665000Y-65579872D01*
X87665000Y-66020128D01*
X87750890Y-66451925D01*
X87919369Y-66858669D01*
X88163962Y-67224729D01*
X88475271Y-67536038D01*
X88841331Y-67780631D01*
X89248075Y-67949110D01*
X89679872Y-68035000D01*
X90120128Y-68035000D01*
X90551925Y-67949110D01*
X90958669Y-67780631D01*
X91324729Y-67536038D01*
X91636038Y-67224729D01*
X91880631Y-66858669D01*
X92049110Y-66451925D01*
X92135000Y-66020128D01*
X92135000Y-65579872D01*
X92049110Y-65148075D01*
X91880631Y-64741331D01*
X91636038Y-64375271D01*
X91324729Y-64063962D01*
X90958669Y-63819369D01*
X90551925Y-63650890D01*
X90120128Y-63565000D01*
X89679872Y-63565000D01*
X89248075Y-63650890D01*
X88841331Y-63819369D01*
X88475271Y-64063962D01*
X88163962Y-64375271D01*
X87919369Y-64741331D01*
X87750890Y-65148075D01*
X87665000Y-65579872D01*
X34835000Y-65579872D01*
X34749110Y-65148075D01*
X34580631Y-64741331D01*
X34336038Y-64375271D01*
X34024729Y-64063962D01*
X33658669Y-63819369D01*
X33251925Y-63650890D01*
X32820128Y-63565000D01*
X32379872Y-63565000D01*
X31948075Y-63650890D01*
X31541331Y-63819369D01*
X31175271Y-64063962D01*
X30863962Y-64375271D01*
X30619369Y-64741331D01*
X30450890Y-65148075D01*
X30423163Y-65287469D01*
X30395082Y-43973740D01*
X31015000Y-43973740D01*
X31015000Y-44266260D01*
X31072068Y-44553158D01*
X31184010Y-44823411D01*
X31346525Y-45066632D01*
X31553368Y-45273475D01*
X31727760Y-45390000D01*
X31553368Y-45506525D01*
X31346525Y-45713368D01*
X31184010Y-45956589D01*
X31072068Y-46226842D01*
X31015000Y-46513740D01*
X31015000Y-46806260D01*
X31072068Y-47093158D01*
X31184010Y-47363411D01*
X31346525Y-47606632D01*
X31553368Y-47813475D01*
X31727760Y-47930000D01*
X31553368Y-48046525D01*
X31346525Y-48253368D01*
X31184010Y-48496589D01*
X31072068Y-48766842D01*
X31015000Y-49053740D01*
X31015000Y-49346260D01*
X31072068Y-49633158D01*
X31184010Y-49903411D01*
X31346525Y-50146632D01*
X31553368Y-50353475D01*
X31727760Y-50470000D01*
X31553368Y-50586525D01*
X31346525Y-50793368D01*
X31184010Y-51036589D01*
X31072068Y-51306842D01*
X31015000Y-51593740D01*
X31015000Y-51886260D01*
X31072068Y-52173158D01*
X31184010Y-52443411D01*
X31346525Y-52686632D01*
X31553368Y-52893475D01*
X31727760Y-53010000D01*
X31553368Y-53126525D01*
X31346525Y-53333368D01*
X31184010Y-53576589D01*
X31072068Y-53846842D01*
X31015000Y-54133740D01*
X31015000Y-54426260D01*
X31072068Y-54713158D01*
X31184010Y-54983411D01*
X31346525Y-55226632D01*
X31553368Y-55433475D01*
X31727760Y-55550000D01*
X31553368Y-55666525D01*
X31346525Y-55873368D01*
X31184010Y-56116589D01*
X31072068Y-56386842D01*
X31015000Y-56673740D01*
X31015000Y-56966260D01*
X31072068Y-57253158D01*
X31184010Y-57523411D01*
X31346525Y-57766632D01*
X31553368Y-57973475D01*
X31727760Y-58090000D01*
X31553368Y-58206525D01*
X31346525Y-58413368D01*
X31184010Y-58656589D01*
X31072068Y-58926842D01*
X31015000Y-59213740D01*
X31015000Y-59506260D01*
X31072068Y-59793158D01*
X31184010Y-60063411D01*
X31346525Y-60306632D01*
X31553368Y-60513475D01*
X31727760Y-60630000D01*
X31553368Y-60746525D01*
X31346525Y-60953368D01*
X31184010Y-61196589D01*
X31072068Y-61466842D01*
X31015000Y-61753740D01*
X31015000Y-62046260D01*
X31072068Y-62333158D01*
X31184010Y-62603411D01*
X31346525Y-62846632D01*
X31553368Y-63053475D01*
X31796589Y-63215990D01*
X32066842Y-63327932D01*
X32353740Y-63385000D01*
X32646260Y-63385000D01*
X32933158Y-63327932D01*
X33203411Y-63215990D01*
X33302172Y-63150000D01*
X51511928Y-63150000D01*
X51511928Y-64850000D01*
X51524188Y-64974482D01*
X51560498Y-65094180D01*
X51619463Y-65204494D01*
X51698815Y-65301185D01*
X51795506Y-65380537D01*
X51905820Y-65439502D01*
X52025518Y-65475812D01*
X52150000Y-65488072D01*
X53850000Y-65488072D01*
X53974482Y-65475812D01*
X54094180Y-65439502D01*
X54204494Y-65380537D01*
X54301185Y-65301185D01*
X54380537Y-65204494D01*
X54439502Y-65094180D01*
X54463966Y-65013534D01*
X54539731Y-65097588D01*
X54773080Y-65271641D01*
X55035901Y-65396825D01*
X55183110Y-65441476D01*
X55413000Y-65320155D01*
X55413000Y-64127000D01*
X55667000Y-64127000D01*
X55667000Y-65320155D01*
X55896890Y-65441476D01*
X56044099Y-65396825D01*
X56306920Y-65271641D01*
X56540269Y-65097588D01*
X56735178Y-64881355D01*
X56884157Y-64631252D01*
X56981481Y-64356891D01*
X56860814Y-64127000D01*
X55667000Y-64127000D01*
X55413000Y-64127000D01*
X55393000Y-64127000D01*
X55393000Y-63873000D01*
X55413000Y-63873000D01*
X55413000Y-62679845D01*
X55667000Y-62679845D01*
X55667000Y-63873000D01*
X56860814Y-63873000D01*
X56981481Y-63643109D01*
X56884157Y-63368748D01*
X56753856Y-63150000D01*
X60511928Y-63150000D01*
X60511928Y-64850000D01*
X60524188Y-64974482D01*
X60560498Y-65094180D01*
X60619463Y-65204494D01*
X60698815Y-65301185D01*
X60795506Y-65380537D01*
X60905820Y-65439502D01*
X61025518Y-65475812D01*
X61150000Y-65488072D01*
X62850000Y-65488072D01*
X62974482Y-65475812D01*
X63094180Y-65439502D01*
X63204494Y-65380537D01*
X63301185Y-65301185D01*
X63380537Y-65204494D01*
X63439502Y-65094180D01*
X63463966Y-65013534D01*
X63539731Y-65097588D01*
X63773080Y-65271641D01*
X64035901Y-65396825D01*
X64183110Y-65441476D01*
X64413000Y-65320155D01*
X64413000Y-64127000D01*
X64667000Y-64127000D01*
X64667000Y-65320155D01*
X64896890Y-65441476D01*
X65044099Y-65396825D01*
X65306920Y-65271641D01*
X65540269Y-65097588D01*
X65735178Y-64881355D01*
X65884157Y-64631252D01*
X65981481Y-64356891D01*
X65860814Y-64127000D01*
X64667000Y-64127000D01*
X64413000Y-64127000D01*
X64393000Y-64127000D01*
X64393000Y-63873000D01*
X64413000Y-63873000D01*
X64413000Y-62679845D01*
X64667000Y-62679845D01*
X64667000Y-63873000D01*
X65860814Y-63873000D01*
X65981481Y-63643109D01*
X65884157Y-63368748D01*
X65753856Y-63150000D01*
X69511928Y-63150000D01*
X69511928Y-64850000D01*
X69524188Y-64974482D01*
X69560498Y-65094180D01*
X69619463Y-65204494D01*
X69698815Y-65301185D01*
X69795506Y-65380537D01*
X69905820Y-65439502D01*
X70025518Y-65475812D01*
X70150000Y-65488072D01*
X71850000Y-65488072D01*
X71974482Y-65475812D01*
X72094180Y-65439502D01*
X72204494Y-65380537D01*
X72301185Y-65301185D01*
X72380537Y-65204494D01*
X72439502Y-65094180D01*
X72463966Y-65013534D01*
X72539731Y-65097588D01*
X72773080Y-65271641D01*
X73035901Y-65396825D01*
X73183110Y-65441476D01*
X73413000Y-65320155D01*
X73413000Y-64127000D01*
X73667000Y-64127000D01*
X73667000Y-65320155D01*
X73896890Y-65441476D01*
X74044099Y-65396825D01*
X74306920Y-65271641D01*
X74540269Y-65097588D01*
X74735178Y-64881355D01*
X74884157Y-64631252D01*
X74981481Y-64356891D01*
X74860814Y-64127000D01*
X73667000Y-64127000D01*
X73413000Y-64127000D01*
X73393000Y-64127000D01*
X73393000Y-63873000D01*
X73413000Y-63873000D01*
X73413000Y-62679845D01*
X73667000Y-62679845D01*
X73667000Y-63873000D01*
X74860814Y-63873000D01*
X74981481Y-63643109D01*
X74884157Y-63368748D01*
X74735178Y-63118645D01*
X74540269Y-62902412D01*
X74306920Y-62728359D01*
X74044099Y-62603175D01*
X73896890Y-62558524D01*
X73667000Y-62679845D01*
X73413000Y-62679845D01*
X73183110Y-62558524D01*
X73035901Y-62603175D01*
X72773080Y-62728359D01*
X72539731Y-62902412D01*
X72463966Y-62986466D01*
X72439502Y-62905820D01*
X72380537Y-62795506D01*
X72301185Y-62698815D01*
X72204494Y-62619463D01*
X72094180Y-62560498D01*
X71974482Y-62524188D01*
X71850000Y-62511928D01*
X70150000Y-62511928D01*
X70025518Y-62524188D01*
X69905820Y-62560498D01*
X69795506Y-62619463D01*
X69698815Y-62698815D01*
X69619463Y-62795506D01*
X69560498Y-62905820D01*
X69524188Y-63025518D01*
X69511928Y-63150000D01*
X65753856Y-63150000D01*
X65735178Y-63118645D01*
X65540269Y-62902412D01*
X65306920Y-62728359D01*
X65044099Y-62603175D01*
X64896890Y-62558524D01*
X64667000Y-62679845D01*
X64413000Y-62679845D01*
X64183110Y-62558524D01*
X64035901Y-62603175D01*
X63773080Y-62728359D01*
X63539731Y-62902412D01*
X63463966Y-62986466D01*
X63439502Y-62905820D01*
X63380537Y-62795506D01*
X63301185Y-62698815D01*
X63204494Y-62619463D01*
X63094180Y-62560498D01*
X62974482Y-62524188D01*
X62850000Y-62511928D01*
X61150000Y-62511928D01*
X61025518Y-62524188D01*
X60905820Y-62560498D01*
X60795506Y-62619463D01*
X60698815Y-62698815D01*
X60619463Y-62795506D01*
X60560498Y-62905820D01*
X60524188Y-63025518D01*
X60511928Y-63150000D01*
X56753856Y-63150000D01*
X56735178Y-63118645D01*
X56540269Y-62902412D01*
X56306920Y-62728359D01*
X56044099Y-62603175D01*
X55896890Y-62558524D01*
X55667000Y-62679845D01*
X55413000Y-62679845D01*
X55183110Y-62558524D01*
X55035901Y-62603175D01*
X54773080Y-62728359D01*
X54539731Y-62902412D01*
X54463966Y-62986466D01*
X54439502Y-62905820D01*
X54380537Y-62795506D01*
X54301185Y-62698815D01*
X54204494Y-62619463D01*
X54094180Y-62560498D01*
X53974482Y-62524188D01*
X53850000Y-62511928D01*
X52150000Y-62511928D01*
X52025518Y-62524188D01*
X51905820Y-62560498D01*
X51795506Y-62619463D01*
X51698815Y-62698815D01*
X51619463Y-62795506D01*
X51560498Y-62905820D01*
X51524188Y-63025518D01*
X51511928Y-63150000D01*
X33302172Y-63150000D01*
X33446632Y-63053475D01*
X33653475Y-62846632D01*
X33815990Y-62603411D01*
X33927932Y-62333158D01*
X33985000Y-62046260D01*
X33985000Y-61753740D01*
X33927932Y-61466842D01*
X33815990Y-61196589D01*
X33653475Y-60953368D01*
X33446632Y-60746525D01*
X33272240Y-60630000D01*
X33446632Y-60513475D01*
X33653475Y-60306632D01*
X33815990Y-60063411D01*
X33927932Y-59793158D01*
X33985000Y-59506260D01*
X33985000Y-59213740D01*
X33970539Y-59141039D01*
X37126579Y-55985000D01*
X37861546Y-55985000D01*
X37909744Y-56017205D01*
X38098102Y-56095226D01*
X38298061Y-56135000D01*
X38501939Y-56135000D01*
X38701898Y-56095226D01*
X38890256Y-56017205D01*
X39059774Y-55903937D01*
X39203937Y-55759774D01*
X39317205Y-55590256D01*
X39395226Y-55401898D01*
X39435000Y-55201939D01*
X39435000Y-54998061D01*
X39395226Y-54798102D01*
X39317205Y-54609744D01*
X39203937Y-54440226D01*
X39059774Y-54296063D01*
X38890256Y-54182795D01*
X38701898Y-54104774D01*
X38501939Y-54065000D01*
X38298061Y-54065000D01*
X38098102Y-54104774D01*
X37909744Y-54182795D01*
X37861546Y-54215000D01*
X36803469Y-54215000D01*
X36760000Y-54210719D01*
X36716531Y-54215000D01*
X36716523Y-54215000D01*
X36586510Y-54227805D01*
X36419687Y-54278411D01*
X36265941Y-54360589D01*
X36164953Y-54443468D01*
X36164951Y-54443470D01*
X36131183Y-54471183D01*
X36103470Y-54504951D01*
X33976652Y-56631770D01*
X33927932Y-56386842D01*
X33815990Y-56116589D01*
X33653475Y-55873368D01*
X33446632Y-55666525D01*
X33272240Y-55550000D01*
X33446632Y-55433475D01*
X33653475Y-55226632D01*
X33815990Y-54983411D01*
X33927932Y-54713158D01*
X33985000Y-54426260D01*
X33985000Y-54133740D01*
X33927932Y-53846842D01*
X33815990Y-53576589D01*
X33653475Y-53333368D01*
X33446632Y-53126525D01*
X33272240Y-53010000D01*
X33446632Y-52893475D01*
X33653475Y-52686632D01*
X33694656Y-52625000D01*
X40539107Y-52625000D01*
X45106951Y-57192845D01*
X45104774Y-57198102D01*
X45065000Y-57398061D01*
X45065000Y-57601939D01*
X45104774Y-57801898D01*
X45182795Y-57990256D01*
X45296063Y-58159774D01*
X45440226Y-58303937D01*
X45609744Y-58417205D01*
X45798102Y-58495226D01*
X45998061Y-58535000D01*
X46201939Y-58535000D01*
X46401898Y-58495226D01*
X46590256Y-58417205D01*
X46759774Y-58303937D01*
X46903937Y-58159774D01*
X47017205Y-57990256D01*
X47095226Y-57801898D01*
X47135000Y-57601939D01*
X47135000Y-57398061D01*
X47095226Y-57198102D01*
X47017205Y-57009744D01*
X46986394Y-56963632D01*
X46989281Y-56934315D01*
X46985000Y-56890846D01*
X46985000Y-56890838D01*
X46972195Y-56760825D01*
X46921589Y-56594002D01*
X46839411Y-56440256D01*
X46728817Y-56305498D01*
X46695049Y-56277785D01*
X42567264Y-52150000D01*
X88511928Y-52150000D01*
X88511928Y-53850000D01*
X88524188Y-53974482D01*
X88560498Y-54094180D01*
X88619463Y-54204494D01*
X88698815Y-54301185D01*
X88795506Y-54380537D01*
X88905820Y-54439502D01*
X89025518Y-54475812D01*
X89150000Y-54488072D01*
X90850000Y-54488072D01*
X90974482Y-54475812D01*
X91094180Y-54439502D01*
X91204494Y-54380537D01*
X91301185Y-54301185D01*
X91380537Y-54204494D01*
X91439502Y-54094180D01*
X91475812Y-53974482D01*
X91488072Y-53850000D01*
X91488072Y-52150000D01*
X91475812Y-52025518D01*
X91439502Y-51905820D01*
X91380537Y-51795506D01*
X91301185Y-51698815D01*
X91204494Y-51619463D01*
X91094180Y-51560498D01*
X91021620Y-51538487D01*
X91153475Y-51406632D01*
X91315990Y-51163411D01*
X91427932Y-50893158D01*
X91485000Y-50606260D01*
X91485000Y-50313740D01*
X91427932Y-50026842D01*
X91315990Y-49756589D01*
X91153475Y-49513368D01*
X90946632Y-49306525D01*
X90772240Y-49190000D01*
X90946632Y-49073475D01*
X91153475Y-48866632D01*
X91315990Y-48623411D01*
X91427932Y-48353158D01*
X91485000Y-48066260D01*
X91485000Y-47773740D01*
X91427932Y-47486842D01*
X91315990Y-47216589D01*
X91153475Y-46973368D01*
X90946632Y-46766525D01*
X90772240Y-46650000D01*
X90946632Y-46533475D01*
X91153475Y-46326632D01*
X91315990Y-46083411D01*
X91427932Y-45813158D01*
X91485000Y-45526260D01*
X91485000Y-45233740D01*
X91427932Y-44946842D01*
X91315990Y-44676589D01*
X91153475Y-44433368D01*
X90946632Y-44226525D01*
X90703411Y-44064010D01*
X90433158Y-43952068D01*
X90146260Y-43895000D01*
X89853740Y-43895000D01*
X89566842Y-43952068D01*
X89296589Y-44064010D01*
X89053368Y-44226525D01*
X88846525Y-44433368D01*
X88684010Y-44676589D01*
X88572068Y-44946842D01*
X88515000Y-45233740D01*
X88515000Y-45526260D01*
X88572068Y-45813158D01*
X88684010Y-46083411D01*
X88846525Y-46326632D01*
X89053368Y-46533475D01*
X89227760Y-46650000D01*
X89053368Y-46766525D01*
X88846525Y-46973368D01*
X88684010Y-47216589D01*
X88572068Y-47486842D01*
X88515000Y-47773740D01*
X88515000Y-48066260D01*
X88572068Y-48353158D01*
X88684010Y-48623411D01*
X88846525Y-48866632D01*
X89053368Y-49073475D01*
X89227760Y-49190000D01*
X89053368Y-49306525D01*
X88846525Y-49513368D01*
X88684010Y-49756589D01*
X88572068Y-50026842D01*
X88515000Y-50313740D01*
X88515000Y-50606260D01*
X88572068Y-50893158D01*
X88684010Y-51163411D01*
X88846525Y-51406632D01*
X88978380Y-51538487D01*
X88905820Y-51560498D01*
X88795506Y-51619463D01*
X88698815Y-51698815D01*
X88619463Y-51795506D01*
X88560498Y-51905820D01*
X88524188Y-52025518D01*
X88511928Y-52150000D01*
X42567264Y-52150000D01*
X41562219Y-51144956D01*
X41534502Y-51111183D01*
X41399744Y-51000589D01*
X41245998Y-50918411D01*
X41079175Y-50867805D01*
X40949162Y-50855000D01*
X40949154Y-50855000D01*
X40905685Y-50850719D01*
X40862216Y-50855000D01*
X33694656Y-50855000D01*
X33653475Y-50793368D01*
X33446632Y-50586525D01*
X33272240Y-50470000D01*
X33446632Y-50353475D01*
X33653475Y-50146632D01*
X33815990Y-49903411D01*
X33927932Y-49633158D01*
X33985000Y-49346260D01*
X33985000Y-49053740D01*
X33927932Y-48766842D01*
X33815990Y-48496589D01*
X33653475Y-48253368D01*
X33446632Y-48046525D01*
X33272240Y-47930000D01*
X33446632Y-47813475D01*
X33653475Y-47606632D01*
X33815990Y-47363411D01*
X33927932Y-47093158D01*
X33985000Y-46806260D01*
X33985000Y-46513740D01*
X33927932Y-46226842D01*
X33815990Y-45956589D01*
X33653475Y-45713368D01*
X33446632Y-45506525D01*
X33272240Y-45390000D01*
X33446632Y-45273475D01*
X33653475Y-45066632D01*
X33815990Y-44823411D01*
X33927932Y-44553158D01*
X33985000Y-44266260D01*
X33985000Y-43973740D01*
X33927932Y-43686842D01*
X33815990Y-43416589D01*
X33653475Y-43173368D01*
X33446632Y-42966525D01*
X33264466Y-42844805D01*
X33381355Y-42775178D01*
X33597588Y-42580269D01*
X33771641Y-42346920D01*
X33896825Y-42084099D01*
X33941476Y-41936890D01*
X33820155Y-41707000D01*
X32627000Y-41707000D01*
X32627000Y-41727000D01*
X32373000Y-41727000D01*
X32373000Y-41707000D01*
X31179845Y-41707000D01*
X31058524Y-41936890D01*
X31103175Y-42084099D01*
X31228359Y-42346920D01*
X31402412Y-42580269D01*
X31618645Y-42775178D01*
X31735534Y-42844805D01*
X31553368Y-42966525D01*
X31346525Y-43173368D01*
X31184010Y-43416589D01*
X31072068Y-43686842D01*
X31015000Y-43973740D01*
X30395082Y-43973740D01*
X30389052Y-39396890D01*
X31058524Y-39396890D01*
X31103175Y-39544099D01*
X31228359Y-39806920D01*
X31402412Y-40040269D01*
X31618645Y-40235178D01*
X31744255Y-40310000D01*
X31618645Y-40384822D01*
X31402412Y-40579731D01*
X31228359Y-40813080D01*
X31103175Y-41075901D01*
X31058524Y-41223110D01*
X31179845Y-41453000D01*
X32373000Y-41453000D01*
X32373000Y-39167000D01*
X32627000Y-39167000D01*
X32627000Y-41453000D01*
X33820155Y-41453000D01*
X33941476Y-41223110D01*
X33896825Y-41075901D01*
X33771641Y-40813080D01*
X33597588Y-40579731D01*
X33381355Y-40384822D01*
X33255745Y-40310000D01*
X33381355Y-40235178D01*
X33597588Y-40040269D01*
X33771641Y-39806920D01*
X33896825Y-39544099D01*
X33941476Y-39396890D01*
X33820155Y-39167000D01*
X32627000Y-39167000D01*
X32373000Y-39167000D01*
X31179845Y-39167000D01*
X31058524Y-39396890D01*
X30389052Y-39396890D01*
X30384115Y-35650000D01*
X31011928Y-35650000D01*
X31011928Y-37350000D01*
X31024188Y-37474482D01*
X31060498Y-37594180D01*
X31119463Y-37704494D01*
X31198815Y-37801185D01*
X31295506Y-37880537D01*
X31405820Y-37939502D01*
X31486466Y-37963966D01*
X31402412Y-38039731D01*
X31228359Y-38273080D01*
X31103175Y-38535901D01*
X31058524Y-38683110D01*
X31179845Y-38913000D01*
X32373000Y-38913000D01*
X32373000Y-38893000D01*
X32627000Y-38893000D01*
X32627000Y-38913000D01*
X33820155Y-38913000D01*
X33941476Y-38683110D01*
X33896825Y-38535901D01*
X33771641Y-38273080D01*
X33597588Y-38039731D01*
X33513534Y-37963966D01*
X33594180Y-37939502D01*
X33704494Y-37880537D01*
X33801185Y-37801185D01*
X33880537Y-37704494D01*
X33939502Y-37594180D01*
X33975812Y-37474482D01*
X33988072Y-37350000D01*
X33988072Y-37156891D01*
X77038519Y-37156891D01*
X77135843Y-37431252D01*
X77284822Y-37681355D01*
X77479731Y-37897588D01*
X77713080Y-38071641D01*
X77975901Y-38196825D01*
X78123110Y-38241476D01*
X78353000Y-38120155D01*
X78353000Y-36927000D01*
X77159186Y-36927000D01*
X77038519Y-37156891D01*
X33988072Y-37156891D01*
X33988072Y-36443109D01*
X77038519Y-36443109D01*
X77159186Y-36673000D01*
X78353000Y-36673000D01*
X78353000Y-35479845D01*
X78607000Y-35479845D01*
X78607000Y-36673000D01*
X78627000Y-36673000D01*
X78627000Y-36927000D01*
X78607000Y-36927000D01*
X78607000Y-38120155D01*
X78836890Y-38241476D01*
X78984099Y-38196825D01*
X79246920Y-38071641D01*
X79480269Y-37897588D01*
X79675178Y-37681355D01*
X79744805Y-37564466D01*
X79866525Y-37746632D01*
X80073368Y-37953475D01*
X80316589Y-38115990D01*
X80586842Y-38227932D01*
X80873740Y-38285000D01*
X81166260Y-38285000D01*
X81453158Y-38227932D01*
X81723411Y-38115990D01*
X81966632Y-37953475D01*
X82173475Y-37746632D01*
X82290000Y-37572240D01*
X82406525Y-37746632D01*
X82613368Y-37953475D01*
X82856589Y-38115990D01*
X83126842Y-38227932D01*
X83413740Y-38285000D01*
X83706260Y-38285000D01*
X83993158Y-38227932D01*
X84263411Y-38115990D01*
X84506632Y-37953475D01*
X84638487Y-37821620D01*
X84660498Y-37894180D01*
X84719463Y-38004494D01*
X84798815Y-38101185D01*
X84895506Y-38180537D01*
X85005820Y-38239502D01*
X85125518Y-38275812D01*
X85250000Y-38288072D01*
X86950000Y-38288072D01*
X87074482Y-38275812D01*
X87194180Y-38239502D01*
X87304494Y-38180537D01*
X87401185Y-38101185D01*
X87480537Y-38004494D01*
X87539502Y-37894180D01*
X87575812Y-37774482D01*
X87588072Y-37650000D01*
X87588072Y-35950000D01*
X87575812Y-35825518D01*
X87539502Y-35705820D01*
X87480537Y-35595506D01*
X87401185Y-35498815D01*
X87304494Y-35419463D01*
X87194180Y-35360498D01*
X87074482Y-35324188D01*
X86950000Y-35311928D01*
X85250000Y-35311928D01*
X85125518Y-35324188D01*
X85005820Y-35360498D01*
X84895506Y-35419463D01*
X84798815Y-35498815D01*
X84719463Y-35595506D01*
X84660498Y-35705820D01*
X84638487Y-35778380D01*
X84506632Y-35646525D01*
X84263411Y-35484010D01*
X83993158Y-35372068D01*
X83706260Y-35315000D01*
X83413740Y-35315000D01*
X83126842Y-35372068D01*
X82856589Y-35484010D01*
X82613368Y-35646525D01*
X82406525Y-35853368D01*
X82290000Y-36027760D01*
X82173475Y-35853368D01*
X81966632Y-35646525D01*
X81723411Y-35484010D01*
X81453158Y-35372068D01*
X81166260Y-35315000D01*
X80873740Y-35315000D01*
X80586842Y-35372068D01*
X80316589Y-35484010D01*
X80073368Y-35646525D01*
X79866525Y-35853368D01*
X79744805Y-36035534D01*
X79675178Y-35918645D01*
X79480269Y-35702412D01*
X79246920Y-35528359D01*
X78984099Y-35403175D01*
X78836890Y-35358524D01*
X78607000Y-35479845D01*
X78353000Y-35479845D01*
X78123110Y-35358524D01*
X77975901Y-35403175D01*
X77713080Y-35528359D01*
X77479731Y-35702412D01*
X77284822Y-35918645D01*
X77135843Y-36168748D01*
X77038519Y-36443109D01*
X33988072Y-36443109D01*
X33988072Y-35650000D01*
X33975812Y-35525518D01*
X33939502Y-35405820D01*
X33880537Y-35295506D01*
X33801185Y-35198815D01*
X33704494Y-35119463D01*
X33594180Y-35060498D01*
X33474482Y-35024188D01*
X33350000Y-35011928D01*
X31650000Y-35011928D01*
X31525518Y-35024188D01*
X31405820Y-35060498D01*
X31295506Y-35119463D01*
X31198815Y-35198815D01*
X31119463Y-35295506D01*
X31060498Y-35405820D01*
X31024188Y-35525518D01*
X31011928Y-35650000D01*
X30384115Y-35650000D01*
X30380489Y-32897997D01*
X30450890Y-33251925D01*
X30619369Y-33658669D01*
X30863962Y-34024729D01*
X31175271Y-34336038D01*
X31541331Y-34580631D01*
X31948075Y-34749110D01*
X32379872Y-34835000D01*
X32820128Y-34835000D01*
X33251925Y-34749110D01*
X33658669Y-34580631D01*
X34024729Y-34336038D01*
X34336038Y-34024729D01*
X34580631Y-33658669D01*
X34749110Y-33251925D01*
X34835000Y-32820128D01*
X34835000Y-32379872D01*
X34749110Y-31948075D01*
X34580631Y-31541331D01*
X34336038Y-31175271D01*
X34024729Y-30863962D01*
X33658669Y-30619369D01*
X33251925Y-30450890D01*
X32896539Y-30380199D01*
X89260959Y-30448327D01*
G37*
X89260959Y-30448327D02*
X89248075Y-30450890D01*
X88841331Y-30619369D01*
X88475271Y-30863962D01*
X88163962Y-31175271D01*
X87919369Y-31541331D01*
X87750890Y-31948075D01*
X87665000Y-32379872D01*
X87665000Y-32820128D01*
X87750890Y-33251925D01*
X87919369Y-33658669D01*
X88163962Y-34024729D01*
X88475271Y-34336038D01*
X88841331Y-34580631D01*
X89248075Y-34749110D01*
X89679872Y-34835000D01*
X90120128Y-34835000D01*
X90551925Y-34749110D01*
X90958669Y-34580631D01*
X91324729Y-34336038D01*
X91636038Y-34024729D01*
X91880631Y-33658669D01*
X92049110Y-33251925D01*
X92135000Y-32820128D01*
X92135000Y-32379872D01*
X92049110Y-31948075D01*
X91880631Y-31541331D01*
X91636038Y-31175271D01*
X91324729Y-30863962D01*
X90958669Y-30619369D01*
X90551925Y-30450890D01*
X90546855Y-30449881D01*
X92173000Y-30451847D01*
X92173000Y-68147846D01*
X30426833Y-68073153D01*
X30424522Y-66319366D01*
X30450890Y-66451925D01*
X30619369Y-66858669D01*
X30863962Y-67224729D01*
X31175271Y-67536038D01*
X31541331Y-67780631D01*
X31948075Y-67949110D01*
X32379872Y-68035000D01*
X32820128Y-68035000D01*
X33251925Y-67949110D01*
X33658669Y-67780631D01*
X34024729Y-67536038D01*
X34336038Y-67224729D01*
X34580631Y-66858669D01*
X34749110Y-66451925D01*
X34835000Y-66020128D01*
X34835000Y-65579872D01*
X87665000Y-65579872D01*
X87665000Y-66020128D01*
X87750890Y-66451925D01*
X87919369Y-66858669D01*
X88163962Y-67224729D01*
X88475271Y-67536038D01*
X88841331Y-67780631D01*
X89248075Y-67949110D01*
X89679872Y-68035000D01*
X90120128Y-68035000D01*
X90551925Y-67949110D01*
X90958669Y-67780631D01*
X91324729Y-67536038D01*
X91636038Y-67224729D01*
X91880631Y-66858669D01*
X92049110Y-66451925D01*
X92135000Y-66020128D01*
X92135000Y-65579872D01*
X92049110Y-65148075D01*
X91880631Y-64741331D01*
X91636038Y-64375271D01*
X91324729Y-64063962D01*
X90958669Y-63819369D01*
X90551925Y-63650890D01*
X90120128Y-63565000D01*
X89679872Y-63565000D01*
X89248075Y-63650890D01*
X88841331Y-63819369D01*
X88475271Y-64063962D01*
X88163962Y-64375271D01*
X87919369Y-64741331D01*
X87750890Y-65148075D01*
X87665000Y-65579872D01*
X34835000Y-65579872D01*
X34749110Y-65148075D01*
X34580631Y-64741331D01*
X34336038Y-64375271D01*
X34024729Y-64063962D01*
X33658669Y-63819369D01*
X33251925Y-63650890D01*
X32820128Y-63565000D01*
X32379872Y-63565000D01*
X31948075Y-63650890D01*
X31541331Y-63819369D01*
X31175271Y-64063962D01*
X30863962Y-64375271D01*
X30619369Y-64741331D01*
X30450890Y-65148075D01*
X30423163Y-65287469D01*
X30395082Y-43973740D01*
X31015000Y-43973740D01*
X31015000Y-44266260D01*
X31072068Y-44553158D01*
X31184010Y-44823411D01*
X31346525Y-45066632D01*
X31553368Y-45273475D01*
X31727760Y-45390000D01*
X31553368Y-45506525D01*
X31346525Y-45713368D01*
X31184010Y-45956589D01*
X31072068Y-46226842D01*
X31015000Y-46513740D01*
X31015000Y-46806260D01*
X31072068Y-47093158D01*
X31184010Y-47363411D01*
X31346525Y-47606632D01*
X31553368Y-47813475D01*
X31727760Y-47930000D01*
X31553368Y-48046525D01*
X31346525Y-48253368D01*
X31184010Y-48496589D01*
X31072068Y-48766842D01*
X31015000Y-49053740D01*
X31015000Y-49346260D01*
X31072068Y-49633158D01*
X31184010Y-49903411D01*
X31346525Y-50146632D01*
X31553368Y-50353475D01*
X31727760Y-50470000D01*
X31553368Y-50586525D01*
X31346525Y-50793368D01*
X31184010Y-51036589D01*
X31072068Y-51306842D01*
X31015000Y-51593740D01*
X31015000Y-51886260D01*
X31072068Y-52173158D01*
X31184010Y-52443411D01*
X31346525Y-52686632D01*
X31553368Y-52893475D01*
X31727760Y-53010000D01*
X31553368Y-53126525D01*
X31346525Y-53333368D01*
X31184010Y-53576589D01*
X31072068Y-53846842D01*
X31015000Y-54133740D01*
X31015000Y-54426260D01*
X31072068Y-54713158D01*
X31184010Y-54983411D01*
X31346525Y-55226632D01*
X31553368Y-55433475D01*
X31727760Y-55550000D01*
X31553368Y-55666525D01*
X31346525Y-55873368D01*
X31184010Y-56116589D01*
X31072068Y-56386842D01*
X31015000Y-56673740D01*
X31015000Y-56966260D01*
X31072068Y-57253158D01*
X31184010Y-57523411D01*
X31346525Y-57766632D01*
X31553368Y-57973475D01*
X31727760Y-58090000D01*
X31553368Y-58206525D01*
X31346525Y-58413368D01*
X31184010Y-58656589D01*
X31072068Y-58926842D01*
X31015000Y-59213740D01*
X31015000Y-59506260D01*
X31072068Y-59793158D01*
X31184010Y-60063411D01*
X31346525Y-60306632D01*
X31553368Y-60513475D01*
X31727760Y-60630000D01*
X31553368Y-60746525D01*
X31346525Y-60953368D01*
X31184010Y-61196589D01*
X31072068Y-61466842D01*
X31015000Y-61753740D01*
X31015000Y-62046260D01*
X31072068Y-62333158D01*
X31184010Y-62603411D01*
X31346525Y-62846632D01*
X31553368Y-63053475D01*
X31796589Y-63215990D01*
X32066842Y-63327932D01*
X32353740Y-63385000D01*
X32646260Y-63385000D01*
X32933158Y-63327932D01*
X33203411Y-63215990D01*
X33302172Y-63150000D01*
X51511928Y-63150000D01*
X51511928Y-64850000D01*
X51524188Y-64974482D01*
X51560498Y-65094180D01*
X51619463Y-65204494D01*
X51698815Y-65301185D01*
X51795506Y-65380537D01*
X51905820Y-65439502D01*
X52025518Y-65475812D01*
X52150000Y-65488072D01*
X53850000Y-65488072D01*
X53974482Y-65475812D01*
X54094180Y-65439502D01*
X54204494Y-65380537D01*
X54301185Y-65301185D01*
X54380537Y-65204494D01*
X54439502Y-65094180D01*
X54463966Y-65013534D01*
X54539731Y-65097588D01*
X54773080Y-65271641D01*
X55035901Y-65396825D01*
X55183110Y-65441476D01*
X55413000Y-65320155D01*
X55413000Y-64127000D01*
X55667000Y-64127000D01*
X55667000Y-65320155D01*
X55896890Y-65441476D01*
X56044099Y-65396825D01*
X56306920Y-65271641D01*
X56540269Y-65097588D01*
X56735178Y-64881355D01*
X56884157Y-64631252D01*
X56981481Y-64356891D01*
X56860814Y-64127000D01*
X55667000Y-64127000D01*
X55413000Y-64127000D01*
X55393000Y-64127000D01*
X55393000Y-63873000D01*
X55413000Y-63873000D01*
X55413000Y-62679845D01*
X55667000Y-62679845D01*
X55667000Y-63873000D01*
X56860814Y-63873000D01*
X56981481Y-63643109D01*
X56884157Y-63368748D01*
X56753856Y-63150000D01*
X60511928Y-63150000D01*
X60511928Y-64850000D01*
X60524188Y-64974482D01*
X60560498Y-65094180D01*
X60619463Y-65204494D01*
X60698815Y-65301185D01*
X60795506Y-65380537D01*
X60905820Y-65439502D01*
X61025518Y-65475812D01*
X61150000Y-65488072D01*
X62850000Y-65488072D01*
X62974482Y-65475812D01*
X63094180Y-65439502D01*
X63204494Y-65380537D01*
X63301185Y-65301185D01*
X63380537Y-65204494D01*
X63439502Y-65094180D01*
X63463966Y-65013534D01*
X63539731Y-65097588D01*
X63773080Y-65271641D01*
X64035901Y-65396825D01*
X64183110Y-65441476D01*
X64413000Y-65320155D01*
X64413000Y-64127000D01*
X64667000Y-64127000D01*
X64667000Y-65320155D01*
X64896890Y-65441476D01*
X65044099Y-65396825D01*
X65306920Y-65271641D01*
X65540269Y-65097588D01*
X65735178Y-64881355D01*
X65884157Y-64631252D01*
X65981481Y-64356891D01*
X65860814Y-64127000D01*
X64667000Y-64127000D01*
X64413000Y-64127000D01*
X64393000Y-64127000D01*
X64393000Y-63873000D01*
X64413000Y-63873000D01*
X64413000Y-62679845D01*
X64667000Y-62679845D01*
X64667000Y-63873000D01*
X65860814Y-63873000D01*
X65981481Y-63643109D01*
X65884157Y-63368748D01*
X65753856Y-63150000D01*
X69511928Y-63150000D01*
X69511928Y-64850000D01*
X69524188Y-64974482D01*
X69560498Y-65094180D01*
X69619463Y-65204494D01*
X69698815Y-65301185D01*
X69795506Y-65380537D01*
X69905820Y-65439502D01*
X70025518Y-65475812D01*
X70150000Y-65488072D01*
X71850000Y-65488072D01*
X71974482Y-65475812D01*
X72094180Y-65439502D01*
X72204494Y-65380537D01*
X72301185Y-65301185D01*
X72380537Y-65204494D01*
X72439502Y-65094180D01*
X72463966Y-65013534D01*
X72539731Y-65097588D01*
X72773080Y-65271641D01*
X73035901Y-65396825D01*
X73183110Y-65441476D01*
X73413000Y-65320155D01*
X73413000Y-64127000D01*
X73667000Y-64127000D01*
X73667000Y-65320155D01*
X73896890Y-65441476D01*
X74044099Y-65396825D01*
X74306920Y-65271641D01*
X74540269Y-65097588D01*
X74735178Y-64881355D01*
X74884157Y-64631252D01*
X74981481Y-64356891D01*
X74860814Y-64127000D01*
X73667000Y-64127000D01*
X73413000Y-64127000D01*
X73393000Y-64127000D01*
X73393000Y-63873000D01*
X73413000Y-63873000D01*
X73413000Y-62679845D01*
X73667000Y-62679845D01*
X73667000Y-63873000D01*
X74860814Y-63873000D01*
X74981481Y-63643109D01*
X74884157Y-63368748D01*
X74735178Y-63118645D01*
X74540269Y-62902412D01*
X74306920Y-62728359D01*
X74044099Y-62603175D01*
X73896890Y-62558524D01*
X73667000Y-62679845D01*
X73413000Y-62679845D01*
X73183110Y-62558524D01*
X73035901Y-62603175D01*
X72773080Y-62728359D01*
X72539731Y-62902412D01*
X72463966Y-62986466D01*
X72439502Y-62905820D01*
X72380537Y-62795506D01*
X72301185Y-62698815D01*
X72204494Y-62619463D01*
X72094180Y-62560498D01*
X71974482Y-62524188D01*
X71850000Y-62511928D01*
X70150000Y-62511928D01*
X70025518Y-62524188D01*
X69905820Y-62560498D01*
X69795506Y-62619463D01*
X69698815Y-62698815D01*
X69619463Y-62795506D01*
X69560498Y-62905820D01*
X69524188Y-63025518D01*
X69511928Y-63150000D01*
X65753856Y-63150000D01*
X65735178Y-63118645D01*
X65540269Y-62902412D01*
X65306920Y-62728359D01*
X65044099Y-62603175D01*
X64896890Y-62558524D01*
X64667000Y-62679845D01*
X64413000Y-62679845D01*
X64183110Y-62558524D01*
X64035901Y-62603175D01*
X63773080Y-62728359D01*
X63539731Y-62902412D01*
X63463966Y-62986466D01*
X63439502Y-62905820D01*
X63380537Y-62795506D01*
X63301185Y-62698815D01*
X63204494Y-62619463D01*
X63094180Y-62560498D01*
X62974482Y-62524188D01*
X62850000Y-62511928D01*
X61150000Y-62511928D01*
X61025518Y-62524188D01*
X60905820Y-62560498D01*
X60795506Y-62619463D01*
X60698815Y-62698815D01*
X60619463Y-62795506D01*
X60560498Y-62905820D01*
X60524188Y-63025518D01*
X60511928Y-63150000D01*
X56753856Y-63150000D01*
X56735178Y-63118645D01*
X56540269Y-62902412D01*
X56306920Y-62728359D01*
X56044099Y-62603175D01*
X55896890Y-62558524D01*
X55667000Y-62679845D01*
X55413000Y-62679845D01*
X55183110Y-62558524D01*
X55035901Y-62603175D01*
X54773080Y-62728359D01*
X54539731Y-62902412D01*
X54463966Y-62986466D01*
X54439502Y-62905820D01*
X54380537Y-62795506D01*
X54301185Y-62698815D01*
X54204494Y-62619463D01*
X54094180Y-62560498D01*
X53974482Y-62524188D01*
X53850000Y-62511928D01*
X52150000Y-62511928D01*
X52025518Y-62524188D01*
X51905820Y-62560498D01*
X51795506Y-62619463D01*
X51698815Y-62698815D01*
X51619463Y-62795506D01*
X51560498Y-62905820D01*
X51524188Y-63025518D01*
X51511928Y-63150000D01*
X33302172Y-63150000D01*
X33446632Y-63053475D01*
X33653475Y-62846632D01*
X33815990Y-62603411D01*
X33927932Y-62333158D01*
X33985000Y-62046260D01*
X33985000Y-61753740D01*
X33927932Y-61466842D01*
X33815990Y-61196589D01*
X33653475Y-60953368D01*
X33446632Y-60746525D01*
X33272240Y-60630000D01*
X33446632Y-60513475D01*
X33653475Y-60306632D01*
X33815990Y-60063411D01*
X33927932Y-59793158D01*
X33985000Y-59506260D01*
X33985000Y-59213740D01*
X33970539Y-59141039D01*
X37126579Y-55985000D01*
X37861546Y-55985000D01*
X37909744Y-56017205D01*
X38098102Y-56095226D01*
X38298061Y-56135000D01*
X38501939Y-56135000D01*
X38701898Y-56095226D01*
X38890256Y-56017205D01*
X39059774Y-55903937D01*
X39203937Y-55759774D01*
X39317205Y-55590256D01*
X39395226Y-55401898D01*
X39435000Y-55201939D01*
X39435000Y-54998061D01*
X39395226Y-54798102D01*
X39317205Y-54609744D01*
X39203937Y-54440226D01*
X39059774Y-54296063D01*
X38890256Y-54182795D01*
X38701898Y-54104774D01*
X38501939Y-54065000D01*
X38298061Y-54065000D01*
X38098102Y-54104774D01*
X37909744Y-54182795D01*
X37861546Y-54215000D01*
X36803469Y-54215000D01*
X36760000Y-54210719D01*
X36716531Y-54215000D01*
X36716523Y-54215000D01*
X36586510Y-54227805D01*
X36419687Y-54278411D01*
X36265941Y-54360589D01*
X36164953Y-54443468D01*
X36164951Y-54443470D01*
X36131183Y-54471183D01*
X36103470Y-54504951D01*
X33976652Y-56631770D01*
X33927932Y-56386842D01*
X33815990Y-56116589D01*
X33653475Y-55873368D01*
X33446632Y-55666525D01*
X33272240Y-55550000D01*
X33446632Y-55433475D01*
X33653475Y-55226632D01*
X33815990Y-54983411D01*
X33927932Y-54713158D01*
X33985000Y-54426260D01*
X33985000Y-54133740D01*
X33927932Y-53846842D01*
X33815990Y-53576589D01*
X33653475Y-53333368D01*
X33446632Y-53126525D01*
X33272240Y-53010000D01*
X33446632Y-52893475D01*
X33653475Y-52686632D01*
X33694656Y-52625000D01*
X40539107Y-52625000D01*
X45106951Y-57192845D01*
X45104774Y-57198102D01*
X45065000Y-57398061D01*
X45065000Y-57601939D01*
X45104774Y-57801898D01*
X45182795Y-57990256D01*
X45296063Y-58159774D01*
X45440226Y-58303937D01*
X45609744Y-58417205D01*
X45798102Y-58495226D01*
X45998061Y-58535000D01*
X46201939Y-58535000D01*
X46401898Y-58495226D01*
X46590256Y-58417205D01*
X46759774Y-58303937D01*
X46903937Y-58159774D01*
X47017205Y-57990256D01*
X47095226Y-57801898D01*
X47135000Y-57601939D01*
X47135000Y-57398061D01*
X47095226Y-57198102D01*
X47017205Y-57009744D01*
X46986394Y-56963632D01*
X46989281Y-56934315D01*
X46985000Y-56890846D01*
X46985000Y-56890838D01*
X46972195Y-56760825D01*
X46921589Y-56594002D01*
X46839411Y-56440256D01*
X46728817Y-56305498D01*
X46695049Y-56277785D01*
X42567264Y-52150000D01*
X88511928Y-52150000D01*
X88511928Y-53850000D01*
X88524188Y-53974482D01*
X88560498Y-54094180D01*
X88619463Y-54204494D01*
X88698815Y-54301185D01*
X88795506Y-54380537D01*
X88905820Y-54439502D01*
X89025518Y-54475812D01*
X89150000Y-54488072D01*
X90850000Y-54488072D01*
X90974482Y-54475812D01*
X91094180Y-54439502D01*
X91204494Y-54380537D01*
X91301185Y-54301185D01*
X91380537Y-54204494D01*
X91439502Y-54094180D01*
X91475812Y-53974482D01*
X91488072Y-53850000D01*
X91488072Y-52150000D01*
X91475812Y-52025518D01*
X91439502Y-51905820D01*
X91380537Y-51795506D01*
X91301185Y-51698815D01*
X91204494Y-51619463D01*
X91094180Y-51560498D01*
X91021620Y-51538487D01*
X91153475Y-51406632D01*
X91315990Y-51163411D01*
X91427932Y-50893158D01*
X91485000Y-50606260D01*
X91485000Y-50313740D01*
X91427932Y-50026842D01*
X91315990Y-49756589D01*
X91153475Y-49513368D01*
X90946632Y-49306525D01*
X90772240Y-49190000D01*
X90946632Y-49073475D01*
X91153475Y-48866632D01*
X91315990Y-48623411D01*
X91427932Y-48353158D01*
X91485000Y-48066260D01*
X91485000Y-47773740D01*
X91427932Y-47486842D01*
X91315990Y-47216589D01*
X91153475Y-46973368D01*
X90946632Y-46766525D01*
X90772240Y-46650000D01*
X90946632Y-46533475D01*
X91153475Y-46326632D01*
X91315990Y-46083411D01*
X91427932Y-45813158D01*
X91485000Y-45526260D01*
X91485000Y-45233740D01*
X91427932Y-44946842D01*
X91315990Y-44676589D01*
X91153475Y-44433368D01*
X90946632Y-44226525D01*
X90703411Y-44064010D01*
X90433158Y-43952068D01*
X90146260Y-43895000D01*
X89853740Y-43895000D01*
X89566842Y-43952068D01*
X89296589Y-44064010D01*
X89053368Y-44226525D01*
X88846525Y-44433368D01*
X88684010Y-44676589D01*
X88572068Y-44946842D01*
X88515000Y-45233740D01*
X88515000Y-45526260D01*
X88572068Y-45813158D01*
X88684010Y-46083411D01*
X88846525Y-46326632D01*
X89053368Y-46533475D01*
X89227760Y-46650000D01*
X89053368Y-46766525D01*
X88846525Y-46973368D01*
X88684010Y-47216589D01*
X88572068Y-47486842D01*
X88515000Y-47773740D01*
X88515000Y-48066260D01*
X88572068Y-48353158D01*
X88684010Y-48623411D01*
X88846525Y-48866632D01*
X89053368Y-49073475D01*
X89227760Y-49190000D01*
X89053368Y-49306525D01*
X88846525Y-49513368D01*
X88684010Y-49756589D01*
X88572068Y-50026842D01*
X88515000Y-50313740D01*
X88515000Y-50606260D01*
X88572068Y-50893158D01*
X88684010Y-51163411D01*
X88846525Y-51406632D01*
X88978380Y-51538487D01*
X88905820Y-51560498D01*
X88795506Y-51619463D01*
X88698815Y-51698815D01*
X88619463Y-51795506D01*
X88560498Y-51905820D01*
X88524188Y-52025518D01*
X88511928Y-52150000D01*
X42567264Y-52150000D01*
X41562219Y-51144956D01*
X41534502Y-51111183D01*
X41399744Y-51000589D01*
X41245998Y-50918411D01*
X41079175Y-50867805D01*
X40949162Y-50855000D01*
X40949154Y-50855000D01*
X40905685Y-50850719D01*
X40862216Y-50855000D01*
X33694656Y-50855000D01*
X33653475Y-50793368D01*
X33446632Y-50586525D01*
X33272240Y-50470000D01*
X33446632Y-50353475D01*
X33653475Y-50146632D01*
X33815990Y-49903411D01*
X33927932Y-49633158D01*
X33985000Y-49346260D01*
X33985000Y-49053740D01*
X33927932Y-48766842D01*
X33815990Y-48496589D01*
X33653475Y-48253368D01*
X33446632Y-48046525D01*
X33272240Y-47930000D01*
X33446632Y-47813475D01*
X33653475Y-47606632D01*
X33815990Y-47363411D01*
X33927932Y-47093158D01*
X33985000Y-46806260D01*
X33985000Y-46513740D01*
X33927932Y-46226842D01*
X33815990Y-45956589D01*
X33653475Y-45713368D01*
X33446632Y-45506525D01*
X33272240Y-45390000D01*
X33446632Y-45273475D01*
X33653475Y-45066632D01*
X33815990Y-44823411D01*
X33927932Y-44553158D01*
X33985000Y-44266260D01*
X33985000Y-43973740D01*
X33927932Y-43686842D01*
X33815990Y-43416589D01*
X33653475Y-43173368D01*
X33446632Y-42966525D01*
X33264466Y-42844805D01*
X33381355Y-42775178D01*
X33597588Y-42580269D01*
X33771641Y-42346920D01*
X33896825Y-42084099D01*
X33941476Y-41936890D01*
X33820155Y-41707000D01*
X32627000Y-41707000D01*
X32627000Y-41727000D01*
X32373000Y-41727000D01*
X32373000Y-41707000D01*
X31179845Y-41707000D01*
X31058524Y-41936890D01*
X31103175Y-42084099D01*
X31228359Y-42346920D01*
X31402412Y-42580269D01*
X31618645Y-42775178D01*
X31735534Y-42844805D01*
X31553368Y-42966525D01*
X31346525Y-43173368D01*
X31184010Y-43416589D01*
X31072068Y-43686842D01*
X31015000Y-43973740D01*
X30395082Y-43973740D01*
X30389052Y-39396890D01*
X31058524Y-39396890D01*
X31103175Y-39544099D01*
X31228359Y-39806920D01*
X31402412Y-40040269D01*
X31618645Y-40235178D01*
X31744255Y-40310000D01*
X31618645Y-40384822D01*
X31402412Y-40579731D01*
X31228359Y-40813080D01*
X31103175Y-41075901D01*
X31058524Y-41223110D01*
X31179845Y-41453000D01*
X32373000Y-41453000D01*
X32373000Y-39167000D01*
X32627000Y-39167000D01*
X32627000Y-41453000D01*
X33820155Y-41453000D01*
X33941476Y-41223110D01*
X33896825Y-41075901D01*
X33771641Y-40813080D01*
X33597588Y-40579731D01*
X33381355Y-40384822D01*
X33255745Y-40310000D01*
X33381355Y-40235178D01*
X33597588Y-40040269D01*
X33771641Y-39806920D01*
X33896825Y-39544099D01*
X33941476Y-39396890D01*
X33820155Y-39167000D01*
X32627000Y-39167000D01*
X32373000Y-39167000D01*
X31179845Y-39167000D01*
X31058524Y-39396890D01*
X30389052Y-39396890D01*
X30384115Y-35650000D01*
X31011928Y-35650000D01*
X31011928Y-37350000D01*
X31024188Y-37474482D01*
X31060498Y-37594180D01*
X31119463Y-37704494D01*
X31198815Y-37801185D01*
X31295506Y-37880537D01*
X31405820Y-37939502D01*
X31486466Y-37963966D01*
X31402412Y-38039731D01*
X31228359Y-38273080D01*
X31103175Y-38535901D01*
X31058524Y-38683110D01*
X31179845Y-38913000D01*
X32373000Y-38913000D01*
X32373000Y-38893000D01*
X32627000Y-38893000D01*
X32627000Y-38913000D01*
X33820155Y-38913000D01*
X33941476Y-38683110D01*
X33896825Y-38535901D01*
X33771641Y-38273080D01*
X33597588Y-38039731D01*
X33513534Y-37963966D01*
X33594180Y-37939502D01*
X33704494Y-37880537D01*
X33801185Y-37801185D01*
X33880537Y-37704494D01*
X33939502Y-37594180D01*
X33975812Y-37474482D01*
X33988072Y-37350000D01*
X33988072Y-37156891D01*
X77038519Y-37156891D01*
X77135843Y-37431252D01*
X77284822Y-37681355D01*
X77479731Y-37897588D01*
X77713080Y-38071641D01*
X77975901Y-38196825D01*
X78123110Y-38241476D01*
X78353000Y-38120155D01*
X78353000Y-36927000D01*
X77159186Y-36927000D01*
X77038519Y-37156891D01*
X33988072Y-37156891D01*
X33988072Y-36443109D01*
X77038519Y-36443109D01*
X77159186Y-36673000D01*
X78353000Y-36673000D01*
X78353000Y-35479845D01*
X78607000Y-35479845D01*
X78607000Y-36673000D01*
X78627000Y-36673000D01*
X78627000Y-36927000D01*
X78607000Y-36927000D01*
X78607000Y-38120155D01*
X78836890Y-38241476D01*
X78984099Y-38196825D01*
X79246920Y-38071641D01*
X79480269Y-37897588D01*
X79675178Y-37681355D01*
X79744805Y-37564466D01*
X79866525Y-37746632D01*
X80073368Y-37953475D01*
X80316589Y-38115990D01*
X80586842Y-38227932D01*
X80873740Y-38285000D01*
X81166260Y-38285000D01*
X81453158Y-38227932D01*
X81723411Y-38115990D01*
X81966632Y-37953475D01*
X82173475Y-37746632D01*
X82290000Y-37572240D01*
X82406525Y-37746632D01*
X82613368Y-37953475D01*
X82856589Y-38115990D01*
X83126842Y-38227932D01*
X83413740Y-38285000D01*
X83706260Y-38285000D01*
X83993158Y-38227932D01*
X84263411Y-38115990D01*
X84506632Y-37953475D01*
X84638487Y-37821620D01*
X84660498Y-37894180D01*
X84719463Y-38004494D01*
X84798815Y-38101185D01*
X84895506Y-38180537D01*
X85005820Y-38239502D01*
X85125518Y-38275812D01*
X85250000Y-38288072D01*
X86950000Y-38288072D01*
X87074482Y-38275812D01*
X87194180Y-38239502D01*
X87304494Y-38180537D01*
X87401185Y-38101185D01*
X87480537Y-38004494D01*
X87539502Y-37894180D01*
X87575812Y-37774482D01*
X87588072Y-37650000D01*
X87588072Y-35950000D01*
X87575812Y-35825518D01*
X87539502Y-35705820D01*
X87480537Y-35595506D01*
X87401185Y-35498815D01*
X87304494Y-35419463D01*
X87194180Y-35360498D01*
X87074482Y-35324188D01*
X86950000Y-35311928D01*
X85250000Y-35311928D01*
X85125518Y-35324188D01*
X85005820Y-35360498D01*
X84895506Y-35419463D01*
X84798815Y-35498815D01*
X84719463Y-35595506D01*
X84660498Y-35705820D01*
X84638487Y-35778380D01*
X84506632Y-35646525D01*
X84263411Y-35484010D01*
X83993158Y-35372068D01*
X83706260Y-35315000D01*
X83413740Y-35315000D01*
X83126842Y-35372068D01*
X82856589Y-35484010D01*
X82613368Y-35646525D01*
X82406525Y-35853368D01*
X82290000Y-36027760D01*
X82173475Y-35853368D01*
X81966632Y-35646525D01*
X81723411Y-35484010D01*
X81453158Y-35372068D01*
X81166260Y-35315000D01*
X80873740Y-35315000D01*
X80586842Y-35372068D01*
X80316589Y-35484010D01*
X80073368Y-35646525D01*
X79866525Y-35853368D01*
X79744805Y-36035534D01*
X79675178Y-35918645D01*
X79480269Y-35702412D01*
X79246920Y-35528359D01*
X78984099Y-35403175D01*
X78836890Y-35358524D01*
X78607000Y-35479845D01*
X78353000Y-35479845D01*
X78123110Y-35358524D01*
X77975901Y-35403175D01*
X77713080Y-35528359D01*
X77479731Y-35702412D01*
X77284822Y-35918645D01*
X77135843Y-36168748D01*
X77038519Y-36443109D01*
X33988072Y-36443109D01*
X33988072Y-35650000D01*
X33975812Y-35525518D01*
X33939502Y-35405820D01*
X33880537Y-35295506D01*
X33801185Y-35198815D01*
X33704494Y-35119463D01*
X33594180Y-35060498D01*
X33474482Y-35024188D01*
X33350000Y-35011928D01*
X31650000Y-35011928D01*
X31525518Y-35024188D01*
X31405820Y-35060498D01*
X31295506Y-35119463D01*
X31198815Y-35198815D01*
X31119463Y-35295506D01*
X31060498Y-35405820D01*
X31024188Y-35525518D01*
X31011928Y-35650000D01*
X30384115Y-35650000D01*
X30380489Y-32897997D01*
X30450890Y-33251925D01*
X30619369Y-33658669D01*
X30863962Y-34024729D01*
X31175271Y-34336038D01*
X31541331Y-34580631D01*
X31948075Y-34749110D01*
X32379872Y-34835000D01*
X32820128Y-34835000D01*
X33251925Y-34749110D01*
X33658669Y-34580631D01*
X34024729Y-34336038D01*
X34336038Y-34024729D01*
X34580631Y-33658669D01*
X34749110Y-33251925D01*
X34835000Y-32820128D01*
X34835000Y-32379872D01*
X34749110Y-31948075D01*
X34580631Y-31541331D01*
X34336038Y-31175271D01*
X34024729Y-30863962D01*
X33658669Y-30619369D01*
X33251925Y-30450890D01*
X32896539Y-30380199D01*
X89260959Y-30448327D01*
G36*
X89260959Y-30448327D02*
G01*
X89248075Y-30450890D01*
X88841331Y-30619369D01*
X88475271Y-30863962D01*
X88163962Y-31175271D01*
X87919369Y-31541331D01*
X87750890Y-31948075D01*
X87665000Y-32379872D01*
X87665000Y-32820128D01*
X87750890Y-33251925D01*
X87919369Y-33658669D01*
X88163962Y-34024729D01*
X88475271Y-34336038D01*
X88841331Y-34580631D01*
X89248075Y-34749110D01*
X89679872Y-34835000D01*
X90120128Y-34835000D01*
X90551925Y-34749110D01*
X90958669Y-34580631D01*
X91324729Y-34336038D01*
X91636038Y-34024729D01*
X91880631Y-33658669D01*
X92049110Y-33251925D01*
X92135000Y-32820128D01*
X92135000Y-32379872D01*
X92049110Y-31948075D01*
X91880631Y-31541331D01*
X91636038Y-31175271D01*
X91324729Y-30863962D01*
X90958669Y-30619369D01*
X90551925Y-30450890D01*
X90546855Y-30449881D01*
X92173000Y-30451847D01*
X92173000Y-68147846D01*
X30426833Y-68073153D01*
X30424522Y-66319366D01*
X30450890Y-66451925D01*
X30619369Y-66858669D01*
X30863962Y-67224729D01*
X31175271Y-67536038D01*
X31541331Y-67780631D01*
X31948075Y-67949110D01*
X32379872Y-68035000D01*
X32820128Y-68035000D01*
X33251925Y-67949110D01*
X33658669Y-67780631D01*
X34024729Y-67536038D01*
X34336038Y-67224729D01*
X34580631Y-66858669D01*
X34749110Y-66451925D01*
X34835000Y-66020128D01*
X34835000Y-65579872D01*
X87665000Y-65579872D01*
X87665000Y-66020128D01*
X87750890Y-66451925D01*
X87919369Y-66858669D01*
X88163962Y-67224729D01*
X88475271Y-67536038D01*
X88841331Y-67780631D01*
X89248075Y-67949110D01*
X89679872Y-68035000D01*
X90120128Y-68035000D01*
X90551925Y-67949110D01*
X90958669Y-67780631D01*
X91324729Y-67536038D01*
X91636038Y-67224729D01*
X91880631Y-66858669D01*
X92049110Y-66451925D01*
X92135000Y-66020128D01*
X92135000Y-65579872D01*
X92049110Y-65148075D01*
X91880631Y-64741331D01*
X91636038Y-64375271D01*
X91324729Y-64063962D01*
X90958669Y-63819369D01*
X90551925Y-63650890D01*
X90120128Y-63565000D01*
X89679872Y-63565000D01*
X89248075Y-63650890D01*
X88841331Y-63819369D01*
X88475271Y-64063962D01*
X88163962Y-64375271D01*
X87919369Y-64741331D01*
X87750890Y-65148075D01*
X87665000Y-65579872D01*
X34835000Y-65579872D01*
X34749110Y-65148075D01*
X34580631Y-64741331D01*
X34336038Y-64375271D01*
X34024729Y-64063962D01*
X33658669Y-63819369D01*
X33251925Y-63650890D01*
X32820128Y-63565000D01*
X32379872Y-63565000D01*
X31948075Y-63650890D01*
X31541331Y-63819369D01*
X31175271Y-64063962D01*
X30863962Y-64375271D01*
X30619369Y-64741331D01*
X30450890Y-65148075D01*
X30423163Y-65287469D01*
X30395082Y-43973740D01*
X31015000Y-43973740D01*
X31015000Y-44266260D01*
X31072068Y-44553158D01*
X31184010Y-44823411D01*
X31346525Y-45066632D01*
X31553368Y-45273475D01*
X31727760Y-45390000D01*
X31553368Y-45506525D01*
X31346525Y-45713368D01*
X31184010Y-45956589D01*
X31072068Y-46226842D01*
X31015000Y-46513740D01*
X31015000Y-46806260D01*
X31072068Y-47093158D01*
X31184010Y-47363411D01*
X31346525Y-47606632D01*
X31553368Y-47813475D01*
X31727760Y-47930000D01*
X31553368Y-48046525D01*
X31346525Y-48253368D01*
X31184010Y-48496589D01*
X31072068Y-48766842D01*
X31015000Y-49053740D01*
X31015000Y-49346260D01*
X31072068Y-49633158D01*
X31184010Y-49903411D01*
X31346525Y-50146632D01*
X31553368Y-50353475D01*
X31727760Y-50470000D01*
X31553368Y-50586525D01*
X31346525Y-50793368D01*
X31184010Y-51036589D01*
X31072068Y-51306842D01*
X31015000Y-51593740D01*
X31015000Y-51886260D01*
X31072068Y-52173158D01*
X31184010Y-52443411D01*
X31346525Y-52686632D01*
X31553368Y-52893475D01*
X31727760Y-53010000D01*
X31553368Y-53126525D01*
X31346525Y-53333368D01*
X31184010Y-53576589D01*
X31072068Y-53846842D01*
X31015000Y-54133740D01*
X31015000Y-54426260D01*
X31072068Y-54713158D01*
X31184010Y-54983411D01*
X31346525Y-55226632D01*
X31553368Y-55433475D01*
X31727760Y-55550000D01*
X31553368Y-55666525D01*
X31346525Y-55873368D01*
X31184010Y-56116589D01*
X31072068Y-56386842D01*
X31015000Y-56673740D01*
X31015000Y-56966260D01*
X31072068Y-57253158D01*
X31184010Y-57523411D01*
X31346525Y-57766632D01*
X31553368Y-57973475D01*
X31727760Y-58090000D01*
X31553368Y-58206525D01*
X31346525Y-58413368D01*
X31184010Y-58656589D01*
X31072068Y-58926842D01*
X31015000Y-59213740D01*
X31015000Y-59506260D01*
X31072068Y-59793158D01*
X31184010Y-60063411D01*
X31346525Y-60306632D01*
X31553368Y-60513475D01*
X31727760Y-60630000D01*
X31553368Y-60746525D01*
X31346525Y-60953368D01*
X31184010Y-61196589D01*
X31072068Y-61466842D01*
X31015000Y-61753740D01*
X31015000Y-62046260D01*
X31072068Y-62333158D01*
X31184010Y-62603411D01*
X31346525Y-62846632D01*
X31553368Y-63053475D01*
X31796589Y-63215990D01*
X32066842Y-63327932D01*
X32353740Y-63385000D01*
X32646260Y-63385000D01*
X32933158Y-63327932D01*
X33203411Y-63215990D01*
X33302172Y-63150000D01*
X51511928Y-63150000D01*
X51511928Y-64850000D01*
X51524188Y-64974482D01*
X51560498Y-65094180D01*
X51619463Y-65204494D01*
X51698815Y-65301185D01*
X51795506Y-65380537D01*
X51905820Y-65439502D01*
X52025518Y-65475812D01*
X52150000Y-65488072D01*
X53850000Y-65488072D01*
X53974482Y-65475812D01*
X54094180Y-65439502D01*
X54204494Y-65380537D01*
X54301185Y-65301185D01*
X54380537Y-65204494D01*
X54439502Y-65094180D01*
X54463966Y-65013534D01*
X54539731Y-65097588D01*
X54773080Y-65271641D01*
X55035901Y-65396825D01*
X55183110Y-65441476D01*
X55413000Y-65320155D01*
X55413000Y-64127000D01*
X55667000Y-64127000D01*
X55667000Y-65320155D01*
X55896890Y-65441476D01*
X56044099Y-65396825D01*
X56306920Y-65271641D01*
X56540269Y-65097588D01*
X56735178Y-64881355D01*
X56884157Y-64631252D01*
X56981481Y-64356891D01*
X56860814Y-64127000D01*
X55667000Y-64127000D01*
X55413000Y-64127000D01*
X55393000Y-64127000D01*
X55393000Y-63873000D01*
X55413000Y-63873000D01*
X55413000Y-62679845D01*
X55667000Y-62679845D01*
X55667000Y-63873000D01*
X56860814Y-63873000D01*
X56981481Y-63643109D01*
X56884157Y-63368748D01*
X56753856Y-63150000D01*
X60511928Y-63150000D01*
X60511928Y-64850000D01*
X60524188Y-64974482D01*
X60560498Y-65094180D01*
X60619463Y-65204494D01*
X60698815Y-65301185D01*
X60795506Y-65380537D01*
X60905820Y-65439502D01*
X61025518Y-65475812D01*
X61150000Y-65488072D01*
X62850000Y-65488072D01*
X62974482Y-65475812D01*
X63094180Y-65439502D01*
X63204494Y-65380537D01*
X63301185Y-65301185D01*
X63380537Y-65204494D01*
X63439502Y-65094180D01*
X63463966Y-65013534D01*
X63539731Y-65097588D01*
X63773080Y-65271641D01*
X64035901Y-65396825D01*
X64183110Y-65441476D01*
X64413000Y-65320155D01*
X64413000Y-64127000D01*
X64667000Y-64127000D01*
X64667000Y-65320155D01*
X64896890Y-65441476D01*
X65044099Y-65396825D01*
X65306920Y-65271641D01*
X65540269Y-65097588D01*
X65735178Y-64881355D01*
X65884157Y-64631252D01*
X65981481Y-64356891D01*
X65860814Y-64127000D01*
X64667000Y-64127000D01*
X64413000Y-64127000D01*
X64393000Y-64127000D01*
X64393000Y-63873000D01*
X64413000Y-63873000D01*
X64413000Y-62679845D01*
X64667000Y-62679845D01*
X64667000Y-63873000D01*
X65860814Y-63873000D01*
X65981481Y-63643109D01*
X65884157Y-63368748D01*
X65753856Y-63150000D01*
X69511928Y-63150000D01*
X69511928Y-64850000D01*
X69524188Y-64974482D01*
X69560498Y-65094180D01*
X69619463Y-65204494D01*
X69698815Y-65301185D01*
X69795506Y-65380537D01*
X69905820Y-65439502D01*
X70025518Y-65475812D01*
X70150000Y-65488072D01*
X71850000Y-65488072D01*
X71974482Y-65475812D01*
X72094180Y-65439502D01*
X72204494Y-65380537D01*
X72301185Y-65301185D01*
X72380537Y-65204494D01*
X72439502Y-65094180D01*
X72463966Y-65013534D01*
X72539731Y-65097588D01*
X72773080Y-65271641D01*
X73035901Y-65396825D01*
X73183110Y-65441476D01*
X73413000Y-65320155D01*
X73413000Y-64127000D01*
X73667000Y-64127000D01*
X73667000Y-65320155D01*
X73896890Y-65441476D01*
X74044099Y-65396825D01*
X74306920Y-65271641D01*
X74540269Y-65097588D01*
X74735178Y-64881355D01*
X74884157Y-64631252D01*
X74981481Y-64356891D01*
X74860814Y-64127000D01*
X73667000Y-64127000D01*
X73413000Y-64127000D01*
X73393000Y-64127000D01*
X73393000Y-63873000D01*
X73413000Y-63873000D01*
X73413000Y-62679845D01*
X73667000Y-62679845D01*
X73667000Y-63873000D01*
X74860814Y-63873000D01*
X74981481Y-63643109D01*
X74884157Y-63368748D01*
X74735178Y-63118645D01*
X74540269Y-62902412D01*
X74306920Y-62728359D01*
X74044099Y-62603175D01*
X73896890Y-62558524D01*
X73667000Y-62679845D01*
X73413000Y-62679845D01*
X73183110Y-62558524D01*
X73035901Y-62603175D01*
X72773080Y-62728359D01*
X72539731Y-62902412D01*
X72463966Y-62986466D01*
X72439502Y-62905820D01*
X72380537Y-62795506D01*
X72301185Y-62698815D01*
X72204494Y-62619463D01*
X72094180Y-62560498D01*
X71974482Y-62524188D01*
X71850000Y-62511928D01*
X70150000Y-62511928D01*
X70025518Y-62524188D01*
X69905820Y-62560498D01*
X69795506Y-62619463D01*
X69698815Y-62698815D01*
X69619463Y-62795506D01*
X69560498Y-62905820D01*
X69524188Y-63025518D01*
X69511928Y-63150000D01*
X65753856Y-63150000D01*
X65735178Y-63118645D01*
X65540269Y-62902412D01*
X65306920Y-62728359D01*
X65044099Y-62603175D01*
X64896890Y-62558524D01*
X64667000Y-62679845D01*
X64413000Y-62679845D01*
X64183110Y-62558524D01*
X64035901Y-62603175D01*
X63773080Y-62728359D01*
X63539731Y-62902412D01*
X63463966Y-62986466D01*
X63439502Y-62905820D01*
X63380537Y-62795506D01*
X63301185Y-62698815D01*
X63204494Y-62619463D01*
X63094180Y-62560498D01*
X62974482Y-62524188D01*
X62850000Y-62511928D01*
X61150000Y-62511928D01*
X61025518Y-62524188D01*
X60905820Y-62560498D01*
X60795506Y-62619463D01*
X60698815Y-62698815D01*
X60619463Y-62795506D01*
X60560498Y-62905820D01*
X60524188Y-63025518D01*
X60511928Y-63150000D01*
X56753856Y-63150000D01*
X56735178Y-63118645D01*
X56540269Y-62902412D01*
X56306920Y-62728359D01*
X56044099Y-62603175D01*
X55896890Y-62558524D01*
X55667000Y-62679845D01*
X55413000Y-62679845D01*
X55183110Y-62558524D01*
X55035901Y-62603175D01*
X54773080Y-62728359D01*
X54539731Y-62902412D01*
X54463966Y-62986466D01*
X54439502Y-62905820D01*
X54380537Y-62795506D01*
X54301185Y-62698815D01*
X54204494Y-62619463D01*
X54094180Y-62560498D01*
X53974482Y-62524188D01*
X53850000Y-62511928D01*
X52150000Y-62511928D01*
X52025518Y-62524188D01*
X51905820Y-62560498D01*
X51795506Y-62619463D01*
X51698815Y-62698815D01*
X51619463Y-62795506D01*
X51560498Y-62905820D01*
X51524188Y-63025518D01*
X51511928Y-63150000D01*
X33302172Y-63150000D01*
X33446632Y-63053475D01*
X33653475Y-62846632D01*
X33815990Y-62603411D01*
X33927932Y-62333158D01*
X33985000Y-62046260D01*
X33985000Y-61753740D01*
X33927932Y-61466842D01*
X33815990Y-61196589D01*
X33653475Y-60953368D01*
X33446632Y-60746525D01*
X33272240Y-60630000D01*
X33446632Y-60513475D01*
X33653475Y-60306632D01*
X33815990Y-60063411D01*
X33927932Y-59793158D01*
X33985000Y-59506260D01*
X33985000Y-59213740D01*
X33970539Y-59141039D01*
X37126579Y-55985000D01*
X37861546Y-55985000D01*
X37909744Y-56017205D01*
X38098102Y-56095226D01*
X38298061Y-56135000D01*
X38501939Y-56135000D01*
X38701898Y-56095226D01*
X38890256Y-56017205D01*
X39059774Y-55903937D01*
X39203937Y-55759774D01*
X39317205Y-55590256D01*
X39395226Y-55401898D01*
X39435000Y-55201939D01*
X39435000Y-54998061D01*
X39395226Y-54798102D01*
X39317205Y-54609744D01*
X39203937Y-54440226D01*
X39059774Y-54296063D01*
X38890256Y-54182795D01*
X38701898Y-54104774D01*
X38501939Y-54065000D01*
X38298061Y-54065000D01*
X38098102Y-54104774D01*
X37909744Y-54182795D01*
X37861546Y-54215000D01*
X36803469Y-54215000D01*
X36760000Y-54210719D01*
X36716531Y-54215000D01*
X36716523Y-54215000D01*
X36586510Y-54227805D01*
X36419687Y-54278411D01*
X36265941Y-54360589D01*
X36164953Y-54443468D01*
X36164951Y-54443470D01*
X36131183Y-54471183D01*
X36103470Y-54504951D01*
X33976652Y-56631770D01*
X33927932Y-56386842D01*
X33815990Y-56116589D01*
X33653475Y-55873368D01*
X33446632Y-55666525D01*
X33272240Y-55550000D01*
X33446632Y-55433475D01*
X33653475Y-55226632D01*
X33815990Y-54983411D01*
X33927932Y-54713158D01*
X33985000Y-54426260D01*
X33985000Y-54133740D01*
X33927932Y-53846842D01*
X33815990Y-53576589D01*
X33653475Y-53333368D01*
X33446632Y-53126525D01*
X33272240Y-53010000D01*
X33446632Y-52893475D01*
X33653475Y-52686632D01*
X33694656Y-52625000D01*
X40539107Y-52625000D01*
X45106951Y-57192845D01*
X45104774Y-57198102D01*
X45065000Y-57398061D01*
X45065000Y-57601939D01*
X45104774Y-57801898D01*
X45182795Y-57990256D01*
X45296063Y-58159774D01*
X45440226Y-58303937D01*
X45609744Y-58417205D01*
X45798102Y-58495226D01*
X45998061Y-58535000D01*
X46201939Y-58535000D01*
X46401898Y-58495226D01*
X46590256Y-58417205D01*
X46759774Y-58303937D01*
X46903937Y-58159774D01*
X47017205Y-57990256D01*
X47095226Y-57801898D01*
X47135000Y-57601939D01*
X47135000Y-57398061D01*
X47095226Y-57198102D01*
X47017205Y-57009744D01*
X46986394Y-56963632D01*
X46989281Y-56934315D01*
X46985000Y-56890846D01*
X46985000Y-56890838D01*
X46972195Y-56760825D01*
X46921589Y-56594002D01*
X46839411Y-56440256D01*
X46728817Y-56305498D01*
X46695049Y-56277785D01*
X42567264Y-52150000D01*
X88511928Y-52150000D01*
X88511928Y-53850000D01*
X88524188Y-53974482D01*
X88560498Y-54094180D01*
X88619463Y-54204494D01*
X88698815Y-54301185D01*
X88795506Y-54380537D01*
X88905820Y-54439502D01*
X89025518Y-54475812D01*
X89150000Y-54488072D01*
X90850000Y-54488072D01*
X90974482Y-54475812D01*
X91094180Y-54439502D01*
X91204494Y-54380537D01*
X91301185Y-54301185D01*
X91380537Y-54204494D01*
X91439502Y-54094180D01*
X91475812Y-53974482D01*
X91488072Y-53850000D01*
X91488072Y-52150000D01*
X91475812Y-52025518D01*
X91439502Y-51905820D01*
X91380537Y-51795506D01*
X91301185Y-51698815D01*
X91204494Y-51619463D01*
X91094180Y-51560498D01*
X91021620Y-51538487D01*
X91153475Y-51406632D01*
X91315990Y-51163411D01*
X91427932Y-50893158D01*
X91485000Y-50606260D01*
X91485000Y-50313740D01*
X91427932Y-50026842D01*
X91315990Y-49756589D01*
X91153475Y-49513368D01*
X90946632Y-49306525D01*
X90772240Y-49190000D01*
X90946632Y-49073475D01*
X91153475Y-48866632D01*
X91315990Y-48623411D01*
X91427932Y-48353158D01*
X91485000Y-48066260D01*
X91485000Y-47773740D01*
X91427932Y-47486842D01*
X91315990Y-47216589D01*
X91153475Y-46973368D01*
X90946632Y-46766525D01*
X90772240Y-46650000D01*
X90946632Y-46533475D01*
X91153475Y-46326632D01*
X91315990Y-46083411D01*
X91427932Y-45813158D01*
X91485000Y-45526260D01*
X91485000Y-45233740D01*
X91427932Y-44946842D01*
X91315990Y-44676589D01*
X91153475Y-44433368D01*
X90946632Y-44226525D01*
X90703411Y-44064010D01*
X90433158Y-43952068D01*
X90146260Y-43895000D01*
X89853740Y-43895000D01*
X89566842Y-43952068D01*
X89296589Y-44064010D01*
X89053368Y-44226525D01*
X88846525Y-44433368D01*
X88684010Y-44676589D01*
X88572068Y-44946842D01*
X88515000Y-45233740D01*
X88515000Y-45526260D01*
X88572068Y-45813158D01*
X88684010Y-46083411D01*
X88846525Y-46326632D01*
X89053368Y-46533475D01*
X89227760Y-46650000D01*
X89053368Y-46766525D01*
X88846525Y-46973368D01*
X88684010Y-47216589D01*
X88572068Y-47486842D01*
X88515000Y-47773740D01*
X88515000Y-48066260D01*
X88572068Y-48353158D01*
X88684010Y-48623411D01*
X88846525Y-48866632D01*
X89053368Y-49073475D01*
X89227760Y-49190000D01*
X89053368Y-49306525D01*
X88846525Y-49513368D01*
X88684010Y-49756589D01*
X88572068Y-50026842D01*
X88515000Y-50313740D01*
X88515000Y-50606260D01*
X88572068Y-50893158D01*
X88684010Y-51163411D01*
X88846525Y-51406632D01*
X88978380Y-51538487D01*
X88905820Y-51560498D01*
X88795506Y-51619463D01*
X88698815Y-51698815D01*
X88619463Y-51795506D01*
X88560498Y-51905820D01*
X88524188Y-52025518D01*
X88511928Y-52150000D01*
X42567264Y-52150000D01*
X41562219Y-51144956D01*
X41534502Y-51111183D01*
X41399744Y-51000589D01*
X41245998Y-50918411D01*
X41079175Y-50867805D01*
X40949162Y-50855000D01*
X40949154Y-50855000D01*
X40905685Y-50850719D01*
X40862216Y-50855000D01*
X33694656Y-50855000D01*
X33653475Y-50793368D01*
X33446632Y-50586525D01*
X33272240Y-50470000D01*
X33446632Y-50353475D01*
X33653475Y-50146632D01*
X33815990Y-49903411D01*
X33927932Y-49633158D01*
X33985000Y-49346260D01*
X33985000Y-49053740D01*
X33927932Y-48766842D01*
X33815990Y-48496589D01*
X33653475Y-48253368D01*
X33446632Y-48046525D01*
X33272240Y-47930000D01*
X33446632Y-47813475D01*
X33653475Y-47606632D01*
X33815990Y-47363411D01*
X33927932Y-47093158D01*
X33985000Y-46806260D01*
X33985000Y-46513740D01*
X33927932Y-46226842D01*
X33815990Y-45956589D01*
X33653475Y-45713368D01*
X33446632Y-45506525D01*
X33272240Y-45390000D01*
X33446632Y-45273475D01*
X33653475Y-45066632D01*
X33815990Y-44823411D01*
X33927932Y-44553158D01*
X33985000Y-44266260D01*
X33985000Y-43973740D01*
X33927932Y-43686842D01*
X33815990Y-43416589D01*
X33653475Y-43173368D01*
X33446632Y-42966525D01*
X33264466Y-42844805D01*
X33381355Y-42775178D01*
X33597588Y-42580269D01*
X33771641Y-42346920D01*
X33896825Y-42084099D01*
X33941476Y-41936890D01*
X33820155Y-41707000D01*
X32627000Y-41707000D01*
X32627000Y-41727000D01*
X32373000Y-41727000D01*
X32373000Y-41707000D01*
X31179845Y-41707000D01*
X31058524Y-41936890D01*
X31103175Y-42084099D01*
X31228359Y-42346920D01*
X31402412Y-42580269D01*
X31618645Y-42775178D01*
X31735534Y-42844805D01*
X31553368Y-42966525D01*
X31346525Y-43173368D01*
X31184010Y-43416589D01*
X31072068Y-43686842D01*
X31015000Y-43973740D01*
X30395082Y-43973740D01*
X30389052Y-39396890D01*
X31058524Y-39396890D01*
X31103175Y-39544099D01*
X31228359Y-39806920D01*
X31402412Y-40040269D01*
X31618645Y-40235178D01*
X31744255Y-40310000D01*
X31618645Y-40384822D01*
X31402412Y-40579731D01*
X31228359Y-40813080D01*
X31103175Y-41075901D01*
X31058524Y-41223110D01*
X31179845Y-41453000D01*
X32373000Y-41453000D01*
X32373000Y-39167000D01*
X32627000Y-39167000D01*
X32627000Y-41453000D01*
X33820155Y-41453000D01*
X33941476Y-41223110D01*
X33896825Y-41075901D01*
X33771641Y-40813080D01*
X33597588Y-40579731D01*
X33381355Y-40384822D01*
X33255745Y-40310000D01*
X33381355Y-40235178D01*
X33597588Y-40040269D01*
X33771641Y-39806920D01*
X33896825Y-39544099D01*
X33941476Y-39396890D01*
X33820155Y-39167000D01*
X32627000Y-39167000D01*
X32373000Y-39167000D01*
X31179845Y-39167000D01*
X31058524Y-39396890D01*
X30389052Y-39396890D01*
X30384115Y-35650000D01*
X31011928Y-35650000D01*
X31011928Y-37350000D01*
X31024188Y-37474482D01*
X31060498Y-37594180D01*
X31119463Y-37704494D01*
X31198815Y-37801185D01*
X31295506Y-37880537D01*
X31405820Y-37939502D01*
X31486466Y-37963966D01*
X31402412Y-38039731D01*
X31228359Y-38273080D01*
X31103175Y-38535901D01*
X31058524Y-38683110D01*
X31179845Y-38913000D01*
X32373000Y-38913000D01*
X32373000Y-38893000D01*
X32627000Y-38893000D01*
X32627000Y-38913000D01*
X33820155Y-38913000D01*
X33941476Y-38683110D01*
X33896825Y-38535901D01*
X33771641Y-38273080D01*
X33597588Y-38039731D01*
X33513534Y-37963966D01*
X33594180Y-37939502D01*
X33704494Y-37880537D01*
X33801185Y-37801185D01*
X33880537Y-37704494D01*
X33939502Y-37594180D01*
X33975812Y-37474482D01*
X33988072Y-37350000D01*
X33988072Y-37156891D01*
X77038519Y-37156891D01*
X77135843Y-37431252D01*
X77284822Y-37681355D01*
X77479731Y-37897588D01*
X77713080Y-38071641D01*
X77975901Y-38196825D01*
X78123110Y-38241476D01*
X78353000Y-38120155D01*
X78353000Y-36927000D01*
X77159186Y-36927000D01*
X77038519Y-37156891D01*
X33988072Y-37156891D01*
X33988072Y-36443109D01*
X77038519Y-36443109D01*
X77159186Y-36673000D01*
X78353000Y-36673000D01*
X78353000Y-35479845D01*
X78607000Y-35479845D01*
X78607000Y-36673000D01*
X78627000Y-36673000D01*
X78627000Y-36927000D01*
X78607000Y-36927000D01*
X78607000Y-38120155D01*
X78836890Y-38241476D01*
X78984099Y-38196825D01*
X79246920Y-38071641D01*
X79480269Y-37897588D01*
X79675178Y-37681355D01*
X79744805Y-37564466D01*
X79866525Y-37746632D01*
X80073368Y-37953475D01*
X80316589Y-38115990D01*
X80586842Y-38227932D01*
X80873740Y-38285000D01*
X81166260Y-38285000D01*
X81453158Y-38227932D01*
X81723411Y-38115990D01*
X81966632Y-37953475D01*
X82173475Y-37746632D01*
X82290000Y-37572240D01*
X82406525Y-37746632D01*
X82613368Y-37953475D01*
X82856589Y-38115990D01*
X83126842Y-38227932D01*
X83413740Y-38285000D01*
X83706260Y-38285000D01*
X83993158Y-38227932D01*
X84263411Y-38115990D01*
X84506632Y-37953475D01*
X84638487Y-37821620D01*
X84660498Y-37894180D01*
X84719463Y-38004494D01*
X84798815Y-38101185D01*
X84895506Y-38180537D01*
X85005820Y-38239502D01*
X85125518Y-38275812D01*
X85250000Y-38288072D01*
X86950000Y-38288072D01*
X87074482Y-38275812D01*
X87194180Y-38239502D01*
X87304494Y-38180537D01*
X87401185Y-38101185D01*
X87480537Y-38004494D01*
X87539502Y-37894180D01*
X87575812Y-37774482D01*
X87588072Y-37650000D01*
X87588072Y-35950000D01*
X87575812Y-35825518D01*
X87539502Y-35705820D01*
X87480537Y-35595506D01*
X87401185Y-35498815D01*
X87304494Y-35419463D01*
X87194180Y-35360498D01*
X87074482Y-35324188D01*
X86950000Y-35311928D01*
X85250000Y-35311928D01*
X85125518Y-35324188D01*
X85005820Y-35360498D01*
X84895506Y-35419463D01*
X84798815Y-35498815D01*
X84719463Y-35595506D01*
X84660498Y-35705820D01*
X84638487Y-35778380D01*
X84506632Y-35646525D01*
X84263411Y-35484010D01*
X83993158Y-35372068D01*
X83706260Y-35315000D01*
X83413740Y-35315000D01*
X83126842Y-35372068D01*
X82856589Y-35484010D01*
X82613368Y-35646525D01*
X82406525Y-35853368D01*
X82290000Y-36027760D01*
X82173475Y-35853368D01*
X81966632Y-35646525D01*
X81723411Y-35484010D01*
X81453158Y-35372068D01*
X81166260Y-35315000D01*
X80873740Y-35315000D01*
X80586842Y-35372068D01*
X80316589Y-35484010D01*
X80073368Y-35646525D01*
X79866525Y-35853368D01*
X79744805Y-36035534D01*
X79675178Y-35918645D01*
X79480269Y-35702412D01*
X79246920Y-35528359D01*
X78984099Y-35403175D01*
X78836890Y-35358524D01*
X78607000Y-35479845D01*
X78353000Y-35479845D01*
X78123110Y-35358524D01*
X77975901Y-35403175D01*
X77713080Y-35528359D01*
X77479731Y-35702412D01*
X77284822Y-35918645D01*
X77135843Y-36168748D01*
X77038519Y-36443109D01*
X33988072Y-36443109D01*
X33988072Y-35650000D01*
X33975812Y-35525518D01*
X33939502Y-35405820D01*
X33880537Y-35295506D01*
X33801185Y-35198815D01*
X33704494Y-35119463D01*
X33594180Y-35060498D01*
X33474482Y-35024188D01*
X33350000Y-35011928D01*
X31650000Y-35011928D01*
X31525518Y-35024188D01*
X31405820Y-35060498D01*
X31295506Y-35119463D01*
X31198815Y-35198815D01*
X31119463Y-35295506D01*
X31060498Y-35405820D01*
X31024188Y-35525518D01*
X31011928Y-35650000D01*
X30384115Y-35650000D01*
X30380489Y-32897997D01*
X30450890Y-33251925D01*
X30619369Y-33658669D01*
X30863962Y-34024729D01*
X31175271Y-34336038D01*
X31541331Y-34580631D01*
X31948075Y-34749110D01*
X32379872Y-34835000D01*
X32820128Y-34835000D01*
X33251925Y-34749110D01*
X33658669Y-34580631D01*
X34024729Y-34336038D01*
X34336038Y-34024729D01*
X34580631Y-33658669D01*
X34749110Y-33251925D01*
X34835000Y-32820128D01*
X34835000Y-32379872D01*
X34749110Y-31948075D01*
X34580631Y-31541331D01*
X34336038Y-31175271D01*
X34024729Y-30863962D01*
X33658669Y-30619369D01*
X33251925Y-30450890D01*
X32896539Y-30380199D01*
X89260959Y-30448327D01*
G37*
X89260959Y-30448327D02*
X89248075Y-30450890D01*
X88841331Y-30619369D01*
X88475271Y-30863962D01*
X88163962Y-31175271D01*
X87919369Y-31541331D01*
X87750890Y-31948075D01*
X87665000Y-32379872D01*
X87665000Y-32820128D01*
X87750890Y-33251925D01*
X87919369Y-33658669D01*
X88163962Y-34024729D01*
X88475271Y-34336038D01*
X88841331Y-34580631D01*
X89248075Y-34749110D01*
X89679872Y-34835000D01*
X90120128Y-34835000D01*
X90551925Y-34749110D01*
X90958669Y-34580631D01*
X91324729Y-34336038D01*
X91636038Y-34024729D01*
X91880631Y-33658669D01*
X92049110Y-33251925D01*
X92135000Y-32820128D01*
X92135000Y-32379872D01*
X92049110Y-31948075D01*
X91880631Y-31541331D01*
X91636038Y-31175271D01*
X91324729Y-30863962D01*
X90958669Y-30619369D01*
X90551925Y-30450890D01*
X90546855Y-30449881D01*
X92173000Y-30451847D01*
X92173000Y-68147846D01*
X30426833Y-68073153D01*
X30424522Y-66319366D01*
X30450890Y-66451925D01*
X30619369Y-66858669D01*
X30863962Y-67224729D01*
X31175271Y-67536038D01*
X31541331Y-67780631D01*
X31948075Y-67949110D01*
X32379872Y-68035000D01*
X32820128Y-68035000D01*
X33251925Y-67949110D01*
X33658669Y-67780631D01*
X34024729Y-67536038D01*
X34336038Y-67224729D01*
X34580631Y-66858669D01*
X34749110Y-66451925D01*
X34835000Y-66020128D01*
X34835000Y-65579872D01*
X87665000Y-65579872D01*
X87665000Y-66020128D01*
X87750890Y-66451925D01*
X87919369Y-66858669D01*
X88163962Y-67224729D01*
X88475271Y-67536038D01*
X88841331Y-67780631D01*
X89248075Y-67949110D01*
X89679872Y-68035000D01*
X90120128Y-68035000D01*
X90551925Y-67949110D01*
X90958669Y-67780631D01*
X91324729Y-67536038D01*
X91636038Y-67224729D01*
X91880631Y-66858669D01*
X92049110Y-66451925D01*
X92135000Y-66020128D01*
X92135000Y-65579872D01*
X92049110Y-65148075D01*
X91880631Y-64741331D01*
X91636038Y-64375271D01*
X91324729Y-64063962D01*
X90958669Y-63819369D01*
X90551925Y-63650890D01*
X90120128Y-63565000D01*
X89679872Y-63565000D01*
X89248075Y-63650890D01*
X88841331Y-63819369D01*
X88475271Y-64063962D01*
X88163962Y-64375271D01*
X87919369Y-64741331D01*
X87750890Y-65148075D01*
X87665000Y-65579872D01*
X34835000Y-65579872D01*
X34749110Y-65148075D01*
X34580631Y-64741331D01*
X34336038Y-64375271D01*
X34024729Y-64063962D01*
X33658669Y-63819369D01*
X33251925Y-63650890D01*
X32820128Y-63565000D01*
X32379872Y-63565000D01*
X31948075Y-63650890D01*
X31541331Y-63819369D01*
X31175271Y-64063962D01*
X30863962Y-64375271D01*
X30619369Y-64741331D01*
X30450890Y-65148075D01*
X30423163Y-65287469D01*
X30395082Y-43973740D01*
X31015000Y-43973740D01*
X31015000Y-44266260D01*
X31072068Y-44553158D01*
X31184010Y-44823411D01*
X31346525Y-45066632D01*
X31553368Y-45273475D01*
X31727760Y-45390000D01*
X31553368Y-45506525D01*
X31346525Y-45713368D01*
X31184010Y-45956589D01*
X31072068Y-46226842D01*
X31015000Y-46513740D01*
X31015000Y-46806260D01*
X31072068Y-47093158D01*
X31184010Y-47363411D01*
X31346525Y-47606632D01*
X31553368Y-47813475D01*
X31727760Y-47930000D01*
X31553368Y-48046525D01*
X31346525Y-48253368D01*
X31184010Y-48496589D01*
X31072068Y-48766842D01*
X31015000Y-49053740D01*
X31015000Y-49346260D01*
X31072068Y-49633158D01*
X31184010Y-49903411D01*
X31346525Y-50146632D01*
X31553368Y-50353475D01*
X31727760Y-50470000D01*
X31553368Y-50586525D01*
X31346525Y-50793368D01*
X31184010Y-51036589D01*
X31072068Y-51306842D01*
X31015000Y-51593740D01*
X31015000Y-51886260D01*
X31072068Y-52173158D01*
X31184010Y-52443411D01*
X31346525Y-52686632D01*
X31553368Y-52893475D01*
X31727760Y-53010000D01*
X31553368Y-53126525D01*
X31346525Y-53333368D01*
X31184010Y-53576589D01*
X31072068Y-53846842D01*
X31015000Y-54133740D01*
X31015000Y-54426260D01*
X31072068Y-54713158D01*
X31184010Y-54983411D01*
X31346525Y-55226632D01*
X31553368Y-55433475D01*
X31727760Y-55550000D01*
X31553368Y-55666525D01*
X31346525Y-55873368D01*
X31184010Y-56116589D01*
X31072068Y-56386842D01*
X31015000Y-56673740D01*
X31015000Y-56966260D01*
X31072068Y-57253158D01*
X31184010Y-57523411D01*
X31346525Y-57766632D01*
X31553368Y-57973475D01*
X31727760Y-58090000D01*
X31553368Y-58206525D01*
X31346525Y-58413368D01*
X31184010Y-58656589D01*
X31072068Y-58926842D01*
X31015000Y-59213740D01*
X31015000Y-59506260D01*
X31072068Y-59793158D01*
X31184010Y-60063411D01*
X31346525Y-60306632D01*
X31553368Y-60513475D01*
X31727760Y-60630000D01*
X31553368Y-60746525D01*
X31346525Y-60953368D01*
X31184010Y-61196589D01*
X31072068Y-61466842D01*
X31015000Y-61753740D01*
X31015000Y-62046260D01*
X31072068Y-62333158D01*
X31184010Y-62603411D01*
X31346525Y-62846632D01*
X31553368Y-63053475D01*
X31796589Y-63215990D01*
X32066842Y-63327932D01*
X32353740Y-63385000D01*
X32646260Y-63385000D01*
X32933158Y-63327932D01*
X33203411Y-63215990D01*
X33302172Y-63150000D01*
X51511928Y-63150000D01*
X51511928Y-64850000D01*
X51524188Y-64974482D01*
X51560498Y-65094180D01*
X51619463Y-65204494D01*
X51698815Y-65301185D01*
X51795506Y-65380537D01*
X51905820Y-65439502D01*
X52025518Y-65475812D01*
X52150000Y-65488072D01*
X53850000Y-65488072D01*
X53974482Y-65475812D01*
X54094180Y-65439502D01*
X54204494Y-65380537D01*
X54301185Y-65301185D01*
X54380537Y-65204494D01*
X54439502Y-65094180D01*
X54463966Y-65013534D01*
X54539731Y-65097588D01*
X54773080Y-65271641D01*
X55035901Y-65396825D01*
X55183110Y-65441476D01*
X55413000Y-65320155D01*
X55413000Y-64127000D01*
X55667000Y-64127000D01*
X55667000Y-65320155D01*
X55896890Y-65441476D01*
X56044099Y-65396825D01*
X56306920Y-65271641D01*
X56540269Y-65097588D01*
X56735178Y-64881355D01*
X56884157Y-64631252D01*
X56981481Y-64356891D01*
X56860814Y-64127000D01*
X55667000Y-64127000D01*
X55413000Y-64127000D01*
X55393000Y-64127000D01*
X55393000Y-63873000D01*
X55413000Y-63873000D01*
X55413000Y-62679845D01*
X55667000Y-62679845D01*
X55667000Y-63873000D01*
X56860814Y-63873000D01*
X56981481Y-63643109D01*
X56884157Y-63368748D01*
X56753856Y-63150000D01*
X60511928Y-63150000D01*
X60511928Y-64850000D01*
X60524188Y-64974482D01*
X60560498Y-65094180D01*
X60619463Y-65204494D01*
X60698815Y-65301185D01*
X60795506Y-65380537D01*
X60905820Y-65439502D01*
X61025518Y-65475812D01*
X61150000Y-65488072D01*
X62850000Y-65488072D01*
X62974482Y-65475812D01*
X63094180Y-65439502D01*
X63204494Y-65380537D01*
X63301185Y-65301185D01*
X63380537Y-65204494D01*
X63439502Y-65094180D01*
X63463966Y-65013534D01*
X63539731Y-65097588D01*
X63773080Y-65271641D01*
X64035901Y-65396825D01*
X64183110Y-65441476D01*
X64413000Y-65320155D01*
X64413000Y-64127000D01*
X64667000Y-64127000D01*
X64667000Y-65320155D01*
X64896890Y-65441476D01*
X65044099Y-65396825D01*
X65306920Y-65271641D01*
X65540269Y-65097588D01*
X65735178Y-64881355D01*
X65884157Y-64631252D01*
X65981481Y-64356891D01*
X65860814Y-64127000D01*
X64667000Y-64127000D01*
X64413000Y-64127000D01*
X64393000Y-64127000D01*
X64393000Y-63873000D01*
X64413000Y-63873000D01*
X64413000Y-62679845D01*
X64667000Y-62679845D01*
X64667000Y-63873000D01*
X65860814Y-63873000D01*
X65981481Y-63643109D01*
X65884157Y-63368748D01*
X65753856Y-63150000D01*
X69511928Y-63150000D01*
X69511928Y-64850000D01*
X69524188Y-64974482D01*
X69560498Y-65094180D01*
X69619463Y-65204494D01*
X69698815Y-65301185D01*
X69795506Y-65380537D01*
X69905820Y-65439502D01*
X70025518Y-65475812D01*
X70150000Y-65488072D01*
X71850000Y-65488072D01*
X71974482Y-65475812D01*
X72094180Y-65439502D01*
X72204494Y-65380537D01*
X72301185Y-65301185D01*
X72380537Y-65204494D01*
X72439502Y-65094180D01*
X72463966Y-65013534D01*
X72539731Y-65097588D01*
X72773080Y-65271641D01*
X73035901Y-65396825D01*
X73183110Y-65441476D01*
X73413000Y-65320155D01*
X73413000Y-64127000D01*
X73667000Y-64127000D01*
X73667000Y-65320155D01*
X73896890Y-65441476D01*
X74044099Y-65396825D01*
X74306920Y-65271641D01*
X74540269Y-65097588D01*
X74735178Y-64881355D01*
X74884157Y-64631252D01*
X74981481Y-64356891D01*
X74860814Y-64127000D01*
X73667000Y-64127000D01*
X73413000Y-64127000D01*
X73393000Y-64127000D01*
X73393000Y-63873000D01*
X73413000Y-63873000D01*
X73413000Y-62679845D01*
X73667000Y-62679845D01*
X73667000Y-63873000D01*
X74860814Y-63873000D01*
X74981481Y-63643109D01*
X74884157Y-63368748D01*
X74735178Y-63118645D01*
X74540269Y-62902412D01*
X74306920Y-62728359D01*
X74044099Y-62603175D01*
X73896890Y-62558524D01*
X73667000Y-62679845D01*
X73413000Y-62679845D01*
X73183110Y-62558524D01*
X73035901Y-62603175D01*
X72773080Y-62728359D01*
X72539731Y-62902412D01*
X72463966Y-62986466D01*
X72439502Y-62905820D01*
X72380537Y-62795506D01*
X72301185Y-62698815D01*
X72204494Y-62619463D01*
X72094180Y-62560498D01*
X71974482Y-62524188D01*
X71850000Y-62511928D01*
X70150000Y-62511928D01*
X70025518Y-62524188D01*
X69905820Y-62560498D01*
X69795506Y-62619463D01*
X69698815Y-62698815D01*
X69619463Y-62795506D01*
X69560498Y-62905820D01*
X69524188Y-63025518D01*
X69511928Y-63150000D01*
X65753856Y-63150000D01*
X65735178Y-63118645D01*
X65540269Y-62902412D01*
X65306920Y-62728359D01*
X65044099Y-62603175D01*
X64896890Y-62558524D01*
X64667000Y-62679845D01*
X64413000Y-62679845D01*
X64183110Y-62558524D01*
X64035901Y-62603175D01*
X63773080Y-62728359D01*
X63539731Y-62902412D01*
X63463966Y-62986466D01*
X63439502Y-62905820D01*
X63380537Y-62795506D01*
X63301185Y-62698815D01*
X63204494Y-62619463D01*
X63094180Y-62560498D01*
X62974482Y-62524188D01*
X62850000Y-62511928D01*
X61150000Y-62511928D01*
X61025518Y-62524188D01*
X60905820Y-62560498D01*
X60795506Y-62619463D01*
X60698815Y-62698815D01*
X60619463Y-62795506D01*
X60560498Y-62905820D01*
X60524188Y-63025518D01*
X60511928Y-63150000D01*
X56753856Y-63150000D01*
X56735178Y-63118645D01*
X56540269Y-62902412D01*
X56306920Y-62728359D01*
X56044099Y-62603175D01*
X55896890Y-62558524D01*
X55667000Y-62679845D01*
X55413000Y-62679845D01*
X55183110Y-62558524D01*
X55035901Y-62603175D01*
X54773080Y-62728359D01*
X54539731Y-62902412D01*
X54463966Y-62986466D01*
X54439502Y-62905820D01*
X54380537Y-62795506D01*
X54301185Y-62698815D01*
X54204494Y-62619463D01*
X54094180Y-62560498D01*
X53974482Y-62524188D01*
X53850000Y-62511928D01*
X52150000Y-62511928D01*
X52025518Y-62524188D01*
X51905820Y-62560498D01*
X51795506Y-62619463D01*
X51698815Y-62698815D01*
X51619463Y-62795506D01*
X51560498Y-62905820D01*
X51524188Y-63025518D01*
X51511928Y-63150000D01*
X33302172Y-63150000D01*
X33446632Y-63053475D01*
X33653475Y-62846632D01*
X33815990Y-62603411D01*
X33927932Y-62333158D01*
X33985000Y-62046260D01*
X33985000Y-61753740D01*
X33927932Y-61466842D01*
X33815990Y-61196589D01*
X33653475Y-60953368D01*
X33446632Y-60746525D01*
X33272240Y-60630000D01*
X33446632Y-60513475D01*
X33653475Y-60306632D01*
X33815990Y-60063411D01*
X33927932Y-59793158D01*
X33985000Y-59506260D01*
X33985000Y-59213740D01*
X33970539Y-59141039D01*
X37126579Y-55985000D01*
X37861546Y-55985000D01*
X37909744Y-56017205D01*
X38098102Y-56095226D01*
X38298061Y-56135000D01*
X38501939Y-56135000D01*
X38701898Y-56095226D01*
X38890256Y-56017205D01*
X39059774Y-55903937D01*
X39203937Y-55759774D01*
X39317205Y-55590256D01*
X39395226Y-55401898D01*
X39435000Y-55201939D01*
X39435000Y-54998061D01*
X39395226Y-54798102D01*
X39317205Y-54609744D01*
X39203937Y-54440226D01*
X39059774Y-54296063D01*
X38890256Y-54182795D01*
X38701898Y-54104774D01*
X38501939Y-54065000D01*
X38298061Y-54065000D01*
X38098102Y-54104774D01*
X37909744Y-54182795D01*
X37861546Y-54215000D01*
X36803469Y-54215000D01*
X36760000Y-54210719D01*
X36716531Y-54215000D01*
X36716523Y-54215000D01*
X36586510Y-54227805D01*
X36419687Y-54278411D01*
X36265941Y-54360589D01*
X36164953Y-54443468D01*
X36164951Y-54443470D01*
X36131183Y-54471183D01*
X36103470Y-54504951D01*
X33976652Y-56631770D01*
X33927932Y-56386842D01*
X33815990Y-56116589D01*
X33653475Y-55873368D01*
X33446632Y-55666525D01*
X33272240Y-55550000D01*
X33446632Y-55433475D01*
X33653475Y-55226632D01*
X33815990Y-54983411D01*
X33927932Y-54713158D01*
X33985000Y-54426260D01*
X33985000Y-54133740D01*
X33927932Y-53846842D01*
X33815990Y-53576589D01*
X33653475Y-53333368D01*
X33446632Y-53126525D01*
X33272240Y-53010000D01*
X33446632Y-52893475D01*
X33653475Y-52686632D01*
X33694656Y-52625000D01*
X40539107Y-52625000D01*
X45106951Y-57192845D01*
X45104774Y-57198102D01*
X45065000Y-57398061D01*
X45065000Y-57601939D01*
X45104774Y-57801898D01*
X45182795Y-57990256D01*
X45296063Y-58159774D01*
X45440226Y-58303937D01*
X45609744Y-58417205D01*
X45798102Y-58495226D01*
X45998061Y-58535000D01*
X46201939Y-58535000D01*
X46401898Y-58495226D01*
X46590256Y-58417205D01*
X46759774Y-58303937D01*
X46903937Y-58159774D01*
X47017205Y-57990256D01*
X47095226Y-57801898D01*
X47135000Y-57601939D01*
X47135000Y-57398061D01*
X47095226Y-57198102D01*
X47017205Y-57009744D01*
X46986394Y-56963632D01*
X46989281Y-56934315D01*
X46985000Y-56890846D01*
X46985000Y-56890838D01*
X46972195Y-56760825D01*
X46921589Y-56594002D01*
X46839411Y-56440256D01*
X46728817Y-56305498D01*
X46695049Y-56277785D01*
X42567264Y-52150000D01*
X88511928Y-52150000D01*
X88511928Y-53850000D01*
X88524188Y-53974482D01*
X88560498Y-54094180D01*
X88619463Y-54204494D01*
X88698815Y-54301185D01*
X88795506Y-54380537D01*
X88905820Y-54439502D01*
X89025518Y-54475812D01*
X89150000Y-54488072D01*
X90850000Y-54488072D01*
X90974482Y-54475812D01*
X91094180Y-54439502D01*
X91204494Y-54380537D01*
X91301185Y-54301185D01*
X91380537Y-54204494D01*
X91439502Y-54094180D01*
X91475812Y-53974482D01*
X91488072Y-53850000D01*
X91488072Y-52150000D01*
X91475812Y-52025518D01*
X91439502Y-51905820D01*
X91380537Y-51795506D01*
X91301185Y-51698815D01*
X91204494Y-51619463D01*
X91094180Y-51560498D01*
X91021620Y-51538487D01*
X91153475Y-51406632D01*
X91315990Y-51163411D01*
X91427932Y-50893158D01*
X91485000Y-50606260D01*
X91485000Y-50313740D01*
X91427932Y-50026842D01*
X91315990Y-49756589D01*
X91153475Y-49513368D01*
X90946632Y-49306525D01*
X90772240Y-49190000D01*
X90946632Y-49073475D01*
X91153475Y-48866632D01*
X91315990Y-48623411D01*
X91427932Y-48353158D01*
X91485000Y-48066260D01*
X91485000Y-47773740D01*
X91427932Y-47486842D01*
X91315990Y-47216589D01*
X91153475Y-46973368D01*
X90946632Y-46766525D01*
X90772240Y-46650000D01*
X90946632Y-46533475D01*
X91153475Y-46326632D01*
X91315990Y-46083411D01*
X91427932Y-45813158D01*
X91485000Y-45526260D01*
X91485000Y-45233740D01*
X91427932Y-44946842D01*
X91315990Y-44676589D01*
X91153475Y-44433368D01*
X90946632Y-44226525D01*
X90703411Y-44064010D01*
X90433158Y-43952068D01*
X90146260Y-43895000D01*
X89853740Y-43895000D01*
X89566842Y-43952068D01*
X89296589Y-44064010D01*
X89053368Y-44226525D01*
X88846525Y-44433368D01*
X88684010Y-44676589D01*
X88572068Y-44946842D01*
X88515000Y-45233740D01*
X88515000Y-45526260D01*
X88572068Y-45813158D01*
X88684010Y-46083411D01*
X88846525Y-46326632D01*
X89053368Y-46533475D01*
X89227760Y-46650000D01*
X89053368Y-46766525D01*
X88846525Y-46973368D01*
X88684010Y-47216589D01*
X88572068Y-47486842D01*
X88515000Y-47773740D01*
X88515000Y-48066260D01*
X88572068Y-48353158D01*
X88684010Y-48623411D01*
X88846525Y-48866632D01*
X89053368Y-49073475D01*
X89227760Y-49190000D01*
X89053368Y-49306525D01*
X88846525Y-49513368D01*
X88684010Y-49756589D01*
X88572068Y-50026842D01*
X88515000Y-50313740D01*
X88515000Y-50606260D01*
X88572068Y-50893158D01*
X88684010Y-51163411D01*
X88846525Y-51406632D01*
X88978380Y-51538487D01*
X88905820Y-51560498D01*
X88795506Y-51619463D01*
X88698815Y-51698815D01*
X88619463Y-51795506D01*
X88560498Y-51905820D01*
X88524188Y-52025518D01*
X88511928Y-52150000D01*
X42567264Y-52150000D01*
X41562219Y-51144956D01*
X41534502Y-51111183D01*
X41399744Y-51000589D01*
X41245998Y-50918411D01*
X41079175Y-50867805D01*
X40949162Y-50855000D01*
X40949154Y-50855000D01*
X40905685Y-50850719D01*
X40862216Y-50855000D01*
X33694656Y-50855000D01*
X33653475Y-50793368D01*
X33446632Y-50586525D01*
X33272240Y-50470000D01*
X33446632Y-50353475D01*
X33653475Y-50146632D01*
X33815990Y-49903411D01*
X33927932Y-49633158D01*
X33985000Y-49346260D01*
X33985000Y-49053740D01*
X33927932Y-48766842D01*
X33815990Y-48496589D01*
X33653475Y-48253368D01*
X33446632Y-48046525D01*
X33272240Y-47930000D01*
X33446632Y-47813475D01*
X33653475Y-47606632D01*
X33815990Y-47363411D01*
X33927932Y-47093158D01*
X33985000Y-46806260D01*
X33985000Y-46513740D01*
X33927932Y-46226842D01*
X33815990Y-45956589D01*
X33653475Y-45713368D01*
X33446632Y-45506525D01*
X33272240Y-45390000D01*
X33446632Y-45273475D01*
X33653475Y-45066632D01*
X33815990Y-44823411D01*
X33927932Y-44553158D01*
X33985000Y-44266260D01*
X33985000Y-43973740D01*
X33927932Y-43686842D01*
X33815990Y-43416589D01*
X33653475Y-43173368D01*
X33446632Y-42966525D01*
X33264466Y-42844805D01*
X33381355Y-42775178D01*
X33597588Y-42580269D01*
X33771641Y-42346920D01*
X33896825Y-42084099D01*
X33941476Y-41936890D01*
X33820155Y-41707000D01*
X32627000Y-41707000D01*
X32627000Y-41727000D01*
X32373000Y-41727000D01*
X32373000Y-41707000D01*
X31179845Y-41707000D01*
X31058524Y-41936890D01*
X31103175Y-42084099D01*
X31228359Y-42346920D01*
X31402412Y-42580269D01*
X31618645Y-42775178D01*
X31735534Y-42844805D01*
X31553368Y-42966525D01*
X31346525Y-43173368D01*
X31184010Y-43416589D01*
X31072068Y-43686842D01*
X31015000Y-43973740D01*
X30395082Y-43973740D01*
X30389052Y-39396890D01*
X31058524Y-39396890D01*
X31103175Y-39544099D01*
X31228359Y-39806920D01*
X31402412Y-40040269D01*
X31618645Y-40235178D01*
X31744255Y-40310000D01*
X31618645Y-40384822D01*
X31402412Y-40579731D01*
X31228359Y-40813080D01*
X31103175Y-41075901D01*
X31058524Y-41223110D01*
X31179845Y-41453000D01*
X32373000Y-41453000D01*
X32373000Y-39167000D01*
X32627000Y-39167000D01*
X32627000Y-41453000D01*
X33820155Y-41453000D01*
X33941476Y-41223110D01*
X33896825Y-41075901D01*
X33771641Y-40813080D01*
X33597588Y-40579731D01*
X33381355Y-40384822D01*
X33255745Y-40310000D01*
X33381355Y-40235178D01*
X33597588Y-40040269D01*
X33771641Y-39806920D01*
X33896825Y-39544099D01*
X33941476Y-39396890D01*
X33820155Y-39167000D01*
X32627000Y-39167000D01*
X32373000Y-39167000D01*
X31179845Y-39167000D01*
X31058524Y-39396890D01*
X30389052Y-39396890D01*
X30384115Y-35650000D01*
X31011928Y-35650000D01*
X31011928Y-37350000D01*
X31024188Y-37474482D01*
X31060498Y-37594180D01*
X31119463Y-37704494D01*
X31198815Y-37801185D01*
X31295506Y-37880537D01*
X31405820Y-37939502D01*
X31486466Y-37963966D01*
X31402412Y-38039731D01*
X31228359Y-38273080D01*
X31103175Y-38535901D01*
X31058524Y-38683110D01*
X31179845Y-38913000D01*
X32373000Y-38913000D01*
X32373000Y-38893000D01*
X32627000Y-38893000D01*
X32627000Y-38913000D01*
X33820155Y-38913000D01*
X33941476Y-38683110D01*
X33896825Y-38535901D01*
X33771641Y-38273080D01*
X33597588Y-38039731D01*
X33513534Y-37963966D01*
X33594180Y-37939502D01*
X33704494Y-37880537D01*
X33801185Y-37801185D01*
X33880537Y-37704494D01*
X33939502Y-37594180D01*
X33975812Y-37474482D01*
X33988072Y-37350000D01*
X33988072Y-37156891D01*
X77038519Y-37156891D01*
X77135843Y-37431252D01*
X77284822Y-37681355D01*
X77479731Y-37897588D01*
X77713080Y-38071641D01*
X77975901Y-38196825D01*
X78123110Y-38241476D01*
X78353000Y-38120155D01*
X78353000Y-36927000D01*
X77159186Y-36927000D01*
X77038519Y-37156891D01*
X33988072Y-37156891D01*
X33988072Y-36443109D01*
X77038519Y-36443109D01*
X77159186Y-36673000D01*
X78353000Y-36673000D01*
X78353000Y-35479845D01*
X78607000Y-35479845D01*
X78607000Y-36673000D01*
X78627000Y-36673000D01*
X78627000Y-36927000D01*
X78607000Y-36927000D01*
X78607000Y-38120155D01*
X78836890Y-38241476D01*
X78984099Y-38196825D01*
X79246920Y-38071641D01*
X79480269Y-37897588D01*
X79675178Y-37681355D01*
X79744805Y-37564466D01*
X79866525Y-37746632D01*
X80073368Y-37953475D01*
X80316589Y-38115990D01*
X80586842Y-38227932D01*
X80873740Y-38285000D01*
X81166260Y-38285000D01*
X81453158Y-38227932D01*
X81723411Y-38115990D01*
X81966632Y-37953475D01*
X82173475Y-37746632D01*
X82290000Y-37572240D01*
X82406525Y-37746632D01*
X82613368Y-37953475D01*
X82856589Y-38115990D01*
X83126842Y-38227932D01*
X83413740Y-38285000D01*
X83706260Y-38285000D01*
X83993158Y-38227932D01*
X84263411Y-38115990D01*
X84506632Y-37953475D01*
X84638487Y-37821620D01*
X84660498Y-37894180D01*
X84719463Y-38004494D01*
X84798815Y-38101185D01*
X84895506Y-38180537D01*
X85005820Y-38239502D01*
X85125518Y-38275812D01*
X85250000Y-38288072D01*
X86950000Y-38288072D01*
X87074482Y-38275812D01*
X87194180Y-38239502D01*
X87304494Y-38180537D01*
X87401185Y-38101185D01*
X87480537Y-38004494D01*
X87539502Y-37894180D01*
X87575812Y-37774482D01*
X87588072Y-37650000D01*
X87588072Y-35950000D01*
X87575812Y-35825518D01*
X87539502Y-35705820D01*
X87480537Y-35595506D01*
X87401185Y-35498815D01*
X87304494Y-35419463D01*
X87194180Y-35360498D01*
X87074482Y-35324188D01*
X86950000Y-35311928D01*
X85250000Y-35311928D01*
X85125518Y-35324188D01*
X85005820Y-35360498D01*
X84895506Y-35419463D01*
X84798815Y-35498815D01*
X84719463Y-35595506D01*
X84660498Y-35705820D01*
X84638487Y-35778380D01*
X84506632Y-35646525D01*
X84263411Y-35484010D01*
X83993158Y-35372068D01*
X83706260Y-35315000D01*
X83413740Y-35315000D01*
X83126842Y-35372068D01*
X82856589Y-35484010D01*
X82613368Y-35646525D01*
X82406525Y-35853368D01*
X82290000Y-36027760D01*
X82173475Y-35853368D01*
X81966632Y-35646525D01*
X81723411Y-35484010D01*
X81453158Y-35372068D01*
X81166260Y-35315000D01*
X80873740Y-35315000D01*
X80586842Y-35372068D01*
X80316589Y-35484010D01*
X80073368Y-35646525D01*
X79866525Y-35853368D01*
X79744805Y-36035534D01*
X79675178Y-35918645D01*
X79480269Y-35702412D01*
X79246920Y-35528359D01*
X78984099Y-35403175D01*
X78836890Y-35358524D01*
X78607000Y-35479845D01*
X78353000Y-35479845D01*
X78123110Y-35358524D01*
X77975901Y-35403175D01*
X77713080Y-35528359D01*
X77479731Y-35702412D01*
X77284822Y-35918645D01*
X77135843Y-36168748D01*
X77038519Y-36443109D01*
X33988072Y-36443109D01*
X33988072Y-35650000D01*
X33975812Y-35525518D01*
X33939502Y-35405820D01*
X33880537Y-35295506D01*
X33801185Y-35198815D01*
X33704494Y-35119463D01*
X33594180Y-35060498D01*
X33474482Y-35024188D01*
X33350000Y-35011928D01*
X31650000Y-35011928D01*
X31525518Y-35024188D01*
X31405820Y-35060498D01*
X31295506Y-35119463D01*
X31198815Y-35198815D01*
X31119463Y-35295506D01*
X31060498Y-35405820D01*
X31024188Y-35525518D01*
X31011928Y-35650000D01*
X30384115Y-35650000D01*
X30380489Y-32897997D01*
X30450890Y-33251925D01*
X30619369Y-33658669D01*
X30863962Y-34024729D01*
X31175271Y-34336038D01*
X31541331Y-34580631D01*
X31948075Y-34749110D01*
X32379872Y-34835000D01*
X32820128Y-34835000D01*
X33251925Y-34749110D01*
X33658669Y-34580631D01*
X34024729Y-34336038D01*
X34336038Y-34024729D01*
X34580631Y-33658669D01*
X34749110Y-33251925D01*
X34835000Y-32820128D01*
X34835000Y-32379872D01*
X34749110Y-31948075D01*
X34580631Y-31541331D01*
X34336038Y-31175271D01*
X34024729Y-30863962D01*
X33658669Y-30619369D01*
X33251925Y-30450890D01*
X32896539Y-30380199D01*
X89260959Y-30448327D01*
M02*
