G04 #@! TF.GenerationSoftware,KiCad,Pcbnew,(5.1.5-0-10_14)*
G04 #@! TF.CreationDate,2020-08-05T21:30:17+02:00*
G04 #@! TF.ProjectId,roxie-lcd,726f7869-652d-46c6-9364-2e6b69636164,rev?*
G04 #@! TF.SameCoordinates,Original*
G04 #@! TF.FileFunction,Copper,L1,Top*
G04 #@! TF.FilePolarity,Positive*
%FSLAX46Y46*%
G04 Gerber Fmt 4.6, Leading zero omitted, Abs format (unit mm)*
G04 Created by KiCad (PCBNEW (5.1.5-0-10_14)) date 2020-08-05 21:30:17*
%MOMM*%
%LPD*%
G04 APERTURE LIST*
%ADD10O,1.700000X1.700000*%
%ADD11R,1.700000X1.700000*%
%ADD12O,1.700000X3.000000*%
%ADD13C,0.800000*%
%ADD14C,0.500000*%
%ADD15C,1.000000*%
%ADD16C,0.254000*%
G04 APERTURE END LIST*
D10*
X90000000Y-45380000D03*
X90000000Y-47920000D03*
X90000000Y-50460000D03*
D11*
X90000000Y-53000000D03*
D10*
X73540000Y-64000000D03*
D11*
X71000000Y-64000000D03*
D10*
X64540000Y-64000000D03*
D11*
X62000000Y-64000000D03*
D10*
X55540000Y-64000000D03*
D11*
X53000000Y-64000000D03*
D10*
X32500000Y-61900000D03*
X32500000Y-59360000D03*
X32500000Y-56820000D03*
X32500000Y-54280000D03*
X32500000Y-51740000D03*
X32500000Y-49200000D03*
X32500000Y-46660000D03*
X32500000Y-44120000D03*
X32500000Y-41580000D03*
X32500000Y-39040000D03*
D11*
X32500000Y-36500000D03*
D10*
X78480000Y-36800000D03*
X81020000Y-36800000D03*
X83560000Y-36800000D03*
D11*
X86100000Y-36800000D03*
D12*
X83580000Y-41045000D03*
X81040000Y-41045000D03*
X78500000Y-41045000D03*
X75960000Y-41045000D03*
X73420000Y-41045000D03*
X70880000Y-41045000D03*
X68340000Y-41045000D03*
X65800000Y-41045000D03*
X63260000Y-41045000D03*
X60720000Y-41045000D03*
X58180000Y-41045000D03*
X55640000Y-41045000D03*
X53100000Y-41045000D03*
X50560000Y-41045000D03*
X48020000Y-41045000D03*
X50560000Y-57555000D03*
X83580000Y-57555000D03*
X65800000Y-57555000D03*
X60720000Y-57555000D03*
X63260000Y-57555000D03*
X68340000Y-57555000D03*
X70880000Y-57555000D03*
X55640000Y-57555000D03*
X81040000Y-57555000D03*
X48020000Y-57555000D03*
X75960000Y-57555000D03*
X78500000Y-57555000D03*
X58180000Y-57555000D03*
X53100000Y-57555000D03*
X73420000Y-57555000D03*
D13*
X38400000Y-55100000D03*
X60000000Y-46000000D03*
X60000000Y-49000000D03*
X60000000Y-52000000D03*
X65000000Y-52000000D03*
X65000000Y-49000000D03*
X65000000Y-46000000D03*
X70000000Y-46000000D03*
X70000000Y-49000000D03*
X70000000Y-52000000D03*
X39000000Y-40000000D03*
X43000000Y-40000000D03*
X43000000Y-44000000D03*
X39000000Y-44000000D03*
X39000000Y-48000000D03*
X37000000Y-32000000D03*
X45000000Y-32000000D03*
X53000000Y-32000000D03*
X62000000Y-32000000D03*
X70000000Y-32000000D03*
X79000000Y-32000000D03*
X75000000Y-46000000D03*
X75000000Y-49000000D03*
X90000000Y-38000000D03*
X90000000Y-41200000D03*
X90000000Y-57000000D03*
X90000000Y-62000000D03*
X84000000Y-67000000D03*
X84000000Y-62000000D03*
X78000000Y-62000000D03*
X78000000Y-67000000D03*
X47000000Y-63000000D03*
X47000000Y-67000000D03*
X42000000Y-67000000D03*
X37000000Y-67000000D03*
X75000000Y-37000000D03*
X85000000Y-53000000D03*
X35000000Y-40000000D03*
X35000000Y-44000000D03*
X35000000Y-48000000D03*
X75000000Y-52000000D03*
X79000000Y-46000000D03*
X55000000Y-52000000D03*
X85000000Y-50000000D03*
X42000000Y-63000000D03*
X46100000Y-57500000D03*
D14*
X83560000Y-41025000D02*
X83580000Y-41045000D01*
X83560000Y-36800000D02*
X83560000Y-41025000D01*
X81020000Y-41025000D02*
X81040000Y-41045000D01*
X81020000Y-36800000D02*
X81020000Y-41025000D01*
X41880000Y-56820000D02*
X32500000Y-56820000D01*
X55640000Y-43060000D02*
X41880000Y-56820000D01*
X55640000Y-41045000D02*
X55640000Y-43060000D01*
X58180000Y-41045000D02*
X58180000Y-43045000D01*
X39325000Y-61900000D02*
X32500000Y-61900000D01*
X58180000Y-43045000D02*
X39325000Y-61900000D01*
X50560000Y-41045000D02*
X50560000Y-43045000D01*
X50560000Y-43045000D02*
X45705000Y-47900000D01*
X45705000Y-47900000D02*
X45700000Y-47900000D01*
X45700000Y-47900000D02*
X39800000Y-53800000D01*
X39800000Y-53800000D02*
X35900000Y-53800000D01*
X35420000Y-54280000D02*
X32500000Y-54280000D01*
X35900000Y-53800000D02*
X35420000Y-54280000D01*
X41045000Y-55100000D02*
X38400000Y-55100000D01*
X53100000Y-43045000D02*
X41045000Y-55100000D01*
X53100000Y-41045000D02*
X53100000Y-43045000D01*
D15*
X86100000Y-38650000D02*
X86100000Y-36800000D01*
X86100000Y-44915000D02*
X86100000Y-38650000D01*
X75960000Y-55055000D02*
X86100000Y-44915000D01*
X75960000Y-57555000D02*
X75960000Y-55055000D01*
X86100000Y-34950000D02*
X85350000Y-34200000D01*
X86100000Y-36800000D02*
X86100000Y-34950000D01*
X85350000Y-34200000D02*
X73900000Y-34200000D01*
X71600000Y-36500000D02*
X32500000Y-36500000D01*
X73900000Y-34200000D02*
X71600000Y-36500000D01*
D14*
X60720000Y-59555000D02*
X62265000Y-61100000D01*
X60720000Y-57555000D02*
X60720000Y-59555000D01*
X62265000Y-61100000D02*
X70100000Y-61100000D01*
X71000000Y-62000000D02*
X71000000Y-64000000D01*
X70100000Y-61100000D02*
X71000000Y-62000000D01*
X53000000Y-62195000D02*
X53000000Y-64000000D01*
X55640000Y-57555000D02*
X55640000Y-59555000D01*
X55640000Y-59555000D02*
X53000000Y-62195000D01*
X48020000Y-57555000D02*
X46155000Y-57555000D01*
X46155000Y-57555000D02*
X46100000Y-57500000D01*
X61050000Y-64000000D02*
X62400000Y-64000000D01*
X58180000Y-61130000D02*
X61050000Y-64000000D01*
X58180000Y-57555000D02*
X58180000Y-61130000D01*
D16*
G36*
X89260959Y-30448327D02*
G01*
X89248075Y-30450890D01*
X88841331Y-30619369D01*
X88475271Y-30863962D01*
X88163962Y-31175271D01*
X87919369Y-31541331D01*
X87750890Y-31948075D01*
X87665000Y-32379872D01*
X87665000Y-32820128D01*
X87750890Y-33251925D01*
X87919369Y-33658669D01*
X88163962Y-34024729D01*
X88475271Y-34336038D01*
X88841331Y-34580631D01*
X89248075Y-34749110D01*
X89679872Y-34835000D01*
X90120128Y-34835000D01*
X90551925Y-34749110D01*
X90958669Y-34580631D01*
X91324729Y-34336038D01*
X91636038Y-34024729D01*
X91880631Y-33658669D01*
X92049110Y-33251925D01*
X92135000Y-32820128D01*
X92135000Y-32379872D01*
X92049110Y-31948075D01*
X91880631Y-31541331D01*
X91636038Y-31175271D01*
X91324729Y-30863962D01*
X90958669Y-30619369D01*
X90551925Y-30450890D01*
X90546855Y-30449881D01*
X92173000Y-30451847D01*
X92173000Y-68147846D01*
X30426833Y-68073153D01*
X30424522Y-66319366D01*
X30450890Y-66451925D01*
X30619369Y-66858669D01*
X30863962Y-67224729D01*
X31175271Y-67536038D01*
X31541331Y-67780631D01*
X31948075Y-67949110D01*
X32379872Y-68035000D01*
X32820128Y-68035000D01*
X33251925Y-67949110D01*
X33658669Y-67780631D01*
X34024729Y-67536038D01*
X34336038Y-67224729D01*
X34580631Y-66858669D01*
X34749110Y-66451925D01*
X34835000Y-66020128D01*
X34835000Y-65579872D01*
X87665000Y-65579872D01*
X87665000Y-66020128D01*
X87750890Y-66451925D01*
X87919369Y-66858669D01*
X88163962Y-67224729D01*
X88475271Y-67536038D01*
X88841331Y-67780631D01*
X89248075Y-67949110D01*
X89679872Y-68035000D01*
X90120128Y-68035000D01*
X90551925Y-67949110D01*
X90958669Y-67780631D01*
X91324729Y-67536038D01*
X91636038Y-67224729D01*
X91880631Y-66858669D01*
X92049110Y-66451925D01*
X92135000Y-66020128D01*
X92135000Y-65579872D01*
X92049110Y-65148075D01*
X91880631Y-64741331D01*
X91636038Y-64375271D01*
X91324729Y-64063962D01*
X90958669Y-63819369D01*
X90551925Y-63650890D01*
X90120128Y-63565000D01*
X89679872Y-63565000D01*
X89248075Y-63650890D01*
X88841331Y-63819369D01*
X88475271Y-64063962D01*
X88163962Y-64375271D01*
X87919369Y-64741331D01*
X87750890Y-65148075D01*
X87665000Y-65579872D01*
X34835000Y-65579872D01*
X34749110Y-65148075D01*
X34580631Y-64741331D01*
X34336038Y-64375271D01*
X34024729Y-64063962D01*
X33658669Y-63819369D01*
X33251925Y-63650890D01*
X32820128Y-63565000D01*
X32379872Y-63565000D01*
X31948075Y-63650890D01*
X31541331Y-63819369D01*
X31175271Y-64063962D01*
X30863962Y-64375271D01*
X30619369Y-64741331D01*
X30450890Y-65148075D01*
X30423163Y-65287469D01*
X30389052Y-39396890D01*
X31058524Y-39396890D01*
X31103175Y-39544099D01*
X31228359Y-39806920D01*
X31402412Y-40040269D01*
X31618645Y-40235178D01*
X31744255Y-40310000D01*
X31618645Y-40384822D01*
X31402412Y-40579731D01*
X31228359Y-40813080D01*
X31103175Y-41075901D01*
X31058524Y-41223110D01*
X31179845Y-41453000D01*
X32373000Y-41453000D01*
X32373000Y-39167000D01*
X32627000Y-39167000D01*
X32627000Y-41453000D01*
X33820155Y-41453000D01*
X33941476Y-41223110D01*
X33896825Y-41075901D01*
X33771641Y-40813080D01*
X33597588Y-40579731D01*
X33381355Y-40384822D01*
X33255745Y-40310000D01*
X33381355Y-40235178D01*
X33597588Y-40040269D01*
X33771641Y-39806920D01*
X33896825Y-39544099D01*
X33941476Y-39396890D01*
X33820155Y-39167000D01*
X32627000Y-39167000D01*
X32373000Y-39167000D01*
X31179845Y-39167000D01*
X31058524Y-39396890D01*
X30389052Y-39396890D01*
X30384115Y-35650000D01*
X31011928Y-35650000D01*
X31011928Y-37350000D01*
X31024188Y-37474482D01*
X31060498Y-37594180D01*
X31119463Y-37704494D01*
X31198815Y-37801185D01*
X31295506Y-37880537D01*
X31405820Y-37939502D01*
X31486466Y-37963966D01*
X31402412Y-38039731D01*
X31228359Y-38273080D01*
X31103175Y-38535901D01*
X31058524Y-38683110D01*
X31179845Y-38913000D01*
X32373000Y-38913000D01*
X32373000Y-38893000D01*
X32627000Y-38893000D01*
X32627000Y-38913000D01*
X33820155Y-38913000D01*
X33941476Y-38683110D01*
X33896825Y-38535901D01*
X33771641Y-38273080D01*
X33597588Y-38039731D01*
X33513534Y-37963966D01*
X33594180Y-37939502D01*
X33704494Y-37880537D01*
X33801185Y-37801185D01*
X33880537Y-37704494D01*
X33917683Y-37635000D01*
X71544249Y-37635000D01*
X71600000Y-37640491D01*
X71655751Y-37635000D01*
X71655752Y-37635000D01*
X71822499Y-37618577D01*
X72036447Y-37553676D01*
X72233623Y-37448284D01*
X72406449Y-37306449D01*
X72441996Y-37263135D01*
X72548240Y-37156891D01*
X77038519Y-37156891D01*
X77135843Y-37431252D01*
X77284822Y-37681355D01*
X77479731Y-37897588D01*
X77713080Y-38071641D01*
X77975901Y-38196825D01*
X78123110Y-38241476D01*
X78353000Y-38120155D01*
X78353000Y-36927000D01*
X77159186Y-36927000D01*
X77038519Y-37156891D01*
X72548240Y-37156891D01*
X74370132Y-35335000D01*
X78352998Y-35335000D01*
X78352998Y-35479844D01*
X78123110Y-35358524D01*
X77975901Y-35403175D01*
X77713080Y-35528359D01*
X77479731Y-35702412D01*
X77284822Y-35918645D01*
X77135843Y-36168748D01*
X77038519Y-36443109D01*
X77159186Y-36673000D01*
X78353000Y-36673000D01*
X78353000Y-36653000D01*
X78607000Y-36653000D01*
X78607000Y-36673000D01*
X78627000Y-36673000D01*
X78627000Y-36927000D01*
X78607000Y-36927000D01*
X78607000Y-38120155D01*
X78836890Y-38241476D01*
X78984099Y-38196825D01*
X79246920Y-38071641D01*
X79480269Y-37897588D01*
X79675178Y-37681355D01*
X79744805Y-37564466D01*
X79866525Y-37746632D01*
X80073368Y-37953475D01*
X80135000Y-37994656D01*
X80135001Y-39216654D01*
X79984867Y-39339866D01*
X79799295Y-39565986D01*
X79770000Y-39620792D01*
X79740706Y-39565986D01*
X79555134Y-39339866D01*
X79329014Y-39154294D01*
X79071034Y-39016401D01*
X78791111Y-38931487D01*
X78500000Y-38902815D01*
X78208890Y-38931487D01*
X77928967Y-39016401D01*
X77670987Y-39154294D01*
X77444867Y-39339866D01*
X77259295Y-39565986D01*
X77230000Y-39620792D01*
X77200706Y-39565986D01*
X77015134Y-39339866D01*
X76789014Y-39154294D01*
X76531034Y-39016401D01*
X76251111Y-38931487D01*
X75960000Y-38902815D01*
X75668890Y-38931487D01*
X75388967Y-39016401D01*
X75130987Y-39154294D01*
X74904867Y-39339866D01*
X74719295Y-39565986D01*
X74690000Y-39620792D01*
X74660706Y-39565986D01*
X74475134Y-39339866D01*
X74249014Y-39154294D01*
X73991034Y-39016401D01*
X73711111Y-38931487D01*
X73420000Y-38902815D01*
X73128890Y-38931487D01*
X72848967Y-39016401D01*
X72590987Y-39154294D01*
X72364867Y-39339866D01*
X72179295Y-39565986D01*
X72150000Y-39620792D01*
X72120706Y-39565986D01*
X71935134Y-39339866D01*
X71709014Y-39154294D01*
X71451034Y-39016401D01*
X71171111Y-38931487D01*
X70880000Y-38902815D01*
X70588890Y-38931487D01*
X70308967Y-39016401D01*
X70050987Y-39154294D01*
X69824867Y-39339866D01*
X69639295Y-39565986D01*
X69610000Y-39620792D01*
X69580706Y-39565986D01*
X69395134Y-39339866D01*
X69169014Y-39154294D01*
X68911034Y-39016401D01*
X68631111Y-38931487D01*
X68340000Y-38902815D01*
X68048890Y-38931487D01*
X67768967Y-39016401D01*
X67510987Y-39154294D01*
X67284867Y-39339866D01*
X67099295Y-39565986D01*
X67070000Y-39620792D01*
X67040706Y-39565986D01*
X66855134Y-39339866D01*
X66629014Y-39154294D01*
X66371034Y-39016401D01*
X66091111Y-38931487D01*
X65800000Y-38902815D01*
X65508890Y-38931487D01*
X65228967Y-39016401D01*
X64970987Y-39154294D01*
X64744867Y-39339866D01*
X64559295Y-39565986D01*
X64530000Y-39620792D01*
X64500706Y-39565986D01*
X64315134Y-39339866D01*
X64089014Y-39154294D01*
X63831034Y-39016401D01*
X63551111Y-38931487D01*
X63260000Y-38902815D01*
X62968890Y-38931487D01*
X62688967Y-39016401D01*
X62430987Y-39154294D01*
X62204867Y-39339866D01*
X62019295Y-39565986D01*
X61990000Y-39620792D01*
X61960706Y-39565986D01*
X61775134Y-39339866D01*
X61549014Y-39154294D01*
X61291034Y-39016401D01*
X61011111Y-38931487D01*
X60720000Y-38902815D01*
X60428890Y-38931487D01*
X60148967Y-39016401D01*
X59890987Y-39154294D01*
X59664867Y-39339866D01*
X59479295Y-39565986D01*
X59450000Y-39620792D01*
X59420706Y-39565986D01*
X59235134Y-39339866D01*
X59009014Y-39154294D01*
X58751034Y-39016401D01*
X58471111Y-38931487D01*
X58180000Y-38902815D01*
X57888890Y-38931487D01*
X57608967Y-39016401D01*
X57350987Y-39154294D01*
X57124867Y-39339866D01*
X56939295Y-39565986D01*
X56910000Y-39620792D01*
X56880706Y-39565986D01*
X56695134Y-39339866D01*
X56469014Y-39154294D01*
X56211034Y-39016401D01*
X55931111Y-38931487D01*
X55640000Y-38902815D01*
X55348890Y-38931487D01*
X55068967Y-39016401D01*
X54810987Y-39154294D01*
X54584867Y-39339866D01*
X54399295Y-39565986D01*
X54370000Y-39620792D01*
X54340706Y-39565986D01*
X54155134Y-39339866D01*
X53929014Y-39154294D01*
X53671034Y-39016401D01*
X53391111Y-38931487D01*
X53100000Y-38902815D01*
X52808890Y-38931487D01*
X52528967Y-39016401D01*
X52270987Y-39154294D01*
X52044867Y-39339866D01*
X51859295Y-39565986D01*
X51830000Y-39620792D01*
X51800706Y-39565986D01*
X51615134Y-39339866D01*
X51389014Y-39154294D01*
X51131034Y-39016401D01*
X50851111Y-38931487D01*
X50560000Y-38902815D01*
X50268890Y-38931487D01*
X49988967Y-39016401D01*
X49730987Y-39154294D01*
X49504867Y-39339866D01*
X49319295Y-39565986D01*
X49290000Y-39620792D01*
X49260706Y-39565986D01*
X49075134Y-39339866D01*
X48849014Y-39154294D01*
X48591034Y-39016401D01*
X48311111Y-38931487D01*
X48020000Y-38902815D01*
X47728890Y-38931487D01*
X47448967Y-39016401D01*
X47190987Y-39154294D01*
X46964867Y-39339866D01*
X46779295Y-39565986D01*
X46641401Y-39823966D01*
X46556487Y-40103889D01*
X46535000Y-40322050D01*
X46535000Y-41767949D01*
X46556487Y-41986110D01*
X46641401Y-42266033D01*
X46779294Y-42524013D01*
X46964866Y-42750134D01*
X47190986Y-42935706D01*
X47448966Y-43073599D01*
X47728889Y-43158513D01*
X48020000Y-43187185D01*
X48311110Y-43158513D01*
X48591033Y-43073599D01*
X48849013Y-42935706D01*
X49075134Y-42750134D01*
X49260706Y-42524014D01*
X49290000Y-42469208D01*
X49319294Y-42524013D01*
X49504866Y-42750134D01*
X49558923Y-42794498D01*
X45132842Y-47220580D01*
X45104953Y-47243468D01*
X45104951Y-47243470D01*
X45071183Y-47271183D01*
X45043470Y-47304951D01*
X39433422Y-52915000D01*
X35943469Y-52915000D01*
X35900000Y-52910719D01*
X35856531Y-52915000D01*
X35856523Y-52915000D01*
X35726510Y-52927805D01*
X35559686Y-52978411D01*
X35482814Y-53019500D01*
X35405941Y-53060589D01*
X35271183Y-53171183D01*
X35243468Y-53204954D01*
X35053422Y-53395000D01*
X33694656Y-53395000D01*
X33653475Y-53333368D01*
X33446632Y-53126525D01*
X33272240Y-53010000D01*
X33446632Y-52893475D01*
X33653475Y-52686632D01*
X33815990Y-52443411D01*
X33927932Y-52173158D01*
X33985000Y-51886260D01*
X33985000Y-51593740D01*
X33927932Y-51306842D01*
X33815990Y-51036589D01*
X33653475Y-50793368D01*
X33446632Y-50586525D01*
X33272240Y-50470000D01*
X33446632Y-50353475D01*
X33653475Y-50146632D01*
X33815990Y-49903411D01*
X33927932Y-49633158D01*
X33985000Y-49346260D01*
X33985000Y-49053740D01*
X33927932Y-48766842D01*
X33815990Y-48496589D01*
X33653475Y-48253368D01*
X33446632Y-48046525D01*
X33272240Y-47930000D01*
X33446632Y-47813475D01*
X33653475Y-47606632D01*
X33815990Y-47363411D01*
X33927932Y-47093158D01*
X33985000Y-46806260D01*
X33985000Y-46513740D01*
X33927932Y-46226842D01*
X33815990Y-45956589D01*
X33653475Y-45713368D01*
X33446632Y-45506525D01*
X33272240Y-45390000D01*
X33446632Y-45273475D01*
X33653475Y-45066632D01*
X33815990Y-44823411D01*
X33927932Y-44553158D01*
X33985000Y-44266260D01*
X33985000Y-43973740D01*
X33927932Y-43686842D01*
X33815990Y-43416589D01*
X33653475Y-43173368D01*
X33446632Y-42966525D01*
X33264466Y-42844805D01*
X33381355Y-42775178D01*
X33597588Y-42580269D01*
X33771641Y-42346920D01*
X33896825Y-42084099D01*
X33941476Y-41936890D01*
X33820155Y-41707000D01*
X32627000Y-41707000D01*
X32627000Y-41727000D01*
X32373000Y-41727000D01*
X32373000Y-41707000D01*
X31179845Y-41707000D01*
X31058524Y-41936890D01*
X31103175Y-42084099D01*
X31228359Y-42346920D01*
X31402412Y-42580269D01*
X31618645Y-42775178D01*
X31735534Y-42844805D01*
X31553368Y-42966525D01*
X31346525Y-43173368D01*
X31184010Y-43416589D01*
X31072068Y-43686842D01*
X31015000Y-43973740D01*
X31015000Y-44266260D01*
X31072068Y-44553158D01*
X31184010Y-44823411D01*
X31346525Y-45066632D01*
X31553368Y-45273475D01*
X31727760Y-45390000D01*
X31553368Y-45506525D01*
X31346525Y-45713368D01*
X31184010Y-45956589D01*
X31072068Y-46226842D01*
X31015000Y-46513740D01*
X31015000Y-46806260D01*
X31072068Y-47093158D01*
X31184010Y-47363411D01*
X31346525Y-47606632D01*
X31553368Y-47813475D01*
X31727760Y-47930000D01*
X31553368Y-48046525D01*
X31346525Y-48253368D01*
X31184010Y-48496589D01*
X31072068Y-48766842D01*
X31015000Y-49053740D01*
X31015000Y-49346260D01*
X31072068Y-49633158D01*
X31184010Y-49903411D01*
X31346525Y-50146632D01*
X31553368Y-50353475D01*
X31727760Y-50470000D01*
X31553368Y-50586525D01*
X31346525Y-50793368D01*
X31184010Y-51036589D01*
X31072068Y-51306842D01*
X31015000Y-51593740D01*
X31015000Y-51886260D01*
X31072068Y-52173158D01*
X31184010Y-52443411D01*
X31346525Y-52686632D01*
X31553368Y-52893475D01*
X31727760Y-53010000D01*
X31553368Y-53126525D01*
X31346525Y-53333368D01*
X31184010Y-53576589D01*
X31072068Y-53846842D01*
X31015000Y-54133740D01*
X31015000Y-54426260D01*
X31072068Y-54713158D01*
X31184010Y-54983411D01*
X31346525Y-55226632D01*
X31553368Y-55433475D01*
X31727760Y-55550000D01*
X31553368Y-55666525D01*
X31346525Y-55873368D01*
X31184010Y-56116589D01*
X31072068Y-56386842D01*
X31015000Y-56673740D01*
X31015000Y-56966260D01*
X31072068Y-57253158D01*
X31184010Y-57523411D01*
X31346525Y-57766632D01*
X31553368Y-57973475D01*
X31727760Y-58090000D01*
X31553368Y-58206525D01*
X31346525Y-58413368D01*
X31184010Y-58656589D01*
X31072068Y-58926842D01*
X31015000Y-59213740D01*
X31015000Y-59506260D01*
X31072068Y-59793158D01*
X31184010Y-60063411D01*
X31346525Y-60306632D01*
X31553368Y-60513475D01*
X31727760Y-60630000D01*
X31553368Y-60746525D01*
X31346525Y-60953368D01*
X31184010Y-61196589D01*
X31072068Y-61466842D01*
X31015000Y-61753740D01*
X31015000Y-62046260D01*
X31072068Y-62333158D01*
X31184010Y-62603411D01*
X31346525Y-62846632D01*
X31553368Y-63053475D01*
X31796589Y-63215990D01*
X32066842Y-63327932D01*
X32353740Y-63385000D01*
X32646260Y-63385000D01*
X32933158Y-63327932D01*
X33203411Y-63215990D01*
X33446632Y-63053475D01*
X33653475Y-62846632D01*
X33694656Y-62785000D01*
X39281531Y-62785000D01*
X39325000Y-62789281D01*
X39368469Y-62785000D01*
X39368477Y-62785000D01*
X39498490Y-62772195D01*
X39665313Y-62721589D01*
X39819059Y-62639411D01*
X39953817Y-62528817D01*
X39981534Y-62495044D01*
X45065000Y-57411578D01*
X45065000Y-57601939D01*
X45104774Y-57801898D01*
X45182795Y-57990256D01*
X45296063Y-58159774D01*
X45440226Y-58303937D01*
X45609744Y-58417205D01*
X45798102Y-58495226D01*
X45998061Y-58535000D01*
X46201939Y-58535000D01*
X46401898Y-58495226D01*
X46535224Y-58440000D01*
X46550961Y-58440000D01*
X46556487Y-58496111D01*
X46641401Y-58776034D01*
X46779295Y-59034014D01*
X46964867Y-59260134D01*
X47190987Y-59445706D01*
X47448967Y-59583599D01*
X47728890Y-59668513D01*
X48020000Y-59697185D01*
X48311111Y-59668513D01*
X48591034Y-59583599D01*
X48849014Y-59445706D01*
X49075134Y-59260134D01*
X49260706Y-59034014D01*
X49290000Y-58979208D01*
X49319295Y-59034014D01*
X49504867Y-59260134D01*
X49730987Y-59445706D01*
X49988967Y-59583599D01*
X50268890Y-59668513D01*
X50560000Y-59697185D01*
X50851111Y-59668513D01*
X51131034Y-59583599D01*
X51389014Y-59445706D01*
X51615134Y-59260134D01*
X51800706Y-59034014D01*
X51830000Y-58979208D01*
X51859295Y-59034014D01*
X52044867Y-59260134D01*
X52270987Y-59445706D01*
X52528967Y-59583599D01*
X52808890Y-59668513D01*
X53100000Y-59697185D01*
X53391111Y-59668513D01*
X53671034Y-59583599D01*
X53929014Y-59445706D01*
X54155134Y-59260134D01*
X54340706Y-59034014D01*
X54370000Y-58979208D01*
X54399295Y-59034014D01*
X54584867Y-59260134D01*
X54638924Y-59304497D01*
X52404956Y-61538466D01*
X52371183Y-61566183D01*
X52260589Y-61700942D01*
X52178411Y-61854688D01*
X52149016Y-61951589D01*
X52133665Y-62002195D01*
X52127805Y-62021511D01*
X52115000Y-62151524D01*
X52115000Y-62151531D01*
X52110719Y-62195000D01*
X52115000Y-62238469D01*
X52115000Y-62515375D01*
X52025518Y-62524188D01*
X51905820Y-62560498D01*
X51795506Y-62619463D01*
X51698815Y-62698815D01*
X51619463Y-62795506D01*
X51560498Y-62905820D01*
X51524188Y-63025518D01*
X51511928Y-63150000D01*
X51511928Y-64850000D01*
X51524188Y-64974482D01*
X51560498Y-65094180D01*
X51619463Y-65204494D01*
X51698815Y-65301185D01*
X51795506Y-65380537D01*
X51905820Y-65439502D01*
X52025518Y-65475812D01*
X52150000Y-65488072D01*
X53850000Y-65488072D01*
X53974482Y-65475812D01*
X54094180Y-65439502D01*
X54204494Y-65380537D01*
X54301185Y-65301185D01*
X54380537Y-65204494D01*
X54439502Y-65094180D01*
X54463966Y-65013534D01*
X54539731Y-65097588D01*
X54773080Y-65271641D01*
X55035901Y-65396825D01*
X55183110Y-65441476D01*
X55413000Y-65320155D01*
X55413000Y-64127000D01*
X55667000Y-64127000D01*
X55667000Y-65320155D01*
X55896890Y-65441476D01*
X56044099Y-65396825D01*
X56306920Y-65271641D01*
X56540269Y-65097588D01*
X56735178Y-64881355D01*
X56884157Y-64631252D01*
X56981481Y-64356891D01*
X56860814Y-64127000D01*
X55667000Y-64127000D01*
X55413000Y-64127000D01*
X55393000Y-64127000D01*
X55393000Y-63873000D01*
X55413000Y-63873000D01*
X55413000Y-62679845D01*
X55667000Y-62679845D01*
X55667000Y-63873000D01*
X56860814Y-63873000D01*
X56981481Y-63643109D01*
X56884157Y-63368748D01*
X56735178Y-63118645D01*
X56540269Y-62902412D01*
X56306920Y-62728359D01*
X56044099Y-62603175D01*
X55896890Y-62558524D01*
X55667000Y-62679845D01*
X55413000Y-62679845D01*
X55183110Y-62558524D01*
X55035901Y-62603175D01*
X54773080Y-62728359D01*
X54539731Y-62902412D01*
X54463966Y-62986466D01*
X54439502Y-62905820D01*
X54380537Y-62795506D01*
X54301185Y-62698815D01*
X54204494Y-62619463D01*
X54094180Y-62560498D01*
X53974482Y-62524188D01*
X53927061Y-62519518D01*
X56235049Y-60211530D01*
X56268817Y-60183817D01*
X56296533Y-60150046D01*
X56379411Y-60049059D01*
X56461588Y-59895314D01*
X56461589Y-59895313D01*
X56512195Y-59728490D01*
X56525000Y-59598477D01*
X56525000Y-59598469D01*
X56529281Y-59555000D01*
X56525000Y-59511531D01*
X56525000Y-59399759D01*
X56695134Y-59260134D01*
X56880706Y-59034014D01*
X56910000Y-58979208D01*
X56939295Y-59034014D01*
X57124867Y-59260134D01*
X57295001Y-59399759D01*
X57295001Y-61086521D01*
X57290719Y-61130000D01*
X57307805Y-61303490D01*
X57358412Y-61470313D01*
X57440590Y-61624059D01*
X57523468Y-61725046D01*
X57523471Y-61725049D01*
X57551184Y-61758817D01*
X57584951Y-61786529D01*
X60393470Y-64595049D01*
X60421183Y-64628817D01*
X60454951Y-64656530D01*
X60454953Y-64656532D01*
X60511928Y-64703290D01*
X60511928Y-64850000D01*
X60524188Y-64974482D01*
X60560498Y-65094180D01*
X60619463Y-65204494D01*
X60698815Y-65301185D01*
X60795506Y-65380537D01*
X60905820Y-65439502D01*
X61025518Y-65475812D01*
X61150000Y-65488072D01*
X62850000Y-65488072D01*
X62974482Y-65475812D01*
X63094180Y-65439502D01*
X63204494Y-65380537D01*
X63301185Y-65301185D01*
X63380537Y-65204494D01*
X63439502Y-65094180D01*
X63463966Y-65013534D01*
X63539731Y-65097588D01*
X63773080Y-65271641D01*
X64035901Y-65396825D01*
X64183110Y-65441476D01*
X64413000Y-65320155D01*
X64413000Y-64127000D01*
X64667000Y-64127000D01*
X64667000Y-65320155D01*
X64896890Y-65441476D01*
X65044099Y-65396825D01*
X65306920Y-65271641D01*
X65540269Y-65097588D01*
X65735178Y-64881355D01*
X65884157Y-64631252D01*
X65981481Y-64356891D01*
X65860814Y-64127000D01*
X64667000Y-64127000D01*
X64413000Y-64127000D01*
X64393000Y-64127000D01*
X64393000Y-63873000D01*
X64413000Y-63873000D01*
X64413000Y-62679845D01*
X64667000Y-62679845D01*
X64667000Y-63873000D01*
X65860814Y-63873000D01*
X65981481Y-63643109D01*
X65884157Y-63368748D01*
X65735178Y-63118645D01*
X65540269Y-62902412D01*
X65306920Y-62728359D01*
X65044099Y-62603175D01*
X64896890Y-62558524D01*
X64667000Y-62679845D01*
X64413000Y-62679845D01*
X64183110Y-62558524D01*
X64035901Y-62603175D01*
X63773080Y-62728359D01*
X63539731Y-62902412D01*
X63463966Y-62986466D01*
X63439502Y-62905820D01*
X63380537Y-62795506D01*
X63301185Y-62698815D01*
X63204494Y-62619463D01*
X63094180Y-62560498D01*
X62974482Y-62524188D01*
X62850000Y-62511928D01*
X61150000Y-62511928D01*
X61025518Y-62524188D01*
X60905820Y-62560498D01*
X60877314Y-62575735D01*
X59065000Y-60763422D01*
X59065000Y-59399759D01*
X59235134Y-59260134D01*
X59420706Y-59034014D01*
X59450000Y-58979208D01*
X59479295Y-59034014D01*
X59664867Y-59260134D01*
X59835001Y-59399759D01*
X59835001Y-59511521D01*
X59830719Y-59555000D01*
X59847805Y-59728490D01*
X59898412Y-59895313D01*
X59980590Y-60049059D01*
X60063468Y-60150046D01*
X60063469Y-60150047D01*
X60091184Y-60183817D01*
X60124951Y-60211529D01*
X61608470Y-61695049D01*
X61636183Y-61728817D01*
X61669951Y-61756530D01*
X61669953Y-61756532D01*
X61741452Y-61815210D01*
X61770941Y-61839411D01*
X61924687Y-61921589D01*
X62039847Y-61956523D01*
X62091509Y-61972195D01*
X62106306Y-61973652D01*
X62221523Y-61985000D01*
X62221531Y-61985000D01*
X62265000Y-61989281D01*
X62308469Y-61985000D01*
X69733422Y-61985000D01*
X70115000Y-62366579D01*
X70115000Y-62515375D01*
X70025518Y-62524188D01*
X69905820Y-62560498D01*
X69795506Y-62619463D01*
X69698815Y-62698815D01*
X69619463Y-62795506D01*
X69560498Y-62905820D01*
X69524188Y-63025518D01*
X69511928Y-63150000D01*
X69511928Y-64850000D01*
X69524188Y-64974482D01*
X69560498Y-65094180D01*
X69619463Y-65204494D01*
X69698815Y-65301185D01*
X69795506Y-65380537D01*
X69905820Y-65439502D01*
X70025518Y-65475812D01*
X70150000Y-65488072D01*
X71850000Y-65488072D01*
X71974482Y-65475812D01*
X72094180Y-65439502D01*
X72204494Y-65380537D01*
X72301185Y-65301185D01*
X72380537Y-65204494D01*
X72439502Y-65094180D01*
X72463966Y-65013534D01*
X72539731Y-65097588D01*
X72773080Y-65271641D01*
X73035901Y-65396825D01*
X73183110Y-65441476D01*
X73413000Y-65320155D01*
X73413000Y-64127000D01*
X73667000Y-64127000D01*
X73667000Y-65320155D01*
X73896890Y-65441476D01*
X74044099Y-65396825D01*
X74306920Y-65271641D01*
X74540269Y-65097588D01*
X74735178Y-64881355D01*
X74884157Y-64631252D01*
X74981481Y-64356891D01*
X74860814Y-64127000D01*
X73667000Y-64127000D01*
X73413000Y-64127000D01*
X73393000Y-64127000D01*
X73393000Y-63873000D01*
X73413000Y-63873000D01*
X73413000Y-62679845D01*
X73667000Y-62679845D01*
X73667000Y-63873000D01*
X74860814Y-63873000D01*
X74981481Y-63643109D01*
X74884157Y-63368748D01*
X74735178Y-63118645D01*
X74540269Y-62902412D01*
X74306920Y-62728359D01*
X74044099Y-62603175D01*
X73896890Y-62558524D01*
X73667000Y-62679845D01*
X73413000Y-62679845D01*
X73183110Y-62558524D01*
X73035901Y-62603175D01*
X72773080Y-62728359D01*
X72539731Y-62902412D01*
X72463966Y-62986466D01*
X72439502Y-62905820D01*
X72380537Y-62795506D01*
X72301185Y-62698815D01*
X72204494Y-62619463D01*
X72094180Y-62560498D01*
X71974482Y-62524188D01*
X71885000Y-62515375D01*
X71885000Y-62043465D01*
X71889281Y-61999999D01*
X71885000Y-61956533D01*
X71885000Y-61956523D01*
X71872195Y-61826510D01*
X71821589Y-61659687D01*
X71739411Y-61505941D01*
X71685551Y-61440313D01*
X71656532Y-61404953D01*
X71656530Y-61404951D01*
X71628817Y-61371183D01*
X71595050Y-61343471D01*
X70756534Y-60504956D01*
X70728817Y-60471183D01*
X70594059Y-60360589D01*
X70440313Y-60278411D01*
X70273490Y-60227805D01*
X70143477Y-60215000D01*
X70143469Y-60215000D01*
X70100000Y-60210719D01*
X70056531Y-60215000D01*
X62631579Y-60215000D01*
X61721076Y-59304498D01*
X61775134Y-59260134D01*
X61960706Y-59034014D01*
X61990000Y-58979208D01*
X62019295Y-59034014D01*
X62204867Y-59260134D01*
X62430987Y-59445706D01*
X62688967Y-59583599D01*
X62968890Y-59668513D01*
X63260000Y-59697185D01*
X63551111Y-59668513D01*
X63831034Y-59583599D01*
X64089014Y-59445706D01*
X64315134Y-59260134D01*
X64500706Y-59034014D01*
X64530000Y-58979208D01*
X64559295Y-59034014D01*
X64744867Y-59260134D01*
X64970987Y-59445706D01*
X65228967Y-59583599D01*
X65508890Y-59668513D01*
X65800000Y-59697185D01*
X66091111Y-59668513D01*
X66371034Y-59583599D01*
X66629014Y-59445706D01*
X66855134Y-59260134D01*
X67040706Y-59034014D01*
X67070000Y-58979208D01*
X67099295Y-59034014D01*
X67284867Y-59260134D01*
X67510987Y-59445706D01*
X67768967Y-59583599D01*
X68048890Y-59668513D01*
X68340000Y-59697185D01*
X68631111Y-59668513D01*
X68911034Y-59583599D01*
X69169014Y-59445706D01*
X69395134Y-59260134D01*
X69580706Y-59034014D01*
X69610000Y-58979208D01*
X69639295Y-59034014D01*
X69824867Y-59260134D01*
X70050987Y-59445706D01*
X70308967Y-59583599D01*
X70588890Y-59668513D01*
X70880000Y-59697185D01*
X71171111Y-59668513D01*
X71451034Y-59583599D01*
X71709014Y-59445706D01*
X71935134Y-59260134D01*
X72120706Y-59034014D01*
X72150000Y-58979208D01*
X72179295Y-59034014D01*
X72364867Y-59260134D01*
X72590987Y-59445706D01*
X72848967Y-59583599D01*
X73128890Y-59668513D01*
X73420000Y-59697185D01*
X73711111Y-59668513D01*
X73991034Y-59583599D01*
X74249014Y-59445706D01*
X74475134Y-59260134D01*
X74660706Y-59034014D01*
X74690000Y-58979208D01*
X74719295Y-59034014D01*
X74904867Y-59260134D01*
X75130987Y-59445706D01*
X75388967Y-59583599D01*
X75668890Y-59668513D01*
X75960000Y-59697185D01*
X76251111Y-59668513D01*
X76531034Y-59583599D01*
X76789014Y-59445706D01*
X77015134Y-59260134D01*
X77200706Y-59034014D01*
X77230000Y-58979208D01*
X77259295Y-59034014D01*
X77444867Y-59260134D01*
X77670987Y-59445706D01*
X77928967Y-59583599D01*
X78208890Y-59668513D01*
X78500000Y-59697185D01*
X78791111Y-59668513D01*
X79071034Y-59583599D01*
X79329014Y-59445706D01*
X79555134Y-59260134D01*
X79740706Y-59034014D01*
X79771895Y-58975663D01*
X79875824Y-59135619D01*
X80079748Y-59344857D01*
X80320574Y-59510291D01*
X80589047Y-59625563D01*
X80683110Y-59646476D01*
X80913000Y-59525155D01*
X80913000Y-57682000D01*
X80893000Y-57682000D01*
X80893000Y-57428000D01*
X80913000Y-57428000D01*
X80913000Y-55584845D01*
X81167000Y-55584845D01*
X81167000Y-57428000D01*
X81187000Y-57428000D01*
X81187000Y-57682000D01*
X81167000Y-57682000D01*
X81167000Y-59525155D01*
X81396890Y-59646476D01*
X81490953Y-59625563D01*
X81759426Y-59510291D01*
X82000252Y-59344857D01*
X82204176Y-59135619D01*
X82308105Y-58975662D01*
X82339295Y-59034014D01*
X82524867Y-59260134D01*
X82750987Y-59445706D01*
X83008967Y-59583599D01*
X83288890Y-59668513D01*
X83580000Y-59697185D01*
X83871111Y-59668513D01*
X84151034Y-59583599D01*
X84409014Y-59445706D01*
X84635134Y-59260134D01*
X84820706Y-59034014D01*
X84958599Y-58776034D01*
X85043513Y-58496111D01*
X85065000Y-58277950D01*
X85065000Y-56832050D01*
X85043513Y-56613889D01*
X84958599Y-56333966D01*
X84820706Y-56075986D01*
X84635134Y-55849866D01*
X84409013Y-55664294D01*
X84151033Y-55526401D01*
X83871110Y-55441487D01*
X83580000Y-55412815D01*
X83288889Y-55441487D01*
X83008966Y-55526401D01*
X82750986Y-55664294D01*
X82524866Y-55849866D01*
X82339294Y-56075987D01*
X82308105Y-56134338D01*
X82204176Y-55974381D01*
X82000252Y-55765143D01*
X81759426Y-55599709D01*
X81490953Y-55484437D01*
X81396890Y-55463524D01*
X81167000Y-55584845D01*
X80913000Y-55584845D01*
X80683110Y-55463524D01*
X80589047Y-55484437D01*
X80320574Y-55599709D01*
X80079748Y-55765143D01*
X79875824Y-55974381D01*
X79771895Y-56134337D01*
X79740706Y-56075986D01*
X79555134Y-55849866D01*
X79329013Y-55664294D01*
X79071033Y-55526401D01*
X78791110Y-55441487D01*
X78500000Y-55412815D01*
X78208889Y-55441487D01*
X77928966Y-55526401D01*
X77670986Y-55664294D01*
X77444866Y-55849866D01*
X77259294Y-56075987D01*
X77230000Y-56130792D01*
X77200706Y-56075986D01*
X77095000Y-55947183D01*
X77095000Y-55525131D01*
X80470131Y-52150000D01*
X88511928Y-52150000D01*
X88511928Y-53850000D01*
X88524188Y-53974482D01*
X88560498Y-54094180D01*
X88619463Y-54204494D01*
X88698815Y-54301185D01*
X88795506Y-54380537D01*
X88905820Y-54439502D01*
X89025518Y-54475812D01*
X89150000Y-54488072D01*
X90850000Y-54488072D01*
X90974482Y-54475812D01*
X91094180Y-54439502D01*
X91204494Y-54380537D01*
X91301185Y-54301185D01*
X91380537Y-54204494D01*
X91439502Y-54094180D01*
X91475812Y-53974482D01*
X91488072Y-53850000D01*
X91488072Y-52150000D01*
X91475812Y-52025518D01*
X91439502Y-51905820D01*
X91380537Y-51795506D01*
X91301185Y-51698815D01*
X91204494Y-51619463D01*
X91094180Y-51560498D01*
X91021620Y-51538487D01*
X91153475Y-51406632D01*
X91315990Y-51163411D01*
X91427932Y-50893158D01*
X91485000Y-50606260D01*
X91485000Y-50313740D01*
X91427932Y-50026842D01*
X91315990Y-49756589D01*
X91153475Y-49513368D01*
X90946632Y-49306525D01*
X90772240Y-49190000D01*
X90946632Y-49073475D01*
X91153475Y-48866632D01*
X91315990Y-48623411D01*
X91427932Y-48353158D01*
X91485000Y-48066260D01*
X91485000Y-47773740D01*
X91427932Y-47486842D01*
X91315990Y-47216589D01*
X91153475Y-46973368D01*
X90946632Y-46766525D01*
X90772240Y-46650000D01*
X90946632Y-46533475D01*
X91153475Y-46326632D01*
X91315990Y-46083411D01*
X91427932Y-45813158D01*
X91485000Y-45526260D01*
X91485000Y-45233740D01*
X91427932Y-44946842D01*
X91315990Y-44676589D01*
X91153475Y-44433368D01*
X90946632Y-44226525D01*
X90703411Y-44064010D01*
X90433158Y-43952068D01*
X90146260Y-43895000D01*
X89853740Y-43895000D01*
X89566842Y-43952068D01*
X89296589Y-44064010D01*
X89053368Y-44226525D01*
X88846525Y-44433368D01*
X88684010Y-44676589D01*
X88572068Y-44946842D01*
X88515000Y-45233740D01*
X88515000Y-45526260D01*
X88572068Y-45813158D01*
X88684010Y-46083411D01*
X88846525Y-46326632D01*
X89053368Y-46533475D01*
X89227760Y-46650000D01*
X89053368Y-46766525D01*
X88846525Y-46973368D01*
X88684010Y-47216589D01*
X88572068Y-47486842D01*
X88515000Y-47773740D01*
X88515000Y-48066260D01*
X88572068Y-48353158D01*
X88684010Y-48623411D01*
X88846525Y-48866632D01*
X89053368Y-49073475D01*
X89227760Y-49190000D01*
X89053368Y-49306525D01*
X88846525Y-49513368D01*
X88684010Y-49756589D01*
X88572068Y-50026842D01*
X88515000Y-50313740D01*
X88515000Y-50606260D01*
X88572068Y-50893158D01*
X88684010Y-51163411D01*
X88846525Y-51406632D01*
X88978380Y-51538487D01*
X88905820Y-51560498D01*
X88795506Y-51619463D01*
X88698815Y-51698815D01*
X88619463Y-51795506D01*
X88560498Y-51905820D01*
X88524188Y-52025518D01*
X88511928Y-52150000D01*
X80470131Y-52150000D01*
X86863146Y-45756987D01*
X86906449Y-45721449D01*
X87002017Y-45605000D01*
X87048284Y-45548623D01*
X87153676Y-45351447D01*
X87218577Y-45137499D01*
X87240491Y-44915000D01*
X87235000Y-44859248D01*
X87235000Y-38217683D01*
X87304494Y-38180537D01*
X87401185Y-38101185D01*
X87480537Y-38004494D01*
X87539502Y-37894180D01*
X87575812Y-37774482D01*
X87588072Y-37650000D01*
X87588072Y-35950000D01*
X87575812Y-35825518D01*
X87539502Y-35705820D01*
X87480537Y-35595506D01*
X87401185Y-35498815D01*
X87304494Y-35419463D01*
X87235000Y-35382317D01*
X87235000Y-35005743D01*
X87240490Y-34949999D01*
X87235000Y-34894255D01*
X87235000Y-34894248D01*
X87218577Y-34727501D01*
X87153676Y-34513553D01*
X87048284Y-34316377D01*
X86906449Y-34143551D01*
X86863135Y-34108004D01*
X86191996Y-33436865D01*
X86156449Y-33393551D01*
X85983623Y-33251716D01*
X85786447Y-33146324D01*
X85572499Y-33081423D01*
X85405752Y-33065000D01*
X85405751Y-33065000D01*
X85350000Y-33059509D01*
X85294249Y-33065000D01*
X73955743Y-33065000D01*
X73899999Y-33059510D01*
X73844255Y-33065000D01*
X73844248Y-33065000D01*
X73698493Y-33079356D01*
X73677500Y-33081423D01*
X73627705Y-33096529D01*
X73463553Y-33146324D01*
X73266377Y-33251716D01*
X73093551Y-33393551D01*
X73058009Y-33436859D01*
X71129869Y-35365000D01*
X33917683Y-35365000D01*
X33880537Y-35295506D01*
X33801185Y-35198815D01*
X33704494Y-35119463D01*
X33594180Y-35060498D01*
X33474482Y-35024188D01*
X33350000Y-35011928D01*
X31650000Y-35011928D01*
X31525518Y-35024188D01*
X31405820Y-35060498D01*
X31295506Y-35119463D01*
X31198815Y-35198815D01*
X31119463Y-35295506D01*
X31060498Y-35405820D01*
X31024188Y-35525518D01*
X31011928Y-35650000D01*
X30384115Y-35650000D01*
X30380489Y-32897997D01*
X30450890Y-33251925D01*
X30619369Y-33658669D01*
X30863962Y-34024729D01*
X31175271Y-34336038D01*
X31541331Y-34580631D01*
X31948075Y-34749110D01*
X32379872Y-34835000D01*
X32820128Y-34835000D01*
X33251925Y-34749110D01*
X33658669Y-34580631D01*
X34024729Y-34336038D01*
X34336038Y-34024729D01*
X34580631Y-33658669D01*
X34749110Y-33251925D01*
X34835000Y-32820128D01*
X34835000Y-32379872D01*
X34749110Y-31948075D01*
X34580631Y-31541331D01*
X34336038Y-31175271D01*
X34024729Y-30863962D01*
X33658669Y-30619369D01*
X33251925Y-30450890D01*
X32896539Y-30380199D01*
X89260959Y-30448327D01*
G37*
X89260959Y-30448327D02*
X89248075Y-30450890D01*
X88841331Y-30619369D01*
X88475271Y-30863962D01*
X88163962Y-31175271D01*
X87919369Y-31541331D01*
X87750890Y-31948075D01*
X87665000Y-32379872D01*
X87665000Y-32820128D01*
X87750890Y-33251925D01*
X87919369Y-33658669D01*
X88163962Y-34024729D01*
X88475271Y-34336038D01*
X88841331Y-34580631D01*
X89248075Y-34749110D01*
X89679872Y-34835000D01*
X90120128Y-34835000D01*
X90551925Y-34749110D01*
X90958669Y-34580631D01*
X91324729Y-34336038D01*
X91636038Y-34024729D01*
X91880631Y-33658669D01*
X92049110Y-33251925D01*
X92135000Y-32820128D01*
X92135000Y-32379872D01*
X92049110Y-31948075D01*
X91880631Y-31541331D01*
X91636038Y-31175271D01*
X91324729Y-30863962D01*
X90958669Y-30619369D01*
X90551925Y-30450890D01*
X90546855Y-30449881D01*
X92173000Y-30451847D01*
X92173000Y-68147846D01*
X30426833Y-68073153D01*
X30424522Y-66319366D01*
X30450890Y-66451925D01*
X30619369Y-66858669D01*
X30863962Y-67224729D01*
X31175271Y-67536038D01*
X31541331Y-67780631D01*
X31948075Y-67949110D01*
X32379872Y-68035000D01*
X32820128Y-68035000D01*
X33251925Y-67949110D01*
X33658669Y-67780631D01*
X34024729Y-67536038D01*
X34336038Y-67224729D01*
X34580631Y-66858669D01*
X34749110Y-66451925D01*
X34835000Y-66020128D01*
X34835000Y-65579872D01*
X87665000Y-65579872D01*
X87665000Y-66020128D01*
X87750890Y-66451925D01*
X87919369Y-66858669D01*
X88163962Y-67224729D01*
X88475271Y-67536038D01*
X88841331Y-67780631D01*
X89248075Y-67949110D01*
X89679872Y-68035000D01*
X90120128Y-68035000D01*
X90551925Y-67949110D01*
X90958669Y-67780631D01*
X91324729Y-67536038D01*
X91636038Y-67224729D01*
X91880631Y-66858669D01*
X92049110Y-66451925D01*
X92135000Y-66020128D01*
X92135000Y-65579872D01*
X92049110Y-65148075D01*
X91880631Y-64741331D01*
X91636038Y-64375271D01*
X91324729Y-64063962D01*
X90958669Y-63819369D01*
X90551925Y-63650890D01*
X90120128Y-63565000D01*
X89679872Y-63565000D01*
X89248075Y-63650890D01*
X88841331Y-63819369D01*
X88475271Y-64063962D01*
X88163962Y-64375271D01*
X87919369Y-64741331D01*
X87750890Y-65148075D01*
X87665000Y-65579872D01*
X34835000Y-65579872D01*
X34749110Y-65148075D01*
X34580631Y-64741331D01*
X34336038Y-64375271D01*
X34024729Y-64063962D01*
X33658669Y-63819369D01*
X33251925Y-63650890D01*
X32820128Y-63565000D01*
X32379872Y-63565000D01*
X31948075Y-63650890D01*
X31541331Y-63819369D01*
X31175271Y-64063962D01*
X30863962Y-64375271D01*
X30619369Y-64741331D01*
X30450890Y-65148075D01*
X30423163Y-65287469D01*
X30389052Y-39396890D01*
X31058524Y-39396890D01*
X31103175Y-39544099D01*
X31228359Y-39806920D01*
X31402412Y-40040269D01*
X31618645Y-40235178D01*
X31744255Y-40310000D01*
X31618645Y-40384822D01*
X31402412Y-40579731D01*
X31228359Y-40813080D01*
X31103175Y-41075901D01*
X31058524Y-41223110D01*
X31179845Y-41453000D01*
X32373000Y-41453000D01*
X32373000Y-39167000D01*
X32627000Y-39167000D01*
X32627000Y-41453000D01*
X33820155Y-41453000D01*
X33941476Y-41223110D01*
X33896825Y-41075901D01*
X33771641Y-40813080D01*
X33597588Y-40579731D01*
X33381355Y-40384822D01*
X33255745Y-40310000D01*
X33381355Y-40235178D01*
X33597588Y-40040269D01*
X33771641Y-39806920D01*
X33896825Y-39544099D01*
X33941476Y-39396890D01*
X33820155Y-39167000D01*
X32627000Y-39167000D01*
X32373000Y-39167000D01*
X31179845Y-39167000D01*
X31058524Y-39396890D01*
X30389052Y-39396890D01*
X30384115Y-35650000D01*
X31011928Y-35650000D01*
X31011928Y-37350000D01*
X31024188Y-37474482D01*
X31060498Y-37594180D01*
X31119463Y-37704494D01*
X31198815Y-37801185D01*
X31295506Y-37880537D01*
X31405820Y-37939502D01*
X31486466Y-37963966D01*
X31402412Y-38039731D01*
X31228359Y-38273080D01*
X31103175Y-38535901D01*
X31058524Y-38683110D01*
X31179845Y-38913000D01*
X32373000Y-38913000D01*
X32373000Y-38893000D01*
X32627000Y-38893000D01*
X32627000Y-38913000D01*
X33820155Y-38913000D01*
X33941476Y-38683110D01*
X33896825Y-38535901D01*
X33771641Y-38273080D01*
X33597588Y-38039731D01*
X33513534Y-37963966D01*
X33594180Y-37939502D01*
X33704494Y-37880537D01*
X33801185Y-37801185D01*
X33880537Y-37704494D01*
X33917683Y-37635000D01*
X71544249Y-37635000D01*
X71600000Y-37640491D01*
X71655751Y-37635000D01*
X71655752Y-37635000D01*
X71822499Y-37618577D01*
X72036447Y-37553676D01*
X72233623Y-37448284D01*
X72406449Y-37306449D01*
X72441996Y-37263135D01*
X72548240Y-37156891D01*
X77038519Y-37156891D01*
X77135843Y-37431252D01*
X77284822Y-37681355D01*
X77479731Y-37897588D01*
X77713080Y-38071641D01*
X77975901Y-38196825D01*
X78123110Y-38241476D01*
X78353000Y-38120155D01*
X78353000Y-36927000D01*
X77159186Y-36927000D01*
X77038519Y-37156891D01*
X72548240Y-37156891D01*
X74370132Y-35335000D01*
X78352998Y-35335000D01*
X78352998Y-35479844D01*
X78123110Y-35358524D01*
X77975901Y-35403175D01*
X77713080Y-35528359D01*
X77479731Y-35702412D01*
X77284822Y-35918645D01*
X77135843Y-36168748D01*
X77038519Y-36443109D01*
X77159186Y-36673000D01*
X78353000Y-36673000D01*
X78353000Y-36653000D01*
X78607000Y-36653000D01*
X78607000Y-36673000D01*
X78627000Y-36673000D01*
X78627000Y-36927000D01*
X78607000Y-36927000D01*
X78607000Y-38120155D01*
X78836890Y-38241476D01*
X78984099Y-38196825D01*
X79246920Y-38071641D01*
X79480269Y-37897588D01*
X79675178Y-37681355D01*
X79744805Y-37564466D01*
X79866525Y-37746632D01*
X80073368Y-37953475D01*
X80135000Y-37994656D01*
X80135001Y-39216654D01*
X79984867Y-39339866D01*
X79799295Y-39565986D01*
X79770000Y-39620792D01*
X79740706Y-39565986D01*
X79555134Y-39339866D01*
X79329014Y-39154294D01*
X79071034Y-39016401D01*
X78791111Y-38931487D01*
X78500000Y-38902815D01*
X78208890Y-38931487D01*
X77928967Y-39016401D01*
X77670987Y-39154294D01*
X77444867Y-39339866D01*
X77259295Y-39565986D01*
X77230000Y-39620792D01*
X77200706Y-39565986D01*
X77015134Y-39339866D01*
X76789014Y-39154294D01*
X76531034Y-39016401D01*
X76251111Y-38931487D01*
X75960000Y-38902815D01*
X75668890Y-38931487D01*
X75388967Y-39016401D01*
X75130987Y-39154294D01*
X74904867Y-39339866D01*
X74719295Y-39565986D01*
X74690000Y-39620792D01*
X74660706Y-39565986D01*
X74475134Y-39339866D01*
X74249014Y-39154294D01*
X73991034Y-39016401D01*
X73711111Y-38931487D01*
X73420000Y-38902815D01*
X73128890Y-38931487D01*
X72848967Y-39016401D01*
X72590987Y-39154294D01*
X72364867Y-39339866D01*
X72179295Y-39565986D01*
X72150000Y-39620792D01*
X72120706Y-39565986D01*
X71935134Y-39339866D01*
X71709014Y-39154294D01*
X71451034Y-39016401D01*
X71171111Y-38931487D01*
X70880000Y-38902815D01*
X70588890Y-38931487D01*
X70308967Y-39016401D01*
X70050987Y-39154294D01*
X69824867Y-39339866D01*
X69639295Y-39565986D01*
X69610000Y-39620792D01*
X69580706Y-39565986D01*
X69395134Y-39339866D01*
X69169014Y-39154294D01*
X68911034Y-39016401D01*
X68631111Y-38931487D01*
X68340000Y-38902815D01*
X68048890Y-38931487D01*
X67768967Y-39016401D01*
X67510987Y-39154294D01*
X67284867Y-39339866D01*
X67099295Y-39565986D01*
X67070000Y-39620792D01*
X67040706Y-39565986D01*
X66855134Y-39339866D01*
X66629014Y-39154294D01*
X66371034Y-39016401D01*
X66091111Y-38931487D01*
X65800000Y-38902815D01*
X65508890Y-38931487D01*
X65228967Y-39016401D01*
X64970987Y-39154294D01*
X64744867Y-39339866D01*
X64559295Y-39565986D01*
X64530000Y-39620792D01*
X64500706Y-39565986D01*
X64315134Y-39339866D01*
X64089014Y-39154294D01*
X63831034Y-39016401D01*
X63551111Y-38931487D01*
X63260000Y-38902815D01*
X62968890Y-38931487D01*
X62688967Y-39016401D01*
X62430987Y-39154294D01*
X62204867Y-39339866D01*
X62019295Y-39565986D01*
X61990000Y-39620792D01*
X61960706Y-39565986D01*
X61775134Y-39339866D01*
X61549014Y-39154294D01*
X61291034Y-39016401D01*
X61011111Y-38931487D01*
X60720000Y-38902815D01*
X60428890Y-38931487D01*
X60148967Y-39016401D01*
X59890987Y-39154294D01*
X59664867Y-39339866D01*
X59479295Y-39565986D01*
X59450000Y-39620792D01*
X59420706Y-39565986D01*
X59235134Y-39339866D01*
X59009014Y-39154294D01*
X58751034Y-39016401D01*
X58471111Y-38931487D01*
X58180000Y-38902815D01*
X57888890Y-38931487D01*
X57608967Y-39016401D01*
X57350987Y-39154294D01*
X57124867Y-39339866D01*
X56939295Y-39565986D01*
X56910000Y-39620792D01*
X56880706Y-39565986D01*
X56695134Y-39339866D01*
X56469014Y-39154294D01*
X56211034Y-39016401D01*
X55931111Y-38931487D01*
X55640000Y-38902815D01*
X55348890Y-38931487D01*
X55068967Y-39016401D01*
X54810987Y-39154294D01*
X54584867Y-39339866D01*
X54399295Y-39565986D01*
X54370000Y-39620792D01*
X54340706Y-39565986D01*
X54155134Y-39339866D01*
X53929014Y-39154294D01*
X53671034Y-39016401D01*
X53391111Y-38931487D01*
X53100000Y-38902815D01*
X52808890Y-38931487D01*
X52528967Y-39016401D01*
X52270987Y-39154294D01*
X52044867Y-39339866D01*
X51859295Y-39565986D01*
X51830000Y-39620792D01*
X51800706Y-39565986D01*
X51615134Y-39339866D01*
X51389014Y-39154294D01*
X51131034Y-39016401D01*
X50851111Y-38931487D01*
X50560000Y-38902815D01*
X50268890Y-38931487D01*
X49988967Y-39016401D01*
X49730987Y-39154294D01*
X49504867Y-39339866D01*
X49319295Y-39565986D01*
X49290000Y-39620792D01*
X49260706Y-39565986D01*
X49075134Y-39339866D01*
X48849014Y-39154294D01*
X48591034Y-39016401D01*
X48311111Y-38931487D01*
X48020000Y-38902815D01*
X47728890Y-38931487D01*
X47448967Y-39016401D01*
X47190987Y-39154294D01*
X46964867Y-39339866D01*
X46779295Y-39565986D01*
X46641401Y-39823966D01*
X46556487Y-40103889D01*
X46535000Y-40322050D01*
X46535000Y-41767949D01*
X46556487Y-41986110D01*
X46641401Y-42266033D01*
X46779294Y-42524013D01*
X46964866Y-42750134D01*
X47190986Y-42935706D01*
X47448966Y-43073599D01*
X47728889Y-43158513D01*
X48020000Y-43187185D01*
X48311110Y-43158513D01*
X48591033Y-43073599D01*
X48849013Y-42935706D01*
X49075134Y-42750134D01*
X49260706Y-42524014D01*
X49290000Y-42469208D01*
X49319294Y-42524013D01*
X49504866Y-42750134D01*
X49558923Y-42794498D01*
X45132842Y-47220580D01*
X45104953Y-47243468D01*
X45104951Y-47243470D01*
X45071183Y-47271183D01*
X45043470Y-47304951D01*
X39433422Y-52915000D01*
X35943469Y-52915000D01*
X35900000Y-52910719D01*
X35856531Y-52915000D01*
X35856523Y-52915000D01*
X35726510Y-52927805D01*
X35559686Y-52978411D01*
X35482814Y-53019500D01*
X35405941Y-53060589D01*
X35271183Y-53171183D01*
X35243468Y-53204954D01*
X35053422Y-53395000D01*
X33694656Y-53395000D01*
X33653475Y-53333368D01*
X33446632Y-53126525D01*
X33272240Y-53010000D01*
X33446632Y-52893475D01*
X33653475Y-52686632D01*
X33815990Y-52443411D01*
X33927932Y-52173158D01*
X33985000Y-51886260D01*
X33985000Y-51593740D01*
X33927932Y-51306842D01*
X33815990Y-51036589D01*
X33653475Y-50793368D01*
X33446632Y-50586525D01*
X33272240Y-50470000D01*
X33446632Y-50353475D01*
X33653475Y-50146632D01*
X33815990Y-49903411D01*
X33927932Y-49633158D01*
X33985000Y-49346260D01*
X33985000Y-49053740D01*
X33927932Y-48766842D01*
X33815990Y-48496589D01*
X33653475Y-48253368D01*
X33446632Y-48046525D01*
X33272240Y-47930000D01*
X33446632Y-47813475D01*
X33653475Y-47606632D01*
X33815990Y-47363411D01*
X33927932Y-47093158D01*
X33985000Y-46806260D01*
X33985000Y-46513740D01*
X33927932Y-46226842D01*
X33815990Y-45956589D01*
X33653475Y-45713368D01*
X33446632Y-45506525D01*
X33272240Y-45390000D01*
X33446632Y-45273475D01*
X33653475Y-45066632D01*
X33815990Y-44823411D01*
X33927932Y-44553158D01*
X33985000Y-44266260D01*
X33985000Y-43973740D01*
X33927932Y-43686842D01*
X33815990Y-43416589D01*
X33653475Y-43173368D01*
X33446632Y-42966525D01*
X33264466Y-42844805D01*
X33381355Y-42775178D01*
X33597588Y-42580269D01*
X33771641Y-42346920D01*
X33896825Y-42084099D01*
X33941476Y-41936890D01*
X33820155Y-41707000D01*
X32627000Y-41707000D01*
X32627000Y-41727000D01*
X32373000Y-41727000D01*
X32373000Y-41707000D01*
X31179845Y-41707000D01*
X31058524Y-41936890D01*
X31103175Y-42084099D01*
X31228359Y-42346920D01*
X31402412Y-42580269D01*
X31618645Y-42775178D01*
X31735534Y-42844805D01*
X31553368Y-42966525D01*
X31346525Y-43173368D01*
X31184010Y-43416589D01*
X31072068Y-43686842D01*
X31015000Y-43973740D01*
X31015000Y-44266260D01*
X31072068Y-44553158D01*
X31184010Y-44823411D01*
X31346525Y-45066632D01*
X31553368Y-45273475D01*
X31727760Y-45390000D01*
X31553368Y-45506525D01*
X31346525Y-45713368D01*
X31184010Y-45956589D01*
X31072068Y-46226842D01*
X31015000Y-46513740D01*
X31015000Y-46806260D01*
X31072068Y-47093158D01*
X31184010Y-47363411D01*
X31346525Y-47606632D01*
X31553368Y-47813475D01*
X31727760Y-47930000D01*
X31553368Y-48046525D01*
X31346525Y-48253368D01*
X31184010Y-48496589D01*
X31072068Y-48766842D01*
X31015000Y-49053740D01*
X31015000Y-49346260D01*
X31072068Y-49633158D01*
X31184010Y-49903411D01*
X31346525Y-50146632D01*
X31553368Y-50353475D01*
X31727760Y-50470000D01*
X31553368Y-50586525D01*
X31346525Y-50793368D01*
X31184010Y-51036589D01*
X31072068Y-51306842D01*
X31015000Y-51593740D01*
X31015000Y-51886260D01*
X31072068Y-52173158D01*
X31184010Y-52443411D01*
X31346525Y-52686632D01*
X31553368Y-52893475D01*
X31727760Y-53010000D01*
X31553368Y-53126525D01*
X31346525Y-53333368D01*
X31184010Y-53576589D01*
X31072068Y-53846842D01*
X31015000Y-54133740D01*
X31015000Y-54426260D01*
X31072068Y-54713158D01*
X31184010Y-54983411D01*
X31346525Y-55226632D01*
X31553368Y-55433475D01*
X31727760Y-55550000D01*
X31553368Y-55666525D01*
X31346525Y-55873368D01*
X31184010Y-56116589D01*
X31072068Y-56386842D01*
X31015000Y-56673740D01*
X31015000Y-56966260D01*
X31072068Y-57253158D01*
X31184010Y-57523411D01*
X31346525Y-57766632D01*
X31553368Y-57973475D01*
X31727760Y-58090000D01*
X31553368Y-58206525D01*
X31346525Y-58413368D01*
X31184010Y-58656589D01*
X31072068Y-58926842D01*
X31015000Y-59213740D01*
X31015000Y-59506260D01*
X31072068Y-59793158D01*
X31184010Y-60063411D01*
X31346525Y-60306632D01*
X31553368Y-60513475D01*
X31727760Y-60630000D01*
X31553368Y-60746525D01*
X31346525Y-60953368D01*
X31184010Y-61196589D01*
X31072068Y-61466842D01*
X31015000Y-61753740D01*
X31015000Y-62046260D01*
X31072068Y-62333158D01*
X31184010Y-62603411D01*
X31346525Y-62846632D01*
X31553368Y-63053475D01*
X31796589Y-63215990D01*
X32066842Y-63327932D01*
X32353740Y-63385000D01*
X32646260Y-63385000D01*
X32933158Y-63327932D01*
X33203411Y-63215990D01*
X33446632Y-63053475D01*
X33653475Y-62846632D01*
X33694656Y-62785000D01*
X39281531Y-62785000D01*
X39325000Y-62789281D01*
X39368469Y-62785000D01*
X39368477Y-62785000D01*
X39498490Y-62772195D01*
X39665313Y-62721589D01*
X39819059Y-62639411D01*
X39953817Y-62528817D01*
X39981534Y-62495044D01*
X45065000Y-57411578D01*
X45065000Y-57601939D01*
X45104774Y-57801898D01*
X45182795Y-57990256D01*
X45296063Y-58159774D01*
X45440226Y-58303937D01*
X45609744Y-58417205D01*
X45798102Y-58495226D01*
X45998061Y-58535000D01*
X46201939Y-58535000D01*
X46401898Y-58495226D01*
X46535224Y-58440000D01*
X46550961Y-58440000D01*
X46556487Y-58496111D01*
X46641401Y-58776034D01*
X46779295Y-59034014D01*
X46964867Y-59260134D01*
X47190987Y-59445706D01*
X47448967Y-59583599D01*
X47728890Y-59668513D01*
X48020000Y-59697185D01*
X48311111Y-59668513D01*
X48591034Y-59583599D01*
X48849014Y-59445706D01*
X49075134Y-59260134D01*
X49260706Y-59034014D01*
X49290000Y-58979208D01*
X49319295Y-59034014D01*
X49504867Y-59260134D01*
X49730987Y-59445706D01*
X49988967Y-59583599D01*
X50268890Y-59668513D01*
X50560000Y-59697185D01*
X50851111Y-59668513D01*
X51131034Y-59583599D01*
X51389014Y-59445706D01*
X51615134Y-59260134D01*
X51800706Y-59034014D01*
X51830000Y-58979208D01*
X51859295Y-59034014D01*
X52044867Y-59260134D01*
X52270987Y-59445706D01*
X52528967Y-59583599D01*
X52808890Y-59668513D01*
X53100000Y-59697185D01*
X53391111Y-59668513D01*
X53671034Y-59583599D01*
X53929014Y-59445706D01*
X54155134Y-59260134D01*
X54340706Y-59034014D01*
X54370000Y-58979208D01*
X54399295Y-59034014D01*
X54584867Y-59260134D01*
X54638924Y-59304497D01*
X52404956Y-61538466D01*
X52371183Y-61566183D01*
X52260589Y-61700942D01*
X52178411Y-61854688D01*
X52149016Y-61951589D01*
X52133665Y-62002195D01*
X52127805Y-62021511D01*
X52115000Y-62151524D01*
X52115000Y-62151531D01*
X52110719Y-62195000D01*
X52115000Y-62238469D01*
X52115000Y-62515375D01*
X52025518Y-62524188D01*
X51905820Y-62560498D01*
X51795506Y-62619463D01*
X51698815Y-62698815D01*
X51619463Y-62795506D01*
X51560498Y-62905820D01*
X51524188Y-63025518D01*
X51511928Y-63150000D01*
X51511928Y-64850000D01*
X51524188Y-64974482D01*
X51560498Y-65094180D01*
X51619463Y-65204494D01*
X51698815Y-65301185D01*
X51795506Y-65380537D01*
X51905820Y-65439502D01*
X52025518Y-65475812D01*
X52150000Y-65488072D01*
X53850000Y-65488072D01*
X53974482Y-65475812D01*
X54094180Y-65439502D01*
X54204494Y-65380537D01*
X54301185Y-65301185D01*
X54380537Y-65204494D01*
X54439502Y-65094180D01*
X54463966Y-65013534D01*
X54539731Y-65097588D01*
X54773080Y-65271641D01*
X55035901Y-65396825D01*
X55183110Y-65441476D01*
X55413000Y-65320155D01*
X55413000Y-64127000D01*
X55667000Y-64127000D01*
X55667000Y-65320155D01*
X55896890Y-65441476D01*
X56044099Y-65396825D01*
X56306920Y-65271641D01*
X56540269Y-65097588D01*
X56735178Y-64881355D01*
X56884157Y-64631252D01*
X56981481Y-64356891D01*
X56860814Y-64127000D01*
X55667000Y-64127000D01*
X55413000Y-64127000D01*
X55393000Y-64127000D01*
X55393000Y-63873000D01*
X55413000Y-63873000D01*
X55413000Y-62679845D01*
X55667000Y-62679845D01*
X55667000Y-63873000D01*
X56860814Y-63873000D01*
X56981481Y-63643109D01*
X56884157Y-63368748D01*
X56735178Y-63118645D01*
X56540269Y-62902412D01*
X56306920Y-62728359D01*
X56044099Y-62603175D01*
X55896890Y-62558524D01*
X55667000Y-62679845D01*
X55413000Y-62679845D01*
X55183110Y-62558524D01*
X55035901Y-62603175D01*
X54773080Y-62728359D01*
X54539731Y-62902412D01*
X54463966Y-62986466D01*
X54439502Y-62905820D01*
X54380537Y-62795506D01*
X54301185Y-62698815D01*
X54204494Y-62619463D01*
X54094180Y-62560498D01*
X53974482Y-62524188D01*
X53927061Y-62519518D01*
X56235049Y-60211530D01*
X56268817Y-60183817D01*
X56296533Y-60150046D01*
X56379411Y-60049059D01*
X56461588Y-59895314D01*
X56461589Y-59895313D01*
X56512195Y-59728490D01*
X56525000Y-59598477D01*
X56525000Y-59598469D01*
X56529281Y-59555000D01*
X56525000Y-59511531D01*
X56525000Y-59399759D01*
X56695134Y-59260134D01*
X56880706Y-59034014D01*
X56910000Y-58979208D01*
X56939295Y-59034014D01*
X57124867Y-59260134D01*
X57295001Y-59399759D01*
X57295001Y-61086521D01*
X57290719Y-61130000D01*
X57307805Y-61303490D01*
X57358412Y-61470313D01*
X57440590Y-61624059D01*
X57523468Y-61725046D01*
X57523471Y-61725049D01*
X57551184Y-61758817D01*
X57584951Y-61786529D01*
X60393470Y-64595049D01*
X60421183Y-64628817D01*
X60454951Y-64656530D01*
X60454953Y-64656532D01*
X60511928Y-64703290D01*
X60511928Y-64850000D01*
X60524188Y-64974482D01*
X60560498Y-65094180D01*
X60619463Y-65204494D01*
X60698815Y-65301185D01*
X60795506Y-65380537D01*
X60905820Y-65439502D01*
X61025518Y-65475812D01*
X61150000Y-65488072D01*
X62850000Y-65488072D01*
X62974482Y-65475812D01*
X63094180Y-65439502D01*
X63204494Y-65380537D01*
X63301185Y-65301185D01*
X63380537Y-65204494D01*
X63439502Y-65094180D01*
X63463966Y-65013534D01*
X63539731Y-65097588D01*
X63773080Y-65271641D01*
X64035901Y-65396825D01*
X64183110Y-65441476D01*
X64413000Y-65320155D01*
X64413000Y-64127000D01*
X64667000Y-64127000D01*
X64667000Y-65320155D01*
X64896890Y-65441476D01*
X65044099Y-65396825D01*
X65306920Y-65271641D01*
X65540269Y-65097588D01*
X65735178Y-64881355D01*
X65884157Y-64631252D01*
X65981481Y-64356891D01*
X65860814Y-64127000D01*
X64667000Y-64127000D01*
X64413000Y-64127000D01*
X64393000Y-64127000D01*
X64393000Y-63873000D01*
X64413000Y-63873000D01*
X64413000Y-62679845D01*
X64667000Y-62679845D01*
X64667000Y-63873000D01*
X65860814Y-63873000D01*
X65981481Y-63643109D01*
X65884157Y-63368748D01*
X65735178Y-63118645D01*
X65540269Y-62902412D01*
X65306920Y-62728359D01*
X65044099Y-62603175D01*
X64896890Y-62558524D01*
X64667000Y-62679845D01*
X64413000Y-62679845D01*
X64183110Y-62558524D01*
X64035901Y-62603175D01*
X63773080Y-62728359D01*
X63539731Y-62902412D01*
X63463966Y-62986466D01*
X63439502Y-62905820D01*
X63380537Y-62795506D01*
X63301185Y-62698815D01*
X63204494Y-62619463D01*
X63094180Y-62560498D01*
X62974482Y-62524188D01*
X62850000Y-62511928D01*
X61150000Y-62511928D01*
X61025518Y-62524188D01*
X60905820Y-62560498D01*
X60877314Y-62575735D01*
X59065000Y-60763422D01*
X59065000Y-59399759D01*
X59235134Y-59260134D01*
X59420706Y-59034014D01*
X59450000Y-58979208D01*
X59479295Y-59034014D01*
X59664867Y-59260134D01*
X59835001Y-59399759D01*
X59835001Y-59511521D01*
X59830719Y-59555000D01*
X59847805Y-59728490D01*
X59898412Y-59895313D01*
X59980590Y-60049059D01*
X60063468Y-60150046D01*
X60063469Y-60150047D01*
X60091184Y-60183817D01*
X60124951Y-60211529D01*
X61608470Y-61695049D01*
X61636183Y-61728817D01*
X61669951Y-61756530D01*
X61669953Y-61756532D01*
X61741452Y-61815210D01*
X61770941Y-61839411D01*
X61924687Y-61921589D01*
X62039847Y-61956523D01*
X62091509Y-61972195D01*
X62106306Y-61973652D01*
X62221523Y-61985000D01*
X62221531Y-61985000D01*
X62265000Y-61989281D01*
X62308469Y-61985000D01*
X69733422Y-61985000D01*
X70115000Y-62366579D01*
X70115000Y-62515375D01*
X70025518Y-62524188D01*
X69905820Y-62560498D01*
X69795506Y-62619463D01*
X69698815Y-62698815D01*
X69619463Y-62795506D01*
X69560498Y-62905820D01*
X69524188Y-63025518D01*
X69511928Y-63150000D01*
X69511928Y-64850000D01*
X69524188Y-64974482D01*
X69560498Y-65094180D01*
X69619463Y-65204494D01*
X69698815Y-65301185D01*
X69795506Y-65380537D01*
X69905820Y-65439502D01*
X70025518Y-65475812D01*
X70150000Y-65488072D01*
X71850000Y-65488072D01*
X71974482Y-65475812D01*
X72094180Y-65439502D01*
X72204494Y-65380537D01*
X72301185Y-65301185D01*
X72380537Y-65204494D01*
X72439502Y-65094180D01*
X72463966Y-65013534D01*
X72539731Y-65097588D01*
X72773080Y-65271641D01*
X73035901Y-65396825D01*
X73183110Y-65441476D01*
X73413000Y-65320155D01*
X73413000Y-64127000D01*
X73667000Y-64127000D01*
X73667000Y-65320155D01*
X73896890Y-65441476D01*
X74044099Y-65396825D01*
X74306920Y-65271641D01*
X74540269Y-65097588D01*
X74735178Y-64881355D01*
X74884157Y-64631252D01*
X74981481Y-64356891D01*
X74860814Y-64127000D01*
X73667000Y-64127000D01*
X73413000Y-64127000D01*
X73393000Y-64127000D01*
X73393000Y-63873000D01*
X73413000Y-63873000D01*
X73413000Y-62679845D01*
X73667000Y-62679845D01*
X73667000Y-63873000D01*
X74860814Y-63873000D01*
X74981481Y-63643109D01*
X74884157Y-63368748D01*
X74735178Y-63118645D01*
X74540269Y-62902412D01*
X74306920Y-62728359D01*
X74044099Y-62603175D01*
X73896890Y-62558524D01*
X73667000Y-62679845D01*
X73413000Y-62679845D01*
X73183110Y-62558524D01*
X73035901Y-62603175D01*
X72773080Y-62728359D01*
X72539731Y-62902412D01*
X72463966Y-62986466D01*
X72439502Y-62905820D01*
X72380537Y-62795506D01*
X72301185Y-62698815D01*
X72204494Y-62619463D01*
X72094180Y-62560498D01*
X71974482Y-62524188D01*
X71885000Y-62515375D01*
X71885000Y-62043465D01*
X71889281Y-61999999D01*
X71885000Y-61956533D01*
X71885000Y-61956523D01*
X71872195Y-61826510D01*
X71821589Y-61659687D01*
X71739411Y-61505941D01*
X71685551Y-61440313D01*
X71656532Y-61404953D01*
X71656530Y-61404951D01*
X71628817Y-61371183D01*
X71595050Y-61343471D01*
X70756534Y-60504956D01*
X70728817Y-60471183D01*
X70594059Y-60360589D01*
X70440313Y-60278411D01*
X70273490Y-60227805D01*
X70143477Y-60215000D01*
X70143469Y-60215000D01*
X70100000Y-60210719D01*
X70056531Y-60215000D01*
X62631579Y-60215000D01*
X61721076Y-59304498D01*
X61775134Y-59260134D01*
X61960706Y-59034014D01*
X61990000Y-58979208D01*
X62019295Y-59034014D01*
X62204867Y-59260134D01*
X62430987Y-59445706D01*
X62688967Y-59583599D01*
X62968890Y-59668513D01*
X63260000Y-59697185D01*
X63551111Y-59668513D01*
X63831034Y-59583599D01*
X64089014Y-59445706D01*
X64315134Y-59260134D01*
X64500706Y-59034014D01*
X64530000Y-58979208D01*
X64559295Y-59034014D01*
X64744867Y-59260134D01*
X64970987Y-59445706D01*
X65228967Y-59583599D01*
X65508890Y-59668513D01*
X65800000Y-59697185D01*
X66091111Y-59668513D01*
X66371034Y-59583599D01*
X66629014Y-59445706D01*
X66855134Y-59260134D01*
X67040706Y-59034014D01*
X67070000Y-58979208D01*
X67099295Y-59034014D01*
X67284867Y-59260134D01*
X67510987Y-59445706D01*
X67768967Y-59583599D01*
X68048890Y-59668513D01*
X68340000Y-59697185D01*
X68631111Y-59668513D01*
X68911034Y-59583599D01*
X69169014Y-59445706D01*
X69395134Y-59260134D01*
X69580706Y-59034014D01*
X69610000Y-58979208D01*
X69639295Y-59034014D01*
X69824867Y-59260134D01*
X70050987Y-59445706D01*
X70308967Y-59583599D01*
X70588890Y-59668513D01*
X70880000Y-59697185D01*
X71171111Y-59668513D01*
X71451034Y-59583599D01*
X71709014Y-59445706D01*
X71935134Y-59260134D01*
X72120706Y-59034014D01*
X72150000Y-58979208D01*
X72179295Y-59034014D01*
X72364867Y-59260134D01*
X72590987Y-59445706D01*
X72848967Y-59583599D01*
X73128890Y-59668513D01*
X73420000Y-59697185D01*
X73711111Y-59668513D01*
X73991034Y-59583599D01*
X74249014Y-59445706D01*
X74475134Y-59260134D01*
X74660706Y-59034014D01*
X74690000Y-58979208D01*
X74719295Y-59034014D01*
X74904867Y-59260134D01*
X75130987Y-59445706D01*
X75388967Y-59583599D01*
X75668890Y-59668513D01*
X75960000Y-59697185D01*
X76251111Y-59668513D01*
X76531034Y-59583599D01*
X76789014Y-59445706D01*
X77015134Y-59260134D01*
X77200706Y-59034014D01*
X77230000Y-58979208D01*
X77259295Y-59034014D01*
X77444867Y-59260134D01*
X77670987Y-59445706D01*
X77928967Y-59583599D01*
X78208890Y-59668513D01*
X78500000Y-59697185D01*
X78791111Y-59668513D01*
X79071034Y-59583599D01*
X79329014Y-59445706D01*
X79555134Y-59260134D01*
X79740706Y-59034014D01*
X79771895Y-58975663D01*
X79875824Y-59135619D01*
X80079748Y-59344857D01*
X80320574Y-59510291D01*
X80589047Y-59625563D01*
X80683110Y-59646476D01*
X80913000Y-59525155D01*
X80913000Y-57682000D01*
X80893000Y-57682000D01*
X80893000Y-57428000D01*
X80913000Y-57428000D01*
X80913000Y-55584845D01*
X81167000Y-55584845D01*
X81167000Y-57428000D01*
X81187000Y-57428000D01*
X81187000Y-57682000D01*
X81167000Y-57682000D01*
X81167000Y-59525155D01*
X81396890Y-59646476D01*
X81490953Y-59625563D01*
X81759426Y-59510291D01*
X82000252Y-59344857D01*
X82204176Y-59135619D01*
X82308105Y-58975662D01*
X82339295Y-59034014D01*
X82524867Y-59260134D01*
X82750987Y-59445706D01*
X83008967Y-59583599D01*
X83288890Y-59668513D01*
X83580000Y-59697185D01*
X83871111Y-59668513D01*
X84151034Y-59583599D01*
X84409014Y-59445706D01*
X84635134Y-59260134D01*
X84820706Y-59034014D01*
X84958599Y-58776034D01*
X85043513Y-58496111D01*
X85065000Y-58277950D01*
X85065000Y-56832050D01*
X85043513Y-56613889D01*
X84958599Y-56333966D01*
X84820706Y-56075986D01*
X84635134Y-55849866D01*
X84409013Y-55664294D01*
X84151033Y-55526401D01*
X83871110Y-55441487D01*
X83580000Y-55412815D01*
X83288889Y-55441487D01*
X83008966Y-55526401D01*
X82750986Y-55664294D01*
X82524866Y-55849866D01*
X82339294Y-56075987D01*
X82308105Y-56134338D01*
X82204176Y-55974381D01*
X82000252Y-55765143D01*
X81759426Y-55599709D01*
X81490953Y-55484437D01*
X81396890Y-55463524D01*
X81167000Y-55584845D01*
X80913000Y-55584845D01*
X80683110Y-55463524D01*
X80589047Y-55484437D01*
X80320574Y-55599709D01*
X80079748Y-55765143D01*
X79875824Y-55974381D01*
X79771895Y-56134337D01*
X79740706Y-56075986D01*
X79555134Y-55849866D01*
X79329013Y-55664294D01*
X79071033Y-55526401D01*
X78791110Y-55441487D01*
X78500000Y-55412815D01*
X78208889Y-55441487D01*
X77928966Y-55526401D01*
X77670986Y-55664294D01*
X77444866Y-55849866D01*
X77259294Y-56075987D01*
X77230000Y-56130792D01*
X77200706Y-56075986D01*
X77095000Y-55947183D01*
X77095000Y-55525131D01*
X80470131Y-52150000D01*
X88511928Y-52150000D01*
X88511928Y-53850000D01*
X88524188Y-53974482D01*
X88560498Y-54094180D01*
X88619463Y-54204494D01*
X88698815Y-54301185D01*
X88795506Y-54380537D01*
X88905820Y-54439502D01*
X89025518Y-54475812D01*
X89150000Y-54488072D01*
X90850000Y-54488072D01*
X90974482Y-54475812D01*
X91094180Y-54439502D01*
X91204494Y-54380537D01*
X91301185Y-54301185D01*
X91380537Y-54204494D01*
X91439502Y-54094180D01*
X91475812Y-53974482D01*
X91488072Y-53850000D01*
X91488072Y-52150000D01*
X91475812Y-52025518D01*
X91439502Y-51905820D01*
X91380537Y-51795506D01*
X91301185Y-51698815D01*
X91204494Y-51619463D01*
X91094180Y-51560498D01*
X91021620Y-51538487D01*
X91153475Y-51406632D01*
X91315990Y-51163411D01*
X91427932Y-50893158D01*
X91485000Y-50606260D01*
X91485000Y-50313740D01*
X91427932Y-50026842D01*
X91315990Y-49756589D01*
X91153475Y-49513368D01*
X90946632Y-49306525D01*
X90772240Y-49190000D01*
X90946632Y-49073475D01*
X91153475Y-48866632D01*
X91315990Y-48623411D01*
X91427932Y-48353158D01*
X91485000Y-48066260D01*
X91485000Y-47773740D01*
X91427932Y-47486842D01*
X91315990Y-47216589D01*
X91153475Y-46973368D01*
X90946632Y-46766525D01*
X90772240Y-46650000D01*
X90946632Y-46533475D01*
X91153475Y-46326632D01*
X91315990Y-46083411D01*
X91427932Y-45813158D01*
X91485000Y-45526260D01*
X91485000Y-45233740D01*
X91427932Y-44946842D01*
X91315990Y-44676589D01*
X91153475Y-44433368D01*
X90946632Y-44226525D01*
X90703411Y-44064010D01*
X90433158Y-43952068D01*
X90146260Y-43895000D01*
X89853740Y-43895000D01*
X89566842Y-43952068D01*
X89296589Y-44064010D01*
X89053368Y-44226525D01*
X88846525Y-44433368D01*
X88684010Y-44676589D01*
X88572068Y-44946842D01*
X88515000Y-45233740D01*
X88515000Y-45526260D01*
X88572068Y-45813158D01*
X88684010Y-46083411D01*
X88846525Y-46326632D01*
X89053368Y-46533475D01*
X89227760Y-46650000D01*
X89053368Y-46766525D01*
X88846525Y-46973368D01*
X88684010Y-47216589D01*
X88572068Y-47486842D01*
X88515000Y-47773740D01*
X88515000Y-48066260D01*
X88572068Y-48353158D01*
X88684010Y-48623411D01*
X88846525Y-48866632D01*
X89053368Y-49073475D01*
X89227760Y-49190000D01*
X89053368Y-49306525D01*
X88846525Y-49513368D01*
X88684010Y-49756589D01*
X88572068Y-50026842D01*
X88515000Y-50313740D01*
X88515000Y-50606260D01*
X88572068Y-50893158D01*
X88684010Y-51163411D01*
X88846525Y-51406632D01*
X88978380Y-51538487D01*
X88905820Y-51560498D01*
X88795506Y-51619463D01*
X88698815Y-51698815D01*
X88619463Y-51795506D01*
X88560498Y-51905820D01*
X88524188Y-52025518D01*
X88511928Y-52150000D01*
X80470131Y-52150000D01*
X86863146Y-45756987D01*
X86906449Y-45721449D01*
X87002017Y-45605000D01*
X87048284Y-45548623D01*
X87153676Y-45351447D01*
X87218577Y-45137499D01*
X87240491Y-44915000D01*
X87235000Y-44859248D01*
X87235000Y-38217683D01*
X87304494Y-38180537D01*
X87401185Y-38101185D01*
X87480537Y-38004494D01*
X87539502Y-37894180D01*
X87575812Y-37774482D01*
X87588072Y-37650000D01*
X87588072Y-35950000D01*
X87575812Y-35825518D01*
X87539502Y-35705820D01*
X87480537Y-35595506D01*
X87401185Y-35498815D01*
X87304494Y-35419463D01*
X87235000Y-35382317D01*
X87235000Y-35005743D01*
X87240490Y-34949999D01*
X87235000Y-34894255D01*
X87235000Y-34894248D01*
X87218577Y-34727501D01*
X87153676Y-34513553D01*
X87048284Y-34316377D01*
X86906449Y-34143551D01*
X86863135Y-34108004D01*
X86191996Y-33436865D01*
X86156449Y-33393551D01*
X85983623Y-33251716D01*
X85786447Y-33146324D01*
X85572499Y-33081423D01*
X85405752Y-33065000D01*
X85405751Y-33065000D01*
X85350000Y-33059509D01*
X85294249Y-33065000D01*
X73955743Y-33065000D01*
X73899999Y-33059510D01*
X73844255Y-33065000D01*
X73844248Y-33065000D01*
X73698493Y-33079356D01*
X73677500Y-33081423D01*
X73627705Y-33096529D01*
X73463553Y-33146324D01*
X73266377Y-33251716D01*
X73093551Y-33393551D01*
X73058009Y-33436859D01*
X71129869Y-35365000D01*
X33917683Y-35365000D01*
X33880537Y-35295506D01*
X33801185Y-35198815D01*
X33704494Y-35119463D01*
X33594180Y-35060498D01*
X33474482Y-35024188D01*
X33350000Y-35011928D01*
X31650000Y-35011928D01*
X31525518Y-35024188D01*
X31405820Y-35060498D01*
X31295506Y-35119463D01*
X31198815Y-35198815D01*
X31119463Y-35295506D01*
X31060498Y-35405820D01*
X31024188Y-35525518D01*
X31011928Y-35650000D01*
X30384115Y-35650000D01*
X30380489Y-32897997D01*
X30450890Y-33251925D01*
X30619369Y-33658669D01*
X30863962Y-34024729D01*
X31175271Y-34336038D01*
X31541331Y-34580631D01*
X31948075Y-34749110D01*
X32379872Y-34835000D01*
X32820128Y-34835000D01*
X33251925Y-34749110D01*
X33658669Y-34580631D01*
X34024729Y-34336038D01*
X34336038Y-34024729D01*
X34580631Y-33658669D01*
X34749110Y-33251925D01*
X34835000Y-32820128D01*
X34835000Y-32379872D01*
X34749110Y-31948075D01*
X34580631Y-31541331D01*
X34336038Y-31175271D01*
X34024729Y-30863962D01*
X33658669Y-30619369D01*
X33251925Y-30450890D01*
X32896539Y-30380199D01*
X89260959Y-30448327D01*
G36*
X84965000Y-44444867D02*
G01*
X75196860Y-54213009D01*
X75153552Y-54248551D01*
X75011717Y-54421377D01*
X74955384Y-54526770D01*
X74906324Y-54618554D01*
X74841423Y-54832502D01*
X74819509Y-55055000D01*
X74825001Y-55110761D01*
X74825001Y-55947183D01*
X74719294Y-56075987D01*
X74690000Y-56130792D01*
X74660706Y-56075986D01*
X74475134Y-55849866D01*
X74249013Y-55664294D01*
X73991033Y-55526401D01*
X73711110Y-55441487D01*
X73420000Y-55412815D01*
X73128889Y-55441487D01*
X72848966Y-55526401D01*
X72590986Y-55664294D01*
X72364866Y-55849866D01*
X72179294Y-56075987D01*
X72150000Y-56130792D01*
X72120706Y-56075986D01*
X71935134Y-55849866D01*
X71709013Y-55664294D01*
X71451033Y-55526401D01*
X71171110Y-55441487D01*
X70880000Y-55412815D01*
X70588889Y-55441487D01*
X70308966Y-55526401D01*
X70050986Y-55664294D01*
X69824866Y-55849866D01*
X69639294Y-56075987D01*
X69610000Y-56130792D01*
X69580706Y-56075986D01*
X69395134Y-55849866D01*
X69169013Y-55664294D01*
X68911033Y-55526401D01*
X68631110Y-55441487D01*
X68340000Y-55412815D01*
X68048889Y-55441487D01*
X67768966Y-55526401D01*
X67510986Y-55664294D01*
X67284866Y-55849866D01*
X67099294Y-56075987D01*
X67070000Y-56130792D01*
X67040706Y-56075986D01*
X66855134Y-55849866D01*
X66629013Y-55664294D01*
X66371033Y-55526401D01*
X66091110Y-55441487D01*
X65800000Y-55412815D01*
X65508889Y-55441487D01*
X65228966Y-55526401D01*
X64970986Y-55664294D01*
X64744866Y-55849866D01*
X64559294Y-56075987D01*
X64530000Y-56130792D01*
X64500706Y-56075986D01*
X64315134Y-55849866D01*
X64089013Y-55664294D01*
X63831033Y-55526401D01*
X63551110Y-55441487D01*
X63260000Y-55412815D01*
X62968889Y-55441487D01*
X62688966Y-55526401D01*
X62430986Y-55664294D01*
X62204866Y-55849866D01*
X62019294Y-56075987D01*
X61990000Y-56130792D01*
X61960706Y-56075986D01*
X61775134Y-55849866D01*
X61549013Y-55664294D01*
X61291033Y-55526401D01*
X61011110Y-55441487D01*
X60720000Y-55412815D01*
X60428889Y-55441487D01*
X60148966Y-55526401D01*
X59890986Y-55664294D01*
X59664866Y-55849866D01*
X59479294Y-56075987D01*
X59450000Y-56130792D01*
X59420706Y-56075986D01*
X59235134Y-55849866D01*
X59009013Y-55664294D01*
X58751033Y-55526401D01*
X58471110Y-55441487D01*
X58180000Y-55412815D01*
X57888889Y-55441487D01*
X57608966Y-55526401D01*
X57350986Y-55664294D01*
X57124866Y-55849866D01*
X56939294Y-56075987D01*
X56910000Y-56130792D01*
X56880706Y-56075986D01*
X56695134Y-55849866D01*
X56469013Y-55664294D01*
X56211033Y-55526401D01*
X55931110Y-55441487D01*
X55640000Y-55412815D01*
X55348889Y-55441487D01*
X55068966Y-55526401D01*
X54810986Y-55664294D01*
X54584866Y-55849866D01*
X54399294Y-56075987D01*
X54370000Y-56130792D01*
X54340706Y-56075986D01*
X54155134Y-55849866D01*
X53929013Y-55664294D01*
X53671033Y-55526401D01*
X53391110Y-55441487D01*
X53100000Y-55412815D01*
X52808889Y-55441487D01*
X52528966Y-55526401D01*
X52270986Y-55664294D01*
X52044866Y-55849866D01*
X51859294Y-56075987D01*
X51830000Y-56130792D01*
X51800706Y-56075986D01*
X51615134Y-55849866D01*
X51389013Y-55664294D01*
X51131033Y-55526401D01*
X50851110Y-55441487D01*
X50560000Y-55412815D01*
X50268889Y-55441487D01*
X49988966Y-55526401D01*
X49730986Y-55664294D01*
X49504866Y-55849866D01*
X49319294Y-56075987D01*
X49290000Y-56130792D01*
X49260706Y-56075986D01*
X49075134Y-55849866D01*
X48849013Y-55664294D01*
X48591033Y-55526401D01*
X48311110Y-55441487D01*
X48020000Y-55412815D01*
X47728889Y-55441487D01*
X47448966Y-55526401D01*
X47190986Y-55664294D01*
X46964866Y-55849866D01*
X46779294Y-56075987D01*
X46641401Y-56333967D01*
X46568636Y-56573840D01*
X46401898Y-56504774D01*
X46201939Y-56465000D01*
X46011578Y-56465000D01*
X58775049Y-43701530D01*
X58808817Y-43673817D01*
X58919411Y-43539059D01*
X59001589Y-43385313D01*
X59052195Y-43218490D01*
X59065000Y-43088477D01*
X59065000Y-43088469D01*
X59069281Y-43045000D01*
X59065000Y-43001531D01*
X59065000Y-42889759D01*
X59235134Y-42750134D01*
X59420706Y-42524014D01*
X59450000Y-42469208D01*
X59479294Y-42524013D01*
X59664866Y-42750134D01*
X59890986Y-42935706D01*
X60148966Y-43073599D01*
X60428889Y-43158513D01*
X60720000Y-43187185D01*
X61011110Y-43158513D01*
X61291033Y-43073599D01*
X61549013Y-42935706D01*
X61775134Y-42750134D01*
X61960706Y-42524014D01*
X61990000Y-42469208D01*
X62019294Y-42524013D01*
X62204866Y-42750134D01*
X62430986Y-42935706D01*
X62688966Y-43073599D01*
X62968889Y-43158513D01*
X63260000Y-43187185D01*
X63551110Y-43158513D01*
X63831033Y-43073599D01*
X64089013Y-42935706D01*
X64315134Y-42750134D01*
X64500706Y-42524014D01*
X64530000Y-42469208D01*
X64559294Y-42524013D01*
X64744866Y-42750134D01*
X64970986Y-42935706D01*
X65228966Y-43073599D01*
X65508889Y-43158513D01*
X65800000Y-43187185D01*
X66091110Y-43158513D01*
X66371033Y-43073599D01*
X66629013Y-42935706D01*
X66855134Y-42750134D01*
X67040706Y-42524014D01*
X67070000Y-42469208D01*
X67099294Y-42524013D01*
X67284866Y-42750134D01*
X67510986Y-42935706D01*
X67768966Y-43073599D01*
X68048889Y-43158513D01*
X68340000Y-43187185D01*
X68631110Y-43158513D01*
X68911033Y-43073599D01*
X69169013Y-42935706D01*
X69395134Y-42750134D01*
X69580706Y-42524014D01*
X69610000Y-42469208D01*
X69639294Y-42524013D01*
X69824866Y-42750134D01*
X70050986Y-42935706D01*
X70308966Y-43073599D01*
X70588889Y-43158513D01*
X70880000Y-43187185D01*
X71171110Y-43158513D01*
X71451033Y-43073599D01*
X71709013Y-42935706D01*
X71935134Y-42750134D01*
X72120706Y-42524014D01*
X72150000Y-42469208D01*
X72179294Y-42524013D01*
X72364866Y-42750134D01*
X72590986Y-42935706D01*
X72848966Y-43073599D01*
X73128889Y-43158513D01*
X73420000Y-43187185D01*
X73711110Y-43158513D01*
X73991033Y-43073599D01*
X74249013Y-42935706D01*
X74475134Y-42750134D01*
X74660706Y-42524014D01*
X74690000Y-42469208D01*
X74719294Y-42524013D01*
X74904866Y-42750134D01*
X75130986Y-42935706D01*
X75388966Y-43073599D01*
X75668889Y-43158513D01*
X75960000Y-43187185D01*
X76251110Y-43158513D01*
X76531033Y-43073599D01*
X76789013Y-42935706D01*
X77015134Y-42750134D01*
X77200706Y-42524014D01*
X77230000Y-42469208D01*
X77259294Y-42524013D01*
X77444866Y-42750134D01*
X77670986Y-42935706D01*
X77928966Y-43073599D01*
X78208889Y-43158513D01*
X78500000Y-43187185D01*
X78791110Y-43158513D01*
X79071033Y-43073599D01*
X79329013Y-42935706D01*
X79555134Y-42750134D01*
X79740706Y-42524014D01*
X79770000Y-42469208D01*
X79799294Y-42524013D01*
X79984866Y-42750134D01*
X80210986Y-42935706D01*
X80468966Y-43073599D01*
X80748889Y-43158513D01*
X81040000Y-43187185D01*
X81331110Y-43158513D01*
X81611033Y-43073599D01*
X81869013Y-42935706D01*
X82095134Y-42750134D01*
X82280706Y-42524014D01*
X82310000Y-42469208D01*
X82339294Y-42524013D01*
X82524866Y-42750134D01*
X82750986Y-42935706D01*
X83008966Y-43073599D01*
X83288889Y-43158513D01*
X83580000Y-43187185D01*
X83871110Y-43158513D01*
X84151033Y-43073599D01*
X84409013Y-42935706D01*
X84635134Y-42750134D01*
X84820706Y-42524014D01*
X84958599Y-42266034D01*
X84965000Y-42244931D01*
X84965000Y-44444867D01*
G37*
X84965000Y-44444867D02*
X75196860Y-54213009D01*
X75153552Y-54248551D01*
X75011717Y-54421377D01*
X74955384Y-54526770D01*
X74906324Y-54618554D01*
X74841423Y-54832502D01*
X74819509Y-55055000D01*
X74825001Y-55110761D01*
X74825001Y-55947183D01*
X74719294Y-56075987D01*
X74690000Y-56130792D01*
X74660706Y-56075986D01*
X74475134Y-55849866D01*
X74249013Y-55664294D01*
X73991033Y-55526401D01*
X73711110Y-55441487D01*
X73420000Y-55412815D01*
X73128889Y-55441487D01*
X72848966Y-55526401D01*
X72590986Y-55664294D01*
X72364866Y-55849866D01*
X72179294Y-56075987D01*
X72150000Y-56130792D01*
X72120706Y-56075986D01*
X71935134Y-55849866D01*
X71709013Y-55664294D01*
X71451033Y-55526401D01*
X71171110Y-55441487D01*
X70880000Y-55412815D01*
X70588889Y-55441487D01*
X70308966Y-55526401D01*
X70050986Y-55664294D01*
X69824866Y-55849866D01*
X69639294Y-56075987D01*
X69610000Y-56130792D01*
X69580706Y-56075986D01*
X69395134Y-55849866D01*
X69169013Y-55664294D01*
X68911033Y-55526401D01*
X68631110Y-55441487D01*
X68340000Y-55412815D01*
X68048889Y-55441487D01*
X67768966Y-55526401D01*
X67510986Y-55664294D01*
X67284866Y-55849866D01*
X67099294Y-56075987D01*
X67070000Y-56130792D01*
X67040706Y-56075986D01*
X66855134Y-55849866D01*
X66629013Y-55664294D01*
X66371033Y-55526401D01*
X66091110Y-55441487D01*
X65800000Y-55412815D01*
X65508889Y-55441487D01*
X65228966Y-55526401D01*
X64970986Y-55664294D01*
X64744866Y-55849866D01*
X64559294Y-56075987D01*
X64530000Y-56130792D01*
X64500706Y-56075986D01*
X64315134Y-55849866D01*
X64089013Y-55664294D01*
X63831033Y-55526401D01*
X63551110Y-55441487D01*
X63260000Y-55412815D01*
X62968889Y-55441487D01*
X62688966Y-55526401D01*
X62430986Y-55664294D01*
X62204866Y-55849866D01*
X62019294Y-56075987D01*
X61990000Y-56130792D01*
X61960706Y-56075986D01*
X61775134Y-55849866D01*
X61549013Y-55664294D01*
X61291033Y-55526401D01*
X61011110Y-55441487D01*
X60720000Y-55412815D01*
X60428889Y-55441487D01*
X60148966Y-55526401D01*
X59890986Y-55664294D01*
X59664866Y-55849866D01*
X59479294Y-56075987D01*
X59450000Y-56130792D01*
X59420706Y-56075986D01*
X59235134Y-55849866D01*
X59009013Y-55664294D01*
X58751033Y-55526401D01*
X58471110Y-55441487D01*
X58180000Y-55412815D01*
X57888889Y-55441487D01*
X57608966Y-55526401D01*
X57350986Y-55664294D01*
X57124866Y-55849866D01*
X56939294Y-56075987D01*
X56910000Y-56130792D01*
X56880706Y-56075986D01*
X56695134Y-55849866D01*
X56469013Y-55664294D01*
X56211033Y-55526401D01*
X55931110Y-55441487D01*
X55640000Y-55412815D01*
X55348889Y-55441487D01*
X55068966Y-55526401D01*
X54810986Y-55664294D01*
X54584866Y-55849866D01*
X54399294Y-56075987D01*
X54370000Y-56130792D01*
X54340706Y-56075986D01*
X54155134Y-55849866D01*
X53929013Y-55664294D01*
X53671033Y-55526401D01*
X53391110Y-55441487D01*
X53100000Y-55412815D01*
X52808889Y-55441487D01*
X52528966Y-55526401D01*
X52270986Y-55664294D01*
X52044866Y-55849866D01*
X51859294Y-56075987D01*
X51830000Y-56130792D01*
X51800706Y-56075986D01*
X51615134Y-55849866D01*
X51389013Y-55664294D01*
X51131033Y-55526401D01*
X50851110Y-55441487D01*
X50560000Y-55412815D01*
X50268889Y-55441487D01*
X49988966Y-55526401D01*
X49730986Y-55664294D01*
X49504866Y-55849866D01*
X49319294Y-56075987D01*
X49290000Y-56130792D01*
X49260706Y-56075986D01*
X49075134Y-55849866D01*
X48849013Y-55664294D01*
X48591033Y-55526401D01*
X48311110Y-55441487D01*
X48020000Y-55412815D01*
X47728889Y-55441487D01*
X47448966Y-55526401D01*
X47190986Y-55664294D01*
X46964866Y-55849866D01*
X46779294Y-56075987D01*
X46641401Y-56333967D01*
X46568636Y-56573840D01*
X46401898Y-56504774D01*
X46201939Y-56465000D01*
X46011578Y-56465000D01*
X58775049Y-43701530D01*
X58808817Y-43673817D01*
X58919411Y-43539059D01*
X59001589Y-43385313D01*
X59052195Y-43218490D01*
X59065000Y-43088477D01*
X59065000Y-43088469D01*
X59069281Y-43045000D01*
X59065000Y-43001531D01*
X59065000Y-42889759D01*
X59235134Y-42750134D01*
X59420706Y-42524014D01*
X59450000Y-42469208D01*
X59479294Y-42524013D01*
X59664866Y-42750134D01*
X59890986Y-42935706D01*
X60148966Y-43073599D01*
X60428889Y-43158513D01*
X60720000Y-43187185D01*
X61011110Y-43158513D01*
X61291033Y-43073599D01*
X61549013Y-42935706D01*
X61775134Y-42750134D01*
X61960706Y-42524014D01*
X61990000Y-42469208D01*
X62019294Y-42524013D01*
X62204866Y-42750134D01*
X62430986Y-42935706D01*
X62688966Y-43073599D01*
X62968889Y-43158513D01*
X63260000Y-43187185D01*
X63551110Y-43158513D01*
X63831033Y-43073599D01*
X64089013Y-42935706D01*
X64315134Y-42750134D01*
X64500706Y-42524014D01*
X64530000Y-42469208D01*
X64559294Y-42524013D01*
X64744866Y-42750134D01*
X64970986Y-42935706D01*
X65228966Y-43073599D01*
X65508889Y-43158513D01*
X65800000Y-43187185D01*
X66091110Y-43158513D01*
X66371033Y-43073599D01*
X66629013Y-42935706D01*
X66855134Y-42750134D01*
X67040706Y-42524014D01*
X67070000Y-42469208D01*
X67099294Y-42524013D01*
X67284866Y-42750134D01*
X67510986Y-42935706D01*
X67768966Y-43073599D01*
X68048889Y-43158513D01*
X68340000Y-43187185D01*
X68631110Y-43158513D01*
X68911033Y-43073599D01*
X69169013Y-42935706D01*
X69395134Y-42750134D01*
X69580706Y-42524014D01*
X69610000Y-42469208D01*
X69639294Y-42524013D01*
X69824866Y-42750134D01*
X70050986Y-42935706D01*
X70308966Y-43073599D01*
X70588889Y-43158513D01*
X70880000Y-43187185D01*
X71171110Y-43158513D01*
X71451033Y-43073599D01*
X71709013Y-42935706D01*
X71935134Y-42750134D01*
X72120706Y-42524014D01*
X72150000Y-42469208D01*
X72179294Y-42524013D01*
X72364866Y-42750134D01*
X72590986Y-42935706D01*
X72848966Y-43073599D01*
X73128889Y-43158513D01*
X73420000Y-43187185D01*
X73711110Y-43158513D01*
X73991033Y-43073599D01*
X74249013Y-42935706D01*
X74475134Y-42750134D01*
X74660706Y-42524014D01*
X74690000Y-42469208D01*
X74719294Y-42524013D01*
X74904866Y-42750134D01*
X75130986Y-42935706D01*
X75388966Y-43073599D01*
X75668889Y-43158513D01*
X75960000Y-43187185D01*
X76251110Y-43158513D01*
X76531033Y-43073599D01*
X76789013Y-42935706D01*
X77015134Y-42750134D01*
X77200706Y-42524014D01*
X77230000Y-42469208D01*
X77259294Y-42524013D01*
X77444866Y-42750134D01*
X77670986Y-42935706D01*
X77928966Y-43073599D01*
X78208889Y-43158513D01*
X78500000Y-43187185D01*
X78791110Y-43158513D01*
X79071033Y-43073599D01*
X79329013Y-42935706D01*
X79555134Y-42750134D01*
X79740706Y-42524014D01*
X79770000Y-42469208D01*
X79799294Y-42524013D01*
X79984866Y-42750134D01*
X80210986Y-42935706D01*
X80468966Y-43073599D01*
X80748889Y-43158513D01*
X81040000Y-43187185D01*
X81331110Y-43158513D01*
X81611033Y-43073599D01*
X81869013Y-42935706D01*
X82095134Y-42750134D01*
X82280706Y-42524014D01*
X82310000Y-42469208D01*
X82339294Y-42524013D01*
X82524866Y-42750134D01*
X82750986Y-42935706D01*
X83008966Y-43073599D01*
X83288889Y-43158513D01*
X83580000Y-43187185D01*
X83871110Y-43158513D01*
X84151033Y-43073599D01*
X84409013Y-42935706D01*
X84635134Y-42750134D01*
X84820706Y-42524014D01*
X84958599Y-42266034D01*
X84965000Y-42244931D01*
X84965000Y-44444867D01*
M02*
