G04 #@! TF.GenerationSoftware,KiCad,Pcbnew,(5.1.5-0-10_14)*
G04 #@! TF.CreationDate,2020-08-07T19:06:49+02:00*
G04 #@! TF.ProjectId,roxie-lcd,726f7869-652d-46c6-9364-2e6b69636164,rev?*
G04 #@! TF.SameCoordinates,Original*
G04 #@! TF.FileFunction,Soldermask,Top*
G04 #@! TF.FilePolarity,Negative*
%FSLAX46Y46*%
G04 Gerber Fmt 4.6, Leading zero omitted, Abs format (unit mm)*
G04 Created by KiCad (PCBNEW (5.1.5-0-10_14)) date 2020-08-07 19:06:49*
%MOMM*%
%LPD*%
G04 APERTURE LIST*
%ADD10C,0.100000*%
G04 APERTURE END LIST*
D10*
G36*
X90275256Y-64191298D02*
G01*
X90381579Y-64212447D01*
X90682042Y-64336903D01*
X90952451Y-64517585D01*
X91182415Y-64747549D01*
X91363097Y-65017958D01*
X91487553Y-65318421D01*
X91551000Y-65637391D01*
X91551000Y-65962609D01*
X91487553Y-66281579D01*
X91363097Y-66582042D01*
X91182415Y-66852451D01*
X90952451Y-67082415D01*
X90682042Y-67263097D01*
X90381579Y-67387553D01*
X90275256Y-67408702D01*
X90062611Y-67451000D01*
X89737389Y-67451000D01*
X89524744Y-67408702D01*
X89418421Y-67387553D01*
X89117958Y-67263097D01*
X88847549Y-67082415D01*
X88617585Y-66852451D01*
X88436903Y-66582042D01*
X88312447Y-66281579D01*
X88249000Y-65962609D01*
X88249000Y-65637391D01*
X88312447Y-65318421D01*
X88436903Y-65017958D01*
X88617585Y-64747549D01*
X88847549Y-64517585D01*
X89117958Y-64336903D01*
X89418421Y-64212447D01*
X89524744Y-64191298D01*
X89737389Y-64149000D01*
X90062611Y-64149000D01*
X90275256Y-64191298D01*
G37*
G36*
X32975256Y-64191298D02*
G01*
X33081579Y-64212447D01*
X33382042Y-64336903D01*
X33652451Y-64517585D01*
X33882415Y-64747549D01*
X34063097Y-65017958D01*
X34187553Y-65318421D01*
X34251000Y-65637391D01*
X34251000Y-65962609D01*
X34187553Y-66281579D01*
X34063097Y-66582042D01*
X33882415Y-66852451D01*
X33652451Y-67082415D01*
X33382042Y-67263097D01*
X33081579Y-67387553D01*
X32975256Y-67408702D01*
X32762611Y-67451000D01*
X32437389Y-67451000D01*
X32224744Y-67408702D01*
X32118421Y-67387553D01*
X31817958Y-67263097D01*
X31547549Y-67082415D01*
X31317585Y-66852451D01*
X31136903Y-66582042D01*
X31012447Y-66281579D01*
X30949000Y-65962609D01*
X30949000Y-65637391D01*
X31012447Y-65318421D01*
X31136903Y-65017958D01*
X31317585Y-64747549D01*
X31547549Y-64517585D01*
X31817958Y-64336903D01*
X32118421Y-64212447D01*
X32224744Y-64191298D01*
X32437389Y-64149000D01*
X32762611Y-64149000D01*
X32975256Y-64191298D01*
G37*
G36*
X64653512Y-63103927D02*
G01*
X64802812Y-63133624D01*
X64966784Y-63201544D01*
X65114354Y-63300147D01*
X65239853Y-63425646D01*
X65338456Y-63573216D01*
X65406376Y-63737188D01*
X65441000Y-63911259D01*
X65441000Y-64088741D01*
X65406376Y-64262812D01*
X65338456Y-64426784D01*
X65239853Y-64574354D01*
X65114354Y-64699853D01*
X64966784Y-64798456D01*
X64802812Y-64866376D01*
X64653512Y-64896073D01*
X64628742Y-64901000D01*
X64451258Y-64901000D01*
X64426488Y-64896073D01*
X64277188Y-64866376D01*
X64113216Y-64798456D01*
X63965646Y-64699853D01*
X63840147Y-64574354D01*
X63741544Y-64426784D01*
X63673624Y-64262812D01*
X63639000Y-64088741D01*
X63639000Y-63911259D01*
X63673624Y-63737188D01*
X63741544Y-63573216D01*
X63840147Y-63425646D01*
X63965646Y-63300147D01*
X64113216Y-63201544D01*
X64277188Y-63133624D01*
X64426488Y-63103927D01*
X64451258Y-63099000D01*
X64628742Y-63099000D01*
X64653512Y-63103927D01*
G37*
G36*
X62901000Y-64901000D02*
G01*
X61099000Y-64901000D01*
X61099000Y-63099000D01*
X62901000Y-63099000D01*
X62901000Y-64901000D01*
G37*
G36*
X55653512Y-63103927D02*
G01*
X55802812Y-63133624D01*
X55966784Y-63201544D01*
X56114354Y-63300147D01*
X56239853Y-63425646D01*
X56338456Y-63573216D01*
X56406376Y-63737188D01*
X56441000Y-63911259D01*
X56441000Y-64088741D01*
X56406376Y-64262812D01*
X56338456Y-64426784D01*
X56239853Y-64574354D01*
X56114354Y-64699853D01*
X55966784Y-64798456D01*
X55802812Y-64866376D01*
X55653512Y-64896073D01*
X55628742Y-64901000D01*
X55451258Y-64901000D01*
X55426488Y-64896073D01*
X55277188Y-64866376D01*
X55113216Y-64798456D01*
X54965646Y-64699853D01*
X54840147Y-64574354D01*
X54741544Y-64426784D01*
X54673624Y-64262812D01*
X54639000Y-64088741D01*
X54639000Y-63911259D01*
X54673624Y-63737188D01*
X54741544Y-63573216D01*
X54840147Y-63425646D01*
X54965646Y-63300147D01*
X55113216Y-63201544D01*
X55277188Y-63133624D01*
X55426488Y-63103927D01*
X55451258Y-63099000D01*
X55628742Y-63099000D01*
X55653512Y-63103927D01*
G37*
G36*
X53901000Y-64901000D02*
G01*
X52099000Y-64901000D01*
X52099000Y-63099000D01*
X53901000Y-63099000D01*
X53901000Y-64901000D01*
G37*
G36*
X71901000Y-64901000D02*
G01*
X70099000Y-64901000D01*
X70099000Y-63099000D01*
X71901000Y-63099000D01*
X71901000Y-64901000D01*
G37*
G36*
X73653512Y-63103927D02*
G01*
X73802812Y-63133624D01*
X73966784Y-63201544D01*
X74114354Y-63300147D01*
X74239853Y-63425646D01*
X74338456Y-63573216D01*
X74406376Y-63737188D01*
X74441000Y-63911259D01*
X74441000Y-64088741D01*
X74406376Y-64262812D01*
X74338456Y-64426784D01*
X74239853Y-64574354D01*
X74114354Y-64699853D01*
X73966784Y-64798456D01*
X73802812Y-64866376D01*
X73653512Y-64896073D01*
X73628742Y-64901000D01*
X73451258Y-64901000D01*
X73426488Y-64896073D01*
X73277188Y-64866376D01*
X73113216Y-64798456D01*
X72965646Y-64699853D01*
X72840147Y-64574354D01*
X72741544Y-64426784D01*
X72673624Y-64262812D01*
X72639000Y-64088741D01*
X72639000Y-63911259D01*
X72673624Y-63737188D01*
X72741544Y-63573216D01*
X72840147Y-63425646D01*
X72965646Y-63300147D01*
X73113216Y-63201544D01*
X73277188Y-63133624D01*
X73426488Y-63103927D01*
X73451258Y-63099000D01*
X73628742Y-63099000D01*
X73653512Y-63103927D01*
G37*
G36*
X32613512Y-61003927D02*
G01*
X32762812Y-61033624D01*
X32926784Y-61101544D01*
X33074354Y-61200147D01*
X33199853Y-61325646D01*
X33298456Y-61473216D01*
X33366376Y-61637188D01*
X33401000Y-61811259D01*
X33401000Y-61988741D01*
X33366376Y-62162812D01*
X33298456Y-62326784D01*
X33199853Y-62474354D01*
X33074354Y-62599853D01*
X32926784Y-62698456D01*
X32762812Y-62766376D01*
X32613512Y-62796073D01*
X32588742Y-62801000D01*
X32411258Y-62801000D01*
X32386488Y-62796073D01*
X32237188Y-62766376D01*
X32073216Y-62698456D01*
X31925646Y-62599853D01*
X31800147Y-62474354D01*
X31701544Y-62326784D01*
X31633624Y-62162812D01*
X31599000Y-61988741D01*
X31599000Y-61811259D01*
X31633624Y-61637188D01*
X31701544Y-61473216D01*
X31800147Y-61325646D01*
X31925646Y-61200147D01*
X32073216Y-61101544D01*
X32237188Y-61033624D01*
X32386488Y-61003927D01*
X32411258Y-60999000D01*
X32588742Y-60999000D01*
X32613512Y-61003927D01*
G37*
G36*
X32613512Y-58463927D02*
G01*
X32762812Y-58493624D01*
X32926784Y-58561544D01*
X33074354Y-58660147D01*
X33199853Y-58785646D01*
X33298456Y-58933216D01*
X33366376Y-59097188D01*
X33401000Y-59271259D01*
X33401000Y-59448741D01*
X33366376Y-59622812D01*
X33298456Y-59786784D01*
X33199853Y-59934354D01*
X33074354Y-60059853D01*
X32926784Y-60158456D01*
X32762812Y-60226376D01*
X32613512Y-60256073D01*
X32588742Y-60261000D01*
X32411258Y-60261000D01*
X32386488Y-60256073D01*
X32237188Y-60226376D01*
X32073216Y-60158456D01*
X31925646Y-60059853D01*
X31800147Y-59934354D01*
X31701544Y-59786784D01*
X31633624Y-59622812D01*
X31599000Y-59448741D01*
X31599000Y-59271259D01*
X31633624Y-59097188D01*
X31701544Y-58933216D01*
X31800147Y-58785646D01*
X31925646Y-58660147D01*
X32073216Y-58561544D01*
X32237188Y-58493624D01*
X32386488Y-58463927D01*
X32411258Y-58459000D01*
X32588742Y-58459000D01*
X32613512Y-58463927D01*
G37*
G36*
X73596626Y-56017037D02*
G01*
X73766465Y-56068557D01*
X73766467Y-56068558D01*
X73922989Y-56152221D01*
X74060186Y-56264814D01*
X74143448Y-56366271D01*
X74172778Y-56402009D01*
X74256443Y-56558534D01*
X74307963Y-56728373D01*
X74321000Y-56860742D01*
X74321000Y-58249258D01*
X74307963Y-58381627D01*
X74256443Y-58551466D01*
X74172778Y-58707991D01*
X74143448Y-58743729D01*
X74060186Y-58845186D01*
X73958729Y-58928448D01*
X73922991Y-58957778D01*
X73766466Y-59041443D01*
X73596627Y-59092963D01*
X73420000Y-59110359D01*
X73243374Y-59092963D01*
X73073535Y-59041443D01*
X72917010Y-58957778D01*
X72881272Y-58928448D01*
X72779815Y-58845186D01*
X72696553Y-58743729D01*
X72667223Y-58707991D01*
X72583558Y-58551466D01*
X72532038Y-58381627D01*
X72519001Y-58249258D01*
X72519000Y-56860743D01*
X72532037Y-56728374D01*
X72583557Y-56558535D01*
X72667222Y-56402010D01*
X72674439Y-56393216D01*
X72779814Y-56264814D01*
X72881271Y-56181552D01*
X72917009Y-56152222D01*
X73073534Y-56068557D01*
X73243373Y-56017037D01*
X73420000Y-55999641D01*
X73596626Y-56017037D01*
G37*
G36*
X76136626Y-56017037D02*
G01*
X76306465Y-56068557D01*
X76306467Y-56068558D01*
X76462989Y-56152221D01*
X76600186Y-56264814D01*
X76683448Y-56366271D01*
X76712778Y-56402009D01*
X76796443Y-56558534D01*
X76847963Y-56728373D01*
X76861000Y-56860742D01*
X76861000Y-58249258D01*
X76847963Y-58381627D01*
X76796443Y-58551466D01*
X76712778Y-58707991D01*
X76683448Y-58743729D01*
X76600186Y-58845186D01*
X76498729Y-58928448D01*
X76462991Y-58957778D01*
X76306466Y-59041443D01*
X76136627Y-59092963D01*
X75960000Y-59110359D01*
X75783374Y-59092963D01*
X75613535Y-59041443D01*
X75457010Y-58957778D01*
X75421272Y-58928448D01*
X75319815Y-58845186D01*
X75236553Y-58743729D01*
X75207223Y-58707991D01*
X75123558Y-58551466D01*
X75072038Y-58381627D01*
X75059001Y-58249258D01*
X75059000Y-56860743D01*
X75072037Y-56728374D01*
X75123557Y-56558535D01*
X75207222Y-56402010D01*
X75214439Y-56393216D01*
X75319814Y-56264814D01*
X75421271Y-56181552D01*
X75457009Y-56152222D01*
X75613534Y-56068557D01*
X75783373Y-56017037D01*
X75960000Y-55999641D01*
X76136626Y-56017037D01*
G37*
G36*
X78676626Y-56017037D02*
G01*
X78846465Y-56068557D01*
X78846467Y-56068558D01*
X79002989Y-56152221D01*
X79140186Y-56264814D01*
X79223448Y-56366271D01*
X79252778Y-56402009D01*
X79336443Y-56558534D01*
X79387963Y-56728373D01*
X79401000Y-56860742D01*
X79401000Y-58249258D01*
X79387963Y-58381627D01*
X79336443Y-58551466D01*
X79252778Y-58707991D01*
X79223448Y-58743729D01*
X79140186Y-58845186D01*
X79038729Y-58928448D01*
X79002991Y-58957778D01*
X78846466Y-59041443D01*
X78676627Y-59092963D01*
X78500000Y-59110359D01*
X78323374Y-59092963D01*
X78153535Y-59041443D01*
X77997010Y-58957778D01*
X77961272Y-58928448D01*
X77859815Y-58845186D01*
X77776553Y-58743729D01*
X77747223Y-58707991D01*
X77663558Y-58551466D01*
X77612038Y-58381627D01*
X77599001Y-58249258D01*
X77599000Y-56860743D01*
X77612037Y-56728374D01*
X77663557Y-56558535D01*
X77747222Y-56402010D01*
X77754439Y-56393216D01*
X77859814Y-56264814D01*
X77961271Y-56181552D01*
X77997009Y-56152222D01*
X78153534Y-56068557D01*
X78323373Y-56017037D01*
X78500000Y-55999641D01*
X78676626Y-56017037D01*
G37*
G36*
X81216626Y-56017037D02*
G01*
X81386465Y-56068557D01*
X81386467Y-56068558D01*
X81542989Y-56152221D01*
X81680186Y-56264814D01*
X81763448Y-56366271D01*
X81792778Y-56402009D01*
X81876443Y-56558534D01*
X81927963Y-56728373D01*
X81941000Y-56860742D01*
X81941000Y-58249258D01*
X81927963Y-58381627D01*
X81876443Y-58551466D01*
X81792778Y-58707991D01*
X81763448Y-58743729D01*
X81680186Y-58845186D01*
X81578729Y-58928448D01*
X81542991Y-58957778D01*
X81386466Y-59041443D01*
X81216627Y-59092963D01*
X81040000Y-59110359D01*
X80863374Y-59092963D01*
X80693535Y-59041443D01*
X80537010Y-58957778D01*
X80501272Y-58928448D01*
X80399815Y-58845186D01*
X80316553Y-58743729D01*
X80287223Y-58707991D01*
X80203558Y-58551466D01*
X80152038Y-58381627D01*
X80139001Y-58249258D01*
X80139000Y-56860743D01*
X80152037Y-56728374D01*
X80203557Y-56558535D01*
X80287222Y-56402010D01*
X80294439Y-56393216D01*
X80399814Y-56264814D01*
X80501271Y-56181552D01*
X80537009Y-56152222D01*
X80693534Y-56068557D01*
X80863373Y-56017037D01*
X81040000Y-55999641D01*
X81216626Y-56017037D01*
G37*
G36*
X83756626Y-56017037D02*
G01*
X83926465Y-56068557D01*
X83926467Y-56068558D01*
X84082989Y-56152221D01*
X84220186Y-56264814D01*
X84303448Y-56366271D01*
X84332778Y-56402009D01*
X84416443Y-56558534D01*
X84467963Y-56728373D01*
X84481000Y-56860742D01*
X84481000Y-58249258D01*
X84467963Y-58381627D01*
X84416443Y-58551466D01*
X84332778Y-58707991D01*
X84303448Y-58743729D01*
X84220186Y-58845186D01*
X84118729Y-58928448D01*
X84082991Y-58957778D01*
X83926466Y-59041443D01*
X83756627Y-59092963D01*
X83580000Y-59110359D01*
X83403374Y-59092963D01*
X83233535Y-59041443D01*
X83077010Y-58957778D01*
X83041272Y-58928448D01*
X82939815Y-58845186D01*
X82856553Y-58743729D01*
X82827223Y-58707991D01*
X82743558Y-58551466D01*
X82692038Y-58381627D01*
X82679001Y-58249258D01*
X82679000Y-56860743D01*
X82692037Y-56728374D01*
X82743557Y-56558535D01*
X82827222Y-56402010D01*
X82834439Y-56393216D01*
X82939814Y-56264814D01*
X83041271Y-56181552D01*
X83077009Y-56152222D01*
X83233534Y-56068557D01*
X83403373Y-56017037D01*
X83580000Y-55999641D01*
X83756626Y-56017037D01*
G37*
G36*
X53276626Y-56017037D02*
G01*
X53446465Y-56068557D01*
X53446467Y-56068558D01*
X53602989Y-56152221D01*
X53740186Y-56264814D01*
X53823448Y-56366271D01*
X53852778Y-56402009D01*
X53936443Y-56558534D01*
X53987963Y-56728373D01*
X54001000Y-56860742D01*
X54001000Y-58249258D01*
X53987963Y-58381627D01*
X53936443Y-58551466D01*
X53852778Y-58707991D01*
X53823448Y-58743729D01*
X53740186Y-58845186D01*
X53638729Y-58928448D01*
X53602991Y-58957778D01*
X53446466Y-59041443D01*
X53276627Y-59092963D01*
X53100000Y-59110359D01*
X52923374Y-59092963D01*
X52753535Y-59041443D01*
X52597010Y-58957778D01*
X52561272Y-58928448D01*
X52459815Y-58845186D01*
X52376553Y-58743729D01*
X52347223Y-58707991D01*
X52263558Y-58551466D01*
X52212038Y-58381627D01*
X52199001Y-58249258D01*
X52199000Y-56860743D01*
X52212037Y-56728374D01*
X52263557Y-56558535D01*
X52347222Y-56402010D01*
X52354439Y-56393216D01*
X52459814Y-56264814D01*
X52561271Y-56181552D01*
X52597009Y-56152222D01*
X52753534Y-56068557D01*
X52923373Y-56017037D01*
X53100000Y-55999641D01*
X53276626Y-56017037D01*
G37*
G36*
X58356626Y-56017037D02*
G01*
X58526465Y-56068557D01*
X58526467Y-56068558D01*
X58682989Y-56152221D01*
X58820186Y-56264814D01*
X58903448Y-56366271D01*
X58932778Y-56402009D01*
X59016443Y-56558534D01*
X59067963Y-56728373D01*
X59081000Y-56860742D01*
X59081000Y-58249258D01*
X59067963Y-58381627D01*
X59016443Y-58551466D01*
X58932778Y-58707991D01*
X58903448Y-58743729D01*
X58820186Y-58845186D01*
X58718729Y-58928448D01*
X58682991Y-58957778D01*
X58526466Y-59041443D01*
X58356627Y-59092963D01*
X58180000Y-59110359D01*
X58003374Y-59092963D01*
X57833535Y-59041443D01*
X57677010Y-58957778D01*
X57641272Y-58928448D01*
X57539815Y-58845186D01*
X57456553Y-58743729D01*
X57427223Y-58707991D01*
X57343558Y-58551466D01*
X57292038Y-58381627D01*
X57279001Y-58249258D01*
X57279000Y-56860743D01*
X57292037Y-56728374D01*
X57343557Y-56558535D01*
X57427222Y-56402010D01*
X57434439Y-56393216D01*
X57539814Y-56264814D01*
X57641271Y-56181552D01*
X57677009Y-56152222D01*
X57833534Y-56068557D01*
X58003373Y-56017037D01*
X58180000Y-55999641D01*
X58356626Y-56017037D01*
G37*
G36*
X48196626Y-56017037D02*
G01*
X48366465Y-56068557D01*
X48366467Y-56068558D01*
X48522989Y-56152221D01*
X48660186Y-56264814D01*
X48743448Y-56366271D01*
X48772778Y-56402009D01*
X48856443Y-56558534D01*
X48907963Y-56728373D01*
X48921000Y-56860742D01*
X48921000Y-58249258D01*
X48907963Y-58381627D01*
X48856443Y-58551466D01*
X48772778Y-58707991D01*
X48743448Y-58743729D01*
X48660186Y-58845186D01*
X48558729Y-58928448D01*
X48522991Y-58957778D01*
X48366466Y-59041443D01*
X48196627Y-59092963D01*
X48020000Y-59110359D01*
X47843374Y-59092963D01*
X47673535Y-59041443D01*
X47517010Y-58957778D01*
X47481272Y-58928448D01*
X47379815Y-58845186D01*
X47296553Y-58743729D01*
X47267223Y-58707991D01*
X47183558Y-58551466D01*
X47132038Y-58381627D01*
X47119001Y-58249258D01*
X47119000Y-56860743D01*
X47132037Y-56728374D01*
X47183557Y-56558535D01*
X47267222Y-56402010D01*
X47274439Y-56393216D01*
X47379814Y-56264814D01*
X47481271Y-56181552D01*
X47517009Y-56152222D01*
X47673534Y-56068557D01*
X47843373Y-56017037D01*
X48020000Y-55999641D01*
X48196626Y-56017037D01*
G37*
G36*
X55816626Y-56017037D02*
G01*
X55986465Y-56068557D01*
X55986467Y-56068558D01*
X56142989Y-56152221D01*
X56280186Y-56264814D01*
X56363448Y-56366271D01*
X56392778Y-56402009D01*
X56476443Y-56558534D01*
X56527963Y-56728373D01*
X56541000Y-56860742D01*
X56541000Y-58249258D01*
X56527963Y-58381627D01*
X56476443Y-58551466D01*
X56392778Y-58707991D01*
X56363448Y-58743729D01*
X56280186Y-58845186D01*
X56178729Y-58928448D01*
X56142991Y-58957778D01*
X55986466Y-59041443D01*
X55816627Y-59092963D01*
X55640000Y-59110359D01*
X55463374Y-59092963D01*
X55293535Y-59041443D01*
X55137010Y-58957778D01*
X55101272Y-58928448D01*
X54999815Y-58845186D01*
X54916553Y-58743729D01*
X54887223Y-58707991D01*
X54803558Y-58551466D01*
X54752038Y-58381627D01*
X54739001Y-58249258D01*
X54739000Y-56860743D01*
X54752037Y-56728374D01*
X54803557Y-56558535D01*
X54887222Y-56402010D01*
X54894439Y-56393216D01*
X54999814Y-56264814D01*
X55101271Y-56181552D01*
X55137009Y-56152222D01*
X55293534Y-56068557D01*
X55463373Y-56017037D01*
X55640000Y-55999641D01*
X55816626Y-56017037D01*
G37*
G36*
X71056626Y-56017037D02*
G01*
X71226465Y-56068557D01*
X71226467Y-56068558D01*
X71382989Y-56152221D01*
X71520186Y-56264814D01*
X71603448Y-56366271D01*
X71632778Y-56402009D01*
X71716443Y-56558534D01*
X71767963Y-56728373D01*
X71781000Y-56860742D01*
X71781000Y-58249258D01*
X71767963Y-58381627D01*
X71716443Y-58551466D01*
X71632778Y-58707991D01*
X71603448Y-58743729D01*
X71520186Y-58845186D01*
X71418729Y-58928448D01*
X71382991Y-58957778D01*
X71226466Y-59041443D01*
X71056627Y-59092963D01*
X70880000Y-59110359D01*
X70703374Y-59092963D01*
X70533535Y-59041443D01*
X70377010Y-58957778D01*
X70341272Y-58928448D01*
X70239815Y-58845186D01*
X70156553Y-58743729D01*
X70127223Y-58707991D01*
X70043558Y-58551466D01*
X69992038Y-58381627D01*
X69979001Y-58249258D01*
X69979000Y-56860743D01*
X69992037Y-56728374D01*
X70043557Y-56558535D01*
X70127222Y-56402010D01*
X70134439Y-56393216D01*
X70239814Y-56264814D01*
X70341271Y-56181552D01*
X70377009Y-56152222D01*
X70533534Y-56068557D01*
X70703373Y-56017037D01*
X70880000Y-55999641D01*
X71056626Y-56017037D01*
G37*
G36*
X68516626Y-56017037D02*
G01*
X68686465Y-56068557D01*
X68686467Y-56068558D01*
X68842989Y-56152221D01*
X68980186Y-56264814D01*
X69063448Y-56366271D01*
X69092778Y-56402009D01*
X69176443Y-56558534D01*
X69227963Y-56728373D01*
X69241000Y-56860742D01*
X69241000Y-58249258D01*
X69227963Y-58381627D01*
X69176443Y-58551466D01*
X69092778Y-58707991D01*
X69063448Y-58743729D01*
X68980186Y-58845186D01*
X68878729Y-58928448D01*
X68842991Y-58957778D01*
X68686466Y-59041443D01*
X68516627Y-59092963D01*
X68340000Y-59110359D01*
X68163374Y-59092963D01*
X67993535Y-59041443D01*
X67837010Y-58957778D01*
X67801272Y-58928448D01*
X67699815Y-58845186D01*
X67616553Y-58743729D01*
X67587223Y-58707991D01*
X67503558Y-58551466D01*
X67452038Y-58381627D01*
X67439001Y-58249258D01*
X67439000Y-56860743D01*
X67452037Y-56728374D01*
X67503557Y-56558535D01*
X67587222Y-56402010D01*
X67594439Y-56393216D01*
X67699814Y-56264814D01*
X67801271Y-56181552D01*
X67837009Y-56152222D01*
X67993534Y-56068557D01*
X68163373Y-56017037D01*
X68340000Y-55999641D01*
X68516626Y-56017037D01*
G37*
G36*
X63436626Y-56017037D02*
G01*
X63606465Y-56068557D01*
X63606467Y-56068558D01*
X63762989Y-56152221D01*
X63900186Y-56264814D01*
X63983448Y-56366271D01*
X64012778Y-56402009D01*
X64096443Y-56558534D01*
X64147963Y-56728373D01*
X64161000Y-56860742D01*
X64161000Y-58249258D01*
X64147963Y-58381627D01*
X64096443Y-58551466D01*
X64012778Y-58707991D01*
X63983448Y-58743729D01*
X63900186Y-58845186D01*
X63798729Y-58928448D01*
X63762991Y-58957778D01*
X63606466Y-59041443D01*
X63436627Y-59092963D01*
X63260000Y-59110359D01*
X63083374Y-59092963D01*
X62913535Y-59041443D01*
X62757010Y-58957778D01*
X62721272Y-58928448D01*
X62619815Y-58845186D01*
X62536553Y-58743729D01*
X62507223Y-58707991D01*
X62423558Y-58551466D01*
X62372038Y-58381627D01*
X62359001Y-58249258D01*
X62359000Y-56860743D01*
X62372037Y-56728374D01*
X62423557Y-56558535D01*
X62507222Y-56402010D01*
X62514439Y-56393216D01*
X62619814Y-56264814D01*
X62721271Y-56181552D01*
X62757009Y-56152222D01*
X62913534Y-56068557D01*
X63083373Y-56017037D01*
X63260000Y-55999641D01*
X63436626Y-56017037D01*
G37*
G36*
X60896626Y-56017037D02*
G01*
X61066465Y-56068557D01*
X61066467Y-56068558D01*
X61222989Y-56152221D01*
X61360186Y-56264814D01*
X61443448Y-56366271D01*
X61472778Y-56402009D01*
X61556443Y-56558534D01*
X61607963Y-56728373D01*
X61621000Y-56860742D01*
X61621000Y-58249258D01*
X61607963Y-58381627D01*
X61556443Y-58551466D01*
X61472778Y-58707991D01*
X61443448Y-58743729D01*
X61360186Y-58845186D01*
X61258729Y-58928448D01*
X61222991Y-58957778D01*
X61066466Y-59041443D01*
X60896627Y-59092963D01*
X60720000Y-59110359D01*
X60543374Y-59092963D01*
X60373535Y-59041443D01*
X60217010Y-58957778D01*
X60181272Y-58928448D01*
X60079815Y-58845186D01*
X59996553Y-58743729D01*
X59967223Y-58707991D01*
X59883558Y-58551466D01*
X59832038Y-58381627D01*
X59819001Y-58249258D01*
X59819000Y-56860743D01*
X59832037Y-56728374D01*
X59883557Y-56558535D01*
X59967222Y-56402010D01*
X59974439Y-56393216D01*
X60079814Y-56264814D01*
X60181271Y-56181552D01*
X60217009Y-56152222D01*
X60373534Y-56068557D01*
X60543373Y-56017037D01*
X60720000Y-55999641D01*
X60896626Y-56017037D01*
G37*
G36*
X65976626Y-56017037D02*
G01*
X66146465Y-56068557D01*
X66146467Y-56068558D01*
X66302989Y-56152221D01*
X66440186Y-56264814D01*
X66523448Y-56366271D01*
X66552778Y-56402009D01*
X66636443Y-56558534D01*
X66687963Y-56728373D01*
X66701000Y-56860742D01*
X66701000Y-58249258D01*
X66687963Y-58381627D01*
X66636443Y-58551466D01*
X66552778Y-58707991D01*
X66523448Y-58743729D01*
X66440186Y-58845186D01*
X66338729Y-58928448D01*
X66302991Y-58957778D01*
X66146466Y-59041443D01*
X65976627Y-59092963D01*
X65800000Y-59110359D01*
X65623374Y-59092963D01*
X65453535Y-59041443D01*
X65297010Y-58957778D01*
X65261272Y-58928448D01*
X65159815Y-58845186D01*
X65076553Y-58743729D01*
X65047223Y-58707991D01*
X64963558Y-58551466D01*
X64912038Y-58381627D01*
X64899001Y-58249258D01*
X64899000Y-56860743D01*
X64912037Y-56728374D01*
X64963557Y-56558535D01*
X65047222Y-56402010D01*
X65054439Y-56393216D01*
X65159814Y-56264814D01*
X65261271Y-56181552D01*
X65297009Y-56152222D01*
X65453534Y-56068557D01*
X65623373Y-56017037D01*
X65800000Y-55999641D01*
X65976626Y-56017037D01*
G37*
G36*
X50736626Y-56017037D02*
G01*
X50906465Y-56068557D01*
X50906467Y-56068558D01*
X51062989Y-56152221D01*
X51200186Y-56264814D01*
X51283448Y-56366271D01*
X51312778Y-56402009D01*
X51396443Y-56558534D01*
X51447963Y-56728373D01*
X51461000Y-56860742D01*
X51461000Y-58249258D01*
X51447963Y-58381627D01*
X51396443Y-58551466D01*
X51312778Y-58707991D01*
X51283448Y-58743729D01*
X51200186Y-58845186D01*
X51098729Y-58928448D01*
X51062991Y-58957778D01*
X50906466Y-59041443D01*
X50736627Y-59092963D01*
X50560000Y-59110359D01*
X50383374Y-59092963D01*
X50213535Y-59041443D01*
X50057010Y-58957778D01*
X50021272Y-58928448D01*
X49919815Y-58845186D01*
X49836553Y-58743729D01*
X49807223Y-58707991D01*
X49723558Y-58551466D01*
X49672038Y-58381627D01*
X49659001Y-58249258D01*
X49659000Y-56860743D01*
X49672037Y-56728374D01*
X49723557Y-56558535D01*
X49807222Y-56402010D01*
X49814439Y-56393216D01*
X49919814Y-56264814D01*
X50021271Y-56181552D01*
X50057009Y-56152222D01*
X50213534Y-56068557D01*
X50383373Y-56017037D01*
X50560000Y-55999641D01*
X50736626Y-56017037D01*
G37*
G36*
X32613512Y-55923927D02*
G01*
X32762812Y-55953624D01*
X32926784Y-56021544D01*
X33074354Y-56120147D01*
X33199853Y-56245646D01*
X33298456Y-56393216D01*
X33366376Y-56557188D01*
X33396073Y-56706488D01*
X33400427Y-56728375D01*
X33401000Y-56731259D01*
X33401000Y-56908741D01*
X33366376Y-57082812D01*
X33298456Y-57246784D01*
X33199853Y-57394354D01*
X33074354Y-57519853D01*
X32926784Y-57618456D01*
X32762812Y-57686376D01*
X32613512Y-57716073D01*
X32588742Y-57721000D01*
X32411258Y-57721000D01*
X32386488Y-57716073D01*
X32237188Y-57686376D01*
X32073216Y-57618456D01*
X31925646Y-57519853D01*
X31800147Y-57394354D01*
X31701544Y-57246784D01*
X31633624Y-57082812D01*
X31599000Y-56908741D01*
X31599000Y-56731259D01*
X31599574Y-56728375D01*
X31603927Y-56706488D01*
X31633624Y-56557188D01*
X31701544Y-56393216D01*
X31800147Y-56245646D01*
X31925646Y-56120147D01*
X32073216Y-56021544D01*
X32237188Y-55953624D01*
X32386488Y-55923927D01*
X32411258Y-55919000D01*
X32588742Y-55919000D01*
X32613512Y-55923927D01*
G37*
G36*
X32613512Y-53383927D02*
G01*
X32762812Y-53413624D01*
X32926784Y-53481544D01*
X33074354Y-53580147D01*
X33199853Y-53705646D01*
X33298456Y-53853216D01*
X33366376Y-54017188D01*
X33401000Y-54191259D01*
X33401000Y-54368741D01*
X33366376Y-54542812D01*
X33298456Y-54706784D01*
X33199853Y-54854354D01*
X33074354Y-54979853D01*
X32926784Y-55078456D01*
X32762812Y-55146376D01*
X32613512Y-55176073D01*
X32588742Y-55181000D01*
X32411258Y-55181000D01*
X32386488Y-55176073D01*
X32237188Y-55146376D01*
X32073216Y-55078456D01*
X31925646Y-54979853D01*
X31800147Y-54854354D01*
X31701544Y-54706784D01*
X31633624Y-54542812D01*
X31599000Y-54368741D01*
X31599000Y-54191259D01*
X31633624Y-54017188D01*
X31701544Y-53853216D01*
X31800147Y-53705646D01*
X31925646Y-53580147D01*
X32073216Y-53481544D01*
X32237188Y-53413624D01*
X32386488Y-53383927D01*
X32411258Y-53379000D01*
X32588742Y-53379000D01*
X32613512Y-53383927D01*
G37*
G36*
X90901000Y-53901000D02*
G01*
X89099000Y-53901000D01*
X89099000Y-52099000D01*
X90901000Y-52099000D01*
X90901000Y-53901000D01*
G37*
G36*
X32613512Y-50843927D02*
G01*
X32762812Y-50873624D01*
X32926784Y-50941544D01*
X33074354Y-51040147D01*
X33199853Y-51165646D01*
X33298456Y-51313216D01*
X33366376Y-51477188D01*
X33401000Y-51651259D01*
X33401000Y-51828741D01*
X33366376Y-52002812D01*
X33298456Y-52166784D01*
X33199853Y-52314354D01*
X33074354Y-52439853D01*
X32926784Y-52538456D01*
X32762812Y-52606376D01*
X32613512Y-52636073D01*
X32588742Y-52641000D01*
X32411258Y-52641000D01*
X32386488Y-52636073D01*
X32237188Y-52606376D01*
X32073216Y-52538456D01*
X31925646Y-52439853D01*
X31800147Y-52314354D01*
X31701544Y-52166784D01*
X31633624Y-52002812D01*
X31599000Y-51828741D01*
X31599000Y-51651259D01*
X31633624Y-51477188D01*
X31701544Y-51313216D01*
X31800147Y-51165646D01*
X31925646Y-51040147D01*
X32073216Y-50941544D01*
X32237188Y-50873624D01*
X32386488Y-50843927D01*
X32411258Y-50839000D01*
X32588742Y-50839000D01*
X32613512Y-50843927D01*
G37*
G36*
X90113512Y-49563927D02*
G01*
X90262812Y-49593624D01*
X90426784Y-49661544D01*
X90574354Y-49760147D01*
X90699853Y-49885646D01*
X90798456Y-50033216D01*
X90866376Y-50197188D01*
X90901000Y-50371259D01*
X90901000Y-50548741D01*
X90866376Y-50722812D01*
X90798456Y-50886784D01*
X90699853Y-51034354D01*
X90574354Y-51159853D01*
X90426784Y-51258456D01*
X90262812Y-51326376D01*
X90113512Y-51356073D01*
X90088742Y-51361000D01*
X89911258Y-51361000D01*
X89886488Y-51356073D01*
X89737188Y-51326376D01*
X89573216Y-51258456D01*
X89425646Y-51159853D01*
X89300147Y-51034354D01*
X89201544Y-50886784D01*
X89133624Y-50722812D01*
X89099000Y-50548741D01*
X89099000Y-50371259D01*
X89133624Y-50197188D01*
X89201544Y-50033216D01*
X89300147Y-49885646D01*
X89425646Y-49760147D01*
X89573216Y-49661544D01*
X89737188Y-49593624D01*
X89886488Y-49563927D01*
X89911258Y-49559000D01*
X90088742Y-49559000D01*
X90113512Y-49563927D01*
G37*
G36*
X32613512Y-48303927D02*
G01*
X32762812Y-48333624D01*
X32926784Y-48401544D01*
X33074354Y-48500147D01*
X33199853Y-48625646D01*
X33298456Y-48773216D01*
X33366376Y-48937188D01*
X33401000Y-49111259D01*
X33401000Y-49288741D01*
X33366376Y-49462812D01*
X33298456Y-49626784D01*
X33199853Y-49774354D01*
X33074354Y-49899853D01*
X32926784Y-49998456D01*
X32762812Y-50066376D01*
X32613512Y-50096073D01*
X32588742Y-50101000D01*
X32411258Y-50101000D01*
X32386488Y-50096073D01*
X32237188Y-50066376D01*
X32073216Y-49998456D01*
X31925646Y-49899853D01*
X31800147Y-49774354D01*
X31701544Y-49626784D01*
X31633624Y-49462812D01*
X31599000Y-49288741D01*
X31599000Y-49111259D01*
X31633624Y-48937188D01*
X31701544Y-48773216D01*
X31800147Y-48625646D01*
X31925646Y-48500147D01*
X32073216Y-48401544D01*
X32237188Y-48333624D01*
X32386488Y-48303927D01*
X32411258Y-48299000D01*
X32588742Y-48299000D01*
X32613512Y-48303927D01*
G37*
G36*
X90113512Y-47023927D02*
G01*
X90262812Y-47053624D01*
X90426784Y-47121544D01*
X90574354Y-47220147D01*
X90699853Y-47345646D01*
X90798456Y-47493216D01*
X90866376Y-47657188D01*
X90901000Y-47831259D01*
X90901000Y-48008741D01*
X90866376Y-48182812D01*
X90798456Y-48346784D01*
X90699853Y-48494354D01*
X90574354Y-48619853D01*
X90426784Y-48718456D01*
X90262812Y-48786376D01*
X90113512Y-48816073D01*
X90088742Y-48821000D01*
X89911258Y-48821000D01*
X89886488Y-48816073D01*
X89737188Y-48786376D01*
X89573216Y-48718456D01*
X89425646Y-48619853D01*
X89300147Y-48494354D01*
X89201544Y-48346784D01*
X89133624Y-48182812D01*
X89099000Y-48008741D01*
X89099000Y-47831259D01*
X89133624Y-47657188D01*
X89201544Y-47493216D01*
X89300147Y-47345646D01*
X89425646Y-47220147D01*
X89573216Y-47121544D01*
X89737188Y-47053624D01*
X89886488Y-47023927D01*
X89911258Y-47019000D01*
X90088742Y-47019000D01*
X90113512Y-47023927D01*
G37*
G36*
X32613512Y-45763927D02*
G01*
X32762812Y-45793624D01*
X32926784Y-45861544D01*
X33074354Y-45960147D01*
X33199853Y-46085646D01*
X33298456Y-46233216D01*
X33366376Y-46397188D01*
X33401000Y-46571259D01*
X33401000Y-46748741D01*
X33366376Y-46922812D01*
X33298456Y-47086784D01*
X33199853Y-47234354D01*
X33074354Y-47359853D01*
X32926784Y-47458456D01*
X32762812Y-47526376D01*
X32613512Y-47556073D01*
X32588742Y-47561000D01*
X32411258Y-47561000D01*
X32386488Y-47556073D01*
X32237188Y-47526376D01*
X32073216Y-47458456D01*
X31925646Y-47359853D01*
X31800147Y-47234354D01*
X31701544Y-47086784D01*
X31633624Y-46922812D01*
X31599000Y-46748741D01*
X31599000Y-46571259D01*
X31633624Y-46397188D01*
X31701544Y-46233216D01*
X31800147Y-46085646D01*
X31925646Y-45960147D01*
X32073216Y-45861544D01*
X32237188Y-45793624D01*
X32386488Y-45763927D01*
X32411258Y-45759000D01*
X32588742Y-45759000D01*
X32613512Y-45763927D01*
G37*
G36*
X90113512Y-44483927D02*
G01*
X90262812Y-44513624D01*
X90426784Y-44581544D01*
X90574354Y-44680147D01*
X90699853Y-44805646D01*
X90798456Y-44953216D01*
X90866376Y-45117188D01*
X90901000Y-45291259D01*
X90901000Y-45468741D01*
X90866376Y-45642812D01*
X90798456Y-45806784D01*
X90699853Y-45954354D01*
X90574354Y-46079853D01*
X90426784Y-46178456D01*
X90262812Y-46246376D01*
X90113512Y-46276073D01*
X90088742Y-46281000D01*
X89911258Y-46281000D01*
X89886488Y-46276073D01*
X89737188Y-46246376D01*
X89573216Y-46178456D01*
X89425646Y-46079853D01*
X89300147Y-45954354D01*
X89201544Y-45806784D01*
X89133624Y-45642812D01*
X89099000Y-45468741D01*
X89099000Y-45291259D01*
X89133624Y-45117188D01*
X89201544Y-44953216D01*
X89300147Y-44805646D01*
X89425646Y-44680147D01*
X89573216Y-44581544D01*
X89737188Y-44513624D01*
X89886488Y-44483927D01*
X89911258Y-44479000D01*
X90088742Y-44479000D01*
X90113512Y-44483927D01*
G37*
G36*
X32613512Y-43223927D02*
G01*
X32762812Y-43253624D01*
X32926784Y-43321544D01*
X33074354Y-43420147D01*
X33199853Y-43545646D01*
X33298456Y-43693216D01*
X33366376Y-43857188D01*
X33401000Y-44031259D01*
X33401000Y-44208741D01*
X33366376Y-44382812D01*
X33298456Y-44546784D01*
X33199853Y-44694354D01*
X33074354Y-44819853D01*
X32926784Y-44918456D01*
X32762812Y-44986376D01*
X32613512Y-45016073D01*
X32588742Y-45021000D01*
X32411258Y-45021000D01*
X32386488Y-45016073D01*
X32237188Y-44986376D01*
X32073216Y-44918456D01*
X31925646Y-44819853D01*
X31800147Y-44694354D01*
X31701544Y-44546784D01*
X31633624Y-44382812D01*
X31599000Y-44208741D01*
X31599000Y-44031259D01*
X31633624Y-43857188D01*
X31701544Y-43693216D01*
X31800147Y-43545646D01*
X31925646Y-43420147D01*
X32073216Y-43321544D01*
X32237188Y-43253624D01*
X32386488Y-43223927D01*
X32411258Y-43219000D01*
X32588742Y-43219000D01*
X32613512Y-43223927D01*
G37*
G36*
X71056627Y-39507037D02*
G01*
X71226466Y-39558557D01*
X71382991Y-39642222D01*
X71418729Y-39671552D01*
X71520186Y-39754814D01*
X71588828Y-39838456D01*
X71632778Y-39892009D01*
X71716443Y-40048534D01*
X71767963Y-40218373D01*
X71781000Y-40350742D01*
X71781000Y-41739258D01*
X71767963Y-41871627D01*
X71716443Y-42041466D01*
X71632778Y-42197991D01*
X71603448Y-42233729D01*
X71520186Y-42335186D01*
X71382989Y-42447779D01*
X71226467Y-42531442D01*
X71226465Y-42531443D01*
X71056626Y-42582963D01*
X70880000Y-42600359D01*
X70703373Y-42582963D01*
X70533534Y-42531443D01*
X70377009Y-42447778D01*
X70341271Y-42418448D01*
X70239814Y-42335186D01*
X70127221Y-42197989D01*
X70043558Y-42041467D01*
X70033036Y-42006782D01*
X69992037Y-41871626D01*
X69979000Y-41739257D01*
X69979001Y-40350742D01*
X69992038Y-40218373D01*
X70043558Y-40048534D01*
X70127223Y-39892009D01*
X70171173Y-39838456D01*
X70239815Y-39754814D01*
X70341272Y-39671552D01*
X70377010Y-39642222D01*
X70533535Y-39558557D01*
X70703374Y-39507037D01*
X70880000Y-39489641D01*
X71056627Y-39507037D01*
G37*
G36*
X68516627Y-39507037D02*
G01*
X68686466Y-39558557D01*
X68842991Y-39642222D01*
X68878729Y-39671552D01*
X68980186Y-39754814D01*
X69048828Y-39838456D01*
X69092778Y-39892009D01*
X69176443Y-40048534D01*
X69227963Y-40218373D01*
X69241000Y-40350742D01*
X69241000Y-41739258D01*
X69227963Y-41871627D01*
X69176443Y-42041466D01*
X69092778Y-42197991D01*
X69063448Y-42233729D01*
X68980186Y-42335186D01*
X68842989Y-42447779D01*
X68686467Y-42531442D01*
X68686465Y-42531443D01*
X68516626Y-42582963D01*
X68340000Y-42600359D01*
X68163373Y-42582963D01*
X67993534Y-42531443D01*
X67837009Y-42447778D01*
X67801271Y-42418448D01*
X67699814Y-42335186D01*
X67587221Y-42197989D01*
X67503558Y-42041467D01*
X67493036Y-42006782D01*
X67452037Y-41871626D01*
X67439000Y-41739257D01*
X67439001Y-40350742D01*
X67452038Y-40218373D01*
X67503558Y-40048534D01*
X67587223Y-39892009D01*
X67631173Y-39838456D01*
X67699815Y-39754814D01*
X67801272Y-39671552D01*
X67837010Y-39642222D01*
X67993535Y-39558557D01*
X68163374Y-39507037D01*
X68340000Y-39489641D01*
X68516627Y-39507037D01*
G37*
G36*
X65976627Y-39507037D02*
G01*
X66146466Y-39558557D01*
X66302991Y-39642222D01*
X66338729Y-39671552D01*
X66440186Y-39754814D01*
X66508828Y-39838456D01*
X66552778Y-39892009D01*
X66636443Y-40048534D01*
X66687963Y-40218373D01*
X66701000Y-40350742D01*
X66701000Y-41739258D01*
X66687963Y-41871627D01*
X66636443Y-42041466D01*
X66552778Y-42197991D01*
X66523448Y-42233729D01*
X66440186Y-42335186D01*
X66302989Y-42447779D01*
X66146467Y-42531442D01*
X66146465Y-42531443D01*
X65976626Y-42582963D01*
X65800000Y-42600359D01*
X65623373Y-42582963D01*
X65453534Y-42531443D01*
X65297009Y-42447778D01*
X65261271Y-42418448D01*
X65159814Y-42335186D01*
X65047221Y-42197989D01*
X64963558Y-42041467D01*
X64953036Y-42006782D01*
X64912037Y-41871626D01*
X64899000Y-41739257D01*
X64899001Y-40350742D01*
X64912038Y-40218373D01*
X64963558Y-40048534D01*
X65047223Y-39892009D01*
X65091173Y-39838456D01*
X65159815Y-39754814D01*
X65261272Y-39671552D01*
X65297010Y-39642222D01*
X65453535Y-39558557D01*
X65623374Y-39507037D01*
X65800000Y-39489641D01*
X65976627Y-39507037D01*
G37*
G36*
X63436627Y-39507037D02*
G01*
X63606466Y-39558557D01*
X63762991Y-39642222D01*
X63798729Y-39671552D01*
X63900186Y-39754814D01*
X63968828Y-39838456D01*
X64012778Y-39892009D01*
X64096443Y-40048534D01*
X64147963Y-40218373D01*
X64161000Y-40350742D01*
X64161000Y-41739258D01*
X64147963Y-41871627D01*
X64096443Y-42041466D01*
X64012778Y-42197991D01*
X63983448Y-42233729D01*
X63900186Y-42335186D01*
X63762989Y-42447779D01*
X63606467Y-42531442D01*
X63606465Y-42531443D01*
X63436626Y-42582963D01*
X63260000Y-42600359D01*
X63083373Y-42582963D01*
X62913534Y-42531443D01*
X62757009Y-42447778D01*
X62721271Y-42418448D01*
X62619814Y-42335186D01*
X62507221Y-42197989D01*
X62423558Y-42041467D01*
X62413036Y-42006782D01*
X62372037Y-41871626D01*
X62359000Y-41739257D01*
X62359001Y-40350742D01*
X62372038Y-40218373D01*
X62423558Y-40048534D01*
X62507223Y-39892009D01*
X62551173Y-39838456D01*
X62619815Y-39754814D01*
X62721272Y-39671552D01*
X62757010Y-39642222D01*
X62913535Y-39558557D01*
X63083374Y-39507037D01*
X63260000Y-39489641D01*
X63436627Y-39507037D01*
G37*
G36*
X60896627Y-39507037D02*
G01*
X61066466Y-39558557D01*
X61222991Y-39642222D01*
X61258729Y-39671552D01*
X61360186Y-39754814D01*
X61428828Y-39838456D01*
X61472778Y-39892009D01*
X61556443Y-40048534D01*
X61607963Y-40218373D01*
X61621000Y-40350742D01*
X61621000Y-41739258D01*
X61607963Y-41871627D01*
X61556443Y-42041466D01*
X61472778Y-42197991D01*
X61443448Y-42233729D01*
X61360186Y-42335186D01*
X61222989Y-42447779D01*
X61066467Y-42531442D01*
X61066465Y-42531443D01*
X60896626Y-42582963D01*
X60720000Y-42600359D01*
X60543373Y-42582963D01*
X60373534Y-42531443D01*
X60217009Y-42447778D01*
X60181271Y-42418448D01*
X60079814Y-42335186D01*
X59967221Y-42197989D01*
X59883558Y-42041467D01*
X59873036Y-42006782D01*
X59832037Y-41871626D01*
X59819000Y-41739257D01*
X59819001Y-40350742D01*
X59832038Y-40218373D01*
X59883558Y-40048534D01*
X59967223Y-39892009D01*
X60011173Y-39838456D01*
X60079815Y-39754814D01*
X60181272Y-39671552D01*
X60217010Y-39642222D01*
X60373535Y-39558557D01*
X60543374Y-39507037D01*
X60720000Y-39489641D01*
X60896627Y-39507037D01*
G37*
G36*
X73596627Y-39507037D02*
G01*
X73766466Y-39558557D01*
X73922991Y-39642222D01*
X73958729Y-39671552D01*
X74060186Y-39754814D01*
X74128828Y-39838456D01*
X74172778Y-39892009D01*
X74256443Y-40048534D01*
X74307963Y-40218373D01*
X74321000Y-40350742D01*
X74321000Y-41739258D01*
X74307963Y-41871627D01*
X74256443Y-42041466D01*
X74172778Y-42197991D01*
X74143448Y-42233729D01*
X74060186Y-42335186D01*
X73922989Y-42447779D01*
X73766467Y-42531442D01*
X73766465Y-42531443D01*
X73596626Y-42582963D01*
X73420000Y-42600359D01*
X73243373Y-42582963D01*
X73073534Y-42531443D01*
X72917009Y-42447778D01*
X72881271Y-42418448D01*
X72779814Y-42335186D01*
X72667221Y-42197989D01*
X72583558Y-42041467D01*
X72573036Y-42006782D01*
X72532037Y-41871626D01*
X72519000Y-41739257D01*
X72519001Y-40350742D01*
X72532038Y-40218373D01*
X72583558Y-40048534D01*
X72667223Y-39892009D01*
X72711173Y-39838456D01*
X72779815Y-39754814D01*
X72881272Y-39671552D01*
X72917010Y-39642222D01*
X73073535Y-39558557D01*
X73243374Y-39507037D01*
X73420000Y-39489641D01*
X73596627Y-39507037D01*
G37*
G36*
X76136627Y-39507037D02*
G01*
X76306466Y-39558557D01*
X76462991Y-39642222D01*
X76498729Y-39671552D01*
X76600186Y-39754814D01*
X76668828Y-39838456D01*
X76712778Y-39892009D01*
X76796443Y-40048534D01*
X76847963Y-40218373D01*
X76861000Y-40350742D01*
X76861000Y-41739258D01*
X76847963Y-41871627D01*
X76796443Y-42041466D01*
X76712778Y-42197991D01*
X76683448Y-42233729D01*
X76600186Y-42335186D01*
X76462989Y-42447779D01*
X76306467Y-42531442D01*
X76306465Y-42531443D01*
X76136626Y-42582963D01*
X75960000Y-42600359D01*
X75783373Y-42582963D01*
X75613534Y-42531443D01*
X75457009Y-42447778D01*
X75421271Y-42418448D01*
X75319814Y-42335186D01*
X75207221Y-42197989D01*
X75123558Y-42041467D01*
X75113036Y-42006782D01*
X75072037Y-41871626D01*
X75059000Y-41739257D01*
X75059001Y-40350742D01*
X75072038Y-40218373D01*
X75123558Y-40048534D01*
X75207223Y-39892009D01*
X75251173Y-39838456D01*
X75319815Y-39754814D01*
X75421272Y-39671552D01*
X75457010Y-39642222D01*
X75613535Y-39558557D01*
X75783374Y-39507037D01*
X75960000Y-39489641D01*
X76136627Y-39507037D01*
G37*
G36*
X78676627Y-39507037D02*
G01*
X78846466Y-39558557D01*
X79002991Y-39642222D01*
X79038729Y-39671552D01*
X79140186Y-39754814D01*
X79208828Y-39838456D01*
X79252778Y-39892009D01*
X79336443Y-40048534D01*
X79387963Y-40218373D01*
X79401000Y-40350742D01*
X79401000Y-41739258D01*
X79387963Y-41871627D01*
X79336443Y-42041466D01*
X79252778Y-42197991D01*
X79223448Y-42233729D01*
X79140186Y-42335186D01*
X79002989Y-42447779D01*
X78846467Y-42531442D01*
X78846465Y-42531443D01*
X78676626Y-42582963D01*
X78500000Y-42600359D01*
X78323373Y-42582963D01*
X78153534Y-42531443D01*
X77997009Y-42447778D01*
X77961271Y-42418448D01*
X77859814Y-42335186D01*
X77747221Y-42197989D01*
X77663558Y-42041467D01*
X77653036Y-42006782D01*
X77612037Y-41871626D01*
X77599000Y-41739257D01*
X77599001Y-40350742D01*
X77612038Y-40218373D01*
X77663558Y-40048534D01*
X77747223Y-39892009D01*
X77791173Y-39838456D01*
X77859815Y-39754814D01*
X77961272Y-39671552D01*
X77997010Y-39642222D01*
X78153535Y-39558557D01*
X78323374Y-39507037D01*
X78500000Y-39489641D01*
X78676627Y-39507037D01*
G37*
G36*
X83756627Y-39507037D02*
G01*
X83926466Y-39558557D01*
X84082991Y-39642222D01*
X84118729Y-39671552D01*
X84220186Y-39754814D01*
X84288828Y-39838456D01*
X84332778Y-39892009D01*
X84416443Y-40048534D01*
X84467963Y-40218373D01*
X84481000Y-40350742D01*
X84481000Y-41739258D01*
X84467963Y-41871627D01*
X84416443Y-42041466D01*
X84332778Y-42197991D01*
X84303448Y-42233729D01*
X84220186Y-42335186D01*
X84082989Y-42447779D01*
X83926467Y-42531442D01*
X83926465Y-42531443D01*
X83756626Y-42582963D01*
X83580000Y-42600359D01*
X83403373Y-42582963D01*
X83233534Y-42531443D01*
X83077009Y-42447778D01*
X83041271Y-42418448D01*
X82939814Y-42335186D01*
X82827221Y-42197989D01*
X82743558Y-42041467D01*
X82733036Y-42006782D01*
X82692037Y-41871626D01*
X82679000Y-41739257D01*
X82679001Y-40350742D01*
X82692038Y-40218373D01*
X82743558Y-40048534D01*
X82827223Y-39892009D01*
X82871173Y-39838456D01*
X82939815Y-39754814D01*
X83041272Y-39671552D01*
X83077010Y-39642222D01*
X83233535Y-39558557D01*
X83403374Y-39507037D01*
X83580000Y-39489641D01*
X83756627Y-39507037D01*
G37*
G36*
X48196627Y-39507037D02*
G01*
X48366466Y-39558557D01*
X48522991Y-39642222D01*
X48558729Y-39671552D01*
X48660186Y-39754814D01*
X48728828Y-39838456D01*
X48772778Y-39892009D01*
X48856443Y-40048534D01*
X48907963Y-40218373D01*
X48921000Y-40350742D01*
X48921000Y-41739258D01*
X48907963Y-41871627D01*
X48856443Y-42041466D01*
X48772778Y-42197991D01*
X48743448Y-42233729D01*
X48660186Y-42335186D01*
X48522989Y-42447779D01*
X48366467Y-42531442D01*
X48366465Y-42531443D01*
X48196626Y-42582963D01*
X48020000Y-42600359D01*
X47843373Y-42582963D01*
X47673534Y-42531443D01*
X47517009Y-42447778D01*
X47481271Y-42418448D01*
X47379814Y-42335186D01*
X47267221Y-42197989D01*
X47183558Y-42041467D01*
X47173036Y-42006782D01*
X47132037Y-41871626D01*
X47119000Y-41739257D01*
X47119001Y-40350742D01*
X47132038Y-40218373D01*
X47183558Y-40048534D01*
X47267223Y-39892009D01*
X47311173Y-39838456D01*
X47379815Y-39754814D01*
X47481272Y-39671552D01*
X47517010Y-39642222D01*
X47673535Y-39558557D01*
X47843374Y-39507037D01*
X48020000Y-39489641D01*
X48196627Y-39507037D01*
G37*
G36*
X81216627Y-39507037D02*
G01*
X81386466Y-39558557D01*
X81542991Y-39642222D01*
X81578729Y-39671552D01*
X81680186Y-39754814D01*
X81748828Y-39838456D01*
X81792778Y-39892009D01*
X81876443Y-40048534D01*
X81927963Y-40218373D01*
X81941000Y-40350742D01*
X81941000Y-41739258D01*
X81927963Y-41871627D01*
X81876443Y-42041466D01*
X81792778Y-42197991D01*
X81763448Y-42233729D01*
X81680186Y-42335186D01*
X81542989Y-42447779D01*
X81386467Y-42531442D01*
X81386465Y-42531443D01*
X81216626Y-42582963D01*
X81040000Y-42600359D01*
X80863373Y-42582963D01*
X80693534Y-42531443D01*
X80537009Y-42447778D01*
X80501271Y-42418448D01*
X80399814Y-42335186D01*
X80287221Y-42197989D01*
X80203558Y-42041467D01*
X80193036Y-42006782D01*
X80152037Y-41871626D01*
X80139000Y-41739257D01*
X80139001Y-40350742D01*
X80152038Y-40218373D01*
X80203558Y-40048534D01*
X80287223Y-39892009D01*
X80331173Y-39838456D01*
X80399815Y-39754814D01*
X80501272Y-39671552D01*
X80537010Y-39642222D01*
X80693535Y-39558557D01*
X80863374Y-39507037D01*
X81040000Y-39489641D01*
X81216627Y-39507037D01*
G37*
G36*
X50736627Y-39507037D02*
G01*
X50906466Y-39558557D01*
X51062991Y-39642222D01*
X51098729Y-39671552D01*
X51200186Y-39754814D01*
X51268828Y-39838456D01*
X51312778Y-39892009D01*
X51396443Y-40048534D01*
X51447963Y-40218373D01*
X51461000Y-40350742D01*
X51461000Y-41739258D01*
X51447963Y-41871627D01*
X51396443Y-42041466D01*
X51312778Y-42197991D01*
X51283448Y-42233729D01*
X51200186Y-42335186D01*
X51062989Y-42447779D01*
X50906467Y-42531442D01*
X50906465Y-42531443D01*
X50736626Y-42582963D01*
X50560000Y-42600359D01*
X50383373Y-42582963D01*
X50213534Y-42531443D01*
X50057009Y-42447778D01*
X50021271Y-42418448D01*
X49919814Y-42335186D01*
X49807221Y-42197989D01*
X49723558Y-42041467D01*
X49713036Y-42006782D01*
X49672037Y-41871626D01*
X49659000Y-41739257D01*
X49659001Y-40350742D01*
X49672038Y-40218373D01*
X49723558Y-40048534D01*
X49807223Y-39892009D01*
X49851173Y-39838456D01*
X49919815Y-39754814D01*
X50021272Y-39671552D01*
X50057010Y-39642222D01*
X50213535Y-39558557D01*
X50383374Y-39507037D01*
X50560000Y-39489641D01*
X50736627Y-39507037D01*
G37*
G36*
X53276627Y-39507037D02*
G01*
X53446466Y-39558557D01*
X53602991Y-39642222D01*
X53638729Y-39671552D01*
X53740186Y-39754814D01*
X53808828Y-39838456D01*
X53852778Y-39892009D01*
X53936443Y-40048534D01*
X53987963Y-40218373D01*
X54001000Y-40350742D01*
X54001000Y-41739258D01*
X53987963Y-41871627D01*
X53936443Y-42041466D01*
X53852778Y-42197991D01*
X53823448Y-42233729D01*
X53740186Y-42335186D01*
X53602989Y-42447779D01*
X53446467Y-42531442D01*
X53446465Y-42531443D01*
X53276626Y-42582963D01*
X53100000Y-42600359D01*
X52923373Y-42582963D01*
X52753534Y-42531443D01*
X52597009Y-42447778D01*
X52561271Y-42418448D01*
X52459814Y-42335186D01*
X52347221Y-42197989D01*
X52263558Y-42041467D01*
X52253036Y-42006782D01*
X52212037Y-41871626D01*
X52199000Y-41739257D01*
X52199001Y-40350742D01*
X52212038Y-40218373D01*
X52263558Y-40048534D01*
X52347223Y-39892009D01*
X52391173Y-39838456D01*
X52459815Y-39754814D01*
X52561272Y-39671552D01*
X52597010Y-39642222D01*
X52753535Y-39558557D01*
X52923374Y-39507037D01*
X53100000Y-39489641D01*
X53276627Y-39507037D01*
G37*
G36*
X55816627Y-39507037D02*
G01*
X55986466Y-39558557D01*
X56142991Y-39642222D01*
X56178729Y-39671552D01*
X56280186Y-39754814D01*
X56348828Y-39838456D01*
X56392778Y-39892009D01*
X56476443Y-40048534D01*
X56527963Y-40218373D01*
X56541000Y-40350742D01*
X56541000Y-41739258D01*
X56527963Y-41871627D01*
X56476443Y-42041466D01*
X56392778Y-42197991D01*
X56363448Y-42233729D01*
X56280186Y-42335186D01*
X56142989Y-42447779D01*
X55986467Y-42531442D01*
X55986465Y-42531443D01*
X55816626Y-42582963D01*
X55640000Y-42600359D01*
X55463373Y-42582963D01*
X55293534Y-42531443D01*
X55137009Y-42447778D01*
X55101271Y-42418448D01*
X54999814Y-42335186D01*
X54887221Y-42197989D01*
X54803558Y-42041467D01*
X54793036Y-42006782D01*
X54752037Y-41871626D01*
X54739000Y-41739257D01*
X54739001Y-40350742D01*
X54752038Y-40218373D01*
X54803558Y-40048534D01*
X54887223Y-39892009D01*
X54931173Y-39838456D01*
X54999815Y-39754814D01*
X55101272Y-39671552D01*
X55137010Y-39642222D01*
X55293535Y-39558557D01*
X55463374Y-39507037D01*
X55640000Y-39489641D01*
X55816627Y-39507037D01*
G37*
G36*
X58356627Y-39507037D02*
G01*
X58526466Y-39558557D01*
X58682991Y-39642222D01*
X58718729Y-39671552D01*
X58820186Y-39754814D01*
X58888828Y-39838456D01*
X58932778Y-39892009D01*
X59016443Y-40048534D01*
X59067963Y-40218373D01*
X59081000Y-40350742D01*
X59081000Y-41739258D01*
X59067963Y-41871627D01*
X59016443Y-42041466D01*
X58932778Y-42197991D01*
X58903448Y-42233729D01*
X58820186Y-42335186D01*
X58682989Y-42447779D01*
X58526467Y-42531442D01*
X58526465Y-42531443D01*
X58356626Y-42582963D01*
X58180000Y-42600359D01*
X58003373Y-42582963D01*
X57833534Y-42531443D01*
X57677009Y-42447778D01*
X57641271Y-42418448D01*
X57539814Y-42335186D01*
X57427221Y-42197989D01*
X57343558Y-42041467D01*
X57333036Y-42006782D01*
X57292037Y-41871626D01*
X57279000Y-41739257D01*
X57279001Y-40350742D01*
X57292038Y-40218373D01*
X57343558Y-40048534D01*
X57427223Y-39892009D01*
X57471173Y-39838456D01*
X57539815Y-39754814D01*
X57641272Y-39671552D01*
X57677010Y-39642222D01*
X57833535Y-39558557D01*
X58003374Y-39507037D01*
X58180000Y-39489641D01*
X58356627Y-39507037D01*
G37*
G36*
X32613512Y-40683927D02*
G01*
X32762812Y-40713624D01*
X32926784Y-40781544D01*
X33074354Y-40880147D01*
X33199853Y-41005646D01*
X33298456Y-41153216D01*
X33366376Y-41317188D01*
X33401000Y-41491259D01*
X33401000Y-41668741D01*
X33366376Y-41842812D01*
X33298456Y-42006784D01*
X33199853Y-42154354D01*
X33074354Y-42279853D01*
X32926784Y-42378456D01*
X32762812Y-42446376D01*
X32613512Y-42476073D01*
X32588742Y-42481000D01*
X32411258Y-42481000D01*
X32386488Y-42476073D01*
X32237188Y-42446376D01*
X32073216Y-42378456D01*
X31925646Y-42279853D01*
X31800147Y-42154354D01*
X31701544Y-42006784D01*
X31633624Y-41842812D01*
X31599000Y-41668741D01*
X31599000Y-41491259D01*
X31633624Y-41317188D01*
X31701544Y-41153216D01*
X31800147Y-41005646D01*
X31925646Y-40880147D01*
X32073216Y-40781544D01*
X32237188Y-40713624D01*
X32386488Y-40683927D01*
X32411258Y-40679000D01*
X32588742Y-40679000D01*
X32613512Y-40683927D01*
G37*
G36*
X32613512Y-38143927D02*
G01*
X32762812Y-38173624D01*
X32926784Y-38241544D01*
X33074354Y-38340147D01*
X33199853Y-38465646D01*
X33298456Y-38613216D01*
X33366376Y-38777188D01*
X33401000Y-38951259D01*
X33401000Y-39128741D01*
X33366376Y-39302812D01*
X33298456Y-39466784D01*
X33199853Y-39614354D01*
X33074354Y-39739853D01*
X32926784Y-39838456D01*
X32762812Y-39906376D01*
X32613512Y-39936073D01*
X32588742Y-39941000D01*
X32411258Y-39941000D01*
X32386488Y-39936073D01*
X32237188Y-39906376D01*
X32073216Y-39838456D01*
X31925646Y-39739853D01*
X31800147Y-39614354D01*
X31701544Y-39466784D01*
X31633624Y-39302812D01*
X31599000Y-39128741D01*
X31599000Y-38951259D01*
X31633624Y-38777188D01*
X31701544Y-38613216D01*
X31800147Y-38465646D01*
X31925646Y-38340147D01*
X32073216Y-38241544D01*
X32237188Y-38173624D01*
X32386488Y-38143927D01*
X32411258Y-38139000D01*
X32588742Y-38139000D01*
X32613512Y-38143927D01*
G37*
G36*
X83673512Y-35903927D02*
G01*
X83822812Y-35933624D01*
X83986784Y-36001544D01*
X84134354Y-36100147D01*
X84259853Y-36225646D01*
X84358456Y-36373216D01*
X84426376Y-36537188D01*
X84461000Y-36711259D01*
X84461000Y-36888741D01*
X84426376Y-37062812D01*
X84358456Y-37226784D01*
X84259853Y-37374354D01*
X84134354Y-37499853D01*
X83986784Y-37598456D01*
X83822812Y-37666376D01*
X83673512Y-37696073D01*
X83648742Y-37701000D01*
X83471258Y-37701000D01*
X83446488Y-37696073D01*
X83297188Y-37666376D01*
X83133216Y-37598456D01*
X82985646Y-37499853D01*
X82860147Y-37374354D01*
X82761544Y-37226784D01*
X82693624Y-37062812D01*
X82659000Y-36888741D01*
X82659000Y-36711259D01*
X82693624Y-36537188D01*
X82761544Y-36373216D01*
X82860147Y-36225646D01*
X82985646Y-36100147D01*
X83133216Y-36001544D01*
X83297188Y-35933624D01*
X83446488Y-35903927D01*
X83471258Y-35899000D01*
X83648742Y-35899000D01*
X83673512Y-35903927D01*
G37*
G36*
X81133512Y-35903927D02*
G01*
X81282812Y-35933624D01*
X81446784Y-36001544D01*
X81594354Y-36100147D01*
X81719853Y-36225646D01*
X81818456Y-36373216D01*
X81886376Y-36537188D01*
X81921000Y-36711259D01*
X81921000Y-36888741D01*
X81886376Y-37062812D01*
X81818456Y-37226784D01*
X81719853Y-37374354D01*
X81594354Y-37499853D01*
X81446784Y-37598456D01*
X81282812Y-37666376D01*
X81133512Y-37696073D01*
X81108742Y-37701000D01*
X80931258Y-37701000D01*
X80906488Y-37696073D01*
X80757188Y-37666376D01*
X80593216Y-37598456D01*
X80445646Y-37499853D01*
X80320147Y-37374354D01*
X80221544Y-37226784D01*
X80153624Y-37062812D01*
X80119000Y-36888741D01*
X80119000Y-36711259D01*
X80153624Y-36537188D01*
X80221544Y-36373216D01*
X80320147Y-36225646D01*
X80445646Y-36100147D01*
X80593216Y-36001544D01*
X80757188Y-35933624D01*
X80906488Y-35903927D01*
X80931258Y-35899000D01*
X81108742Y-35899000D01*
X81133512Y-35903927D01*
G37*
G36*
X87001000Y-37701000D02*
G01*
X85199000Y-37701000D01*
X85199000Y-35899000D01*
X87001000Y-35899000D01*
X87001000Y-37701000D01*
G37*
G36*
X78593512Y-35903927D02*
G01*
X78742812Y-35933624D01*
X78906784Y-36001544D01*
X79054354Y-36100147D01*
X79179853Y-36225646D01*
X79278456Y-36373216D01*
X79346376Y-36537188D01*
X79381000Y-36711259D01*
X79381000Y-36888741D01*
X79346376Y-37062812D01*
X79278456Y-37226784D01*
X79179853Y-37374354D01*
X79054354Y-37499853D01*
X78906784Y-37598456D01*
X78742812Y-37666376D01*
X78593512Y-37696073D01*
X78568742Y-37701000D01*
X78391258Y-37701000D01*
X78366488Y-37696073D01*
X78217188Y-37666376D01*
X78053216Y-37598456D01*
X77905646Y-37499853D01*
X77780147Y-37374354D01*
X77681544Y-37226784D01*
X77613624Y-37062812D01*
X77579000Y-36888741D01*
X77579000Y-36711259D01*
X77613624Y-36537188D01*
X77681544Y-36373216D01*
X77780147Y-36225646D01*
X77905646Y-36100147D01*
X78053216Y-36001544D01*
X78217188Y-35933624D01*
X78366488Y-35903927D01*
X78391258Y-35899000D01*
X78568742Y-35899000D01*
X78593512Y-35903927D01*
G37*
G36*
X33401000Y-37401000D02*
G01*
X31599000Y-37401000D01*
X31599000Y-35599000D01*
X33401000Y-35599000D01*
X33401000Y-37401000D01*
G37*
G36*
X32975256Y-30991298D02*
G01*
X33081579Y-31012447D01*
X33382042Y-31136903D01*
X33652451Y-31317585D01*
X33882415Y-31547549D01*
X34063097Y-31817958D01*
X34187553Y-32118421D01*
X34251000Y-32437391D01*
X34251000Y-32762609D01*
X34187553Y-33081579D01*
X34063097Y-33382042D01*
X33882415Y-33652451D01*
X33652451Y-33882415D01*
X33382042Y-34063097D01*
X33081579Y-34187553D01*
X32975256Y-34208702D01*
X32762611Y-34251000D01*
X32437389Y-34251000D01*
X32224744Y-34208702D01*
X32118421Y-34187553D01*
X31817958Y-34063097D01*
X31547549Y-33882415D01*
X31317585Y-33652451D01*
X31136903Y-33382042D01*
X31012447Y-33081579D01*
X30949000Y-32762609D01*
X30949000Y-32437391D01*
X31012447Y-32118421D01*
X31136903Y-31817958D01*
X31317585Y-31547549D01*
X31547549Y-31317585D01*
X31817958Y-31136903D01*
X32118421Y-31012447D01*
X32224744Y-30991298D01*
X32437389Y-30949000D01*
X32762611Y-30949000D01*
X32975256Y-30991298D01*
G37*
G36*
X90275256Y-30991298D02*
G01*
X90381579Y-31012447D01*
X90682042Y-31136903D01*
X90952451Y-31317585D01*
X91182415Y-31547549D01*
X91363097Y-31817958D01*
X91487553Y-32118421D01*
X91551000Y-32437391D01*
X91551000Y-32762609D01*
X91487553Y-33081579D01*
X91363097Y-33382042D01*
X91182415Y-33652451D01*
X90952451Y-33882415D01*
X90682042Y-34063097D01*
X90381579Y-34187553D01*
X90275256Y-34208702D01*
X90062611Y-34251000D01*
X89737389Y-34251000D01*
X89524744Y-34208702D01*
X89418421Y-34187553D01*
X89117958Y-34063097D01*
X88847549Y-33882415D01*
X88617585Y-33652451D01*
X88436903Y-33382042D01*
X88312447Y-33081579D01*
X88249000Y-32762609D01*
X88249000Y-32437391D01*
X88312447Y-32118421D01*
X88436903Y-31817958D01*
X88617585Y-31547549D01*
X88847549Y-31317585D01*
X89117958Y-31136903D01*
X89418421Y-31012447D01*
X89524744Y-30991298D01*
X89737389Y-30949000D01*
X90062611Y-30949000D01*
X90275256Y-30991298D01*
G37*
M02*
